<?xml version="1.0" encoding="utf-8"?>
<!-- Generator: Adobe Illustrator 26.3.1, SVG Export Plug-In . SVG Version: 6.00 Build 0)  -->
<svg version="1.1" id="Layer_1" xmlns="http://www.w3.org/2000/svg" xmlns:xlink="http://www.w3.org/1999/xlink" x="0px" y="0px"
	 viewBox="0 0 194.6 188.5" style="enable-background:new 0 0 194.6 188.5;" xml:space="preserve">
<style type="text/css">
	.st0{fill:#00042A;}
	.st1{fill:url(#SVGID_1_);}
	.st2{fill:url(#SVGID_00000018950616581461100490000016656548842244353983_);}
	.st3{fill:#FFFFFF;}
	.st4{fill:url(#SVGID_00000026126782000277197260000001817324568654377871_);}
	.st5{fill:url(#SVGID_00000024721100929445190690000005714743124789500040_);}
	.st6{fill:url(#SVGID_00000117647956511666504700000015869489837062339977_);}
	.st7{fill:url(#SVGID_00000029746457743490962520000001167792501908979856_);}
	.st8{fill:url(#SVGID_00000092435369623955175120000017305519951901581444_);}
</style>
<image style="overflow:visible;" width="1875" height="897" xlink:href="Screenshot 2022-06-02 124551.jpg"  transform="matrix(1.0231 0 0 1.0231 -396.7208 559.3985)">
</image>
<rect x="-397.5" y="807.4" class="st0" width="1920" height="1080"/>
<linearGradient id="SVGID_1_" gradientUnits="userSpaceOnUse" x1="77.804" y1="1124.2971" x2="1412.382" y2="1124.2971">
	<stop  offset="0" style="stop-color:#EC0AFA"/>
	<stop  offset="0.1686" style="stop-color:#C62DF7"/>
	<stop  offset="0.3886" style="stop-color:#9956F3"/>
	<stop  offset="0.5" style="stop-color:#8866F1"/>
	<stop  offset="0.5695" style="stop-color:#806DF0"/>
	<stop  offset="0.6795" style="stop-color:#6981ED"/>
	<stop  offset="0.8163" style="stop-color:#44A1E7"/>
	<stop  offset="0.9731" style="stop-color:#11CDE0"/>
	<stop  offset="1" style="stop-color:#07D5DF"/>
</linearGradient>
<path class="st1" d="M79.8,975.3c-0.5,0-1-0.2-1.4-0.6c-0.4-0.4-0.6-0.9-0.6-1.4c0-0.3,0.1-0.5,0.2-0.8c0.1-0.2,0.2-0.5,0.4-0.6
	c0.8-0.8,2.1-0.8,2.8,0c0.4,0.4,0.6,0.9,0.6,1.4c0,0.5-0.2,1-0.6,1.4C80.8,975,80.3,975.3,79.8,975.3z M91,1276.9L91,1276.9
	c1.1-0.1,1.9-1,1.9-2.2l0,0c-0.1-1.1-1.1-1.9-2.2-1.8l0,0c-1.1,0.1-1.9,1.1-1.8,2.2l0,0C89,1276.2,89.9,1277,91,1276.9L91,1276.9z
	 M101.6,1275.8L101.6,1275.8c0.1,0,0.2,0,0.3,0l0,0c1.1-0.2,1.8-1.2,1.7-2.2l0,0c-0.2-1.1-1.2-1.9-2.3-1.7l0,0
	c-1.1,0.2-1.8,1.2-1.7,2.3C99.7,1275.1,100.6,1275.8,101.6,1275.8z M112.2,1273.9L112.2,1273.9c0.1,0,0.3,0,0.4-0.1l0,0l0,0l0,0
	c1.1-0.2,1.8-1.3,1.5-2.4l0,0c-0.2-1.1-1.3-1.8-2.4-1.5l0,0c-1.1,0.2-1.8,1.3-1.5,2.4C110.4,1273.2,111.3,1273.9,112.2,1273.9z
	 M122.6,1271.2L122.6,1271.2c0.2,0,0.4,0,0.6-0.1l0,0c1.1-0.3,1.7-1.4,1.3-2.5l0,0c-0.3-1.1-1.4-1.7-2.5-1.4l0,0
	c-1.1,0.3-1.7,1.4-1.3,2.5C121,1270.6,121.7,1271.2,122.6,1271.2z M132.8,1267.8L132.8,1267.8c0.2,0,0.5-0.1,0.7-0.2l0,0
	c0,0,0,0,0,0l0,0c1.1-0.4,1.6-1.5,1.2-2.6l0,0c-0.4-1-1.5-1.5-2.6-1.2l0,0c-1,0.4-1.6,1.5-1.2,2.6
	C131.3,1267.3,132.1,1267.8,132.8,1267.8z M142.8,1263.6L142.8,1263.6c0.3,0,0.6-0.1,0.8-0.2l0,0l0,0l0,0c1-0.5,1.5-1.7,1-2.7l0,0
	c-0.5-1-1.6-1.5-2.6-1l0,0c-1,0.5-1.5,1.6-1,2.7C141.3,1263.2,142,1263.6,142.8,1263.6z M152.4,1258.8L152.4,1258.8
	c0.3,0,0.6-0.1,0.9-0.2l0,0c1-0.5,1.3-1.8,0.8-2.7l0,0c-0.5-1-1.8-1.3-2.7-0.8l0,0c-1,0.5-1.3,1.8-0.8,2.7
	C151,1258.4,151.7,1258.8,152.4,1258.8z M161.7,1253.3L161.7,1253.3c0.4,0,0.7-0.1,1.1-0.3l0,0c0.9-0.6,1.2-1.8,0.6-2.8l0,0
	c-0.6-0.9-1.8-1.2-2.8-0.6l0,0c-0.9,0.6-1.2,1.8-0.6,2.8C160.4,1253,161,1253.3,161.7,1253.3z M170.5,1247.1L170.5,1247.1
	c0.4,0,0.8-0.2,1.2-0.4l0,0c0.9-0.7,1.1-1.9,0.4-2.8l0,0c-0.7-0.9-1.9-1.1-2.8-0.4l0,0c-0.9,0.7-1.1,1.9-0.4,2.8
	C169.3,1246.8,169.9,1247.1,170.5,1247.1z M178.9,1240.3L178.9,1240.3c0.5,0,0.9-0.2,1.3-0.5l0,0c0.8-0.7,0.9-2,0.2-2.8l0,0
	c-0.7-0.8-2-0.9-2.9-0.2l0,0c-0.8,0.7-0.9,2-0.2,2.8C177.8,1240.1,178.3,1240.3,178.9,1240.3z M186.8,1233L186.8,1233
	c0.5,0,1-0.2,1.4-0.6l0,0l0,0l0,0c0.8-0.8,0.8-2.1,0-2.8l0,0c-0.8-0.8-2-0.8-2.8,0l0,0c-0.8,0.8-0.8,2,0,2.8
	C185.7,1232.8,186.2,1233,186.8,1233z M194.1,1225.1L194.1,1225.1c0.5,0,1.1-0.2,1.5-0.7l0,0c0.7-0.8,0.6-2.1-0.2-2.8l0,0
	c-0.8-0.7-2.1-0.6-2.8,0.2l0,0c-0.7,0.8-0.6,2.1,0.2,2.8C193.2,1224.9,193.6,1225.1,194.1,1225.1z M200.9,1216.7L200.9,1216.7
	c0.6,0,1.2-0.3,1.6-0.8l0,0c0.7-0.9,0.5-2.1-0.4-2.8l0,0c-0.9-0.7-2.1-0.5-2.8,0.4l0,0c-0.7,0.9-0.5,2.2,0.4,2.8
	C200,1216.6,200.4,1216.7,200.9,1216.7z M207,1207.8L207,1207.8c0.7,0,1.3-0.3,1.7-0.9l0,0c0.6-0.9,0.3-2.2-0.6-2.8l0,0
	c-0.9-0.6-2.2-0.3-2.8,0.6l0,0c-0.6,0.9-0.3,2.2,0.6,2.8C206.2,1207.7,206.6,1207.8,207,1207.8z M212.5,1198.5L212.5,1198.5
	c0.7,0,1.4-0.4,1.8-1l0,0c0.5-1,0.2-2.2-0.8-2.7l0,0c-1-0.5-2.2-0.2-2.7,0.8l0,0c-0.5,1-0.2,2.2,0.8,2.7
	C211.9,1198.5,212.2,1198.5,212.5,1198.5z M217.3,1188.9L217.3,1188.9c0.8,0,1.5-0.4,1.8-1.2l0,0c0.5-1,0-2.2-1-2.7l0,0
	c-1-0.5-2.2,0-2.7,1l0,0c-0.5,1,0,2.2,1,2.6C216.8,1188.8,217,1188.9,217.3,1188.9z M221.4,1178.9L221.4,1178.9
	c0.8,0,1.6-0.5,1.9-1.3l0,0c0.4-1-0.1-2.2-1.2-2.6l0,0c-1-0.4-2.2,0.2-2.6,1.2l0,0c-0.4,1,0.2,2.2,1.2,2.6
	C221,1178.9,221.2,1178.9,221.4,1178.9z M224.8,1168.7L224.8,1168.7c0.9,0,1.7-0.6,1.9-1.5l0,0c0.3-1.1-0.3-2.2-1.3-2.5l0,0
	c-1.1-0.3-2.2,0.3-2.5,1.4l0,0c-0.3,1.1,0.3,2.2,1.4,2.5C224.5,1168.7,224.6,1168.7,224.8,1168.7z M227.5,1158.2L227.5,1158.2
	c0.9,0,1.7-0.6,1.9-1.6l0,0l0,0l0,0c0.2-1.1-0.5-2.2-1.5-2.4l0,0c-1.1-0.2-2.2,0.5-2.4,1.5l0,0c-0.2,1.1,0.5,2.2,1.5,2.4
	C227.2,1158.2,227.3,1158.2,227.5,1158.2z M229.4,1147.6L229.4,1147.6c1,0,1.8-0.7,2-1.7l0,0c0.2-1.1-0.6-2.1-1.7-2.3l0,0
	c-1.1-0.2-2.1,0.6-2.3,1.7l0,0c-0.2,1.1,0.6,2.1,1.7,2.2C229.2,1147.6,229.3,1147.6,229.4,1147.6z M230.5,1136.9L230.5,1136.9
	c1.1,0,1.9-0.8,2-1.8l0,0c0.1-1.1-0.8-2.1-1.8-2.2l0,0c-1.1-0.1-2.1,0.8-2.2,1.9l0,0c-0.1,1.1,0.8,2.1,1.8,2.1
	C230.4,1136.9,230.5,1136.9,230.5,1136.9z M230.9,1126.2L230.9,1126.2c1.1,0,2-0.9,2-2l0,0l0,0l0,0c0-1.1-0.9-2-2-2l0,0
	c-1.1,0-2,0.9-2,2C228.9,1125.2,229.8,1126.2,230.9,1126.2z M230.5,1115.4L230.5,1115.4c0.1,0,0.1,0,0.2,0l0,0
	c1.1-0.1,1.9-1.1,1.8-2.2l0,0c-0.1-1.1-1-1.9-2.1-1.8l0,0c-1.1,0.1-1.9,1-1.9,2.1C228.6,1114.6,229.4,1115.4,230.5,1115.4z
	 M229.3,1104.7L229.3,1104.7c0.1,0,0.2,0,0.3,0l0,0c1.1-0.2,1.8-1.2,1.7-2.3l0,0c-0.2-1.1-1.2-1.9-2.3-1.7l0,0
	c-1.1,0.2-1.8,1.2-1.7,2.3C227.5,1103.9,228.3,1104.7,229.3,1104.7z M227.4,1094.1L227.4,1094.1c0.2,0,0.3,0,0.5,0l0,0
	c1.1-0.2,1.8-1.3,1.5-2.4l0,0c-0.2-1.1-1.3-1.8-2.4-1.5l0,0c-1.1,0.2-1.8,1.3-1.5,2.4l0,0C225.7,1093.4,226.5,1094.1,227.4,1094.1z
	 M224.7,1083.6L224.7,1083.6c0.2,0,0.4,0,0.6-0.1l0,0c1.1-0.3,1.7-1.4,1.4-2.5l0,0l0,0l0,0c-0.3-1.1-1.4-1.7-2.5-1.4l0,0
	c-1.1,0.3-1.7,1.4-1.4,2.5l0,0C223.1,1083.1,223.9,1083.6,224.7,1083.6z M221.3,1073.4L221.3,1073.4c0.2,0,0.5,0,0.7-0.1l0,0
	c1-0.4,1.6-1.5,1.2-2.6l0,0c-0.4-1-1.5-1.6-2.6-1.2l0,0c-1,0.4-1.6,1.5-1.2,2.6C219.8,1072.9,220.5,1073.4,221.3,1073.4z
	 M217.2,1063.4L217.2,1063.4c0.3,0,0.5,0,0.8-0.2l0,0c1-0.5,1.5-1.6,1-2.6l0,0l0,0l0,0c-0.5-1-1.7-1.5-2.7-1l0,0
	c-1,0.5-1.5,1.6-1,2.7C215.7,1063,216.5,1063.4,217.2,1063.4z M212.4,1053.8L212.4,1053.8c0.3,0,0.7-0.1,1-0.2l0,0
	c1-0.5,1.3-1.8,0.8-2.7l0,0c-0.5-1-1.7-1.3-2.7-0.8l0,0c-1,0.5-1.3,1.7-0.8,2.7C211,1053.4,211.7,1053.8,212.4,1053.8z
	 M206.9,1044.6L206.9,1044.6c0.4,0,0.7-0.1,1.1-0.3l0,0c0.9-0.6,1.2-1.8,0.6-2.8l0,0l0,0l0,0c-0.6-0.9-1.8-1.2-2.8-0.6l0,0
	c-0.9,0.6-1.2,1.8-0.6,2.8C205.6,1044.3,206.2,1044.6,206.9,1044.6z M200.7,1035.7L200.7,1035.7c0.4,0,0.8-0.2,1.2-0.4l0,0
	c0.9-0.7,1.1-1.9,0.4-2.8l0,0c-0.6-0.9-1.9-1.1-2.8-0.4l0,0c-0.9,0.6-1.1,1.9-0.4,2.8l0,0C199.5,1035.4,200.1,1035.7,200.7,1035.7z
	 M193.9,1027.4L193.9,1027.4c0.5,0,0.9-0.2,1.3-0.5l0,0c0.8-0.7,0.9-2,0.2-2.8l0,0l0,0l0,0c-0.7-0.8-2-0.9-2.8-0.2l0,0
	c-0.8,0.7-0.9,2-0.2,2.8C192.8,1027.1,193.4,1027.4,193.9,1027.4z M186.6,1019.5L186.6,1019.5c0.5,0,1-0.2,1.4-0.6l0,0
	c0.8-0.8,0.8-2,0-2.8l0,0c-0.8-0.8-2.1-0.8-2.9,0l0,0c-0.8,0.8-0.8,2,0,2.8C185.6,1019.3,186.1,1019.5,186.6,1019.5z M178.7,1012.1
	L178.7,1012.1c0.6,0,1.1-0.2,1.5-0.7l0,0c0.7-0.8,0.6-2.1-0.2-2.9l0,0l0,0l0,0c-0.8-0.7-2.1-0.6-2.8,0.2l0,0
	c-0.7,0.8-0.6,2.1,0.2,2.8l0,0C177.8,1012,178.2,1012.1,178.7,1012.1z M170.3,1005.3L170.3,1005.3c0.6,0,1.2-0.3,1.6-0.8l0,0
	c0.6-0.9,0.5-2.2-0.4-2.8l0,0c-0.9-0.7-2.1-0.5-2.8,0.4l0,0c-0.7,0.9-0.5,2.2,0.4,2.8C169.5,1005.2,169.9,1005.3,170.3,1005.3z
	 M161.5,999.2L161.5,999.2c0.7,0,1.3-0.3,1.7-0.9l0,0c0.6-0.9,0.3-2.2-0.6-2.8l0,0c-0.9-0.6-2.2-0.3-2.8,0.6l0,0
	c-0.6,0.9-0.3,2.2,0.6,2.8C160.7,999.1,161.1,999.2,161.5,999.2z M152.2,993.7L152.2,993.7c0.7,0,1.4-0.4,1.8-1l0,0
	c0.5-1,0.2-2.2-0.8-2.7l0,0c-1-0.5-2.2-0.2-2.7,0.8l0,0c-0.5,1-0.2,2.2,0.8,2.7C151.5,993.6,151.9,993.7,152.2,993.7z M142.5,988.9
	L142.5,988.9c0.8,0,1.5-0.5,1.8-1.2l0,0c0.5-1,0-2.2-1-2.7l0,0c-1-0.5-2.2,0-2.7,1l0,0c-0.5,1,0,2.2,1,2.7
	C142,988.8,142.3,988.9,142.5,988.9z M132.6,984.7L132.6,984.7c0.8,0,1.6-0.5,1.9-1.3l0,0c0.4-1-0.2-2.2-1.2-2.6l0,0
	c-1-0.4-2.2,0.2-2.6,1.2l0,0c-0.4,1,0.1,2.2,1.2,2.6C132.1,984.7,132.4,984.7,132.6,984.7z M122.4,981.3L122.4,981.3
	c0.9,0,1.7-0.6,1.9-1.5l0,0c0.3-1.1-0.3-2.2-1.3-2.5l0,0c-1.1-0.3-2.2,0.3-2.5,1.3l0,0c-0.3,1.1,0.3,2.2,1.4,2.5
	C122,981.3,122.2,981.3,122.4,981.3z M111.9,978.6L111.9,978.6c0.9,0,1.8-0.6,2-1.6l0,0c0.2-1.1-0.5-2.2-1.5-2.4l0,0l0,0l0,0
	c-1.1-0.2-2.2,0.5-2.4,1.5l0,0c-0.2,1.1,0.5,2.2,1.5,2.4C111.6,978.6,111.8,978.6,111.9,978.6z M101.3,976.8L101.3,976.8
	c1,0,1.8-0.7,2-1.7l0,0c0.2-1.1-0.6-2.1-1.7-2.3l0,0l0,0l0,0c-1.1-0.2-2.1,0.6-2.3,1.7l0,0c-0.2,1.1,0.6,2.1,1.7,2.3
	C101.1,976.8,101.2,976.8,101.3,976.8z M90.4,975.6L90.4,975.6c1.1,0.1,2.1-0.8,2.2-1.8l0,0c0.1-1.1-0.8-2.1-1.8-2.2l0,0l0,0l0,0
	c-1.1-0.1-2.1,0.8-2.2,1.8C88.5,974.6,89.4,975.6,90.4,975.6z M81.2,1276.7c0.2-0.2,0.3-0.4,0.4-0.6c0.1-0.2,0.2-0.5,0.2-0.8
	c0-0.2,0-0.5-0.2-0.8c-0.1-0.2-0.2-0.5-0.4-0.6c-0.2-0.2-0.4-0.3-0.7-0.5c-0.7-0.3-1.6-0.1-2.2,0.5c-0.2,0.2-0.3,0.4-0.4,0.6
	c-0.1,0.2-0.2,0.5-0.2,0.8c0,0.3,0.1,0.5,0.2,0.8c0.1,0.2,0.2,0.5,0.4,0.6c0.2,0.2,0.4,0.3,0.7,0.5c0.2,0.1,0.5,0.2,0.8,0.2
	C80.3,1277.4,80.8,1277.1,81.2,1276.7z M216.1,1124.3c0-75.1-61.1-136.3-136.3-136.3c-1.1,0-2,0.9-2,2c0,1.1,0.9,2,2,2
	c72.9,0,132.3,59.3,132.3,132.3c0,72.9-59.3,132.3-132.3,132.3c-1.1,0-2,0.9-2,2s0.9,2,2,2C154.9,1260.6,216.1,1199.4,216.1,1124.3z
	 M273.8,1124.3c0-1.1-0.9-2-2-2h-57.7c-1.1,0-2,0.9-2,2c0,1.1,0.9,2,2,2h57.7C272.9,1126.3,273.8,1125.4,273.8,1124.3z
	 M276.1,1124.3l-17.6-16.4l-2.7,2.9l14.5,13.5l-14.5,13.5l2.7,2.9L276.1,1124.3z M376.1,974.6c0.4-0.4,0.6-0.9,0.6-1.4
	c0-0.3-0.1-0.5-0.2-0.8c-0.1-0.2-0.2-0.5-0.4-0.6c-0.6-0.6-1.5-0.8-2.2-0.4c-0.3,0.1-0.5,0.2-0.7,0.4c-0.4,0.4-0.6,0.9-0.6,1.4
	c0,0.5,0.2,1,0.6,1.4c0.4,0.4,0.9,0.6,1.4,0.6C375.2,975.3,375.7,975,376.1,974.6z M385.9,1276.9L385.9,1276.9
	c1.1-0.1,1.9-1,1.8-2.2l0,0c-0.1-1.1-1-1.9-2.2-1.8l0,0c-1.1,0.1-1.9,1.1-1.8,2.2l0,0C383.8,1276.2,384.8,1277,385.9,1276.9
	L385.9,1276.9z M396.5,1275.8L396.5,1275.8c0.1,0,0.2,0,0.3,0l0,0c1.1-0.2,1.8-1.2,1.7-2.2l0,0c-0.2-1.1-1.2-1.9-2.3-1.7l0,0
	c-1.1,0.2-1.8,1.2-1.7,2.2C394.6,1275.1,395.5,1275.8,396.5,1275.8z M407.1,1273.9L407.1,1273.9c0.2,0,0.3,0,0.4-0.1l0,0l0,0l0,0
	c1.1-0.2,1.8-1.3,1.5-2.4l0,0c-0.2-1.1-1.3-1.8-2.4-1.5l0,0c-1.1,0.2-1.8,1.3-1.5,2.4C405.3,1273.2,406.2,1273.9,407.1,1273.9z
	 M417.5,1271.2L417.5,1271.2c0.2,0,0.4,0,0.5-0.1l0,0c1.1-0.3,1.7-1.4,1.4-2.5l0,0c-0.3-1.1-1.4-1.7-2.5-1.4l0,0
	c-1.1,0.3-1.7,1.4-1.4,2.5C415.9,1270.6,416.6,1271.2,417.5,1271.2z M427.7,1267.8L427.7,1267.8c0.2,0,0.5-0.1,0.7-0.2l0,0l0,0l0,0
	c1-0.4,1.6-1.5,1.2-2.6l0,0c-0.4-1-1.5-1.5-2.6-1.2l0,0c-1,0.4-1.6,1.5-1.2,2.6C426.2,1267.3,426.9,1267.8,427.7,1267.8z
	 M437.7,1263.6L437.7,1263.6c0.3,0,0.6-0.1,0.8-0.2l0,0l0,0l0,0c1-0.5,1.4-1.7,1-2.7l0,0c-0.5-1-1.7-1.5-2.7-1l0,0
	c-1,0.5-1.4,1.6-1,2.6C436.2,1263.2,436.9,1263.6,437.7,1263.6z M447.3,1258.8L447.3,1258.8c0.3,0,0.7-0.1,1-0.2l0,0
	c1-0.5,1.3-1.8,0.8-2.7l0,0c-0.5-1-1.8-1.3-2.7-0.8l0,0c-1,0.5-1.3,1.8-0.8,2.7C445.9,1258.4,446.6,1258.8,447.3,1258.8z
	 M456.6,1253.3L456.6,1253.3c0.4,0,0.7-0.1,1.1-0.3l0,0l0,0l0,0c0.9-0.6,1.2-1.8,0.6-2.8l0,0c-0.6-0.9-1.8-1.2-2.8-0.6l0,0
	c-0.9,0.6-1.2,1.8-0.6,2.8C455.3,1253,455.9,1253.3,456.6,1253.3z M465.4,1247.1L465.4,1247.1c0.4,0,0.8-0.2,1.2-0.4l0,0
	c0.9-0.7,1.1-1.9,0.4-2.8l0,0c-0.7-0.9-1.9-1.1-2.8-0.4l0,0c-0.9,0.7-1.1,1.9-0.4,2.8C464.2,1246.8,464.8,1247.1,465.4,1247.1z
	 M473.8,1240.3L473.8,1240.3c0.5,0,0.9-0.2,1.3-0.5l0,0c0.8-0.7,0.9-2,0.2-2.8l0,0c-0.7-0.8-2-0.9-2.8-0.2l0,0
	c-0.8,0.7-0.9,2-0.2,2.8C472.6,1240.1,473.2,1240.3,473.8,1240.3z M481.6,1233L481.6,1233c0.5,0,1-0.2,1.4-0.6l0,0
	c0.8-0.8,0.8-2.1,0-2.8l0,0c-0.8-0.8-2.1-0.8-2.8,0h0c-0.8,0.8-0.8,2,0,2.8C480.6,1232.8,481.1,1233,481.6,1233z M489,1225.1
	L489,1225.1c0.6,0,1.1-0.2,1.5-0.7l0,0c0.7-0.8,0.6-2.1-0.2-2.8l0,0c-0.8-0.7-2.1-0.6-2.9,0.2l0,0c-0.7,0.8-0.6,2.1,0.2,2.8
	C488,1224.9,488.5,1225.1,489,1225.1z M495.7,1216.7L495.7,1216.7c0.6,0,1.2-0.3,1.6-0.8l0,0c0.7-0.9,0.5-2.1-0.4-2.8l0,0
	c-0.9-0.7-2.2-0.5-2.8,0.4l0,0c-0.6,0.9-0.5,2.2,0.4,2.8C494.9,1216.6,495.3,1216.7,495.7,1216.7z M501.9,1207.8L501.9,1207.8
	c0.7,0,1.3-0.3,1.7-0.9l0,0l0,0l0,0c0.6-0.9,0.3-2.2-0.6-2.8l0,0c-0.9-0.6-2.2-0.3-2.8,0.6l0,0c-0.6,0.9-0.3,2.2,0.6,2.8
	C501.1,1207.7,501.5,1207.8,501.9,1207.8z M507.4,1198.5L507.4,1198.5c0.7,0,1.4-0.4,1.8-1l0,0c0.5-1,0.2-2.2-0.8-2.7l0,0
	c-1-0.5-2.2-0.2-2.7,0.8l0,0c-0.5,1-0.2,2.2,0.8,2.7C506.7,1198.5,507,1198.5,507.4,1198.5z M512.2,1188.9L512.2,1188.9
	c0.8,0,1.5-0.4,1.8-1.2l0,0c0.5-1,0-2.2-1-2.7l0,0c-1-0.5-2.2,0-2.6,1l0,0c-0.5,1,0,2.2,1,2.6
	C511.6,1188.8,511.9,1188.9,512.2,1188.9z M516.3,1178.9L516.3,1178.9c0.8,0,1.6-0.5,1.9-1.3l0,0c0.4-1-0.2-2.2-1.2-2.6l0,0
	c-1-0.4-2.2,0.2-2.6,1.2l0,0c-0.4,1,0.2,2.2,1.2,2.6C515.8,1178.9,516.1,1178.9,516.3,1178.9z M519.7,1168.7L519.7,1168.7
	c0.8,0,1.7-0.6,1.9-1.5l0,0c0.3-1.1-0.3-2.2-1.4-2.5l0,0c-1.1-0.3-2.2,0.3-2.5,1.4l0,0c-0.3,1.1,0.3,2.2,1.4,2.5
	C519.3,1168.7,519.5,1168.7,519.7,1168.7z M522.3,1158.2L522.3,1158.2c0.9,0,1.8-0.6,2-1.6l0,0l0,0l0,0c0.2-1.1-0.5-2.2-1.5-2.4l0,0
	c-1.1-0.2-2.2,0.5-2.4,1.5l0,0c-0.2,1.1,0.5,2.2,1.5,2.4C522.1,1158.2,522.2,1158.2,522.3,1158.2z M524.3,1147.6L524.3,1147.6
	c1,0,1.8-0.7,2-1.7l0,0c0.2-1.1-0.6-2.1-1.7-2.3l0,0c-1.1-0.2-2.1,0.6-2.3,1.7l0,0c-0.2,1.1,0.6,2.1,1.7,2.2
	C524,1147.6,524.1,1147.6,524.3,1147.6z M525.4,1136.9L525.4,1136.9c1,0,1.9-0.8,2-1.8l0,0c0.1-1.1-0.8-2.1-1.9-2.2l0,0
	c-1.1-0.1-2.1,0.8-2.1,1.9l0,0c-0.1,1.1,0.8,2.1,1.8,2.1C525.3,1136.9,525.3,1136.9,525.4,1136.9z M525.7,1126.2L525.7,1126.2
	c1.1,0,2-0.9,2-2l0,0c0-1.1-0.9-2-2-2l0,0c-1.1,0-2,0.9-2,2l0,0C523.7,1125.2,524.6,1126.2,525.7,1126.2z M525.4,1115.4
	L525.4,1115.4c0.1,0,0.1,0,0.2,0l0,0c1.1-0.1,1.9-1.1,1.8-2.2l0,0l0,0l0,0c-0.1-1.1-1-1.9-2.2-1.8l0,0c-1.1,0.1-1.9,1-1.8,2.1
	C523.4,1114.6,524.3,1115.4,525.4,1115.4z M524.2,1104.7L524.2,1104.7c0.1,0,0.2,0,0.3,0l0,0c1.1-0.2,1.8-1.2,1.7-2.2l0,0
	c-0.2-1.1-1.2-1.9-2.3-1.7l0,0c-1.1,0.2-1.8,1.2-1.7,2.2C522.3,1103.9,523.2,1104.7,524.2,1104.7z M522.3,1094.1L522.3,1094.1
	c0.2,0,0.3,0,0.4,0l0,0c1.1-0.2,1.8-1.3,1.5-2.4l0,0c-0.2-1.1-1.3-1.8-2.4-1.5l0,0c-1.1,0.2-1.8,1.3-1.5,2.4h0
	C520.5,1093.4,521.4,1094.1,522.3,1094.1z M519.6,1083.6L519.6,1083.6c0.2,0,0.4,0,0.6-0.1l0,0c1.1-0.3,1.7-1.4,1.4-2.5l0,0l0,0l0,0
	c-0.3-1.1-1.4-1.7-2.5-1.4l0,0c-1.1,0.3-1.7,1.4-1.4,2.5C518,1083.1,518.8,1083.6,519.6,1083.6z M516.2,1073.4L516.2,1073.4
	c0.2,0,0.5,0,0.7-0.1l0,0c1-0.4,1.5-1.5,1.2-2.6l0,0c-0.4-1-1.5-1.6-2.6-1.2l0,0c-1.1,0.4-1.6,1.5-1.2,2.6l0,0
	C514.7,1072.9,515.4,1073.4,516.2,1073.4z M512.1,1063.4L512.1,1063.4c0.3,0,0.5,0,0.8-0.2l0,0c1-0.5,1.5-1.6,1-2.6l0,0l0,0l0,0
	c-0.5-1-1.7-1.5-2.7-1l0,0c-1,0.5-1.5,1.6-1,2.7C510.6,1063,511.3,1063.4,512.1,1063.4z M507.3,1053.8L507.3,1053.8
	c0.3,0,0.7-0.1,1-0.2l0,0c1-0.5,1.3-1.8,0.8-2.7l0,0c-0.5-1-1.8-1.3-2.7-0.8l0,0c-1,0.5-1.3,1.7-0.8,2.7
	C505.9,1053.4,506.6,1053.8,507.3,1053.8z M501.7,1044.6L501.7,1044.6c0.4,0,0.8-0.1,1.1-0.3l0,0c0.9-0.6,1.2-1.8,0.6-2.8l0,0l0,0
	l0,0c-0.6-0.9-1.8-1.2-2.8-0.6l0,0c-0.9,0.6-1.2,1.8-0.6,2.8C500.4,1044.3,501.1,1044.6,501.7,1044.6z M495.6,1035.7L495.6,1035.7
	c0.4,0,0.8-0.2,1.2-0.4l0,0c0.9-0.7,1.1-1.9,0.4-2.8l0,0c-0.7-0.9-1.9-1.1-2.8-0.4l0,0c-0.9,0.7-1.1,1.9-0.4,2.8l0,0
	C494.4,1035.4,495,1035.7,495.6,1035.7z M488.8,1027.4L488.8,1027.4c0.5,0,0.9-0.2,1.3-0.5l0,0c0.8-0.7,0.9-2,0.2-2.9l0,0
	c0,0,0,0,0,0l0,0c-0.7-0.8-2-0.9-2.8-0.2l0,0c-0.8,0.7-0.9,2-0.2,2.8l0,0C487.7,1027.1,488.3,1027.4,488.8,1027.4z M481.5,1019.5
	L481.5,1019.5c0.5,0,1-0.2,1.4-0.6l0,0c0.8-0.8,0.8-2,0-2.8l0,0c-0.8-0.8-2-0.8-2.8,0l0,0c-0.8,0.8-0.8,2.1,0,2.8
	C480.5,1019.3,481,1019.5,481.5,1019.5z M473.6,1012.1L473.6,1012.1c0.6,0,1.1-0.2,1.5-0.7l0,0c0.7-0.8,0.6-2.1-0.2-2.9l0,0l0,0l0,0
	c-0.8-0.7-2.1-0.6-2.8,0.2l0,0c-0.7,0.8-0.6,2.1,0.2,2.8l0,0C472.6,1012,473.1,1012.1,473.6,1012.1z M465.2,1005.3L465.2,1005.3
	c0.6,0,1.2-0.3,1.6-0.8l0,0c0.7-0.9,0.5-2.2-0.4-2.8l0,0c-0.9-0.7-2.2-0.5-2.8,0.4l0,0c-0.7,0.9-0.5,2.2,0.4,2.8
	C464.3,1005.2,464.8,1005.3,465.2,1005.3z M456.3,999.2L456.3,999.2c0.7,0,1.3-0.3,1.7-0.9l0,0c0.6-0.9,0.3-2.2-0.6-2.8l0,0
	c-0.9-0.6-2.2-0.3-2.8,0.6l0,0c-0.6,0.9-0.3,2.2,0.6,2.8C455.6,999.1,456,999.2,456.3,999.2z M447.1,993.7L447.1,993.7
	c0.7,0,1.4-0.4,1.8-1l0,0c0.5-1,0.2-2.2-0.8-2.7l0,0c-1-0.5-2.2-0.2-2.7,0.8l0,0c-0.5,1-0.2,2.2,0.8,2.7
	C446.4,993.6,446.8,993.7,447.1,993.7z M437.4,988.9L437.4,988.9c0.8,0,1.5-0.5,1.8-1.2l0,0c0.5-1,0-2.2-1-2.7l0,0
	c-1-0.5-2.2,0-2.7,1l0,0c-0.5,1,0,2.2,1,2.7C436.9,988.8,437.2,988.9,437.4,988.9z M427.5,984.7L427.5,984.7c0.8,0,1.6-0.5,1.9-1.3
	l0,0c0.4-1-0.1-2.2-1.2-2.6l0,0c-1.1-0.4-2.2,0.2-2.6,1.2l0,0c-0.4,1,0.1,2.2,1.2,2.6C427,984.7,427.2,984.7,427.5,984.7z
	 M417.2,981.3L417.2,981.3c0.8,0,1.7-0.6,1.9-1.5l0,0c0.3-1.1-0.3-2.2-1.4-2.5l0,0c-1.1-0.3-2.2,0.3-2.5,1.3l0,0
	c-0.3,1.1,0.3,2.2,1.4,2.5C416.9,981.3,417,981.3,417.2,981.3z M406.8,978.6L406.8,978.6c0.9,0,1.8-0.6,2-1.6l0,0
	c0.2-1.1-0.5-2.2-1.5-2.4l0,0l0,0l0,0c-1.1-0.2-2.2,0.5-2.4,1.5l0,0c-0.2,1.1,0.5,2.2,1.5,2.4C406.5,978.6,406.6,978.6,406.8,978.6z
	 M396.2,976.8L396.2,976.8c1,0,1.8-0.7,2-1.7l0,0c0.2-1.1-0.6-2.1-1.7-2.3l0,0l0,0l0,0c-1.1-0.2-2.1,0.6-2.2,1.7l0,0
	c-0.2,1.1,0.6,2.1,1.7,2.3C396,976.8,396.1,976.8,396.2,976.8z M385.3,975.6L385.3,975.6c1.1,0.1,2.1-0.8,2.1-1.8l0,0
	c0.1-1.1-0.7-2.1-1.8-2.2l0,0l0,0l0,0c-1.1-0.1-2.1,0.8-2.1,1.8C383.4,974.6,384.2,975.6,385.3,975.6z M376.1,1276.7
	c0.2-0.2,0.4-0.4,0.5-0.6c0.1-0.2,0.2-0.5,0.2-0.8c0-0.2-0.1-0.5-0.2-0.8c-0.1-0.2-0.2-0.5-0.4-0.6c-0.2-0.2-0.4-0.3-0.7-0.5
	c-0.5-0.2-1-0.2-1.5,0c-0.3,0.1-0.5,0.3-0.7,0.5c-0.2,0.2-0.3,0.4-0.4,0.6c-0.1,0.2-0.2,0.5-0.2,0.8c0,0.3,0,0.5,0.2,0.8
	c0.1,0.2,0.2,0.5,0.4,0.6c0.4,0.4,0.9,0.6,1.4,0.6C375.2,1277.4,375.7,1277.1,376.1,1276.7z M511,1124.3
	c0-75.1-61.1-136.3-136.3-136.3c-1.1,0-2,0.9-2,2c0,1.1,0.9,2,2,2c72.9,0,132.3,59.3,132.3,132.3c0,72.9-59.3,132.3-132.3,132.3
	c-1.1,0-2,0.9-2,2s0.9,2,2,2C449.8,1260.6,511,1199.4,511,1124.3z M568.7,1124.3c0-1.1-0.9-2-2-2H509c-1.1,0-2,0.9-2,2
	c0,1.1,0.9,2,2,2h57.7C567.8,1126.3,568.7,1125.4,568.7,1124.3z M571,1124.3l-17.6-16.4l-2.7,2.9l14.5,13.5l-14.5,13.5l2.7,2.9
	L571,1124.3z M671,974.6c0.4-0.4,0.6-0.9,0.6-1.4c0-0.3-0.1-0.5-0.2-0.8c-0.1-0.2-0.2-0.5-0.5-0.6c-0.7-0.8-2.1-0.8-2.8,0
	c-0.4,0.4-0.6,0.9-0.6,1.4c0,0.5,0.2,1,0.6,1.4c0.4,0.4,0.9,0.6,1.4,0.6C670.1,975.3,670.6,975,671,974.6z M680.8,1276.9
	L680.8,1276.9c1.1-0.1,1.9-1,1.8-2.2l0,0c-0.1-1.1-1.1-1.9-2.2-1.8l0,0c-1.1,0.1-1.9,1.1-1.8,2.2l0,0
	C678.7,1276.2,679.7,1277,680.8,1276.9L680.8,1276.9z M691.3,1275.8L691.3,1275.8c0.1,0,0.2,0,0.3,0l0,0l0,0l0,0
	c1.1-0.2,1.8-1.2,1.7-2.2l0,0c-0.2-1.1-1.2-1.9-2.3-1.7l0,0c-1.1,0.2-1.8,1.2-1.7,2.3C689.5,1275.1,690.4,1275.8,691.3,1275.8z
	 M702,1273.9L702,1273.9c0.2,0,0.3,0,0.4-0.1l0,0l0,0l0,0c1.1-0.2,1.8-1.3,1.5-2.4l0,0c-0.2-1.1-1.3-1.8-2.4-1.5l0,0
	c-1.1,0.2-1.8,1.3-1.5,2.4C700.2,1273.2,701,1273.9,702,1273.9z M712.4,1271.2L712.4,1271.2c0.2,0,0.4,0,0.6-0.1l0,0l0,0l0,0
	c1.1-0.3,1.7-1.4,1.4-2.5l0,0c-0.3-1.1-1.4-1.7-2.5-1.4l0,0c-1.1,0.3-1.7,1.4-1.4,2.5C710.7,1270.6,711.5,1271.2,712.4,1271.2z
	 M722.6,1267.8L722.6,1267.8c0.2,0,0.5-0.1,0.7-0.2l0,0l0,0l0,0c1-0.4,1.5-1.5,1.2-2.6l0,0c-0.4-1-1.5-1.5-2.6-1.2h0
	c-1.1,0.4-1.6,1.5-1.2,2.6C721,1267.3,721.8,1267.8,722.6,1267.8z M732.6,1263.6L732.6,1263.6c0.3,0,0.5-0.1,0.8-0.2l0,0l0,0l0,0
	c1-0.5,1.5-1.7,1-2.7l0,0c-0.5-1-1.7-1.5-2.7-1l0,0c-1,0.5-1.5,1.6-1,2.6C731.1,1263.2,731.8,1263.6,732.6,1263.6z M742.2,1258.8
	L742.2,1258.8c0.3,0,0.7-0.1,1-0.2l0,0c1-0.5,1.3-1.8,0.8-2.7l0,0c-0.5-1-1.8-1.3-2.7-0.8l0,0c-1,0.5-1.3,1.8-0.8,2.7
	C740.8,1258.4,741.5,1258.8,742.2,1258.8z M751.4,1253.3L751.4,1253.3c0.4,0,0.8-0.1,1.1-0.3l0,0c0.9-0.6,1.2-1.8,0.6-2.8l0,0
	c-0.6-0.9-1.8-1.2-2.8-0.6l0,0c-0.9,0.6-1.2,1.8-0.6,2.8C750.1,1253,750.8,1253.3,751.4,1253.3z M760.3,1247.1L760.3,1247.1
	c0.4,0,0.8-0.2,1.2-0.4l0,0c0.9-0.7,1.1-1.9,0.4-2.8l0,0c-0.7-0.9-1.9-1.1-2.8-0.4l0,0c-0.9,0.7-1.1,1.9-0.4,2.8
	C759,1246.8,759.7,1247.1,760.3,1247.1z M768.6,1240.3L768.6,1240.3c0.5,0,0.9-0.2,1.3-0.5l0,0c0.8-0.7,0.9-2,0.2-2.8l0,0
	c-0.7-0.8-2-0.9-2.8-0.2l0,0c-0.8,0.7-0.9,2-0.2,2.8C767.5,1240.1,768.1,1240.3,768.6,1240.3z M776.5,1233L776.5,1233
	c0.5,0,1-0.2,1.4-0.6l0,0l0,0l0,0c0.8-0.8,0.8-2.1,0-2.8l0,0c-0.8-0.8-2.1-0.8-2.8,0l0,0c-0.8,0.8-0.8,2,0,2.8
	C775.5,1232.8,776,1233,776.5,1233z M783.8,1225.1L783.8,1225.1c0.6,0,1.1-0.2,1.5-0.7l0,0c0.7-0.8,0.6-2.1-0.2-2.8l0,0
	c-0.8-0.7-2.1-0.6-2.8,0.2l0,0c-0.7,0.8-0.6,2.1,0.2,2.8C782.9,1224.9,783.4,1225.1,783.8,1225.1z M790.6,1216.7L790.6,1216.7
	c0.6,0,1.2-0.3,1.6-0.8l0,0c0.7-0.9,0.5-2.1-0.4-2.8l0,0c-0.9-0.7-2.2-0.5-2.8,0.4l0,0c-0.7,0.9-0.5,2.2,0.4,2.8
	C789.8,1216.6,790.2,1216.7,790.6,1216.7z M796.8,1207.8L796.8,1207.8c0.7,0,1.3-0.3,1.7-0.9l0,0l0,0l0,0c0.6-0.9,0.3-2.2-0.6-2.8
	l0,0c-0.9-0.6-2.2-0.3-2.8,0.6l0,0c-0.6,0.9-0.3,2.2,0.6,2.8C796,1207.7,796.4,1207.8,796.8,1207.8z M802.3,1198.5L802.3,1198.5
	c0.7,0,1.4-0.4,1.7-1l0,0c0.5-1,0.2-2.2-0.8-2.7l0,0c-1-0.5-2.2-0.2-2.7,0.8l0,0c-0.5,1-0.2,2.2,0.8,2.7
	C801.6,1198.5,801.9,1198.5,802.3,1198.5z M807.1,1188.9L807.1,1188.9c0.8,0,1.5-0.4,1.8-1.2l0,0c0.5-1,0-2.2-1-2.7l0,0
	c-1-0.5-2.2,0-2.6,1l0,0c-0.5,1,0,2.2,1,2.6C806.5,1188.8,806.8,1188.9,807.1,1188.9z M811.2,1178.9L811.2,1178.9
	c0.8,0,1.6-0.5,1.9-1.3l0,0c0.4-1-0.2-2.2-1.2-2.6l0,0c-1-0.4-2.2,0.2-2.6,1.2l0,0c-0.4,1,0.1,2.2,1.2,2.6
	C810.7,1178.9,811,1178.9,811.2,1178.9z M814.6,1168.7L814.6,1168.7c0.9,0,1.7-0.6,1.9-1.5l0,0c0.3-1.1-0.3-2.2-1.4-2.5l0,0
	c-1.1-0.3-2.2,0.3-2.5,1.4l0,0c-0.3,1.1,0.3,2.2,1.4,2.5C814.2,1168.7,814.4,1168.7,814.6,1168.7z M817.2,1158.2L817.2,1158.2
	c0.9,0,1.8-0.6,1.9-1.6l0,0l0,0l0,0c0.2-1.1-0.5-2.2-1.5-2.4l0,0c-1.1-0.2-2.2,0.5-2.4,1.5l0,0c-0.2,1.1,0.5,2.2,1.5,2.4
	C817,1158.2,817.1,1158.2,817.2,1158.2z M819.1,1147.6L819.1,1147.6c1,0,1.8-0.7,2-1.7l0,0c0.2-1.1-0.6-2.1-1.7-2.3l0,0
	c-1.1-0.2-2.1,0.6-2.2,1.7l0,0c-0.2,1.1,0.6,2.1,1.7,2.2C818.9,1147.6,819,1147.6,819.1,1147.6z M820.3,1136.9L820.3,1136.9
	c1,0,1.9-0.8,2-1.8l0,0c0.1-1.1-0.8-2.1-1.8-2.2l0,0c-1.1-0.1-2.1,0.8-2.2,1.9l0,0c-0.1,1.1,0.8,2.1,1.9,2.1
	C820.1,1136.9,820.2,1136.9,820.3,1136.9z M820.6,1126.2L820.6,1126.2c1.1,0,2-0.9,2-2l0,0l0,0l0,0c0-1.1-0.9-2-2-2l0,0
	c-1.1,0-2,0.9-2,2C818.6,1125.2,819.5,1126.2,820.6,1126.2z M820.2,1115.4L820.2,1115.4c0,0,0.1,0,0.1,0l0,0
	c1.1-0.1,1.9-1.1,1.9-2.2l0,0c-0.1-1.1-1.1-1.9-2.2-1.8l0,0c-1.1,0.1-1.9,1-1.8,2.1C818.3,1114.6,819.2,1115.4,820.2,1115.4z
	 M819.1,1104.7L819.1,1104.7c0.1,0,0.2,0,0.3,0l0,0c1.1-0.2,1.9-1.2,1.7-2.3l0,0l0,0l0,0c-0.2-1.1-1.2-1.9-2.3-1.7l0,0
	c-1.1,0.2-1.8,1.2-1.7,2.3C817.2,1103.9,818.1,1104.7,819.1,1104.7z M817.2,1094.1L817.2,1094.1c0.1,0,0.3,0,0.4,0l0,0
	c1.1-0.2,1.8-1.3,1.5-2.4l0,0c-0.2-1.1-1.3-1.8-2.4-1.5l0,0c-1.1,0.2-1.8,1.3-1.5,2.4l0,0C815.4,1093.4,816.2,1094.1,817.2,1094.1z
	 M814.5,1083.6L814.5,1083.6c0.2,0,0.4,0,0.6-0.1l0,0c1.1-0.3,1.7-1.4,1.3-2.5l0,0l0,0l0,0c-0.3-1.1-1.4-1.7-2.5-1.4l0,0
	c-1.1,0.3-1.7,1.4-1.4,2.5l0,0C812.8,1083.1,813.6,1083.6,814.5,1083.6z M811.1,1073.4L811.1,1073.4c0.2,0,0.5,0,0.7-0.1l0,0
	c1-0.4,1.5-1.5,1.2-2.6l0,0c-0.4-1-1.5-1.6-2.6-1.2l0,0c-1,0.4-1.5,1.5-1.2,2.6C809.5,1072.9,810.3,1073.4,811.1,1073.4z
	 M807,1063.4L807,1063.4c0.3,0,0.6,0,0.8-0.2l0,0c1-0.5,1.5-1.6,1-2.6l0,0c-0.5-1-1.6-1.5-2.6-1l0,0c-1,0.5-1.5,1.6-1,2.7
	C805.5,1063,806.2,1063.4,807,1063.4z M802.1,1053.8L802.1,1053.8c0.3,0,0.6-0.1,1-0.2l0,0c1-0.5,1.3-1.8,0.8-2.7l0,0
	c-0.5-1-1.8-1.3-2.7-0.8l0,0c-1,0.5-1.3,1.7-0.8,2.7C800.8,1053.4,801.4,1053.8,802.1,1053.8z M796.6,1044.6L796.6,1044.6
	c0.4,0,0.8-0.1,1.1-0.3l0,0c0.9-0.6,1.2-1.8,0.6-2.8l0,0c-0.6-0.9-1.8-1.2-2.8-0.6l0,0c-0.9,0.6-1.2,1.8-0.6,2.8h0
	C795.3,1044.3,796,1044.6,796.6,1044.6z M790.5,1035.7L790.5,1035.7c0.4,0,0.8-0.2,1.2-0.4l0,0c0.9-0.7,1.1-1.9,0.4-2.8l0,0
	c-0.7-0.9-1.9-1.1-2.8-0.4l0,0c-0.9,0.6-1.1,1.9-0.4,2.8l0,0C789.3,1035.4,789.9,1035.7,790.5,1035.7z M783.7,1027.4L783.7,1027.4
	c0.5,0,0.9-0.2,1.3-0.5l0,0c0.8-0.7,0.9-2,0.2-2.8l0,0c-0.7-0.8-2-0.9-2.8-0.2l0,0c-0.8,0.7-0.9,2-0.2,2.8
	C782.6,1027.1,783.1,1027.4,783.7,1027.4z M776.4,1019.5L776.4,1019.5c0.5,0,1-0.2,1.4-0.6l0,0c0.8-0.8,0.8-2,0-2.8l0,0
	c-0.8-0.8-2.1-0.8-2.8,0l0,0c-0.8,0.8-0.8,2,0,2.8C775.3,1019.3,775.8,1019.5,776.4,1019.5z M768.5,1012.1L768.5,1012.1
	c0.5,0,1.1-0.2,1.5-0.7l0,0c0.7-0.8,0.6-2.1-0.2-2.9l0,0l0,0l0,0c-0.8-0.7-2.1-0.6-2.8,0.2l0,0c-0.7,0.8-0.6,2.1,0.2,2.8l0,0
	C767.5,1012,768,1012.1,768.5,1012.1z M760.1,1005.3L760.1,1005.3c0.6,0,1.2-0.3,1.6-0.8l0,0c0.7-0.9,0.5-2.2-0.4-2.8l0,0
	c-0.9-0.7-2.2-0.5-2.8,0.4l0,0c-0.7,0.9-0.5,2.2,0.4,2.8C759.2,1005.2,759.7,1005.3,760.1,1005.3z M751.2,999.2L751.2,999.2
	c0.6,0,1.3-0.3,1.7-0.9l0,0c0.6-0.9,0.3-2.2-0.6-2.8l0,0c-0.9-0.6-2.2-0.3-2.8,0.6l0,0c-0.6,0.9-0.3,2.2,0.6,2.8
	C750.5,999.1,750.9,999.2,751.2,999.2z M742,993.7L742,993.7c0.7,0,1.4-0.4,1.8-1l0,0c0.5-1,0.2-2.2-0.8-2.7l0,0
	c-1-0.5-2.2-0.2-2.7,0.8l0,0c-0.5,1-0.2,2.2,0.8,2.7C741.3,993.6,741.6,993.7,742,993.7z M732.3,988.9L732.3,988.9
	c0.8,0,1.5-0.5,1.8-1.2l0,0c0.5-1,0-2.2-1-2.7l0,0c-1-0.5-2.2,0-2.6,1l0,0c-0.5,1,0,2.2,1,2.7C731.7,988.8,732,988.9,732.3,988.9z
	 M722.3,984.7L722.3,984.7c0.8,0,1.6-0.5,1.9-1.3l0,0c0.4-1-0.1-2.2-1.2-2.6l0,0c-1-0.4-2.2,0.2-2.6,1.2l0,0c-0.4,1,0.2,2.2,1.2,2.6
	C721.9,984.7,722.1,984.7,722.3,984.7z M712.1,981.3L712.1,981.3c0.9,0,1.7-0.6,1.9-1.5l0,0c0.3-1.1-0.3-2.2-1.4-2.5l0,0l0,0l0,0
	c-1.1-0.3-2.2,0.3-2.5,1.3l0,0c-0.3,1.1,0.3,2.2,1.4,2.5l0,0C711.7,981.3,711.9,981.3,712.1,981.3z M701.7,978.6L701.7,978.6
	c0.9,0,1.8-0.6,1.9-1.6l0,0c0.2-1.1-0.5-2.2-1.5-2.4l0,0l0,0l0,0c-1.1-0.2-2.2,0.5-2.4,1.5l0,0c-0.2,1.1,0.5,2.2,1.5,2.4
	C701.4,978.6,701.5,978.6,701.7,978.6z M691.1,976.8L691.1,976.8c1,0,1.8-0.7,2-1.7l0,0c0.2-1.1-0.6-2.1-1.7-2.3l0,0l0,0l0,0
	c-1.1-0.2-2.1,0.6-2.3,1.7l0,0c-0.2,1.1,0.6,2.1,1.7,2.3C690.9,976.8,691,976.8,691.1,976.8z M680.2,975.6L680.2,975.6
	c1.1,0.1,2.1-0.8,2.1-1.8l0,0c0.1-1.1-0.8-2.1-1.8-2.2l0,0l0,0l0,0c-1.1-0.1-2.1,0.8-2.2,1.8C678.3,974.6,679.1,975.6,680.2,975.6z
	 M671,1276.7c0.2-0.2,0.3-0.4,0.5-0.6c0.1-0.2,0.2-0.5,0.2-0.8c0-0.2-0.1-0.5-0.2-0.8c-0.1-0.2-0.3-0.5-0.5-0.6
	c-0.2-0.2-0.4-0.3-0.6-0.5c-0.5-0.2-1.1-0.2-1.5,0c-0.2,0.1-0.5,0.3-0.6,0.5c-0.2,0.2-0.3,0.4-0.5,0.6c-0.1,0.2-0.2,0.5-0.2,0.8
	c0,0.3,0.1,0.5,0.2,0.8c0.1,0.2,0.3,0.5,0.5,0.6c0.4,0.4,0.9,0.6,1.4,0.6C670.1,1277.4,670.6,1277.1,671,1276.7z M805.8,1124.3
	c0-75.1-61.1-136.3-136.3-136.3c-1.1,0-2,0.9-2,2c0,1.1,0.9,2,2,2c72.9,0,132.3,59.3,132.3,132.3c0,72.9-59.3,132.3-132.3,132.3
	c-1.1,0-2,0.9-2,2s0.9,2,2,2C744.7,1260.6,805.8,1199.4,805.8,1124.3z M863.5,1124.3c0-1.1-0.9-2-2-2h-57.7c-1.1,0-2,0.9-2,2
	c0,1.1,0.9,2,2,2h57.7C862.6,1126.3,863.5,1125.4,863.5,1124.3z M865.9,1124.3l-17.6-16.4l-2.7,2.9l14.5,13.5l-14.5,13.5l2.7,2.9
	L865.9,1124.3z M965.9,974.6c0.4-0.4,0.6-0.9,0.6-1.4c0-0.5-0.2-1.1-0.6-1.4c-0.2-0.2-0.4-0.3-0.6-0.4c-0.8-0.3-1.6-0.1-2.2,0.4
	c-0.4,0.4-0.6,0.9-0.6,1.4c0,0.5,0.2,1,0.6,1.4c0.4,0.4,0.9,0.6,1.4,0.6C965,975.3,965.5,975,965.9,974.6z M975.7,1276.9
	L975.7,1276.9c1.1-0.1,1.9-1,1.9-2.2l0,0c-0.1-1.1-1.1-1.9-2.2-1.8l0,0c-1.1,0.1-1.9,1.1-1.8,2.2l0,0
	C973.6,1276.2,974.6,1277,975.7,1276.9L975.7,1276.9z M986.2,1275.8L986.2,1275.8c0.1,0,0.2,0,0.3,0l0,0l0,0l0,0
	c1.1-0.2,1.9-1.2,1.7-2.2l0,0c-0.2-1.1-1.2-1.9-2.2-1.7l0,0c-1.1,0.2-1.9,1.2-1.7,2.2C984.4,1275.1,985.2,1275.8,986.2,1275.8z
	 M996.8,1273.9L996.8,1273.9c0.1,0,0.3,0,0.4-0.1l0,0l0,0l0,0c1.1-0.2,1.8-1.3,1.5-2.4l0,0c-0.2-1.1-1.3-1.8-2.4-1.5l0,0
	c-1.1,0.2-1.8,1.3-1.5,2.4C995.1,1273.2,995.9,1273.9,996.8,1273.9z M1007.3,1271.2L1007.3,1271.2c0.2,0,0.4,0,0.6-0.1l0,0
	c1.1-0.3,1.7-1.4,1.4-2.5l0,0c-0.3-1.1-1.5-1.7-2.5-1.4l0,0c-1.1,0.3-1.7,1.4-1.4,2.5C1005.6,1270.6,1006.4,1271.2,1007.3,1271.2z
	 M1017.5,1267.8L1017.5,1267.8c0.2,0,0.5-0.1,0.7-0.2l0,0c1-0.4,1.5-1.5,1.2-2.6l0,0c-0.4-1-1.5-1.5-2.6-1.2l0,0
	c-1,0.4-1.5,1.5-1.2,2.6C1015.9,1267.3,1016.7,1267.8,1017.5,1267.8z M1027.4,1263.6L1027.4,1263.6c0.3,0,0.6-0.1,0.8-0.2l0,0l0,0
	l0,0c1-0.5,1.5-1.7,1-2.7l0,0c-0.5-1-1.7-1.5-2.7-1l0,0c-1,0.5-1.5,1.6-1,2.6C1025.9,1263.2,1026.7,1263.6,1027.4,1263.6z
	 M1037.1,1258.8L1037.1,1258.8c0.3,0,0.7-0.1,1-0.2l0,0c1-0.5,1.3-1.8,0.8-2.7l0,0c-0.5-1-1.8-1.3-2.7-0.8l0,0
	c-1,0.5-1.3,1.8-0.8,2.7C1035.7,1258.4,1036.3,1258.8,1037.1,1258.8z M1046.3,1253.3L1046.3,1253.3c0.4,0,0.8-0.1,1.1-0.3l0,0
	c0.9-0.6,1.2-1.8,0.6-2.8l0,0c-0.6-0.9-1.8-1.2-2.8-0.6l0,0c-0.9,0.6-1.2,1.8-0.6,2.8C1045,1253,1045.6,1253.3,1046.3,1253.3z
	 M1055.2,1247.1L1055.2,1247.1c0.4,0,0.8-0.2,1.2-0.4l0,0l0,0l0,0c0.9-0.7,1.1-1.9,0.4-2.8l0,0c-0.7-0.9-1.9-1.1-2.8-0.4l0,0
	c-0.9,0.7-1.1,1.9-0.4,2.8C1053.9,1246.8,1054.5,1247.1,1055.2,1247.1z M1063.5,1240.3L1063.5,1240.3c0.5,0,0.9-0.2,1.3-0.5l0,0
	c0.8-0.7,0.9-2,0.2-2.8l0,0c-0.7-0.8-2-0.9-2.8-0.2l0,0c-0.8,0.7-0.9,2-0.2,2.8C1062.4,1240.1,1063,1240.3,1063.5,1240.3z
	 M1071.4,1233L1071.4,1233c0.5,0,1-0.2,1.4-0.6l0,0l0,0l0,0c0.8-0.8,0.8-2.1,0-2.8l0,0c-0.8-0.8-2.1-0.8-2.8,0l0,0
	c-0.8,0.8-0.8,2,0,2.8C1070.4,1232.8,1070.9,1233,1071.4,1233z M1078.7,1225.1L1078.7,1225.1c0.5,0,1.1-0.2,1.5-0.7l0,0
	c0.7-0.8,0.6-2.1-0.2-2.8l0,0c-0.8-0.7-2.1-0.6-2.8,0.2l0,0c-0.7,0.8-0.6,2.1,0.2,2.8C1077.8,1224.9,1078.2,1225.1,1078.7,1225.1z
	 M1085.5,1216.7L1085.5,1216.7c0.6,0,1.2-0.3,1.6-0.8l0,0c0.7-0.9,0.5-2.1-0.4-2.8l0,0c-0.9-0.7-2.1-0.5-2.8,0.4l0,0
	c-0.7,0.9-0.5,2.2,0.4,2.8C1084.6,1216.6,1085.1,1216.7,1085.5,1216.7z M1091.6,1207.8L1091.6,1207.8c0.6,0,1.3-0.3,1.7-0.9l0,0
	c0.6-0.9,0.3-2.2-0.6-2.8l0,0c-0.9-0.6-2.2-0.3-2.8,0.6l0,0c-0.6,0.9-0.3,2.2,0.6,2.8C1090.9,1207.7,1091.2,1207.8,1091.6,1207.8z
	 M1097.1,1198.5L1097.1,1198.5c0.7,0,1.4-0.4,1.8-1l0,0c0.5-1,0.2-2.2-0.8-2.7l0,0c-1-0.5-2.2-0.2-2.7,0.8l0,0
	c-0.5,1-0.2,2.2,0.8,2.7C1096.5,1198.5,1096.8,1198.5,1097.1,1198.5z M1102,1188.9L1102,1188.9c0.8,0,1.5-0.4,1.8-1.2l0,0
	c0.5-1,0-2.2-1-2.7l0,0c-1-0.5-2.2,0-2.7,1l0,0c-0.5,1,0,2.2,1,2.6C1101.4,1188.8,1101.7,1188.9,1102,1188.9z M1106.1,1178.9
	L1106.1,1178.9c0.8,0,1.6-0.5,1.9-1.3l0,0c0.4-1-0.1-2.2-1.2-2.6l0,0c-1-0.4-2.2,0.2-2.6,1.2l0,0c-0.4,1,0.2,2.2,1.2,2.6
	C1105.6,1178.9,1105.9,1178.9,1106.1,1178.9z M1109.5,1168.7L1109.5,1168.7c0.9,0,1.7-0.6,1.9-1.5l0,0c0.3-1.1-0.3-2.2-1.4-2.5l0,0
	c-1.1-0.3-2.2,0.3-2.5,1.4l0,0c-0.3,1.1,0.3,2.2,1.4,2.5C1109.1,1168.7,1109.3,1168.7,1109.5,1168.7z M1112.1,1158.2L1112.1,1158.2
	c0.9,0,1.8-0.6,1.9-1.6l0,0l0,0l0,0c0.2-1.1-0.5-2.2-1.5-2.4l0,0c-1.1-0.2-2.2,0.5-2.4,1.5l0,0c-0.2,1.1,0.5,2.2,1.5,2.4
	C1111.8,1158.2,1112,1158.2,1112.1,1158.2z M1114,1147.6L1114,1147.6c1,0,1.8-0.7,2-1.7l0,0c0.2-1.1-0.6-2.1-1.7-2.3l0,0
	c-1.1-0.2-2.1,0.6-2.3,1.7l0,0c-0.2,1.1,0.6,2.1,1.7,2.2C1113.8,1147.6,1113.9,1147.6,1114,1147.6z M1115.1,1136.9L1115.1,1136.9
	c1.1,0,1.9-0.8,2-1.8l0,0c0.1-1.1-0.8-2.1-1.8-2.2l0,0c-1.1-0.1-2.1,0.8-2.2,1.9l0,0c-0.1,1.1,0.8,2.1,1.9,2.1
	C1115,1136.9,1115.1,1136.9,1115.1,1136.9z M1115.5,1126.2L1115.5,1126.2c1.1,0,2-0.9,2-2l0,0c0-1.1-0.9-2-2-2l0,0c-1.1,0-2,0.9-2,2
	l0,0C1113.5,1125.2,1114.4,1126.2,1115.5,1126.2z M1115.1,1115.4L1115.1,1115.4c0.1,0,0.1,0,0.2,0l0,0c1.1-0.1,1.9-1.1,1.8-2.2l0,0
	l0,0l0,0c-0.1-1.1-1-1.9-2.1-1.8l0,0c-1.1,0.1-1.9,1-1.9,2.1C1113.2,1114.6,1114.1,1115.4,1115.1,1115.4z M1114,1104.7L1114,1104.7
	c0.1,0,0.2,0,0.3,0l0,0c1.1-0.2,1.8-1.2,1.7-2.2l0,0l0,0l0,0c-0.2-1.1-1.2-1.9-2.3-1.7l0,0c-1.1,0.2-1.8,1.2-1.7,2.2
	C1112.1,1103.9,1113,1104.7,1114,1104.7z M1112,1094.1L1112,1094.1c0.2,0,0.3,0,0.5,0l0,0c1.1-0.2,1.8-1.3,1.5-2.4l0,0
	c-0.2-1.1-1.3-1.8-2.4-1.5l0,0c-1.1,0.2-1.8,1.3-1.5,2.4C1110.3,1093.4,1111.1,1094.1,1112,1094.1z M1109.4,1083.6L1109.4,1083.6
	c0.2,0,0.4,0,0.6-0.1l0,0c1.1-0.3,1.7-1.4,1.4-2.5l0,0c-0.3-1.1-1.4-1.7-2.5-1.4l0,0c-1.1,0.3-1.7,1.4-1.4,2.5
	C1107.7,1083.1,1108.5,1083.6,1109.4,1083.6z M1106,1073.4L1106,1073.4c0.2,0,0.5,0,0.7-0.1l0,0c1.1-0.4,1.6-1.5,1.2-2.6l0,0
	c-0.4-1-1.5-1.6-2.6-1.2l0,0c-1,0.4-1.6,1.5-1.2,2.6C1104.4,1072.9,1105.2,1073.4,1106,1073.4z M1101.9,1063.4L1101.9,1063.4
	c0.3,0,0.6,0,0.8-0.2l0,0c1-0.5,1.5-1.6,1-2.6l0,0c-0.5-1-1.6-1.5-2.7-1l0,0c-1,0.5-1.5,1.6-1,2.7
	C1100.4,1063,1101.1,1063.4,1101.9,1063.4z M1097,1053.8L1097,1053.8c0.3,0,0.7-0.1,1-0.2l0,0c1-0.5,1.3-1.8,0.8-2.7l0,0
	c-0.5-1-1.7-1.3-2.7-0.8l0,0c-1,0.5-1.3,1.7-0.8,2.7C1095.6,1053.4,1096.3,1053.8,1097,1053.8z M1091.5,1044.6L1091.5,1044.6
	c0.4,0,0.7-0.1,1.1-0.3l0,0c0.9-0.6,1.2-1.8,0.6-2.8l0,0c-0.6-0.9-1.8-1.2-2.8-0.6l0,0c-0.9,0.6-1.2,1.8-0.6,2.8l0,0
	C1090.2,1044.3,1090.9,1044.6,1091.5,1044.6z M1085.4,1035.7L1085.4,1035.7c0.4,0,0.8-0.2,1.2-0.4l0,0c0.9-0.7,1.1-1.9,0.4-2.8l0,0
	c-0.6-0.9-1.9-1.1-2.8-0.4l0,0c-0.9,0.7-1.1,1.9-0.4,2.8C1084.2,1035.4,1084.8,1035.7,1085.4,1035.7z M1078.6,1027.4L1078.6,1027.4
	c0.5,0,0.9-0.2,1.3-0.5l0,0c0.8-0.7,0.9-2,0.2-2.9l0,0c0,0,0,0,0,0l0,0c-0.7-0.8-2-0.9-2.8-0.2l0,0c-0.8,0.7-0.9,2-0.2,2.8l0,0
	C1077.5,1027.1,1078,1027.4,1078.6,1027.4z M1071.2,1019.5L1071.2,1019.5c0.5,0,1-0.2,1.4-0.6l0,0c0.8-0.8,0.8-2,0-2.8l0,0
	c-0.8-0.8-2.1-0.8-2.8,0l0,0c-0.8,0.8-0.8,2.1,0,2.8C1070.2,1019.3,1070.7,1019.5,1071.2,1019.5z M1063.3,1012.1L1063.3,1012.1
	c0.6,0,1.1-0.2,1.5-0.7l0,0c0.7-0.8,0.6-2.1-0.2-2.9l0,0l0,0l0,0c-0.8-0.7-2.1-0.6-2.8,0.2l0,0c-0.7,0.8-0.6,2.1,0.2,2.8l0,0
	C1062.4,1012,1062.9,1012.1,1063.3,1012.1z M1055,1005.3L1055,1005.3c0.6,0,1.2-0.3,1.6-0.8l0,0c0.6-0.9,0.5-2.2-0.4-2.8l0,0
	c-0.9-0.7-2.1-0.5-2.8,0.4l0,0c-0.7,0.9-0.5,2.2,0.4,2.8C1054.1,1005.2,1054.5,1005.3,1055,1005.3z M1046.1,999.2L1046.1,999.2
	c0.7,0,1.3-0.3,1.7-0.9l0,0c0.6-0.9,0.3-2.2-0.6-2.8l0,0c-0.9-0.6-2.2-0.3-2.8,0.6l0,0c-0.6,0.9-0.3,2.2,0.6,2.8
	C1045.4,999.1,1045.7,999.2,1046.1,999.2z M1036.8,993.7L1036.8,993.7c0.7,0,1.4-0.4,1.8-1l0,0c0.5-1,0.2-2.2-0.8-2.7l0,0
	c-1-0.5-2.2-0.2-2.7,0.8l0,0c-0.5,1-0.2,2.2,0.8,2.7C1036.2,993.6,1036.5,993.7,1036.8,993.7z M1027.2,988.9L1027.2,988.9
	c0.8,0,1.5-0.5,1.8-1.2l0,0c0.5-1,0-2.2-1-2.7l0,0c-1-0.5-2.2,0-2.7,1l0,0c-0.5,1,0,2.2,1,2.7
	C1026.6,988.8,1026.9,988.9,1027.2,988.9z M1017.2,984.7L1017.2,984.7c0.8,0,1.6-0.5,1.9-1.3l0,0c0.4-1-0.2-2.2-1.2-2.6l0,0
	c-1-0.4-2.2,0.2-2.6,1.2l0,0c-0.4,1,0.1,2.2,1.2,2.6C1016.8,984.7,1017,984.7,1017.2,984.7z M1007,981.3L1007,981.3
	c0.9,0,1.7-0.6,1.9-1.5l0,0c0.3-1.1-0.3-2.2-1.3-2.5l0,0l0,0l0,0c-1.1-0.3-2.2,0.3-2.5,1.3l0,0c-0.3,1.1,0.3,2.2,1.4,2.5
	C1006.6,981.3,1006.8,981.3,1007,981.3z M996.5,978.6L996.5,978.6c0.9,0,1.8-0.6,2-1.6l0,0c0.2-1.1-0.5-2.2-1.5-2.4l0,0c0,0,0,0,0,0
	l0,0c-1.1-0.2-2.2,0.5-2.4,1.5l0,0c-0.2,1.1,0.5,2.2,1.5,2.4C996.3,978.6,996.4,978.6,996.5,978.6z M986,976.8L986,976.8
	c1,0,1.8-0.7,2-1.7l0,0c0.2-1.1-0.6-2.1-1.7-2.3l0,0l0,0l0,0c-1.1-0.2-2.1,0.6-2.3,1.7l0,0c-0.2,1.1,0.6,2.1,1.7,2.3
	C985.7,976.8,985.8,976.8,986,976.8z M975.1,975.6L975.1,975.6c1.1,0.1,2.1-0.8,2.2-1.8l0,0c0.1-1.1-0.8-2.1-1.8-2.2l0,0l0,0l0,0
	c-1.1-0.1-2.1,0.8-2.2,1.8C973.1,974.6,974,975.6,975.1,975.6z M965.2,1277.2c0.2-0.1,0.5-0.3,0.6-0.5c0.2-0.2,0.3-0.4,0.4-0.6
	c0.1-0.2,0.2-0.5,0.2-0.8c0-0.2,0-0.5-0.2-0.8c-0.1-0.2-0.2-0.5-0.4-0.6c-0.5-0.6-1.5-0.8-2.2-0.5c-0.2,0.1-0.5,0.3-0.7,0.5
	c-0.2,0.2-0.3,0.4-0.4,0.6c-0.1,0.2-0.2,0.5-0.2,0.8c0,0.3,0.1,0.5,0.2,0.8c0.1,0.2,0.2,0.5,0.4,0.6c0.4,0.4,0.9,0.6,1.4,0.6
	C964.7,1277.4,965,1277.3,965.2,1277.2z M1100.7,1124.3c0-75.1-61.1-136.3-136.3-136.3c-1.1,0-2,0.9-2,2c0,1.1,0.9,2,2,2
	c72.9,0,132.3,59.3,132.3,132.3c0,72.9-59.3,132.3-132.3,132.3c-1.1,0-2,0.9-2,2s0.9,2,2,2
	C1039.6,1260.6,1100.7,1199.4,1100.7,1124.3z M1158.4,1124.3c0-1.1-0.9-2-2-2h-57.7c-1.1,0-2,0.9-2,2c0,1.1,0.9,2,2,2h57.7
	C1157.5,1126.3,1158.4,1125.4,1158.4,1124.3z M1160.8,1124.3l-17.6-16.4l-2.7,2.9l14.5,13.5l-14.5,13.5l2.7,2.9L1160.8,1124.3z
	 M1260.8,974.6c0.4-0.4,0.6-0.9,0.6-1.4c0-0.5-0.2-1.1-0.6-1.4c-0.2-0.2-0.4-0.3-0.7-0.4c-0.7-0.3-1.6-0.1-2.2,0.4
	c-0.2,0.2-0.3,0.4-0.4,0.6c-0.1,0.2-0.2,0.5-0.2,0.8c0,0.5,0.2,1,0.6,1.4c0.4,0.4,0.9,0.6,1.4,0.6
	C1259.9,975.3,1260.4,975,1260.8,974.6z M1270.5,1276.9L1270.5,1276.9c1.1-0.1,1.9-1,1.8-2.2l0,0c-0.1-1.1-1-1.9-2.2-1.8l0,0
	c-1.1,0.1-1.9,1.1-1.8,2.2l0,0C1268.5,1276.2,1269.5,1277,1270.5,1276.9L1270.5,1276.9z M1281.1,1275.8L1281.1,1275.8
	c0.1,0,0.2,0,0.3,0l0,0c1.1-0.2,1.8-1.2,1.7-2.2l0,0c-0.2-1.1-1.2-1.9-2.3-1.7l0,0c-1.1,0.2-1.8,1.2-1.7,2.3
	C1279.3,1275.1,1280.1,1275.8,1281.1,1275.8z M1291.7,1273.9L1291.7,1273.9c0.1,0,0.3,0,0.4-0.1l0,0l0,0l0,0
	c1.1-0.2,1.8-1.3,1.5-2.4l0,0c-0.2-1.1-1.3-1.8-2.4-1.5l0,0c-1.1,0.2-1.8,1.3-1.5,2.4C1290,1273.2,1290.8,1273.9,1291.7,1273.9z
	 M1302.2,1271.2L1302.2,1271.2c0.2,0,0.4,0,0.6-0.1l0,0c1.1-0.3,1.7-1.4,1.3-2.5l0,0c-0.3-1.1-1.4-1.7-2.5-1.4l0,0
	c-1.1,0.3-1.7,1.4-1.4,2.5C1300.5,1270.6,1301.3,1271.2,1302.2,1271.2z M1312.4,1267.8L1312.4,1267.8c0.2,0,0.5-0.1,0.7-0.2l0,0
	c1.1-0.4,1.6-1.5,1.2-2.6l0,0c-0.4-1-1.5-1.5-2.6-1.2l0,0c-1,0.4-1.6,1.5-1.2,2.6C1310.8,1267.3,1311.5,1267.8,1312.4,1267.8z
	 M1322.3,1263.6L1322.3,1263.6c0.3,0,0.6-0.1,0.8-0.2l0,0l0,0l0,0c1-0.5,1.5-1.7,1-2.7l0,0c-0.5-1-1.6-1.5-2.7-1l0,0
	c-1,0.5-1.4,1.6-1,2.6C1320.8,1263.2,1321.6,1263.6,1322.3,1263.6z M1331.9,1258.8L1331.9,1258.8c0.3,0,0.6-0.1,0.9-0.2l0,0
	c1-0.5,1.3-1.8,0.8-2.7l0,0c-0.5-1-1.7-1.3-2.7-0.8l0,0c-1,0.5-1.3,1.8-0.8,2.7C1330.6,1258.4,1331.2,1258.8,1331.9,1258.8z
	 M1341.2,1253.3L1341.2,1253.3c0.4,0,0.7-0.1,1.1-0.3l0,0c0.9-0.6,1.2-1.8,0.6-2.8l0,0c-0.6-0.9-1.8-1.2-2.8-0.6l0,0
	c-0.9,0.6-1.2,1.8-0.6,2.8C1339.9,1253,1340.5,1253.3,1341.2,1253.3z M1350,1247.1L1350,1247.1c0.4,0,0.8-0.2,1.2-0.4l0,0
	c0.9-0.7,1.1-1.9,0.4-2.8l0,0c-0.7-0.9-1.9-1.1-2.8-0.4l0,0c-0.9,0.7-1.1,1.9-0.4,2.8C1348.8,1246.8,1349.4,1247.1,1350,1247.1z
	 M1358.4,1240.3L1358.4,1240.3c0.5,0,0.9-0.2,1.3-0.5l0,0c0.8-0.7,0.9-2,0.2-2.8l0,0c-0.7-0.8-2-0.9-2.8-0.2l0,0
	c-0.8,0.7-0.9,2-0.2,2.8C1357.3,1240.1,1357.8,1240.3,1358.4,1240.3z M1366.3,1233L1366.3,1233c0.5,0,1-0.2,1.4-0.6l0,0l0,0l0,0
	c0.8-0.8,0.8-2.1,0-2.8l0,0c-0.8-0.8-2-0.8-2.8,0l0,0c-0.8,0.8-0.8,2,0,2.8C1365.3,1232.8,1365.8,1233,1366.3,1233z M1373.6,1225.1
	L1373.6,1225.1c0.5,0,1.1-0.2,1.5-0.7l0,0c0.7-0.8,0.6-2.1-0.2-2.8l0,0c-0.8-0.7-2.1-0.6-2.8,0.2l0,0c-0.7,0.8-0.6,2.1,0.2,2.8
	C1372.7,1224.9,1373.1,1225.1,1373.6,1225.1z M1380.4,1216.7L1380.4,1216.7c0.6,0,1.2-0.3,1.6-0.8l0,0c0.6-0.9,0.5-2.1-0.4-2.8l0,0
	c-0.9-0.7-2.1-0.5-2.8,0.4l0,0c-0.7,0.9-0.5,2.2,0.4,2.8C1379.5,1216.6,1380,1216.7,1380.4,1216.7z M1386.5,1207.8L1386.5,1207.8
	c0.6,0,1.3-0.3,1.7-0.9l0,0c0.6-0.9,0.3-2.2-0.6-2.8l0,0c-0.9-0.6-2.2-0.3-2.8,0.6l0,0c-0.6,0.9-0.3,2.2,0.6,2.8
	C1385.8,1207.7,1386.1,1207.8,1386.5,1207.8z M1392,1198.5L1392,1198.5c0.7,0,1.4-0.4,1.8-1l0,0l0,0l0,0c0.5-1,0.2-2.2-0.8-2.7l0,0
	c-1-0.5-2.2-0.2-2.7,0.8l0,0c-0.5,1-0.2,2.2,0.8,2.7C1391.3,1198.5,1391.7,1198.5,1392,1198.5z M1396.8,1188.9L1396.8,1188.9
	c0.8,0,1.5-0.4,1.8-1.2l0,0c0.5-1,0-2.2-1-2.7l0,0c-1-0.5-2.2,0-2.7,1l0,0c-0.5,1,0,2.2,1,2.6
	C1396.3,1188.8,1396.6,1188.9,1396.8,1188.9z M1401,1178.9L1401,1178.9c0.8,0,1.6-0.5,1.9-1.3l0,0l0,0l0,0c0.4-1-0.2-2.2-1.2-2.6
	l0,0c-1-0.4-2.2,0.2-2.6,1.2l0,0c-0.4,1,0.2,2.2,1.2,2.6C1400.5,1178.9,1400.7,1178.9,1401,1178.9z M1404.3,1168.7L1404.3,1168.7
	c0.8,0,1.7-0.6,1.9-1.5l0,0c0.3-1.1-0.3-2.2-1.4-2.5l0,0c-1.1-0.3-2.2,0.3-2.5,1.4l0,0c-0.3,1.1,0.3,2.2,1.4,2.5
	C1404,1168.7,1404.2,1168.7,1404.3,1168.7z M1407,1158.2L1407,1158.2c0.9,0,1.8-0.6,2-1.6l0,0l0,0l0,0c0.2-1.1-0.5-2.2-1.5-2.4l0,0
	c-1.1-0.2-2.2,0.5-2.4,1.5l0,0c-0.2,1.1,0.5,2.2,1.5,2.4C1406.7,1158.2,1406.9,1158.2,1407,1158.2z M1408.9,1147.6L1408.9,1147.6
	c1,0,1.8-0.7,2-1.7l0,0c0.2-1.1-0.6-2.1-1.7-2.3l0,0c-1.1-0.2-2.1,0.6-2.3,1.7l0,0c-0.2,1.1,0.6,2.1,1.7,2.2
	C1408.7,1147.6,1408.8,1147.6,1408.9,1147.6z M1410,1136.9L1410,1136.9c1,0,1.9-0.8,2-1.8l0,0c0.1-1.1-0.8-2.1-1.9-2.2l0,0
	c-1.1-0.1-2.1,0.8-2.1,1.9l0,0c-0.1,1.1,0.8,2.1,1.8,2.1C1409.9,1136.9,1410,1136.9,1410,1136.9z M1410.4,1126.2L1410.4,1126.2
	c1.1,0,2-0.9,2-2l0,0l0,0l0,0c0-1.1-0.9-2-2-2l0,0c-1.1,0-2,0.9-2,2C1408.4,1125.2,1409.3,1126.2,1410.4,1126.2z M1410,1115.4
	L1410,1115.4c0.1,0,0.1,0,0.2,0l0,0c1.1-0.1,1.9-1.1,1.8-2.2l0,0l0,0l0,0c-0.1-1.1-1-1.9-2.2-1.8l0,0c-1.1,0.1-1.9,1-1.8,2.1
	C1408.1,1114.6,1409,1115.4,1410,1115.4z M1408.8,1104.7L1408.8,1104.7c0.1,0,0.2,0,0.3,0l0,0c1.1-0.2,1.8-1.2,1.7-2.3l0,0
	c-0.2-1.1-1.2-1.9-2.3-1.7l0,0c-1.1,0.2-1.8,1.2-1.7,2.3C1407,1103.9,1407.9,1104.7,1408.8,1104.7z M1406.9,1094.1L1406.9,1094.1
	c0.2,0,0.3,0,0.4,0l0,0c1.1-0.2,1.8-1.3,1.5-2.4l0,0l0,0l0,0c-0.2-1.1-1.3-1.8-2.4-1.5l0,0c-1.1,0.2-1.8,1.3-1.5,2.4l0,0
	C1405.2,1093.4,1406,1094.1,1406.9,1094.1z M1404.3,1083.6L1404.3,1083.6c0.2,0,0.4,0,0.6-0.1l0,0c1.1-0.3,1.7-1.4,1.4-2.5l0,0l0,0
	l0,0c-0.3-1.1-1.4-1.7-2.5-1.4l0,0c-1.1,0.3-1.7,1.4-1.4,2.5l0,0C1402.6,1083.1,1403.4,1083.6,1404.3,1083.6z M1400.9,1073.4
	L1400.9,1073.4c0.2,0,0.5,0,0.7-0.1l0,0c1-0.4,1.6-1.5,1.2-2.6l0,0l0,0l0,0c-0.4-1-1.5-1.6-2.6-1.2l0,0c-1.1,0.4-1.6,1.5-1.2,2.6
	C1399.3,1072.9,1400,1073.4,1400.9,1073.4z M1396.7,1063.4L1396.7,1063.4c0.3,0,0.5,0,0.8-0.2l0,0c1-0.5,1.5-1.6,1-2.6l0,0
	c-0.5-1-1.7-1.5-2.7-1l0,0c-1,0.5-1.5,1.6-1,2.7h0C1395.3,1063,1396,1063.4,1396.7,1063.4z M1391.9,1053.8L1391.9,1053.8
	c0.3,0,0.7-0.1,1-0.2l0,0c1-0.5,1.3-1.8,0.8-2.7l0,0c-0.5-1-1.7-1.3-2.7-0.8l0,0c-1,0.5-1.3,1.7-0.8,2.7
	C1390.5,1053.4,1391.2,1053.8,1391.9,1053.8z M1386.4,1044.6L1386.4,1044.6c0.4,0,0.8-0.1,1.1-0.3l0,0c0.9-0.6,1.2-1.8,0.6-2.8l0,0
	c-0.6-0.9-1.8-1.2-2.8-0.6l0,0c-0.9,0.6-1.2,1.8-0.6,2.8C1385.1,1044.3,1385.7,1044.6,1386.4,1044.6z M1380.3,1035.7L1380.3,1035.7
	c0.4,0,0.8-0.2,1.2-0.4l0,0c0.9-0.7,1.1-1.9,0.4-2.8l0,0l0,0l0,0c-0.7-0.9-1.9-1.1-2.8-0.4l0,0c-0.9,0.6-1.1,1.9-0.4,2.8l0,0
	C1379,1035.4,1379.6,1035.7,1380.3,1035.7z M1373.5,1027.4L1373.5,1027.4c0.5,0,0.9-0.2,1.3-0.5l0,0c0.8-0.7,0.9-2,0.2-2.8l0,0
	c-0.7-0.8-2-0.9-2.8-0.2l0,0c-0.8,0.7-0.9,2-0.2,2.8l0,0C1372.3,1027.1,1372.9,1027.4,1373.5,1027.4z M1366.1,1019.5L1366.1,1019.5
	c0.5,0,1-0.2,1.4-0.6l0,0c0.8-0.8,0.8-2,0-2.8l0,0l0,0l0,0c-0.8-0.8-2-0.8-2.8,0l0,0c-0.8,0.8-0.8,2,0,2.8l0,0
	C1365.1,1019.3,1365.6,1019.5,1366.1,1019.5z M1358.2,1012.1L1358.2,1012.1c0.6,0,1.1-0.2,1.5-0.7l0,0c0.7-0.8,0.6-2.1-0.2-2.9l0,0
	l0,0l0,0c-0.8-0.7-2.1-0.6-2.8,0.2l0,0c-0.7,0.8-0.6,2.1,0.2,2.8l0,0C1357.3,1012,1357.8,1012.1,1358.2,1012.1z M1349.8,1005.3
	L1349.8,1005.3c0.6,0,1.2-0.3,1.6-0.8l0,0c0.7-0.9,0.5-2.2-0.4-2.8l0,0c-0.9-0.7-2.2-0.5-2.8,0.4l0,0c-0.7,0.9-0.5,2.2,0.4,2.8
	C1349,1005.2,1349.4,1005.3,1349.8,1005.3z M1341,999.2L1341,999.2c0.7,0,1.3-0.3,1.7-0.9l0,0c0.6-0.9,0.3-2.2-0.6-2.8l0,0
	c-0.9-0.6-2.2-0.3-2.8,0.6l0,0c-0.6,0.9-0.3,2.2,0.6,2.8C1340.2,999.1,1340.6,999.2,1341,999.2z M1331.7,993.7L1331.7,993.7
	c0.7,0,1.4-0.4,1.8-1l0,0c0.5-1,0.2-2.2-0.8-2.7l0,0c-1-0.5-2.2-0.2-2.7,0.8l0,0c-0.5,1-0.2,2.2,0.8,2.7
	C1331.1,993.6,1331.4,993.7,1331.7,993.7z M1322.1,988.9L1322.1,988.9c0.8,0,1.5-0.5,1.8-1.2l0,0c0.5-1,0-2.2-1-2.7l0,0
	c-1-0.5-2.2,0-2.7,1l0,0c-0.5,1,0,2.2,1,2.7C1321.5,988.8,1321.8,988.9,1322.1,988.9z M1312.1,984.7L1312.1,984.7
	c0.8,0,1.6-0.5,1.9-1.3l0,0c0.4-1-0.2-2.2-1.2-2.6l0,0c-1-0.4-2.2,0.2-2.6,1.2l0,0c-0.4,1,0.1,2.2,1.2,2.6
	C1311.6,984.7,1311.9,984.7,1312.1,984.7z M1301.9,981.3L1301.9,981.3c0.8,0,1.7-0.6,1.9-1.5l0,0c0.3-1.1-0.3-2.2-1.4-2.5l0,0
	c-1.1-0.3-2.2,0.3-2.5,1.3l0,0c-0.3,1.1,0.3,2.2,1.4,2.5C1301.5,981.3,1301.7,981.3,1301.9,981.3z M1291.4,978.6L1291.4,978.6
	c0.9,0,1.8-0.6,2-1.6l0,0c0.2-1.1-0.5-2.2-1.5-2.4l0,0l0,0l0,0c-1.1-0.2-2.2,0.5-2.4,1.5l0,0c-0.2,1.1,0.4,2.2,1.5,2.4l0,0
	C1291.2,978.6,1291.3,978.6,1291.4,978.6z M1280.8,976.8L1280.8,976.8c1,0,1.8-0.7,2-1.7l0,0c0.2-1.1-0.6-2.1-1.7-2.3l0,0l0,0l0,0
	c-1.1-0.2-2.1,0.6-2.2,1.7l0,0c-0.2,1.1,0.6,2.1,1.7,2.3C1280.6,976.8,1280.7,976.8,1280.8,976.8z M1270,975.6L1270,975.6
	c1.1,0.1,2.1-0.8,2.1-1.8l0,0c0.1-1.1-0.7-2.1-1.8-2.2l0,0l0,0l0,0c-1.1-0.1-2.1,0.8-2.1,1.8C1268,974.6,1268.9,975.6,1270,975.6z
	 M1260.8,1276.7c0.2-0.2,0.3-0.4,0.4-0.6c0.1-0.2,0.2-0.5,0.2-0.8c0-0.2,0-0.5-0.2-0.8c-0.1-0.2-0.2-0.5-0.4-0.6
	c-0.2-0.2-0.4-0.3-0.7-0.5c-0.5-0.2-1-0.2-1.5,0c-0.2,0.1-0.5,0.3-0.7,0.5c-0.2,0.2-0.3,0.4-0.4,0.6c-0.1,0.2-0.2,0.5-0.2,0.8
	c0,0.3,0.1,0.5,0.2,0.8c0.1,0.2,0.2,0.5,0.4,0.6c0.4,0.4,0.9,0.6,1.4,0.6C1259.9,1277.4,1260.4,1277.1,1260.8,1276.7z
	 M1395.6,1124.3c0-75.1-61.1-136.3-136.3-136.3c-1.1,0-2,0.9-2,2c0,1.1,0.9,2,2,2c72.9,0,132.3,59.3,132.3,132.3
	c0,72.9-59.3,132.3-132.3,132.3c-1.1,0-2,0.9-2,2s0.9,2,2,2C1334.5,1260.6,1395.6,1199.4,1395.6,1124.3z"/>
<linearGradient id="SVGID_00000169558894126707394150000018184401092065819042_" gradientUnits="userSpaceOnUse" x1="-462.4319" y1="776.6808" x2="-308.6319" y2="776.6808" gradientTransform="matrix(1 0 0 1 0 -912)">
	<stop  offset="0" style="stop-color:#EC0AFA"/>
	<stop  offset="0.1686" style="stop-color:#C62DF7"/>
	<stop  offset="0.3886" style="stop-color:#9956F3"/>
	<stop  offset="0.5" style="stop-color:#8866F1"/>
	<stop  offset="0.5695" style="stop-color:#806DF0"/>
	<stop  offset="0.6795" style="stop-color:#6981ED"/>
	<stop  offset="0.8163" style="stop-color:#44A1E7"/>
	<stop  offset="0.9731" style="stop-color:#11CDE0"/>
	<stop  offset="1" style="stop-color:#07D5DF"/>
</linearGradient>
<circle style="fill:url(#SVGID_00000169558894126707394150000018184401092065819042_);" cx="-385.5" cy="-135.3" r="76.9"/>
<rect x="9.4" y="739.8" style="fill:none;" width="288" height="93.4"/>
<text transform="matrix(1 0 0 1 9.4306 755.5125)" style="fill:#00E7FF; font-family:'Roboto-Bold'; font-size:21px;">Project Manager Assigned</text>
<rect x="352.8" y="739.8" style="fill:none;" width="183" height="93.4"/>
<text transform="matrix(1 0 0 1 352.7733 755.5125)"><tspan x="0" y="0" style="fill:#00E7FF; font-family:'Roboto-Bold'; font-size:21px;">Discovery Calls </tspan><tspan x="0" y="21.6" class="st3" style="font-family:'Roboto-Regular'; font-size:18px;"> </tspan><tspan x="0" y="43.2" class="st3" style="font-family:'Roboto-Regular'; font-size:18px;">.- concept / creatives</tspan></text>
<rect x="594.7" y="739.8" style="fill:none;" width="275.9" height="231.8"/>
<text transform="matrix(1 0 0 1 594.7224 755.5125)"><tspan x="0" y="0" style="fill:#00E7FF; font-family:'Roboto-Bold'; font-size:21px;">Build out Team (customized </tspan><tspan x="0" y="25.2" style="fill:#00E7FF; font-family:'Roboto-Bold'; font-size:21px;">based talent required)</tspan><tspan x="0" y="68.4" class="st3" style="font-family:'Roboto-Regular'; font-size:18px;">- Solidity / Unity Developers</tspan><tspan x="0" y="90" class="st3" style="font-family:'Roboto-Regular'; font-size:18px;">- Modelist</tspan><tspan x="0" y="111.6" class="st3" style="font-family:'Roboto-Regular'; font-size:18px;">- Game designers</tspan><tspan x="0" y="133.2" class="st3" style="font-family:'Roboto-Regular'; font-size:18px;">- Animators</tspan><tspan x="0" y="154.8" class="st3" style="font-family:'Roboto-Regular'; font-size:18px;">- Music and composition</tspan></text>
<rect x="909.4" y="739.8" style="fill:none;" width="233.2" height="78.5"/>
<text transform="matrix(1 0 0 1 909.428 755.5125)"><tspan x="0" y="0" style="fill:#00E7FF; font-family:'Roboto-Bold'; font-size:21px;">Build Game</tspan><tspan x="0" y="43.2" class="st3" style="font-family:'Roboto-Regular'; font-size:18px;">- Involving clients at all times</tspan></text>
<rect x="1177.2" y="739.8" style="fill:none;" width="297.3" height="159.1"/>
<text transform="matrix(1 0 0 1 1177.2421 755.5125)"><tspan x="0" y="0" style="fill:#00E7FF; font-family:'Roboto-Bold'; font-size:21px;">Launch and Manage</tspan><tspan x="0" y="43.2" class="st3" style="font-family:'Roboto-Regular'; font-size:18px;">- Launch Game</tspan><tspan x="0" y="86.4" class="st3" style="font-family:'Roboto-Regular'; font-size:18px;">- Manage updates and maintenance</tspan></text>
<text transform="matrix(1 0 0 1 -31.5902 892.5466)" class="st3" style="font-family:'Roboto-Black'; font-size:144.4879px;">1</text>
<text transform="matrix(1 0 0 1 170.7371 892.5466)" class="st3" style="font-family:'Roboto-Black'; font-size:144.4879px;">2</text>
<text transform="matrix(1 0 0 1 349.9712 892.5466)" class="st3" style="font-family:'Roboto-Black'; font-size:144.4879px;">3</text>
<text transform="matrix(1 0 0 1 495.3983 892.5466)" class="st3" style="font-family:'Roboto-Black'; font-size:144.4879px;">4</text>
<text transform="matrix(1 0 0 1 666.9727 892.5466)" class="st3" style="font-family:'Roboto-Black'; font-size:144.4879px;">5</text>
<g>
	<g>
		<path class="st3" d="M330.9-92.3h-20v-63.6l-19.6,5.7v-15.1l37.8-13.1h1.8V-92.3z"/>
	</g>
	<g>
		
			<linearGradient id="SVGID_00000022531959749195180970000008985945889924926134_" gradientUnits="userSpaceOnUse" x1="321.9628" y1="1368.9231" x2="496.5168" y2="1368.9231" gradientTransform="matrix(6.123234e-17 1 -1 6.123234e-17 1681.9694 -544.559)">
			<stop  offset="0" style="stop-color:#EC0AFA"/>
			<stop  offset="0.1686" style="stop-color:#C62DF7"/>
			<stop  offset="0.3886" style="stop-color:#9956F3"/>
			<stop  offset="0.5" style="stop-color:#8866F1"/>
			<stop  offset="0.5695" style="stop-color:#806DF0"/>
			<stop  offset="0.6795" style="stop-color:#6981ED"/>
			<stop  offset="0.8163" style="stop-color:#44A1E7"/>
			<stop  offset="0.9731" style="stop-color:#11CDE0"/>
			<stop  offset="1" style="stop-color:#07D5DF"/>
		</linearGradient>
		<path style="fill:url(#SVGID_00000022531959749195180970000008985945889924926134_);" d="M225.8-135.3c0-48.1,39.2-87.3,87.3-87.3
			c48.1,0,87.3,39.2,87.3,87.3c0,48.1-39.2,87.3-87.3,87.3C264.9-48,225.8-87.2,225.8-135.3z M387.8-135.3
			c0-41.2-33.5-74.8-74.8-74.8c-41.2,0-74.8,33.5-74.8,74.8c0,41.2,33.5,74.8,74.8,74.8C354.3-60.6,387.8-94.1,387.8-135.3z"/>
	</g>
</g>
<g>
	<g>
		<path class="st3" d="M128.2,138H68.1v-13l27.7-29.1c6.8-7.8,10.2-13.9,10.2-18.5c0-3.7-0.8-6.5-2.4-8.5c-1.6-1.9-4-2.9-7-2.9
			c-3,0-5.5,1.3-7.4,3.9c-1.9,2.6-2.8,5.8-2.8,9.7h-20c0-5.3,1.3-10.2,4-14.6c2.6-4.5,6.3-8,11-10.5c4.7-2.5,9.9-3.8,15.7-3.8
			c9.3,0,16.5,2.2,21.5,6.4c5,4.3,7.5,10.5,7.5,18.5c0,3.4-0.6,6.7-1.9,9.9c-1.3,3.2-3.2,6.6-5.9,10.1c-2.7,3.5-7,8.3-12.9,14.2
			l-11.1,12.8h33.9V138z"/>
	</g>
	<g>
		
			<linearGradient id="SVGID_00000039822236066212625710000000107356664986458026_" gradientUnits="userSpaceOnUse" x1="551.5563" y1="1584.6929" x2="726.1104" y2="1584.6929" gradientTransform="matrix(6.123234e-17 1 -1 6.123234e-17 1681.9694 -544.559)">
			<stop  offset="0" style="stop-color:#EC0AFA"/>
			<stop  offset="0.1686" style="stop-color:#C62DF7"/>
			<stop  offset="0.3886" style="stop-color:#9956F3"/>
			<stop  offset="0.5" style="stop-color:#8866F1"/>
			<stop  offset="0.5695" style="stop-color:#806DF0"/>
			<stop  offset="0.6795" style="stop-color:#6981ED"/>
			<stop  offset="0.8163" style="stop-color:#44A1E7"/>
			<stop  offset="0.9731" style="stop-color:#11CDE0"/>
			<stop  offset="1" style="stop-color:#07D5DF"/>
		</linearGradient>
		<path style="fill:url(#SVGID_00000039822236066212625710000000107356664986458026_);" d="M10,94.3C10,46.2,49.2,7,97.3,7
			c48.1,0,87.3,39.2,87.3,87.3c0,48.1-39.2,87.3-87.3,87.3C49.2,181.6,10,142.4,10,94.3z M172,94.3c0-41.2-33.5-74.8-74.8-74.8
			c-41.2,0-74.8,33.5-74.8,74.8c0,41.2,33.5,74.8,74.8,74.8C138.5,169,172,135.5,172,94.3z"/>
	</g>
</g>
<g>
	<g>
		<path class="st3" d="M665.6,87h9.4c7.5,0,11.2-3.6,11.2-10.9c0-2.8-0.9-5.2-2.7-7c-1.8-1.8-4.3-2.7-7.5-2.7
			c-2.6,0-4.9,0.8-6.9,2.3c-2,1.5-2.9,3.5-2.9,5.7h-19.9c0-4.5,1.3-8.6,3.8-12.1c2.5-3.5,6-6.3,10.5-8.3c4.5-2,9.4-3,14.8-3
			c9.6,0,17.1,2.2,22.6,6.6c5.5,4.4,8.2,10.4,8.2,18c0,3.7-1.1,7.2-3.4,10.5c-2.3,3.3-5.6,6-9.9,8c4.6,1.7,8.2,4.2,10.8,7.5
			c2.6,3.4,3.9,7.5,3.9,12.5c0,7.7-3,13.8-8.9,18.5c-5.9,4.6-13.7,6.9-23.3,6.9c-5.6,0-10.9-1.1-15.7-3.2c-4.8-2.1-8.5-5.1-11-8.9
			c-2.5-3.8-3.7-8.1-3.7-13h20.1c0,2.6,1.1,4.9,3.2,6.9c2.1,1.9,4.8,2.9,7.9,2.9c3.5,0,6.3-1,8.4-2.9c2.1-2,3.1-4.4,3.1-7.5
			c0-4.3-1.1-7.4-3.3-9.2c-2.2-1.8-5.2-2.7-9-2.7h-9.7V87z"/>
	</g>
	<g>
		
			<linearGradient id="SVGID_00000149362796028467071940000011054960918929214084_" gradientUnits="userSpaceOnUse" x1="552.5493" y1="1005.8041" x2="727.1033" y2="1005.8041" gradientTransform="matrix(6.123234e-17 1 -1 6.123234e-17 1681.9694 -544.559)">
			<stop  offset="0" style="stop-color:#EC0AFA"/>
			<stop  offset="0.1686" style="stop-color:#C62DF7"/>
			<stop  offset="0.3886" style="stop-color:#9956F3"/>
			<stop  offset="0.5" style="stop-color:#8866F1"/>
			<stop  offset="0.5695" style="stop-color:#806DF0"/>
			<stop  offset="0.6795" style="stop-color:#6981ED"/>
			<stop  offset="0.8163" style="stop-color:#44A1E7"/>
			<stop  offset="0.9731" style="stop-color:#11CDE0"/>
			<stop  offset="1" style="stop-color:#07D5DF"/>
		</linearGradient>
		<path style="fill:url(#SVGID_00000149362796028467071940000011054960918929214084_);" d="M588.9,95.3C588.9,47.1,628,8,676.2,8
			c48.1,0,87.3,39.2,87.3,87.3c0,48.1-39.2,87.3-87.3,87.3C628,182.5,588.9,143.4,588.9,95.3z M750.9,95.3
			c0-41.2-33.5-74.8-74.8-74.8c-41.2,0-74.8,33.5-74.8,74.8c0,41.2,33.5,74.8,74.8,74.8C717.4,170,750.9,136.5,750.9,95.3z"/>
	</g>
</g>
<g>
	<g>
		<path class="st3" d="M990.4,104.7h8.8v15.4h-8.8v18.3h-19.9v-18.3h-33.3l-1.2-12.2l34.5-55.5v-0.2h19.9V104.7z M954.9,104.7h15.5
			V78.2l-1.2,2L954.9,104.7z"/>
	</g>
	<g>
		
			<linearGradient id="SVGID_00000139980313636070238970000014149688768118878628_" gradientUnits="userSpaceOnUse" x1="552.5493" y1="712.4446" x2="727.1033" y2="712.4446" gradientTransform="matrix(6.123234e-17 1 -1 6.123234e-17 1681.9694 -544.559)">
			<stop  offset="0" style="stop-color:#EC0AFA"/>
			<stop  offset="0.1686" style="stop-color:#C62DF7"/>
			<stop  offset="0.3886" style="stop-color:#9956F3"/>
			<stop  offset="0.5" style="stop-color:#8866F1"/>
			<stop  offset="0.5695" style="stop-color:#806DF0"/>
			<stop  offset="0.6795" style="stop-color:#6981ED"/>
			<stop  offset="0.8163" style="stop-color:#44A1E7"/>
			<stop  offset="0.9731" style="stop-color:#11CDE0"/>
			<stop  offset="1" style="stop-color:#07D5DF"/>
		</linearGradient>
		<path style="fill:url(#SVGID_00000139980313636070238970000014149688768118878628_);" d="M882.2,95.3c0-48.1,39.2-87.3,87.3-87.3
			c48.1,0,87.3,39.2,87.3,87.3c0,48.1-39.2,87.3-87.3,87.3C921.4,182.5,882.2,143.4,882.2,95.3z M1044.3,95.3
			c0-41.2-33.5-74.8-74.8-74.8c-41.2,0-74.8,33.5-74.8,74.8c0,41.2,33.5,74.8,74.8,74.8C1010.7,170,1044.3,136.5,1044.3,95.3z"/>
	</g>
</g>
<g>
	<g>
		<path class="st3" d="M1241,96.7l5.3-44.1h50.3v15.5h-34.1l-2,17.1c1.4-0.8,3.3-1.6,5.6-2.2c2.3-0.6,4.6-1,6.8-1
			c8.6,0,15.1,2.5,19.7,7.6c4.6,5.1,6.9,12.2,6.9,21.3c0,5.5-1.2,10.5-3.7,15c-2.5,4.5-5.9,7.9-10.4,10.3c-4.5,2.4-9.7,3.6-15.8,3.6
			c-5.4,0-10.5-1.1-15.2-3.3c-4.7-2.2-8.4-5.3-11.1-9.2c-2.7-3.9-4-8.3-4-13.2h20c0.2,3.1,1.2,5.6,3,7.5c1.8,1.9,4.2,2.8,7.2,2.8
			c6.7,0,10.1-5,10.1-14.9c0-9.2-4.1-13.8-12.3-13.8c-4.7,0-8.1,1.5-10.4,4.5L1241,96.7z"/>
	</g>
	<g>
		
			<linearGradient id="SVGID_00000124143534568957735160000010416533118537116324_" gradientUnits="userSpaceOnUse" x1="552.5493" y1="412.5852" x2="727.1033" y2="412.5852" gradientTransform="matrix(6.123234e-17 1 -1 6.123234e-17 1681.9694 -544.559)">
			<stop  offset="0" style="stop-color:#EC0AFA"/>
			<stop  offset="0.1686" style="stop-color:#C62DF7"/>
			<stop  offset="0.3886" style="stop-color:#9956F3"/>
			<stop  offset="0.5" style="stop-color:#8866F1"/>
			<stop  offset="0.5695" style="stop-color:#806DF0"/>
			<stop  offset="0.6795" style="stop-color:#6981ED"/>
			<stop  offset="0.8163" style="stop-color:#44A1E7"/>
			<stop  offset="0.9731" style="stop-color:#11CDE0"/>
			<stop  offset="1" style="stop-color:#07D5DF"/>
		</linearGradient>
		<path style="fill:url(#SVGID_00000124143534568957735160000010416533118537116324_);" d="M1182.1,95.3c0-48.1,39.2-87.3,87.3-87.3
			c48.1,0,87.3,39.2,87.3,87.3c0,48.1-39.2,87.3-87.3,87.3C1221.3,182.5,1182.1,143.4,1182.1,95.3z M1344.1,95.3
			c0-41.2-33.5-74.8-74.8-74.8c-41.2,0-74.8,33.5-74.8,74.8c0,41.2,33.5,74.8,74.8,74.8C1310.6,170,1344.1,136.5,1344.1,95.3z"/>
	</g>
</g>
</svg>
