<?xml version="1.0" encoding="utf-8"?>
<!-- Generator: Adobe Illustrator 26.3.1, SVG Export Plug-In . SVG Version: 6.00 Build 0)  -->
<svg version="1.1" id="Layer_1" xmlns="http://www.w3.org/2000/svg" xmlns:xlink="http://www.w3.org/1999/xlink" x="0px" y="0px"
	 viewBox="0 0 166 166" style="enable-background:new 0 0 166 166;" xml:space="preserve">
<style type="text/css">
	.st0{fill:#FFFFFF;}
	.st1{fill:url(#SVGID_1_);}
	.st2{fill:url(#SVGID_00000125592456192298770730000009236358752128024968_);}
	.st3{fill:url(#SVGID_00000046310785463737287270000012567106307183920013_);}
	.st4{fill:url(#SVGID_00000026140992508198674230000016419835023295223979_);}
	.st5{fill:url(#SVGID_00000000907643406013686840000010062397784311569295_);}
	.st6{fill:url(#SVGID_00000124873630356996879480000007746827815675802517_);}
	.st7{fill:url(#SVGID_00000170250904472635288220000010221251535834622850_);}
	.st8{fill:url(#SVGID_00000025418634848754598620000016350003671755347328_);}
	.st9{fill:url(#SVGID_00000112601255254525618580000006523093853927135660_);}
	.st10{fill:url(#SVGID_00000000207143526907000670000015221840359815199386_);}
	.st11{fill:url(#SVGID_00000171706742493536554820000002465082740276539564_);}
	.st12{fill:url(#SVGID_00000005235299335434560420000006700781880892209289_);}
	.st13{fill:#EC0AFA;}
	.st14{fill:#07D5DF;}
	.st15{fill:#8866F1;}
	.st16{fill:url(#SVGID_00000042705690542281272100000013575791902477742743_);}
	.st17{fill:url(#SVGID_00000138550715692439031460000008070809109133652878_);}
	.st18{fill:url(#SVGID_00000138534391517096794720000007687680955831930509_);}
	.st19{fill:url(#SVGID_00000103963173202864656820000002519303153531390107_);}
</style>
<g>
	<g>
		<path class="st0" d="M-104.5,256.8l-6.3-20.4l-0.4,21h-13.6l2.5-47.6h16.2l7.4,23.2l7.5-23.2h16.2l2.5,47.6h-13.6l-0.4-21
			l-6.3,20.4H-104.5z"/>
		<path class="st0" d="M-48.2,258.2c-3.2,0-6-0.4-8.5-1.2c-2.5-0.8-4.5-2-6.2-3.6c-1.7-1.7-2.9-3.8-3.8-6.3
			c-0.9-2.6-1.3-5.7-1.3-9.3v-27.8h14.2v28c0,2.6,0.5,4.5,1.4,5.7c1,1.2,2.3,1.8,4,1.8c1.8,0,3.2-0.6,4.1-1.8c1-1.2,1.4-3.1,1.4-5.7
			v-28h14.2v27.8c0,3.6-0.4,6.7-1.3,9.3c-0.8,2.6-2.1,4.7-3.8,6.3c-1.7,1.7-3.7,2.9-6.1,3.6C-42.2,257.8-45,258.2-48.2,258.2z"/>
		<path class="st0" d="M-9.1,209.9v34.6h20.2v13h-34.4v-47.6H-9.1z"/>
		<path class="st0" d="M21,223H9.5v-13.1h37.4V223H35.2v34.5H21V223z"/>
		<path class="st0" d="M65.8,209.9v47.6H51.7v-47.6H65.8z"/>
		<path class="st0" d="M84.6,257.5l-14.5-47.6h14.9l7.3,28.6l7.3-28.6h14.9l-14.5,47.6H84.6z"/>
		<path class="st0" d="M151,240.1h-18.6v4.4h20.2v13h-34.4v-47.6h33.5v13h-19.3v4.3H151V240.1z"/>
		<path class="st0" d="M175.3,209.9c2.8,0,5.4,0.3,7.8,0.8c2.4,0.5,4.5,1.4,6.3,2.7c1.8,1.3,3.2,3.1,4.2,5.3c1,2.2,1.5,5.1,1.5,8.5
			c0,3.5-0.5,6.4-1.6,8.8c-1,2.4-2.7,4.2-4.9,5.6l8.6,15.9h-16.8l-6.4-13h-2.6v13h-14.2v-47.6H175.3z M171.5,222.8v8.7h2.5
			c2.5,0,4.3-0.3,5.4-0.8c1.1-0.6,1.6-1.7,1.6-3.4c0-1-0.2-1.8-0.5-2.4c-0.3-0.6-0.8-1-1.4-1.3c-0.6-0.3-1.4-0.5-2.2-0.6
			c-0.9-0.1-1.8-0.1-2.9-0.1H171.5z"/>
		<path class="st0" d="M200.9,241.1c0.9,0.5,2,0.9,3.3,1.3c1.3,0.4,2.7,0.8,4.1,1.2c1.4,0.3,2.8,0.6,4.1,0.8
			c1.3,0.2,2.5,0.3,3.4,0.3c1.6,0,2.7-0.1,3.4-0.4c0.7-0.3,1-0.7,1-1.3c0-0.4-0.1-0.7-0.4-1c-0.2-0.3-0.6-0.5-1.1-0.8
			c-0.5-0.2-1.1-0.5-1.8-0.7c-0.7-0.2-1.6-0.5-2.5-0.8c-2-0.7-3.9-1.5-5.6-2.3c-1.7-0.8-3.2-1.8-4.4-3c-1.3-1.1-2.2-2.4-3-3.9
			c-0.7-1.5-1.1-3.3-1.2-5.3c-0.2-4.9,1-8.8,3.8-11.6c2.8-2.8,7-4.2,12.7-4.2c3.2,0,6,0.3,8.4,1c2.4,0.6,4.6,1.4,6.6,2.3v13.1
			c-0.6-0.3-1.5-0.7-2.6-1c-1.1-0.4-2.3-0.7-3.6-1c-1.3-0.3-2.6-0.6-4-0.8c-1.3-0.2-2.5-0.3-3.6-0.3c-1.3,0-2.2,0.1-2.7,0.4
			c-0.4,0.3-0.7,0.6-0.7,1.1c0,0.5,0.3,1,0.8,1.3c0.6,0.3,1.3,0.7,2.2,1c0.7,0.2,1.4,0.5,2.2,0.8c0.8,0.3,1.7,0.6,2.6,0.9
			c2.3,0.9,4.3,1.8,5.8,2.7c1.5,0.9,2.8,2,3.7,3.1c0.9,1.1,1.6,2.4,2,3.8c0.4,1.4,0.7,3,0.7,4.8c0.1,2.3-0.2,4.3-0.8,6.3
			c-0.7,1.9-1.8,3.6-3.3,5c-1.5,1.4-3.4,2.5-5.8,3.3c-2.4,0.8-5.3,1.2-8.6,1.2c-1.3,0-2.7-0.1-4.1-0.3c-1.4-0.2-2.7-0.5-4.1-0.9
			c-1.3-0.4-2.6-0.8-3.8-1.2c-1.2-0.5-2.2-0.9-3.1-1.4L200.9,241.1z"/>
		<path class="st0" d="M272.1,240.1h-18.6v4.4h20.2v13h-34.4v-47.6h33.5v13h-19.3v4.3h18.6V240.1z"/>
		<path class="st0" d="M-124,303.8c0.9,0.5,2,0.9,3.3,1.3c1.3,0.4,2.7,0.8,4.1,1.2c1.4,0.3,2.8,0.6,4.1,0.8c1.3,0.2,2.5,0.3,3.4,0.3
			c1.6,0,2.7-0.1,3.4-0.4s1-0.7,1-1.3c0-0.4-0.1-0.7-0.4-1c-0.2-0.3-0.6-0.5-1.1-0.8c-0.5-0.2-1.1-0.5-1.8-0.7
			c-0.7-0.2-1.6-0.5-2.5-0.8c-2-0.7-3.9-1.5-5.6-2.3c-1.7-0.8-3.2-1.8-4.4-3c-1.3-1.1-2.2-2.4-3-3.9c-0.7-1.5-1.1-3.3-1.2-5.3
			c-0.2-4.9,1-8.8,3.8-11.6c2.8-2.8,7-4.2,12.7-4.2c3.2,0,6,0.3,8.4,1c2.4,0.6,4.6,1.4,6.6,2.3v13.1c-0.6-0.3-1.5-0.7-2.6-1
			c-1.1-0.4-2.3-0.7-3.6-1c-1.3-0.3-2.6-0.6-4-0.8c-1.3-0.2-2.5-0.3-3.6-0.3c-1.3,0-2.2,0.1-2.7,0.4c-0.4,0.3-0.7,0.6-0.7,1.1
			c0,0.5,0.3,1,0.8,1.3c0.6,0.3,1.3,0.7,2.2,1c0.7,0.2,1.4,0.5,2.2,0.8c0.8,0.3,1.7,0.6,2.6,0.9c2.3,0.9,4.3,1.8,5.8,2.7
			c1.5,0.9,2.8,2,3.7,3.1c0.9,1.1,1.6,2.4,2,3.8c0.4,1.4,0.7,3,0.7,4.8c0.1,2.3-0.2,4.3-0.8,6.3c-0.7,1.9-1.8,3.6-3.3,5
			c-1.5,1.4-3.4,2.5-5.8,3.3c-2.4,0.8-5.3,1.2-8.6,1.2c-1.3,0-2.7-0.1-4.1-0.3c-1.4-0.2-2.7-0.5-4.1-0.9c-1.3-0.4-2.6-0.8-3.8-1.2
			c-1.2-0.5-2.2-0.9-3.1-1.4L-124,303.8z"/>
		<path class="st0" d="M-75.2,285.8h-11.5v-13.1h37.4v13.1H-61v34.5h-14.2V285.8z"/>
		<path class="st0" d="M-25.2,320.9c-3.2,0-6-0.4-8.5-1.2c-2.5-0.8-4.5-2-6.2-3.6c-1.7-1.7-2.9-3.8-3.8-6.3
			c-0.9-2.6-1.3-5.7-1.3-9.3v-27.8h14.2v28c0,2.6,0.5,4.5,1.4,5.7c1,1.2,2.3,1.8,4,1.8c1.8,0,3.2-0.6,4.1-1.8c1-1.2,1.4-3.1,1.4-5.7
			v-28h14.2v27.8c0,3.6-0.4,6.7-1.3,9.3c-0.8,2.6-2.1,4.7-3.8,6.3c-1.7,1.7-3.7,2.9-6.1,3.6C-19.2,320.5-22,320.9-25.2,320.9z"/>
		<path class="st0" d="M14.7,272.7c3.3,0,6.5,0.4,9.4,1.1c2.9,0.7,5.5,2,7.7,3.8c2.2,1.8,3.9,4.2,5.2,7.3c1.3,3.1,1.9,7,1.9,11.7
			c0,8.1-2,14.1-5.9,17.9c-3.9,3.9-9.9,5.8-17.8,5.8H-0.3v-47.6H14.7z M13.6,285.6v21.6h0.5c1.7,0,3.3-0.2,4.6-0.5
			c1.4-0.3,2.5-0.9,3.4-1.7c0.9-0.8,1.6-1.9,2.1-3.3c0.5-1.4,0.7-3.1,0.7-5.2c0-2.3-0.3-4.2-0.8-5.6c-0.5-1.4-1.3-2.5-2.3-3.3
			c-1-0.8-2.1-1.3-3.4-1.6c-1.3-0.3-2.7-0.4-4.2-0.4H13.6z"/>
		<path class="st0" d="M58.2,272.7v47.6H44.1v-47.6H58.2z"/>
		<path class="st0" d="M109.7,296.4c0,3.9-0.5,7.4-1.6,10.5c-1.1,3-2.7,5.6-4.7,7.7c-2,2.1-4.5,3.6-7.3,4.7c-2.8,1.1-6,1.6-9.5,1.6
			s-6.7-0.5-9.5-1.6c-2.8-1.1-5.3-2.6-7.3-4.7c-2-2.1-3.6-4.6-4.7-7.7c-1.1-3-1.6-6.5-1.6-10.5c0-3.9,0.5-7.4,1.6-10.5
			c1.1-3,2.7-5.6,4.7-7.7c2-2.1,4.5-3.6,7.3-4.7c2.8-1.1,6-1.6,9.5-1.6s6.7,0.5,9.5,1.6c2.8,1.1,5.3,2.6,7.3,4.7
			c2,2.1,3.6,4.6,4.7,7.7C109.2,289,109.7,292.5,109.7,296.4z M86.6,284.7c-2.7,0-4.8,0.9-6.3,2.8c-1.5,1.9-2.3,4.8-2.3,8.7
			c0,4,0.8,6.9,2.3,8.7c1.5,1.8,3.5,2.7,6.1,2.7c2.7,0,4.9-0.9,6.4-2.7c1.6-1.8,2.3-4.7,2.3-8.7c0-3.9-0.8-6.9-2.3-8.7
			C91.4,285.6,89.3,284.7,86.6,284.7z"/>
	</g>
	<g>
		<linearGradient id="SVGID_1_" gradientUnits="userSpaceOnUse" x1="-398.7253" y1="265.1376" x2="-242.03" y2="265.1376">
			<stop  offset="0" style="stop-color:#EC0AFA"/>
			<stop  offset="0.1686" style="stop-color:#C62DF7"/>
			<stop  offset="0.3886" style="stop-color:#9956F3"/>
			<stop  offset="0.5" style="stop-color:#8866F1"/>
			<stop  offset="0.5695" style="stop-color:#806DF0"/>
			<stop  offset="0.6795" style="stop-color:#6981ED"/>
			<stop  offset="0.8163" style="stop-color:#44A1E7"/>
			<stop  offset="0.9731" style="stop-color:#11CDE0"/>
			<stop  offset="1" style="stop-color:#07D5DF"/>
		</linearGradient>
		<circle class="st1" cx="-310.2" cy="265.1" r="78.3"/>
		
			<linearGradient id="SVGID_00000143607133424075290120000001912679202802228375_" gradientUnits="userSpaceOnUse" x1="-231.8173" y1="235.2088" x2="-134.9796" y2="235.2088">
			<stop  offset="0" style="stop-color:#07D5DF"/>
			<stop  offset="2.693525e-02" style="stop-color:#11CDE0"/>
			<stop  offset="0.1837" style="stop-color:#44A1E7"/>
			<stop  offset="0.3205" style="stop-color:#6981ED"/>
			<stop  offset="0.4305" style="stop-color:#806DF0"/>
			<stop  offset="0.5" style="stop-color:#8866F1"/>
			<stop  offset="0.6114" style="stop-color:#9956F3"/>
			<stop  offset="0.8314" style="stop-color:#C62DF7"/>
			<stop  offset="1" style="stop-color:#EC0AFA"/>
		</linearGradient>
		<circle style="fill:url(#SVGID_00000143607133424075290120000001912679202802228375_);" cx="-183.4" cy="235.2" r="48.4"/>
		
			<linearGradient id="SVGID_00000089572176859484593060000005301955579823081149_" gradientUnits="userSpaceOnUse" x1="-192.7113" y1="304.0298" x2="-136.0702" y2="323.4378">
			<stop  offset="0" style="stop-color:#07D5DF"/>
			<stop  offset="2.693525e-02" style="stop-color:#11CDE0"/>
			<stop  offset="0.1837" style="stop-color:#44A1E7"/>
			<stop  offset="0.3205" style="stop-color:#6981ED"/>
			<stop  offset="0.4305" style="stop-color:#806DF0"/>
			<stop  offset="0.5" style="stop-color:#8866F1"/>
			<stop  offset="0.6114" style="stop-color:#9956F3"/>
			<stop  offset="0.8314" style="stop-color:#C62DF7"/>
			<stop  offset="1" style="stop-color:#EC0AFA"/>
		</linearGradient>
		<circle style="fill:url(#SVGID_00000089572176859484593060000005301955579823081149_);" cx="-164.9" cy="313.6" r="29.9"/>
		
			<linearGradient id="SVGID_00000040548150731774340480000014347275894841514927_" gradientUnits="userSpaceOnUse" x1="-220.5145" y1="307.954" x2="-206.14" y2="342.0363">
			<stop  offset="0" style="stop-color:#07D5DF"/>
			<stop  offset="2.693525e-02" style="stop-color:#11CDE0"/>
			<stop  offset="0.1837" style="stop-color:#44A1E7"/>
			<stop  offset="0.3205" style="stop-color:#6981ED"/>
			<stop  offset="0.4305" style="stop-color:#806DF0"/>
			<stop  offset="0.5" style="stop-color:#8866F1"/>
			<stop  offset="0.6114" style="stop-color:#9956F3"/>
			<stop  offset="0.8314" style="stop-color:#C62DF7"/>
			<stop  offset="1" style="stop-color:#EC0AFA"/>
		</linearGradient>
		<circle style="fill:url(#SVGID_00000040548150731774340480000014347275894841514927_);" cx="-213.3" cy="325" r="18.5"/>
		
			<linearGradient id="SVGID_00000066487156389966477050000013405232352608375228_" gradientUnits="userSpaceOnUse" x1="-227.8479" y1="286.4028" x2="-212.9091" y2="303.73">
			<stop  offset="0" style="stop-color:#07D5DF"/>
			<stop  offset="2.693525e-02" style="stop-color:#11CDE0"/>
			<stop  offset="0.1837" style="stop-color:#44A1E7"/>
			<stop  offset="0.3205" style="stop-color:#6981ED"/>
			<stop  offset="0.4305" style="stop-color:#806DF0"/>
			<stop  offset="0.5" style="stop-color:#8866F1"/>
			<stop  offset="0.6114" style="stop-color:#9956F3"/>
			<stop  offset="0.8314" style="stop-color:#C62DF7"/>
			<stop  offset="1" style="stop-color:#EC0AFA"/>
		</linearGradient>
		<circle style="fill:url(#SVGID_00000066487156389966477050000013405232352608375228_);" cx="-220.4" cy="295.1" r="11.4"/>
		
			<linearGradient id="SVGID_00000174602705945689522040000013596558969845999524_" gradientUnits="userSpaceOnUse" x1="-208.9397" y1="290.6789" x2="-194.8372" y2="290.6789">
			<stop  offset="0" style="stop-color:#07D5DF"/>
			<stop  offset="2.693525e-02" style="stop-color:#11CDE0"/>
			<stop  offset="0.1837" style="stop-color:#44A1E7"/>
			<stop  offset="0.3205" style="stop-color:#6981ED"/>
			<stop  offset="0.4305" style="stop-color:#806DF0"/>
			<stop  offset="0.5" style="stop-color:#8866F1"/>
			<stop  offset="0.6114" style="stop-color:#9956F3"/>
			<stop  offset="0.8314" style="stop-color:#C62DF7"/>
			<stop  offset="1" style="stop-color:#EC0AFA"/>
		</linearGradient>
		<circle style="fill:url(#SVGID_00000174602705945689522040000013596558969845999524_);" cx="-201.9" cy="290.7" r="7.1"/>
	</g>
</g>
<g>
	<g>
		<path class="st0" d="M326.7-160.6l-6.3-20.4l-0.4,21h-13.6l2.5-47.6H325l7.4,23.2l7.5-23.2h16.2l2.5,47.6H345l-0.4-21l-6.3,20.4
			H326.7z"/>
		<path class="st0" d="M383-159.3c-3.2,0-6-0.4-8.5-1.2c-2.5-0.8-4.5-2-6.2-3.6c-1.7-1.7-2.9-3.8-3.8-6.3c-0.9-2.6-1.3-5.7-1.3-9.3
			v-27.8h14.2v28c0,2.6,0.5,4.5,1.4,5.7c1,1.2,2.3,1.8,4,1.8c1.8,0,3.2-0.6,4.1-1.8c1-1.2,1.4-3.1,1.4-5.7v-28h14.2v27.8
			c0,3.6-0.4,6.7-1.3,9.3c-0.8,2.6-2.1,4.7-3.8,6.3c-1.7,1.7-3.7,2.9-6.1,3.6C389-159.6,386.2-159.3,383-159.3z"/>
		<path class="st0" d="M422.1-207.5v34.6h20.2v13h-34.4v-47.6H422.1z"/>
		<path class="st0" d="M452.2-194.4h-11.5v-13.1h37.4v13.1h-11.7v34.5h-14.2V-194.4z"/>
		<path class="st0" d="M497-207.5v47.6h-14.2v-47.6H497z"/>
		<path class="st0" d="M515.8-159.9l-14.5-47.6h14.9l7.3,28.6l7.3-28.6h14.9l-14.5,47.6H515.8z"/>
		<path class="st0" d="M582.2-177.3h-18.6v4.4h20.2v13h-34.4v-47.6h33.5v13h-19.3v4.3h18.6V-177.3z"/>
		<path class="st0" d="M606.5-207.5c2.8,0,5.4,0.3,7.8,0.8c2.4,0.5,4.5,1.4,6.3,2.7c1.8,1.3,3.2,3.1,4.2,5.3c1,2.2,1.5,5.1,1.5,8.5
			c0,3.5-0.5,6.4-1.6,8.8c-1,2.4-2.7,4.2-4.9,5.6l8.6,15.9h-16.8l-6.4-13h-2.6v13h-14.2v-47.6H606.5z M602.7-194.6v8.7h2.5
			c2.5,0,4.3-0.3,5.4-0.8c1.1-0.6,1.6-1.7,1.6-3.4c0-1-0.2-1.8-0.5-2.4c-0.3-0.6-0.8-1-1.4-1.3c-0.6-0.3-1.4-0.5-2.2-0.6
			c-0.9-0.1-1.8-0.1-2.9-0.1H602.7z"/>
		<path class="st0" d="M632.1-176.4c0.9,0.5,2,0.9,3.3,1.3c1.3,0.4,2.7,0.8,4.1,1.2c1.4,0.3,2.8,0.6,4.1,0.8
			c1.3,0.2,2.5,0.3,3.4,0.3c1.6,0,2.7-0.1,3.4-0.4s1-0.7,1-1.3c0-0.4-0.1-0.7-0.4-1c-0.2-0.3-0.6-0.5-1.1-0.8
			c-0.5-0.2-1.1-0.5-1.8-0.7c-0.7-0.2-1.6-0.5-2.5-0.8c-2-0.7-3.9-1.5-5.6-2.3c-1.7-0.8-3.2-1.8-4.4-3c-1.3-1.1-2.2-2.4-3-3.9
			c-0.7-1.5-1.1-3.3-1.2-5.3c-0.2-4.9,1-8.8,3.8-11.6c2.8-2.8,7-4.2,12.7-4.2c3.2,0,6,0.3,8.4,1c2.4,0.6,4.6,1.4,6.6,2.3v13.1
			c-0.6-0.3-1.5-0.7-2.6-1c-1.1-0.4-2.3-0.7-3.6-1c-1.3-0.3-2.6-0.6-4-0.8c-1.3-0.2-2.5-0.3-3.6-0.3c-1.3,0-2.2,0.1-2.7,0.4
			c-0.4,0.3-0.7,0.6-0.7,1.1c0,0.5,0.3,1,0.8,1.3c0.6,0.3,1.3,0.7,2.2,1c0.7,0.2,1.4,0.5,2.2,0.8c0.8,0.3,1.7,0.6,2.6,0.9
			c2.3,0.9,4.3,1.8,5.8,2.7c1.5,0.9,2.8,2,3.7,3.1c0.9,1.1,1.6,2.4,2,3.8c0.4,1.4,0.7,3,0.7,4.8c0.1,2.3-0.2,4.3-0.8,6.3
			c-0.7,1.9-1.8,3.6-3.3,5c-1.5,1.4-3.4,2.5-5.8,3.3c-2.4,0.8-5.3,1.2-8.6,1.2c-1.3,0-2.7-0.1-4.1-0.3c-1.4-0.2-2.7-0.5-4.1-0.9
			c-1.3-0.4-2.6-0.8-3.8-1.2c-1.2-0.5-2.2-0.9-3.1-1.4L632.1-176.4z"/>
		<path class="st0" d="M703.3-177.3h-18.6v4.4h20.2v13h-34.4v-47.6H704v13h-19.3v4.3h18.6V-177.3z"/>
		<path class="st0" d="M307.2-113.7c0.9,0.5,2,0.9,3.3,1.3c1.3,0.4,2.7,0.8,4.1,1.2c1.4,0.3,2.8,0.6,4.1,0.8
			c1.3,0.2,2.5,0.3,3.4,0.3c1.6,0,2.7-0.1,3.4-0.4s1-0.7,1-1.3c0-0.4-0.1-0.7-0.4-1c-0.2-0.3-0.6-0.5-1.1-0.8
			c-0.5-0.2-1.1-0.5-1.8-0.7c-0.7-0.2-1.6-0.5-2.5-0.8c-2-0.7-3.9-1.5-5.6-2.3c-1.7-0.8-3.2-1.8-4.4-3c-1.3-1.1-2.2-2.4-3-3.9
			c-0.7-1.5-1.1-3.3-1.2-5.3c-0.2-4.9,1-8.8,3.8-11.6c2.8-2.8,7-4.2,12.7-4.2c3.2,0,6,0.3,8.4,1c2.4,0.6,4.6,1.4,6.6,2.3v13.1
			c-0.6-0.3-1.5-0.7-2.6-1c-1.1-0.4-2.3-0.7-3.6-1c-1.3-0.3-2.6-0.6-4-0.8c-1.3-0.2-2.5-0.3-3.6-0.3c-1.3,0-2.2,0.1-2.7,0.4
			c-0.4,0.3-0.7,0.6-0.7,1.1c0,0.5,0.3,1,0.8,1.3c0.6,0.3,1.3,0.7,2.2,1c0.7,0.2,1.4,0.5,2.2,0.8c0.8,0.3,1.7,0.6,2.6,0.9
			c2.3,0.9,4.3,1.8,5.8,2.7c1.5,0.9,2.8,2,3.7,3.1c0.9,1.1,1.6,2.4,2,3.8c0.4,1.4,0.7,3,0.7,4.8c0.1,2.3-0.2,4.3-0.8,6.3
			c-0.7,1.9-1.8,3.6-3.3,5c-1.5,1.4-3.4,2.5-5.8,3.3c-2.4,0.8-5.3,1.2-8.6,1.2c-1.3,0-2.7-0.1-4.1-0.3c-1.4-0.2-2.7-0.5-4.1-0.9
			c-1.3-0.4-2.6-0.8-3.8-1.2c-1.2-0.5-2.2-0.9-3.1-1.4L307.2-113.7z"/>
		<path class="st0" d="M356-131.7h-11.5v-13.1h37.4v13.1h-11.7v34.5H356V-131.7z"/>
		<path class="st0" d="M406-96.5c-3.2,0-6-0.4-8.5-1.2c-2.5-0.8-4.5-2-6.2-3.6c-1.7-1.7-2.9-3.8-3.8-6.3c-0.9-2.6-1.3-5.7-1.3-9.3
			v-27.8h14.2v28c0,2.6,0.5,4.5,1.4,5.7c1,1.2,2.3,1.8,4,1.8c1.8,0,3.2-0.6,4.1-1.8c1-1.2,1.4-3.1,1.4-5.7v-28h14.2v27.8
			c0,3.6-0.4,6.7-1.3,9.3c-0.8,2.6-2.1,4.7-3.8,6.3c-1.7,1.7-3.7,2.9-6.1,3.6C412-96.9,409.2-96.5,406-96.5z"/>
		<path class="st0" d="M445.9-144.8c3.3,0,6.5,0.4,9.4,1.1c2.9,0.7,5.5,2,7.7,3.8c2.2,1.8,3.9,4.2,5.2,7.3c1.3,3.1,1.9,7,1.9,11.7
			c0,8.1-2,14.1-5.9,17.9c-3.9,3.9-9.9,5.8-17.8,5.8h-15.4v-47.6H445.9z M444.8-131.8v21.6h0.5c1.7,0,3.3-0.2,4.6-0.5
			c1.4-0.3,2.5-0.9,3.4-1.7c0.9-0.8,1.6-1.9,2.1-3.3c0.5-1.4,0.7-3.1,0.7-5.2c0-2.3-0.3-4.2-0.8-5.6c-0.5-1.4-1.3-2.5-2.3-3.3
			c-1-0.8-2.1-1.3-3.4-1.6c-1.3-0.3-2.7-0.4-4.2-0.4H444.8z"/>
		<path class="st0" d="M489.4-144.8v47.6h-14.2v-47.6H489.4z"/>
		<path class="st0" d="M540.9-121c0,3.9-0.5,7.4-1.6,10.5c-1.1,3-2.7,5.6-4.7,7.7c-2,2.1-4.5,3.6-7.3,4.7c-2.8,1.1-6,1.6-9.5,1.6
			c-3.5,0-6.7-0.5-9.5-1.6c-2.8-1.1-5.3-2.6-7.3-4.7c-2-2.1-3.6-4.6-4.7-7.7c-1.1-3-1.6-6.5-1.6-10.5c0-3.9,0.5-7.4,1.6-10.5
			c1.1-3,2.7-5.6,4.7-7.7c2-2.1,4.5-3.6,7.3-4.7c2.8-1.1,6-1.6,9.5-1.6c3.5,0,6.7,0.5,9.5,1.6c2.8,1.1,5.3,2.6,7.3,4.7
			c2,2.1,3.6,4.6,4.7,7.7C540.4-128.5,540.9-125,540.9-121z M517.8-132.8c-2.7,0-4.8,0.9-6.3,2.8c-1.5,1.9-2.3,4.8-2.3,8.7
			c0,4,0.8,6.9,2.3,8.7c1.5,1.8,3.5,2.7,6.1,2.7c2.7,0,4.9-0.9,6.4-2.7c1.6-1.8,2.3-4.7,2.3-8.7c0-3.9-0.8-6.9-2.3-8.7
			C522.6-131.9,520.5-132.8,517.8-132.8z"/>
	</g>
	<g>
		
			<linearGradient id="SVGID_00000109750603620394538150000006210067430456139707_" gradientUnits="userSpaceOnUse" x1="42.6953" y1="-152.3192" x2="199.3906" y2="-152.3192">
			<stop  offset="0" style="stop-color:#EC0AFA"/>
			<stop  offset="0.1686" style="stop-color:#C62DF7"/>
			<stop  offset="0.3886" style="stop-color:#9956F3"/>
			<stop  offset="0.5" style="stop-color:#8866F1"/>
			<stop  offset="0.5695" style="stop-color:#806DF0"/>
			<stop  offset="0.6795" style="stop-color:#6981ED"/>
			<stop  offset="0.8163" style="stop-color:#44A1E7"/>
			<stop  offset="0.9731" style="stop-color:#11CDE0"/>
			<stop  offset="1" style="stop-color:#07D5DF"/>
		</linearGradient>
		<circle style="fill:url(#SVGID_00000109750603620394538150000006210067430456139707_);" cx="121" cy="-152.3" r="78.3"/>
		
			<linearGradient id="SVGID_00000105399278834598689500000011022183978350074293_" gradientUnits="userSpaceOnUse" x1="199.3906" y1="-182.248" x2="296.2282" y2="-182.248">
			<stop  offset="0" style="stop-color:#07D5DF"/>
			<stop  offset="2.693525e-02" style="stop-color:#11CDE0"/>
			<stop  offset="0.1837" style="stop-color:#44A1E7"/>
			<stop  offset="0.3205" style="stop-color:#6981ED"/>
			<stop  offset="0.4305" style="stop-color:#806DF0"/>
			<stop  offset="0.5" style="stop-color:#8866F1"/>
			<stop  offset="0.6114" style="stop-color:#9956F3"/>
			<stop  offset="0.8314" style="stop-color:#C62DF7"/>
			<stop  offset="1" style="stop-color:#EC0AFA"/>
		</linearGradient>
		<circle style="fill:url(#SVGID_00000105399278834598689500000011022183978350074293_);" cx="247.8" cy="-182.2" r="48.4"/>
		
			<linearGradient id="SVGID_00000098923734656115571900000005105804221366222267_" gradientUnits="userSpaceOnUse" x1="238.4966" y1="-113.4269" x2="295.1377" y2="-94.019">
			<stop  offset="0" style="stop-color:#07D5DF"/>
			<stop  offset="2.693525e-02" style="stop-color:#11CDE0"/>
			<stop  offset="0.1837" style="stop-color:#44A1E7"/>
			<stop  offset="0.3205" style="stop-color:#6981ED"/>
			<stop  offset="0.4305" style="stop-color:#806DF0"/>
			<stop  offset="0.5" style="stop-color:#8866F1"/>
			<stop  offset="0.6114" style="stop-color:#9956F3"/>
			<stop  offset="0.8314" style="stop-color:#C62DF7"/>
			<stop  offset="1" style="stop-color:#EC0AFA"/>
		</linearGradient>
		<circle style="fill:url(#SVGID_00000098923734656115571900000005105804221366222267_);" cx="266.3" cy="-103.9" r="29.9"/>
		
			<linearGradient id="SVGID_00000101090780570461881020000000513484705818369712_" gradientUnits="userSpaceOnUse" x1="210.6933" y1="-109.5027" x2="225.0679" y2="-75.4204">
			<stop  offset="0" style="stop-color:#07D5DF"/>
			<stop  offset="2.693525e-02" style="stop-color:#11CDE0"/>
			<stop  offset="0.1837" style="stop-color:#44A1E7"/>
			<stop  offset="0.3205" style="stop-color:#6981ED"/>
			<stop  offset="0.4305" style="stop-color:#806DF0"/>
			<stop  offset="0.5" style="stop-color:#8866F1"/>
			<stop  offset="0.6114" style="stop-color:#9956F3"/>
			<stop  offset="0.8314" style="stop-color:#C62DF7"/>
			<stop  offset="1" style="stop-color:#EC0AFA"/>
		</linearGradient>
		<circle style="fill:url(#SVGID_00000101090780570461881020000000513484705818369712_);" cx="217.9" cy="-92.5" r="18.5"/>
		
			<linearGradient id="SVGID_00000174573432132299569830000003222495074614300045_" gradientUnits="userSpaceOnUse" x1="203.3599" y1="-131.0539" x2="218.2988" y2="-113.7268">
			<stop  offset="0" style="stop-color:#07D5DF"/>
			<stop  offset="2.693525e-02" style="stop-color:#11CDE0"/>
			<stop  offset="0.1837" style="stop-color:#44A1E7"/>
			<stop  offset="0.3205" style="stop-color:#6981ED"/>
			<stop  offset="0.4305" style="stop-color:#806DF0"/>
			<stop  offset="0.5" style="stop-color:#8866F1"/>
			<stop  offset="0.6114" style="stop-color:#9956F3"/>
			<stop  offset="0.8314" style="stop-color:#C62DF7"/>
			<stop  offset="1" style="stop-color:#EC0AFA"/>
		</linearGradient>
		<circle style="fill:url(#SVGID_00000174573432132299569830000003222495074614300045_);" cx="210.8" cy="-122.4" r="11.4"/>
		
			<linearGradient id="SVGID_00000152953143376071670060000017869639059250536637_" gradientUnits="userSpaceOnUse" x1="222.2681" y1="-126.7779" x2="236.3706" y2="-126.7779">
			<stop  offset="0" style="stop-color:#07D5DF"/>
			<stop  offset="2.693525e-02" style="stop-color:#11CDE0"/>
			<stop  offset="0.1837" style="stop-color:#44A1E7"/>
			<stop  offset="0.3205" style="stop-color:#6981ED"/>
			<stop  offset="0.4305" style="stop-color:#806DF0"/>
			<stop  offset="0.5" style="stop-color:#8866F1"/>
			<stop  offset="0.6114" style="stop-color:#9956F3"/>
			<stop  offset="0.8314" style="stop-color:#C62DF7"/>
			<stop  offset="1" style="stop-color:#EC0AFA"/>
		</linearGradient>
		<circle style="fill:url(#SVGID_00000152953143376071670060000017869639059250536637_);" cx="229.3" cy="-126.8" r="7.1"/>
	</g>
</g>
<image style="overflow:visible;" width="1657" height="812" xlink:href="Screenshot 2022-06-01 004151.jpg"  transform="matrix(0.75 0 0 0.75 -364.203 342.1917)">
</image>
<circle class="st13" cx="199.6" cy="280.5" r="39.8"/>
<circle class="st14" cx="384.4" cy="281.3" r="39.8"/>
<image style="overflow:visible;" width="1618" height="730" xlink:href="Screenshot 2022-06-01 011536.jpg"  transform="matrix(0.75 0 0 0.75 -367.3441 441.0519)">
</image>
<circle class="st15" cx="526.4" cy="285.2" r="46.8"/>
<linearGradient id="SVGID_00000124121795270668512080000011566398634791757744_" gradientUnits="userSpaceOnUse" x1="-319.4464" y1="679.4261" x2="-228.807" y2="679.4261">
	<stop  offset="0" style="stop-color:#EC0AFA"/>
	<stop  offset="0.1686" style="stop-color:#C62DF7"/>
	<stop  offset="0.3886" style="stop-color:#9956F3"/>
	<stop  offset="0.5" style="stop-color:#8866F1"/>
	<stop  offset="0.5695" style="stop-color:#806DF0"/>
	<stop  offset="0.6795" style="stop-color:#6981ED"/>
	<stop  offset="0.8163" style="stop-color:#44A1E7"/>
	<stop  offset="0.9731" style="stop-color:#11CDE0"/>
	<stop  offset="1" style="stop-color:#07D5DF"/>
</linearGradient>
<circle style="fill:url(#SVGID_00000124121795270668512080000011566398634791757744_);" cx="-274.1" cy="679.4" r="45.3"/>
<g>
	<path class="st0" d="M-297.6,664.4c0.8,0,1.5,0.1,2.1,0.2c0.7,0.1,1.2,0.4,1.7,0.8c0.5,0.4,0.9,0.8,1.2,1.5
		c0.3,0.6,0.4,1.4,0.4,2.3c0,1.6-0.4,2.8-1.3,3.6c-0.9,0.8-2.2,1.2-4.1,1.2h-1.1v3.6h-3.9v-13H-297.6z M-298.7,667.9v2.4h0.7
		c0.7,0,1.2-0.1,1.5-0.2c0.3-0.2,0.4-0.5,0.4-0.9c0-0.3,0-0.5-0.1-0.7c-0.1-0.2-0.2-0.3-0.4-0.4c-0.2-0.1-0.4-0.1-0.6-0.2
		c-0.2,0-0.5,0-0.8,0H-298.7z"/>
	<path class="st0" d="M-287,664.4v4.5h3.1v-4.5h3.9v13h-3.9v-4.9h-3.1v4.9h-3.9v-13H-287z"/>
	<path class="st0" d="M-270.7,664.4l4,13h-4.1l-0.4-1.7h-3.2l-0.4,1.7h-4.1l4-13H-270.7z M-273.6,672.4h1.4l-0.7-2.8L-273.6,672.4z"
		/>
	<path class="st0" d="M-265.7,672.9c0.2,0.1,0.5,0.2,0.9,0.4c0.4,0.1,0.7,0.2,1.1,0.3s0.8,0.2,1.1,0.2c0.4,0.1,0.7,0.1,0.9,0.1
		c0.4,0,0.7,0,0.9-0.1c0.2-0.1,0.3-0.2,0.3-0.4c0-0.1,0-0.2-0.1-0.3c-0.1-0.1-0.2-0.1-0.3-0.2c-0.1-0.1-0.3-0.1-0.5-0.2
		c-0.2-0.1-0.4-0.1-0.7-0.2c-0.6-0.2-1.1-0.4-1.5-0.6c-0.5-0.2-0.9-0.5-1.2-0.8c-0.3-0.3-0.6-0.7-0.8-1.1c-0.2-0.4-0.3-0.9-0.3-1.4
		c-0.1-1.3,0.3-2.4,1-3.2c0.8-0.8,1.9-1.2,3.5-1.2c0.9,0,1.6,0.1,2.3,0.3c0.7,0.2,1.3,0.4,1.8,0.6v3.6c-0.2-0.1-0.4-0.2-0.7-0.3
		c-0.3-0.1-0.6-0.2-1-0.3c-0.4-0.1-0.7-0.2-1.1-0.2c-0.4-0.1-0.7-0.1-1-0.1c-0.4,0-0.6,0-0.7,0.1c-0.1,0.1-0.2,0.2-0.2,0.3
		c0,0.1,0.1,0.3,0.2,0.4c0.2,0.1,0.4,0.2,0.6,0.3c0.2,0.1,0.4,0.1,0.6,0.2s0.5,0.2,0.7,0.3c0.6,0.2,1.2,0.5,1.6,0.7
		c0.4,0.3,0.8,0.5,1,0.9c0.3,0.3,0.4,0.7,0.6,1c0.1,0.4,0.2,0.8,0.2,1.3c0,0.6,0,1.2-0.2,1.7c-0.2,0.5-0.5,1-0.9,1.4
		c-0.4,0.4-0.9,0.7-1.6,0.9s-1.4,0.3-2.3,0.3c-0.4,0-0.7,0-1.1-0.1c-0.4-0.1-0.8-0.1-1.1-0.2c-0.4-0.1-0.7-0.2-1-0.3
		c-0.3-0.1-0.6-0.3-0.9-0.4L-265.7,672.9z"/>
	<path class="st0" d="M-246.1,672.7h-5.1v1.2h5.5v3.6h-9.4v-13h9.2v3.6h-5.3v1.2h5.1V672.7z"/>
	<path class="st0" d="M-275.1,686.1l-2.7,0.8v-3.2l3.6-1.7h2.9v12.6h-3.9V686.1z"/>
</g>
<linearGradient id="SVGID_00000124163826366141589330000002328467267466873002_" gradientUnits="userSpaceOnUse" x1="258.8331" y1="679.5775" x2="349.4725" y2="679.5775">
	<stop  offset="0" style="stop-color:#EC0AFA"/>
	<stop  offset="0.1686" style="stop-color:#C62DF7"/>
	<stop  offset="0.3886" style="stop-color:#9956F3"/>
	<stop  offset="0.5" style="stop-color:#8866F1"/>
	<stop  offset="0.5695" style="stop-color:#806DF0"/>
	<stop  offset="0.6795" style="stop-color:#6981ED"/>
	<stop  offset="0.8163" style="stop-color:#44A1E7"/>
	<stop  offset="0.9731" style="stop-color:#11CDE0"/>
	<stop  offset="1" style="stop-color:#07D5DF"/>
</linearGradient>
<circle style="fill:url(#SVGID_00000124163826366141589330000002328467267466873002_);" cx="304.2" cy="679.6" r="45.3"/>
<text transform="matrix(1 0 0 1 188.3009 273.0683)"><tspan x="0" y="0" class="st0" style="font-family:'TTSupersizeBk'; font-size:24.5784px;">PHASE</tspan><tspan x="42" y="29.5" class="st0" style="font-family:'TTSupersizeBk'; font-size:24.5784px;">1</tspan></text>
<g>
	<path class="st0" d="M231.1,6.4c1.1,0,2.2,0.1,3.2,0.3c1,0.2,1.9,0.6,2.6,1.1c0.7,0.5,1.3,1.3,1.7,2.2c0.4,0.9,0.6,2.1,0.6,3.5
		c0,2.4-0.6,4.2-1.9,5.4s-3.3,1.7-6.1,1.7h-1.7v5.3h-5.8V6.4H231.1z M229.5,11.7v3.6h1c1,0,1.8-0.1,2.2-0.3c0.4-0.2,0.7-0.7,0.7-1.4
		c0-0.4-0.1-0.7-0.2-1c-0.1-0.2-0.3-0.4-0.6-0.5s-0.6-0.2-0.9-0.2c-0.4,0-0.7,0-1.2,0H229.5z"/>
	<path class="st0" d="M247.1,6.4v6.7h4.7V6.4h5.8v19.6h-5.8v-7.3h-4.7v7.3h-5.8V6.4H247.1z"/>
	<path class="st0" d="M271.4,6.4l6,19.6h-6.1l-0.7-2.5h-4.8l-0.6,2.5h-6.1l6-19.6H271.4z M267.1,18.4h2.2l-1.1-4.2L267.1,18.4z"/>
	<path class="st0" d="M279,19.2c0.4,0.2,0.8,0.4,1.4,0.6c0.5,0.2,1.1,0.3,1.7,0.5c0.6,0.1,1.1,0.2,1.7,0.3c0.6,0.1,1,0.1,1.4,0.1
		c0.6,0,1.1-0.1,1.4-0.2c0.3-0.1,0.4-0.3,0.4-0.6c0-0.2-0.1-0.3-0.2-0.4c-0.1-0.1-0.3-0.2-0.5-0.3c-0.2-0.1-0.5-0.2-0.8-0.3
		c-0.3-0.1-0.7-0.2-1-0.3c-0.8-0.3-1.6-0.6-2.3-1s-1.3-0.8-1.8-1.2c-0.5-0.5-0.9-1-1.2-1.6c-0.3-0.6-0.5-1.3-0.5-2.2
		c-0.1-2,0.4-3.6,1.6-4.8c1.1-1.2,2.9-1.7,5.2-1.7c1.3,0,2.4,0.1,3.4,0.4c1,0.3,1.9,0.6,2.7,1v5.4c-0.3-0.1-0.6-0.3-1.1-0.4
		c-0.5-0.1-1-0.3-1.5-0.4c-0.5-0.1-1.1-0.2-1.6-0.3c-0.5-0.1-1-0.1-1.5-0.1c-0.6,0-0.9,0.1-1.1,0.2c-0.2,0.1-0.3,0.3-0.3,0.4
		c0,0.2,0.1,0.4,0.3,0.5c0.2,0.1,0.5,0.3,0.9,0.4c0.3,0.1,0.6,0.2,0.9,0.3c0.3,0.1,0.7,0.2,1.1,0.4c1,0.4,1.7,0.7,2.4,1.1
		c0.6,0.4,1.1,0.8,1.5,1.3c0.4,0.5,0.7,1,0.8,1.6c0.2,0.6,0.3,1.2,0.3,2c0,0.9-0.1,1.8-0.3,2.6c-0.3,0.8-0.7,1.5-1.3,2
		c-0.6,0.6-1.4,1-2.4,1.3c-1,0.3-2.2,0.5-3.5,0.5c-0.6,0-1.1,0-1.7-0.1s-1.1-0.2-1.7-0.4c-0.5-0.2-1.1-0.3-1.6-0.5
		c-0.5-0.2-0.9-0.4-1.3-0.6L279,19.2z"/>
	<path class="st0" d="M308.3,18.8h-7.6v1.8h8.3v5.3h-14.1V6.4h13.8v5.3h-7.9v1.8h7.6V18.8z"/>
	<path class="st0" d="M264.8,38.9l-4,1.2v-4.8l5.5-2.5h4.4v18.9h-5.8V38.9z"/>
</g>
<g>
	<path class="st0" d="M276.3,665.1c0.9,0,1.7,0.1,2.5,0.3c0.8,0.2,1.4,0.5,2,0.9c0.6,0.4,1,1,1.3,1.7c0.3,0.7,0.5,1.6,0.5,2.7
		c0,1.9-0.5,3.2-1.5,4.1c-1,0.9-2.5,1.3-4.7,1.3h-1.3v4.1h-4.5v-15H276.3z M275.1,669.2v2.7h0.8c0.8,0,1.4-0.1,1.7-0.3
		s0.5-0.5,0.5-1.1c0-0.3-0.1-0.6-0.2-0.8c-0.1-0.2-0.3-0.3-0.5-0.4c-0.2-0.1-0.4-0.2-0.7-0.2c-0.3,0-0.6,0-0.9,0H275.1z"/>
	<path class="st0" d="M288.6,665.1v5.2h3.6v-5.2h4.5v15h-4.5v-5.6h-3.6v5.6h-4.5v-15H288.6z"/>
	<path class="st0" d="M307.2,665.1l4.6,15h-4.7l-0.5-1.9H303l-0.5,1.9h-4.7l4.6-15H307.2z M304,674.4h1.7l-0.8-3.2L304,674.4z"/>
	<path class="st0" d="M313.1,675c0.3,0.1,0.6,0.3,1,0.4c0.4,0.1,0.8,0.3,1.3,0.4c0.4,0.1,0.9,0.2,1.3,0.3c0.4,0.1,0.8,0.1,1.1,0.1
		c0.5,0,0.8,0,1.1-0.1c0.2-0.1,0.3-0.2,0.3-0.4c0-0.1,0-0.2-0.1-0.3c-0.1-0.1-0.2-0.2-0.4-0.2c-0.2-0.1-0.4-0.1-0.6-0.2
		c-0.2-0.1-0.5-0.2-0.8-0.3c-0.6-0.2-1.2-0.5-1.8-0.7c-0.5-0.3-1-0.6-1.4-0.9c-0.4-0.4-0.7-0.8-0.9-1.2c-0.2-0.5-0.4-1-0.4-1.7
		c-0.1-1.5,0.3-2.8,1.2-3.7c0.9-0.9,2.2-1.3,4-1.3c1,0,1.9,0.1,2.6,0.3c0.8,0.2,1.5,0.4,2.1,0.7v4.1c-0.2-0.1-0.5-0.2-0.8-0.3
		c-0.4-0.1-0.7-0.2-1.2-0.3c-0.4-0.1-0.8-0.2-1.3-0.3c-0.4-0.1-0.8-0.1-1.1-0.1c-0.4,0-0.7,0-0.8,0.1c-0.1,0.1-0.2,0.2-0.2,0.3
		c0,0.2,0.1,0.3,0.3,0.4c0.2,0.1,0.4,0.2,0.7,0.3c0.2,0.1,0.4,0.2,0.7,0.2c0.3,0.1,0.5,0.2,0.8,0.3c0.7,0.3,1.3,0.6,1.8,0.9
		c0.5,0.3,0.9,0.6,1.2,1c0.3,0.4,0.5,0.8,0.6,1.2c0.1,0.4,0.2,0.9,0.2,1.5c0,0.7-0.1,1.4-0.3,2c-0.2,0.6-0.6,1.1-1,1.6
		c-0.5,0.4-1.1,0.8-1.8,1c-0.8,0.3-1.7,0.4-2.7,0.4c-0.4,0-0.9,0-1.3-0.1c-0.4-0.1-0.9-0.2-1.3-0.3c-0.4-0.1-0.8-0.2-1.2-0.4
		s-0.7-0.3-1-0.5L313.1,675z"/>
	<path class="st0" d="M335.6,674.7h-5.9v1.4h6.4v4.1h-10.9v-15h10.6v4.1h-6.1v1.4h5.9V674.7z"/>
	<path class="st0" d="M297.8,695.7c0.3,0.1,0.7,0.2,1,0.2c0.4,0.1,0.7,0.1,1.1,0.1c0.4,0,0.8,0.1,1.1,0.1c0.4,0,0.7,0,1,0
		c0.6,0,1.1-0.1,1.4-0.2c0.3-0.1,0.4-0.3,0.4-0.6c0-0.2-0.1-0.4-0.2-0.5c-0.1-0.1-0.2-0.2-0.4-0.2c-0.2-0.1-0.4-0.1-0.6-0.1
		c-0.2,0-0.5,0-0.7,0H300v-3.8h2.1c0.6,0,1-0.1,1.2-0.3c0.2-0.2,0.4-0.4,0.4-0.6c0-0.5-0.4-0.8-1.2-0.8c-0.2,0-0.5,0-0.8,0
		c-0.3,0-0.7,0.1-1,0.1c-0.4,0.1-0.8,0.1-1.2,0.2c-0.4,0.1-0.8,0.2-1.2,0.3v-3.7c0.6-0.3,1.3-0.5,2.1-0.7c0.8-0.2,1.7-0.3,2.7-0.3
		c0.9,0,1.6,0.1,2.3,0.3c0.6,0.2,1.2,0.5,1.6,0.8c0.4,0.3,0.8,0.8,1,1.2c0.2,0.5,0.3,1,0.3,1.5c0,0.6-0.1,1.2-0.3,1.7
		c-0.2,0.5-0.6,1-1.2,1.4c0.6,0.3,1.1,0.8,1.5,1.3c0.4,0.6,0.6,1.3,0.6,2.1c0,0.7-0.1,1.3-0.4,1.9c-0.3,0.6-0.7,1-1.2,1.4
		s-1.2,0.7-1.9,0.9c-0.8,0.2-1.6,0.3-2.5,0.3c-0.5,0-0.9,0-1.4,0c-0.4,0-0.9-0.1-1.3-0.1c-0.4-0.1-0.8-0.1-1.1-0.2
		c-0.4-0.1-0.7-0.2-1-0.4V695.7z"/>
</g>
<g>
	<path class="st0" d="M323.4,29.2c1.1,0,2.2,0.1,3.2,0.3c1,0.2,1.9,0.6,2.6,1.1c0.7,0.5,1.3,1.3,1.7,2.2s0.6,2.1,0.6,3.5
		c0,2.4-0.6,4.2-1.9,5.4s-3.3,1.7-6.1,1.7h-1.7v5.3H316V29.2H323.4z M321.8,34.5V38h1c1,0,1.8-0.1,2.2-0.3c0.4-0.2,0.7-0.7,0.7-1.4
		c0-0.4-0.1-0.7-0.2-1c-0.1-0.2-0.3-0.4-0.6-0.5s-0.6-0.2-0.9-0.2c-0.4,0-0.8,0-1.2,0H321.8z"/>
	<path class="st0" d="M339.4,29.2v6.7h4.7v-6.7h5.8v19.6H344v-7.3h-4.7v7.3h-5.8V29.2H339.4z"/>
	<path class="st0" d="M363.7,29.2l6,19.6h-6.1l-0.7-2.5h-4.8l-0.6,2.5h-6.1l6-19.6H363.7z M359.4,41.2h2.2l-1.1-4.2L359.4,41.2z"/>
	<path class="st0" d="M371.3,42c0.4,0.2,0.8,0.4,1.4,0.6c0.5,0.2,1.1,0.3,1.7,0.5s1.1,0.2,1.7,0.3s1,0.1,1.4,0.1
		c0.6,0,1.1-0.1,1.4-0.2c0.3-0.1,0.4-0.3,0.4-0.6c0-0.2-0.1-0.3-0.2-0.4c-0.1-0.1-0.3-0.2-0.5-0.3s-0.5-0.2-0.8-0.3
		c-0.3-0.1-0.7-0.2-1-0.3c-0.8-0.3-1.6-0.6-2.3-1s-1.3-0.8-1.8-1.2c-0.5-0.5-0.9-1-1.2-1.6c-0.3-0.6-0.5-1.3-0.5-2.2
		c-0.1-2,0.4-3.6,1.6-4.8c1.1-1.2,2.9-1.7,5.2-1.7c1.3,0,2.4,0.1,3.4,0.4c1,0.3,1.9,0.6,2.7,1v5.4c-0.3-0.1-0.6-0.3-1.1-0.4
		c-0.5-0.1-1-0.3-1.5-0.4c-0.5-0.1-1.1-0.2-1.6-0.3c-0.5-0.1-1-0.1-1.5-0.1c-0.6,0-0.9,0.1-1.1,0.2c-0.2,0.1-0.3,0.3-0.3,0.4
		c0,0.2,0.1,0.4,0.3,0.5s0.5,0.3,0.9,0.4c0.3,0.1,0.6,0.2,0.9,0.3c0.3,0.1,0.7,0.2,1.1,0.4c1,0.4,1.7,0.7,2.4,1.1
		c0.6,0.4,1.1,0.8,1.5,1.3c0.4,0.5,0.7,1,0.8,1.6c0.2,0.6,0.3,1.2,0.3,2c0,0.9-0.1,1.8-0.3,2.6c-0.3,0.8-0.7,1.5-1.3,2
		c-0.6,0.6-1.4,1-2.4,1.3c-1,0.3-2.2,0.5-3.5,0.5c-0.5,0-1.1,0-1.7-0.1s-1.1-0.2-1.7-0.4c-0.5-0.2-1.1-0.3-1.6-0.5
		c-0.5-0.2-0.9-0.4-1.3-0.6L371.3,42z"/>
	<path class="st0" d="M400.6,41.6h-7.6v1.8h8.3v5.3h-14.1V29.2h13.8v5.3h-7.9v1.8h7.6V41.6z"/>
	<path class="st0" d="M351.5,74.5v-3.9l2.5-2.2c0.9-0.8,1.6-1.5,2.3-2.1c0.7-0.6,1.2-1.2,1.6-1.7c0.4-0.5,0.8-1,1-1.4
		c0.2-0.4,0.3-0.8,0.3-1.2c0-0.4-0.1-0.7-0.4-1c-0.3-0.3-0.8-0.4-1.4-0.4c-0.6,0-1.1,0.1-1.7,0.2c-0.6,0.2-1.1,0.4-1.6,0.6
		c-0.5,0.2-1,0.5-1.4,0.8c-0.4,0.3-0.8,0.5-1.1,0.7v-5.6c0.9-0.7,1.9-1.2,3-1.5c1.1-0.3,2.3-0.5,3.5-0.5c1.1,0,2.1,0.2,3,0.5
		c0.9,0.3,1.6,0.8,2.2,1.3s1,1.2,1.3,2s0.4,1.6,0.4,2.5c0,0.8-0.1,1.5-0.3,2.2c-0.2,0.7-0.5,1.3-0.9,2c-0.4,0.6-0.9,1.2-1.4,1.8
		c-0.5,0.6-1.1,1.1-1.7,1.7h4.6v5.3H351.5z"/>
</g>
<linearGradient id="SVGID_00000068669275824422399860000014549602029119289773_" gradientUnits="userSpaceOnUse" x1="-62.399" y1="609.9847" x2="91.3053" y2="609.9847">
	<stop  offset="0" style="stop-color:#EC0AFA"/>
	<stop  offset="0.1686" style="stop-color:#C62DF7"/>
	<stop  offset="0.3886" style="stop-color:#9956F3"/>
	<stop  offset="0.5" style="stop-color:#8866F1"/>
	<stop  offset="0.5695" style="stop-color:#806DF0"/>
	<stop  offset="0.6795" style="stop-color:#6981ED"/>
	<stop  offset="0.8163" style="stop-color:#44A1E7"/>
	<stop  offset="0.9731" style="stop-color:#11CDE0"/>
	<stop  offset="1" style="stop-color:#07D5DF"/>
</linearGradient>
<circle style="fill:url(#SVGID_00000068669275824422399860000014549602029119289773_);" cx="14.5" cy="610" r="76.9"/>
<g>
	<path class="st0" d="M-25.4,584.5c1.3,0,2.5,0.1,3.6,0.4c1.1,0.2,2.1,0.7,2.9,1.3s1.5,1.4,2,2.5c0.5,1,0.7,2.4,0.7,3.9
		c0,2.7-0.7,4.8-2.2,6.1c-1.4,1.3-3.7,2-6.9,2h-1.9v6h-6.6v-22.1H-25.4z M-27.1,590.5v4h1.2c1.2,0,2-0.1,2.5-0.4s0.8-0.8,0.8-1.6
		c0-0.5-0.1-0.8-0.2-1.1c-0.2-0.3-0.4-0.5-0.7-0.6c-0.3-0.1-0.6-0.2-1-0.3c-0.4,0-0.8,0-1.3,0H-27.1z"/>
	<path class="st0" d="M-7.3,584.5v7.6H-2v-7.6h6.6v22.1H-2v-8.3h-5.3v8.3h-6.6v-22.1H-7.3z"/>
	<path class="st0" d="M20.2,584.5l6.8,22.1h-6.9l-0.7-2.9h-5.4l-0.7,2.9H6.3l6.8-22.1H20.2z M15.4,598.1h2.5l-1.2-4.8L15.4,598.1z"
		/>
	<path class="st0" d="M28.8,599c0.4,0.2,0.9,0.4,1.5,0.6s1.2,0.4,1.9,0.5c0.6,0.2,1.3,0.3,1.9,0.4c0.6,0.1,1.2,0.1,1.6,0.1
		c0.7,0,1.2-0.1,1.6-0.2s0.5-0.3,0.5-0.6c0-0.2-0.1-0.3-0.2-0.5c-0.1-0.1-0.3-0.2-0.5-0.4s-0.5-0.2-0.9-0.3
		c-0.3-0.1-0.7-0.2-1.2-0.4c-1-0.3-1.8-0.7-2.6-1.1c-0.8-0.4-1.5-0.9-2.1-1.4c-0.6-0.5-1-1.1-1.4-1.8c-0.3-0.7-0.5-1.5-0.6-2.4
		c-0.1-2.3,0.5-4.1,1.8-5.4c1.3-1.3,3.3-2,5.9-2c1.5,0,2.8,0.1,3.9,0.4s2.1,0.7,3.1,1.1v6.1c-0.3-0.1-0.7-0.3-1.2-0.5
		c-0.5-0.2-1.1-0.3-1.7-0.5c-0.6-0.1-1.2-0.3-1.8-0.4s-1.2-0.1-1.7-0.1c-0.6,0-1,0.1-1.2,0.2s-0.3,0.3-0.3,0.5
		c0,0.2,0.1,0.4,0.4,0.6c0.3,0.2,0.6,0.3,1,0.5c0.3,0.1,0.7,0.2,1,0.4s0.8,0.3,1.2,0.4c1.1,0.4,2,0.8,2.7,1.3
		c0.7,0.4,1.3,0.9,1.7,1.5c0.4,0.5,0.7,1.1,0.9,1.8s0.3,1.4,0.3,2.2c0,1-0.1,2-0.4,2.9c-0.3,0.9-0.8,1.7-1.5,2.3
		c-0.7,0.6-1.6,1.2-2.7,1.5c-1.1,0.4-2.4,0.6-4,0.6c-0.6,0-1.3,0-1.9-0.1c-0.6-0.1-1.3-0.2-1.9-0.4s-1.2-0.4-1.8-0.6
		c-0.6-0.2-1-0.4-1.5-0.7L28.8,599z"/>
	<path class="st0" d="M61.9,598.5h-8.7v2.1h9.4v6h-16v-22.1h15.6v6h-9v2h8.7V598.5z"/>
	<path class="st0" d="M6.5,635.8v-4.4l2.8-2.5c1-0.9,1.8-1.7,2.6-2.4s1.4-1.3,1.9-1.9c0.5-0.6,0.9-1.1,1.1-1.6
		c0.2-0.5,0.4-0.9,0.4-1.4c0-0.5-0.2-0.8-0.5-1.2s-0.8-0.5-1.6-0.5c-0.6,0-1.2,0.1-1.9,0.3c-0.6,0.2-1.2,0.4-1.8,0.7
		s-1.1,0.5-1.6,0.8c-0.5,0.3-0.9,0.6-1.2,0.8v-6.3c1-0.8,2.1-1.3,3.4-1.7c1.3-0.4,2.6-0.6,3.9-0.6c1.3,0,2.4,0.2,3.3,0.5
		c1,0.4,1.8,0.9,2.4,1.5c0.7,0.6,1.2,1.4,1.5,2.2c0.3,0.9,0.5,1.8,0.5,2.9c0,0.9-0.1,1.7-0.4,2.5c-0.3,0.8-0.6,1.5-1,2.2
		c-0.4,0.7-1,1.4-1.6,2c-0.6,0.7-1.2,1.3-1.9,1.9h5.3v6H6.5z"/>
</g>
<linearGradient id="SVGID_00000116953042676865332090000011800331725540958123_" gradientUnits="userSpaceOnUse" x1="6.1478" y1="83" x2="159.8522" y2="83">
	<stop  offset="0" style="stop-color:#EC0AFA"/>
	<stop  offset="0.1686" style="stop-color:#C62DF7"/>
	<stop  offset="0.3886" style="stop-color:#9956F3"/>
	<stop  offset="0.5" style="stop-color:#8866F1"/>
	<stop  offset="0.5695" style="stop-color:#806DF0"/>
	<stop  offset="0.6795" style="stop-color:#6981ED"/>
	<stop  offset="0.8163" style="stop-color:#44A1E7"/>
	<stop  offset="0.9731" style="stop-color:#11CDE0"/>
	<stop  offset="1" style="stop-color:#07D5DF"/>
</linearGradient>
<circle style="fill:url(#SVGID_00000116953042676865332090000011800331725540958123_);" cx="83" cy="83" r="76.9"/>
<g>
	<path class="st0" d="M47.8,60.3c1.1,0,2.2,0.1,3.2,0.3c1,0.2,1.9,0.6,2.6,1.1s1.3,1.3,1.7,2.2S56,66,56,67.4c0,2.4-0.6,4.2-1.9,5.4
		s-3.3,1.7-6.1,1.7h-1.7v5.3h-5.8V60.3H47.8z M46.2,65.6v3.6h1c1,0,1.8-0.1,2.2-0.3c0.4-0.2,0.7-0.7,0.7-1.4c0-0.4-0.1-0.8-0.2-1
		c-0.1-0.2-0.3-0.4-0.6-0.5s-0.6-0.2-0.9-0.2c-0.4,0-0.8,0-1.2,0H46.2z"/>
	<path class="st0" d="M63.8,60.3V67h4.7v-6.7h5.8v19.6h-5.8v-7.3h-4.7v7.3h-5.8V60.3H63.8z"/>
	<path class="st0" d="M88.1,60.3l6,19.6H88l-0.7-2.5h-4.8l-0.6,2.5h-6.1l6-19.6H88.1z M83.8,72.3H86l-1.1-4.2L83.8,72.3z"/>
	<path class="st0" d="M95.7,73.1c0.4,0.2,0.8,0.4,1.4,0.6c0.5,0.2,1.1,0.3,1.7,0.5s1.1,0.2,1.7,0.3s1,0.1,1.4,0.1
		c0.6,0,1.1-0.1,1.4-0.2c0.3-0.1,0.4-0.3,0.4-0.6c0-0.2-0.1-0.3-0.2-0.4c-0.1-0.1-0.3-0.2-0.5-0.3c-0.2-0.1-0.5-0.2-0.8-0.3
		c-0.3-0.1-0.7-0.2-1-0.3c-0.8-0.3-1.6-0.6-2.3-1s-1.3-0.8-1.8-1.2c-0.5-0.5-0.9-1-1.2-1.6c-0.3-0.6-0.5-1.3-0.5-2.2
		c-0.1-2,0.4-3.6,1.6-4.8c1.1-1.2,2.9-1.7,5.2-1.7c1.3,0,2.4,0.1,3.4,0.4c1,0.3,1.9,0.6,2.7,1v5.4c-0.3-0.1-0.6-0.3-1.1-0.4
		c-0.5-0.1-1-0.3-1.5-0.4c-0.5-0.1-1.1-0.2-1.6-0.3c-0.5-0.1-1-0.1-1.5-0.1c-0.6,0-0.9,0.1-1.1,0.2c-0.2,0.1-0.3,0.3-0.3,0.4
		c0,0.2,0.1,0.4,0.3,0.5c0.2,0.1,0.5,0.3,0.9,0.4c0.3,0.1,0.6,0.2,0.9,0.3c0.3,0.1,0.7,0.2,1.1,0.4c1,0.4,1.7,0.7,2.4,1.1
		c0.6,0.4,1.1,0.8,1.5,1.3s0.7,1,0.8,1.6s0.3,1.2,0.3,2c0,0.9-0.1,1.8-0.3,2.6s-0.7,1.5-1.3,2c-0.6,0.6-1.4,1-2.4,1.3
		s-2.2,0.5-3.5,0.5c-0.5,0-1.1,0-1.7-0.1s-1.1-0.2-1.7-0.4c-0.5-0.2-1.1-0.3-1.6-0.5c-0.5-0.2-0.9-0.4-1.3-0.6L95.7,73.1z"/>
	<path class="st0" d="M125,72.7h-7.6v1.8h8.3v5.3h-14.1V60.3h13.8v5.3h-7.9v1.8h7.6V72.7z"/>
	<path class="st0" d="M75.9,100.1c0.4,0.1,0.9,0.2,1.4,0.3s1,0.1,1.5,0.2c0.5,0.1,1,0.1,1.5,0.1s0.9,0,1.4,0c0.8,0,1.4-0.1,1.8-0.3
		c0.4-0.2,0.6-0.4,0.6-0.8c0-0.3-0.1-0.5-0.2-0.6c-0.1-0.1-0.3-0.2-0.6-0.3s-0.5-0.1-0.8-0.1c-0.3,0-0.6,0-0.9,0h-2.8v-4.9h2.7
		c0.8,0,1.3-0.1,1.6-0.3s0.5-0.5,0.5-0.8c0-0.7-0.5-1-1.6-1c-0.3,0-0.7,0-1.1,0s-0.8,0.1-1.3,0.1c-0.5,0.1-1,0.2-1.5,0.3
		c-0.5,0.1-1,0.2-1.6,0.4v-4.8c0.8-0.4,1.6-0.7,2.7-0.9s2.2-0.3,3.5-0.3c1.1,0,2.1,0.1,2.9,0.4c0.8,0.3,1.5,0.6,2.1,1.1
		c0.6,0.4,1,1,1.3,1.6c0.3,0.6,0.4,1.3,0.4,2c0,0.8-0.1,1.5-0.4,2.2c-0.3,0.7-0.8,1.3-1.6,1.8c0.8,0.4,1.4,1,1.9,1.7
		c0.5,0.7,0.7,1.6,0.7,2.8c0,0.9-0.2,1.7-0.5,2.4c-0.4,0.7-0.9,1.4-1.6,1.9c-0.7,0.5-1.5,0.9-2.5,1.2s-2.1,0.4-3.3,0.4
		c-0.6,0-1.2,0-1.8,0c-0.6,0-1.1-0.1-1.7-0.2c-0.5-0.1-1-0.2-1.5-0.3c-0.5-0.1-0.9-0.3-1.2-0.5V100.1z"/>
</g>
</svg>
