<?xml version="1.0" encoding="utf-8"?>
<!-- Generator: Adobe Illustrator 26.3.1, SVG Export Plug-In . SVG Version: 6.00 Build 0)  -->
<svg version="1.1" id="Layer_1" xmlns="http://www.w3.org/2000/svg" xmlns:xlink="http://www.w3.org/1999/xlink" x="0px" y="0px"
	 viewBox="0 0 162.6 163" style="enable-background:new 0 0 162.6 163;" xml:space="preserve">
<style type="text/css">
	.st0{fill:#FFFFFF;}
	.st1{fill:url(#SVGID_1_);}
	.st2{fill:url(#SVGID_00000139264411042277871430000002126955348529101201_);}
	.st3{fill:url(#SVGID_00000112592093362915004440000018111714837717730696_);}
	.st4{fill:url(#SVGID_00000158751661950118982900000005788598376978444695_);}
	.st5{fill:url(#SVGID_00000145740192175500267870000017044440404060168069_);}
	.st6{fill:url(#SVGID_00000168110333865316958160000010544743792369144250_);}
	.st7{fill:url(#SVGID_00000116955261752057809660000001982949215142839964_);}
	.st8{fill:url(#SVGID_00000023995848168196481000000016450210857569864586_);}
	.st9{fill:url(#SVGID_00000044897262252239265310000000787269911218255261_);}
	.st10{fill:url(#SVGID_00000041275843713283850280000014246020787002038166_);}
	.st11{fill:url(#SVGID_00000162324751977473954430000012708425997662411142_);}
	.st12{fill:url(#SVGID_00000111184171722070543860000001539013151105176203_);}
	.st13{fill:#EC0AFA;}
	.st14{fill:#07D5DF;}
	.st15{fill:#8866F1;}
	.st16{fill:url(#SVGID_00000110441423065582286870000002985147634295261364_);}
	.st17{fill:url(#SVGID_00000155858942859273249990000008476234915040569732_);}
	.st18{fill:url(#SVGID_00000168083731832714581920000007764447915665545394_);}
	.st19{fill:url(#SVGID_00000158023544218732512950000002044105516481934005_);}
	.st20{fill:url(#SVGID_00000181073259418764692760000000794234406527052472_);}
	.st21{fill:#FFFFFF;stroke:#FFFFFF;stroke-width:2;stroke-miterlimit:10;}
</style>
<g>
	<g>
		<path class="st0" d="M252.8-272.6l-6.3-20.4l-0.4,21h-13.6l2.5-47.6h16.2l7.4,23.2l7.5-23.2h16.2l2.5,47.6h-13.6l-0.4-21
			l-6.3,20.4H252.8z"/>
		<path class="st0" d="M309.2-271.2c-3.2,0-6-0.4-8.5-1.2c-2.5-0.8-4.5-2-6.2-3.6c-1.7-1.7-2.9-3.8-3.8-6.3
			c-0.9-2.6-1.3-5.7-1.3-9.3v-27.9h14.2v28c0,2.6,0.5,4.5,1.4,5.7c1,1.2,2.3,1.8,4,1.8c1.8,0,3.2-0.6,4.1-1.8c1-1.2,1.4-3.1,1.4-5.7
			v-28h14.2v27.8c0,3.6-0.4,6.7-1.3,9.3c-0.8,2.6-2.1,4.7-3.8,6.3c-1.7,1.7-3.7,2.9-6.1,3.6C315.2-271.6,312.4-271.2,309.2-271.2z"
			/>
		<path class="st0" d="M348.3-319.5v34.6h20.2v13h-34.4v-47.6H348.3z"/>
		<path class="st0" d="M378.4-306.4h-11.5v-13.1h37.4v13.1h-11.7v34.5h-14.2L378.4-306.4L378.4-306.4z"/>
		<path class="st0" d="M423.2-319.5v47.6H409v-47.6H423.2z"/>
		<path class="st0" d="M442-271.9l-14.5-47.6h14.9l7.3,28.6l7.3-28.6h14.9l-14.5,47.6H442z"/>
		<path class="st0" d="M508.4-289.3h-18.6v4.4h20.1v13h-34.4v-47.6H509v13h-19.3v4.3h18.6v12.9H508.4z"/>
		<path class="st0" d="M532.7-319.5c2.8,0,5.4,0.3,7.8,0.8c2.4,0.5,4.5,1.4,6.3,2.7c1.8,1.3,3.2,3.1,4.2,5.3c1,2.2,1.5,5.1,1.5,8.5
			c0,3.5-0.5,6.4-1.6,8.8c-1,2.4-2.7,4.2-4.9,5.6l8.6,15.9h-16.8l-6.4-13h-2.5v13h-14.2v-47.6H532.7z M528.9-306.6v8.7h2.5
			c2.5,0,4.3-0.3,5.4-0.8c1.1-0.6,1.6-1.7,1.6-3.4c0-1-0.2-1.8-0.5-2.4s-0.8-1-1.4-1.3c-0.6-0.3-1.4-0.5-2.2-0.6
			c-0.9-0.1-1.8-0.1-2.9-0.1h-2.5V-306.6z"/>
		<path class="st0" d="M558.2-288.4c0.9,0.5,2,0.9,3.3,1.3s2.7,0.8,4.1,1.2c1.4,0.3,2.8,0.6,4.1,0.8c1.3,0.2,2.5,0.3,3.4,0.3
			c1.6,0,2.7-0.1,3.4-0.4c0.7-0.3,1-0.7,1-1.3c0-0.4-0.1-0.7-0.4-1c-0.2-0.3-0.6-0.5-1.1-0.8c-0.5-0.2-1.1-0.5-1.8-0.7
			s-1.6-0.5-2.5-0.8c-2-0.7-3.9-1.5-5.6-2.3c-1.7-0.8-3.2-1.8-4.4-3c-1.3-1.1-2.2-2.4-3-3.9c-0.7-1.5-1.1-3.3-1.2-5.3
			c-0.2-4.9,1-8.8,3.8-11.6c2.8-2.8,7-4.2,12.7-4.2c3.2,0,6,0.3,8.4,1c2.4,0.6,4.6,1.4,6.6,2.3v13.1c-0.6-0.3-1.5-0.7-2.6-1
			c-1.1-0.4-2.3-0.7-3.6-1c-1.3-0.3-2.6-0.6-4-0.8c-1.3-0.2-2.5-0.3-3.6-0.3c-1.3,0-2.2,0.1-2.7,0.4c-0.4,0.3-0.7,0.6-0.7,1.1
			s0.3,1,0.8,1.3c0.6,0.3,1.3,0.7,2.2,1c0.7,0.2,1.4,0.5,2.2,0.8c0.8,0.3,1.7,0.6,2.6,0.9c2.3,0.9,4.3,1.8,5.8,2.7s2.8,2,3.7,3.1
			s1.6,2.4,2,3.8c0.4,1.4,0.7,3,0.7,4.8c0.1,2.3-0.2,4.3-0.8,6.3c-0.7,1.9-1.8,3.6-3.3,5s-3.4,2.5-5.8,3.3c-2.4,0.8-5.3,1.2-8.6,1.2
			c-1.3,0-2.7-0.1-4.1-0.3c-1.4-0.2-2.7-0.5-4.1-0.9c-1.3-0.4-2.6-0.8-3.8-1.2c-1.2-0.5-2.2-0.9-3.1-1.4L558.2-288.4z"/>
		<path class="st0" d="M629.5-289.3h-18.6v4.4h20.2v13h-34.4v-47.6h33.5v13h-19.3v4.3h18.6V-289.3z"/>
		<path class="st0" d="M233.3-225.6c0.9,0.5,2,0.9,3.3,1.3s2.7,0.8,4.1,1.2c1.4,0.3,2.8,0.6,4.1,0.8c1.3,0.2,2.5,0.3,3.4,0.3
			c1.6,0,2.7-0.1,3.4-0.4c0.7-0.3,1-0.7,1-1.3c0-0.4-0.1-0.7-0.4-1c-0.2-0.3-0.6-0.5-1.1-0.8c-0.5-0.2-1.1-0.5-1.8-0.7
			c-0.7-0.2-1.6-0.5-2.5-0.8c-2-0.7-3.9-1.5-5.6-2.3c-1.7-0.8-3.2-1.8-4.4-3c-1.3-1.1-2.2-2.4-3-3.9c-0.7-1.5-1.1-3.3-1.2-5.3
			c-0.2-4.9,1-8.8,3.8-11.6c2.8-2.8,7-4.2,12.7-4.2c3.2,0,6,0.3,8.4,1c2.4,0.6,4.6,1.4,6.6,2.3v13.1c-0.6-0.3-1.5-0.7-2.6-1
			c-1.1-0.4-2.3-0.7-3.6-1c-1.3-0.3-2.6-0.6-4-0.8c-1.3-0.2-2.5-0.3-3.6-0.3c-1.3,0-2.2,0.1-2.7,0.4c-0.4,0.3-0.7,0.6-0.7,1.1
			s0.3,1,0.8,1.3c0.6,0.3,1.3,0.7,2.2,1c0.7,0.2,1.4,0.5,2.2,0.8c0.8,0.3,1.7,0.6,2.6,0.9c2.3,0.9,4.3,1.8,5.8,2.7
			c1.5,0.9,2.8,2,3.7,3.1c0.9,1.1,1.6,2.4,2,3.8s0.7,3,0.7,4.8c0.1,2.3-0.2,4.3-0.8,6.3c-0.7,1.9-1.8,3.6-3.3,5s-3.4,2.5-5.8,3.3
			s-5.3,1.2-8.6,1.2c-1.3,0-2.7-0.1-4.1-0.3s-2.7-0.5-4.1-0.9c-1.3-0.4-2.6-0.8-3.8-1.2c-1.2-0.5-2.2-0.9-3.1-1.4V-225.6z"/>
		<path class="st0" d="M282.2-243.7h-11.5v-13.1h37.4v13.1h-11.7v34.5h-14.2L282.2-243.7L282.2-243.7z"/>
		<path class="st0" d="M332.1-208.5c-3.2,0-6-0.4-8.5-1.2s-4.5-2-6.2-3.6c-1.7-1.7-2.9-3.8-3.8-6.3c-0.9-2.6-1.3-5.7-1.3-9.3v-27.9
			h14.2v28c0,2.6,0.5,4.5,1.4,5.7c1,1.2,2.3,1.8,4,1.8c1.8,0,3.2-0.6,4.1-1.8c1-1.2,1.4-3.1,1.4-5.7v-28h14.2v27.8
			c0,3.6-0.4,6.7-1.3,9.3c-0.8,2.6-2.1,4.7-3.8,6.3c-1.7,1.7-3.7,2.9-6.1,3.6C338.1-208.9,335.3-208.5,332.1-208.5z"/>
		<path class="st0" d="M372-256.8c3.3,0,6.5,0.4,9.4,1.1c2.9,0.7,5.5,2,7.7,3.8c2.2,1.8,3.9,4.2,5.2,7.3c1.3,3.1,1.9,7,1.9,11.7
			c0,8.1-2,14.1-5.9,17.9c-3.9,3.9-9.9,5.8-17.8,5.8h-15.4v-47.6H372z M370.9-243.8v21.5h0.5c1.7,0,3.3-0.2,4.6-0.5
			c1.4-0.3,2.5-0.9,3.4-1.7c0.9-0.8,1.6-1.9,2.1-3.3s0.7-3.1,0.7-5.2c0-2.3-0.3-4.2-0.8-5.6c-0.5-1.4-1.3-2.5-2.3-3.3
			c-1-0.8-2.1-1.3-3.4-1.6c-1.3-0.3-2.7-0.4-4.2-0.4L370.9-243.8L370.9-243.8z"/>
		<path class="st0" d="M415.6-256.8v47.6h-14.2v-47.6H415.6z"/>
		<path class="st0" d="M467.1-233c0,3.9-0.5,7.4-1.6,10.5c-1.1,3-2.7,5.6-4.7,7.7c-2,2.1-4.5,3.6-7.3,4.7c-2.8,1.1-6,1.6-9.5,1.6
			s-6.7-0.5-9.5-1.6s-5.3-2.6-7.3-4.7c-2-2.1-3.6-4.6-4.7-7.7c-1.1-3-1.6-6.5-1.6-10.5c0-3.9,0.5-7.4,1.6-10.5
			c1.1-3,2.7-5.6,4.7-7.7s4.5-3.6,7.3-4.7s6-1.6,9.5-1.6s6.7,0.5,9.5,1.6s5.3,2.6,7.3,4.7s3.6,4.6,4.7,7.7
			C466.5-240.4,467.1-236.9,467.1-233z M444-244.8c-2.7,0-4.8,0.9-6.3,2.8s-2.3,4.8-2.3,8.7c0,4,0.8,6.9,2.3,8.7
			c1.5,1.8,3.5,2.7,6.1,2.7c2.7,0,4.9-0.9,6.4-2.7c1.6-1.8,2.3-4.7,2.3-8.7c0-3.9-0.8-6.9-2.3-8.7
			C448.7-243.8,446.6-244.8,444-244.8z"/>
	</g>
	<g>
		
			<linearGradient id="SVGID_1_" gradientUnits="userSpaceOnUse" x1="-41.3415" y1="432.3" x2="115.2585" y2="432.3" gradientTransform="matrix(1 0 0 -1 0 168)">
			<stop  offset="0" style="stop-color:#EC0AFA"/>
			<stop  offset="0.1686" style="stop-color:#C62DF7"/>
			<stop  offset="0.3886" style="stop-color:#9956F3"/>
			<stop  offset="0.5" style="stop-color:#8866F1"/>
			<stop  offset="0.5695" style="stop-color:#806DF0"/>
			<stop  offset="0.6795" style="stop-color:#6981ED"/>
			<stop  offset="0.8163" style="stop-color:#44A1E7"/>
			<stop  offset="0.9731" style="stop-color:#11CDE0"/>
			<stop  offset="1" style="stop-color:#07D5DF"/>
		</linearGradient>
		<circle class="st1" cx="47.2" cy="-264.3" r="78.3"/>
		
			<linearGradient id="SVGID_00000013908310529856355010000012195434491854377889_" gradientUnits="userSpaceOnUse" x1="125.6189" y1="462.2" x2="222.4189" y2="462.2" gradientTransform="matrix(1 0 0 -1 0 168)">
			<stop  offset="0" style="stop-color:#07D5DF"/>
			<stop  offset="2.693525e-02" style="stop-color:#11CDE0"/>
			<stop  offset="0.1837" style="stop-color:#44A1E7"/>
			<stop  offset="0.3205" style="stop-color:#6981ED"/>
			<stop  offset="0.4305" style="stop-color:#806DF0"/>
			<stop  offset="0.5" style="stop-color:#8866F1"/>
			<stop  offset="0.6114" style="stop-color:#9956F3"/>
			<stop  offset="0.8314" style="stop-color:#C62DF7"/>
			<stop  offset="1" style="stop-color:#EC0AFA"/>
		</linearGradient>
		<circle style="fill:url(#SVGID_00000013908310529856355010000012195434491854377889_);" cx="174" cy="-294.2" r="48.4"/>
		
			<linearGradient id="SVGID_00000155851717753080951500000010479274774946678668_" gradientUnits="userSpaceOnUse" x1="164.6829" y1="393.438" x2="221.2694" y2="374.0487" gradientTransform="matrix(1 0 0 -1 0 168)">
			<stop  offset="0" style="stop-color:#07D5DF"/>
			<stop  offset="2.693525e-02" style="stop-color:#11CDE0"/>
			<stop  offset="0.1837" style="stop-color:#44A1E7"/>
			<stop  offset="0.3205" style="stop-color:#6981ED"/>
			<stop  offset="0.4305" style="stop-color:#806DF0"/>
			<stop  offset="0.5" style="stop-color:#8866F1"/>
			<stop  offset="0.6114" style="stop-color:#9956F3"/>
			<stop  offset="0.8314" style="stop-color:#C62DF7"/>
			<stop  offset="1" style="stop-color:#EC0AFA"/>
		</linearGradient>
		<circle style="fill:url(#SVGID_00000155851717753080951500000010479274774946678668_);" cx="192.5" cy="-215.9" r="29.9"/>
		
			<linearGradient id="SVGID_00000024704503798343771980000013275633641405146525_" gradientUnits="userSpaceOnUse" x1="136.8278" y1="389.4504" x2="151.2101" y2="355.3496" gradientTransform="matrix(1 0 0 -1 0 168)">
			<stop  offset="0" style="stop-color:#07D5DF"/>
			<stop  offset="2.693525e-02" style="stop-color:#11CDE0"/>
			<stop  offset="0.1837" style="stop-color:#44A1E7"/>
			<stop  offset="0.3205" style="stop-color:#6981ED"/>
			<stop  offset="0.4305" style="stop-color:#806DF0"/>
			<stop  offset="0.5" style="stop-color:#8866F1"/>
			<stop  offset="0.6114" style="stop-color:#9956F3"/>
			<stop  offset="0.8314" style="stop-color:#C62DF7"/>
			<stop  offset="1" style="stop-color:#EC0AFA"/>
		</linearGradient>
		<circle style="fill:url(#SVGID_00000024704503798343771980000013275633641405146525_);" cx="144" cy="-204.4" r="18.5"/>
		
			<linearGradient id="SVGID_00000144335023408635761410000002511815441957993897_" gradientUnits="userSpaceOnUse" x1="129.5579" y1="411.0538" x2="144.4968" y2="393.7266" gradientTransform="matrix(1 0 0 -1 0 168)">
			<stop  offset="0" style="stop-color:#07D5DF"/>
			<stop  offset="2.693525e-02" style="stop-color:#11CDE0"/>
			<stop  offset="0.1837" style="stop-color:#44A1E7"/>
			<stop  offset="0.3205" style="stop-color:#6981ED"/>
			<stop  offset="0.4305" style="stop-color:#806DF0"/>
			<stop  offset="0.5" style="stop-color:#8866F1"/>
			<stop  offset="0.6114" style="stop-color:#9956F3"/>
			<stop  offset="0.8314" style="stop-color:#C62DF7"/>
			<stop  offset="1" style="stop-color:#EC0AFA"/>
		</linearGradient>
		<circle style="fill:url(#SVGID_00000144335023408635761410000002511815441957993897_);" cx="137" cy="-234.4" r="11.4"/>
		
			<linearGradient id="SVGID_00000076570900730535802360000002161369549234038953_" gradientUnits="userSpaceOnUse" x1="148.444" y1="406.8" x2="162.5465" y2="406.8" gradientTransform="matrix(1 0 0 -1 0 168)">
			<stop  offset="0" style="stop-color:#07D5DF"/>
			<stop  offset="2.693525e-02" style="stop-color:#11CDE0"/>
			<stop  offset="0.1837" style="stop-color:#44A1E7"/>
			<stop  offset="0.3205" style="stop-color:#6981ED"/>
			<stop  offset="0.4305" style="stop-color:#806DF0"/>
			<stop  offset="0.5" style="stop-color:#8866F1"/>
			<stop  offset="0.6114" style="stop-color:#9956F3"/>
			<stop  offset="0.8314" style="stop-color:#C62DF7"/>
			<stop  offset="1" style="stop-color:#EC0AFA"/>
		</linearGradient>
		<circle style="fill:url(#SVGID_00000076570900730535802360000002161369549234038953_);" cx="155.5" cy="-238.8" r="7.1"/>
	</g>
</g>
<g>
	<g>
		<path class="st0" d="M826.8-160.6l-6.3-20.4l-0.4,21h-13.6l2.5-47.6h16.2l7.4,23.2l7.5-23.2h16.2l2.5,47.6h-13.6l-0.4-21
			l-6.3,20.4H826.8z"/>
		<path class="st0" d="M883.1-159.3c-3.2,0-6-0.4-8.5-1.2s-4.5-2-6.2-3.6c-1.7-1.7-2.9-3.8-3.8-6.3c-0.9-2.6-1.3-5.7-1.3-9.3v-27.8
			h14.2v28c0,2.6,0.5,4.5,1.4,5.7c1,1.2,2.3,1.8,4,1.8c1.8,0,3.2-0.6,4.1-1.8c1-1.2,1.4-3.1,1.4-5.7v-28h14.2v27.8
			c0,3.6-0.4,6.7-1.3,9.3c-0.8,2.6-2.1,4.7-3.8,6.3c-1.7,1.7-3.7,2.9-6.1,3.6C889.1-159.6,886.3-159.3,883.1-159.3z"/>
		<path class="st0" d="M922.2-207.5v34.6h20.2v13H908v-47.6H922.2z"/>
		<path class="st0" d="M952.3-194.4h-11.5v-13.1h37.4v13.1h-11.7v34.5h-14.2V-194.4z"/>
		<path class="st0" d="M997.1-207.5v47.6H983v-47.6H997.1z"/>
		<path class="st0" d="M1015.9-159.9l-14.5-47.6h14.9l7.3,28.6l7.3-28.6h14.9l-14.5,47.6H1015.9z"/>
		<path class="st0" d="M1082.3-177.3h-18.6v4.4h20.2v13h-34.4v-47.6h33.5v13h-19.3v4.3h18.6L1082.3-177.3L1082.3-177.3z"/>
		<path class="st0" d="M1106.6-207.5c2.8,0,5.4,0.3,7.8,0.8s4.5,1.4,6.3,2.7s3.2,3.1,4.2,5.3s1.5,5.1,1.5,8.5c0,3.5-0.5,6.4-1.6,8.8
			c-1,2.4-2.7,4.2-4.9,5.6l8.6,15.9h-16.8l-6.4-13h-2.6v13h-14.2v-47.6H1106.6z M1102.8-194.6v8.7h2.5c2.5,0,4.3-0.3,5.4-0.8
			c1.1-0.6,1.6-1.7,1.6-3.4c0-1-0.2-1.8-0.5-2.4c-0.3-0.6-0.8-1-1.4-1.3s-1.4-0.5-2.2-0.6c-0.9-0.1-1.8-0.1-2.9-0.1L1102.8-194.6
			L1102.8-194.6z"/>
		<path class="st0" d="M1132.2-176.4c0.9,0.5,2,0.9,3.3,1.3c1.3,0.4,2.7,0.8,4.1,1.2c1.4,0.3,2.8,0.6,4.1,0.8
			c1.3,0.2,2.5,0.3,3.4,0.3c1.6,0,2.7-0.1,3.4-0.4c0.7-0.3,1-0.7,1-1.3c0-0.4-0.1-0.7-0.4-1c-0.2-0.3-0.6-0.5-1.1-0.8
			c-0.5-0.2-1.1-0.5-1.8-0.7c-0.7-0.2-1.6-0.5-2.5-0.8c-2-0.7-3.9-1.5-5.6-2.3s-3.2-1.8-4.4-3c-1.3-1.1-2.2-2.4-3-3.9
			c-0.7-1.5-1.1-3.3-1.2-5.3c-0.2-4.9,1-8.8,3.8-11.6s7-4.2,12.7-4.2c3.2,0,6,0.3,8.4,1c2.4,0.6,4.6,1.4,6.6,2.3v13.1
			c-0.6-0.3-1.5-0.7-2.6-1c-1.1-0.4-2.3-0.7-3.6-1c-1.3-0.3-2.6-0.6-4-0.8c-1.3-0.2-2.5-0.3-3.6-0.3c-1.3,0-2.2,0.1-2.7,0.4
			c-0.4,0.3-0.7,0.6-0.7,1.1s0.3,1,0.8,1.3c0.6,0.3,1.3,0.7,2.2,1c0.7,0.2,1.4,0.5,2.2,0.8c0.8,0.3,1.7,0.6,2.6,0.9
			c2.3,0.9,4.3,1.8,5.8,2.7s2.8,2,3.7,3.1c0.9,1.1,1.6,2.4,2,3.8c0.4,1.4,0.7,3,0.7,4.8c0.1,2.3-0.2,4.3-0.8,6.3
			c-0.7,1.9-1.8,3.6-3.3,5s-3.4,2.5-5.8,3.3s-5.3,1.2-8.6,1.2c-1.3,0-2.7-0.1-4.1-0.3s-2.7-0.5-4.1-0.9c-1.3-0.4-2.6-0.8-3.8-1.2
			c-1.2-0.5-2.2-0.9-3.1-1.4V-176.4z"/>
		<path class="st0" d="M1203.4-177.3h-18.6v4.4h20.2v13h-34.4v-47.6h33.5v13h-19.3v4.3h18.6L1203.4-177.3L1203.4-177.3z"/>
		<path class="st0" d="M807.3-113.7c0.9,0.5,2,0.9,3.3,1.3s2.7,0.8,4.1,1.2c1.4,0.3,2.8,0.6,4.1,0.8c1.3,0.2,2.5,0.3,3.4,0.3
			c1.6,0,2.7-0.1,3.4-0.4s1-0.7,1-1.3c0-0.4-0.1-0.7-0.4-1c-0.2-0.3-0.6-0.5-1.1-0.8c-0.5-0.2-1.1-0.5-1.8-0.7s-1.6-0.5-2.5-0.8
			c-2-0.7-3.9-1.5-5.6-2.3c-1.7-0.8-3.2-1.8-4.4-3c-1.3-1.1-2.2-2.4-3-3.9c-0.7-1.5-1.1-3.3-1.2-5.3c-0.2-4.9,1-8.8,3.8-11.6
			s7-4.2,12.7-4.2c3.2,0,6,0.3,8.4,1c2.4,0.6,4.6,1.4,6.6,2.3v13.1c-0.6-0.3-1.5-0.7-2.6-1c-1.1-0.4-2.3-0.7-3.6-1s-2.6-0.6-4-0.8
			c-1.3-0.2-2.5-0.3-3.6-0.3c-1.3,0-2.2,0.1-2.7,0.4c-0.4,0.3-0.7,0.6-0.7,1.1s0.3,1,0.8,1.3c0.6,0.3,1.3,0.7,2.2,1
			c0.7,0.2,1.4,0.5,2.2,0.8s1.7,0.6,2.6,0.9c2.3,0.9,4.3,1.8,5.8,2.7c1.5,0.9,2.8,2,3.7,3.1s1.6,2.4,2,3.8s0.7,3,0.7,4.8
			c0.1,2.3-0.2,4.3-0.8,6.3c-0.7,1.9-1.8,3.6-3.3,5s-3.4,2.5-5.8,3.3c-2.4,0.8-5.3,1.2-8.6,1.2c-1.3,0-2.7-0.1-4.1-0.3
			c-1.4-0.2-2.7-0.5-4.1-0.9c-1.3-0.4-2.6-0.8-3.8-1.2c-1.2-0.5-2.2-0.9-3.1-1.4L807.3-113.7z"/>
		<path class="st0" d="M856.1-131.7h-11.5v-13.1H882v13.1h-11.7v34.5h-14.2V-131.7z"/>
		<path class="st0" d="M906-96.5c-3.2,0-6-0.4-8.5-1.2c-2.5-0.8-4.5-2-6.2-3.6c-1.7-1.7-2.9-3.8-3.8-6.3c-0.9-2.6-1.3-5.7-1.3-9.3
			v-27.8h14.2v28c0,2.6,0.5,4.5,1.4,5.7c1,1.2,2.3,1.8,4,1.8c1.8,0,3.2-0.6,4.1-1.8c1-1.2,1.4-3.1,1.4-5.7v-28h14.2v27.8
			c0,3.6-0.4,6.7-1.3,9.3c-0.8,2.6-2.1,4.7-3.8,6.3c-1.7,1.7-3.7,2.9-6.1,3.6C912.1-96.9,909.3-96.5,906-96.5z"/>
		<path class="st0" d="M946-144.8c3.3,0,6.5,0.4,9.4,1.1c2.9,0.7,5.5,2,7.7,3.8s3.9,4.2,5.2,7.3s1.9,7,1.9,11.7
			c0,8.1-2,14.1-5.9,17.9c-3.9,3.9-9.9,5.8-17.8,5.8h-15.4v-47.6L946-144.8L946-144.8z M944.8-131.8v21.6h0.5c1.7,0,3.3-0.2,4.6-0.5
			c1.4-0.3,2.5-0.9,3.4-1.7c0.9-0.8,1.6-1.9,2.1-3.3s0.7-3.1,0.7-5.2c0-2.3-0.3-4.2-0.8-5.6s-1.3-2.5-2.3-3.3s-2.1-1.3-3.4-1.6
			c-1.3-0.3-2.7-0.4-4.2-0.4H944.8z"/>
		<path class="st0" d="M989.5-144.8v47.6h-14.2v-47.6H989.5z"/>
		<path class="st0" d="M1041-121c0,3.9-0.5,7.4-1.6,10.5c-1.1,3-2.7,5.6-4.7,7.7s-4.5,3.6-7.3,4.7s-6,1.6-9.5,1.6s-6.7-0.5-9.5-1.6
			s-5.3-2.6-7.3-4.7s-3.6-4.6-4.7-7.7c-1.1-3-1.6-6.5-1.6-10.5c0-3.9,0.5-7.4,1.6-10.5c1.1-3,2.7-5.6,4.7-7.7c2-2.1,4.5-3.6,7.3-4.7
			c2.8-1.1,6-1.6,9.5-1.6s6.7,0.5,9.5,1.6s5.3,2.6,7.3,4.7c2,2.1,3.6,4.6,4.7,7.7C1040.5-128.5,1041-125,1041-121z M1017.9-132.8
			c-2.7,0-4.8,0.9-6.3,2.8c-1.5,1.9-2.3,4.8-2.3,8.7c0,4,0.8,6.9,2.3,8.7c1.5,1.8,3.5,2.7,6.1,2.7c2.7,0,4.9-0.9,6.4-2.7
			c1.6-1.8,2.3-4.7,2.3-8.7c0-3.9-0.8-6.9-2.3-8.7C1022.7-131.9,1020.6-132.8,1017.9-132.8z"/>
	</g>
	<g>
		
			<linearGradient id="SVGID_00000029749223044738637750000001641768816422012037_" gradientUnits="userSpaceOnUse" x1="542.8" y1="320.3" x2="699.4" y2="320.3" gradientTransform="matrix(1 0 0 -1 0 168)">
			<stop  offset="0" style="stop-color:#EC0AFA"/>
			<stop  offset="0.1686" style="stop-color:#C62DF7"/>
			<stop  offset="0.3886" style="stop-color:#9956F3"/>
			<stop  offset="0.5" style="stop-color:#8866F1"/>
			<stop  offset="0.5695" style="stop-color:#806DF0"/>
			<stop  offset="0.6795" style="stop-color:#6981ED"/>
			<stop  offset="0.8163" style="stop-color:#44A1E7"/>
			<stop  offset="0.9731" style="stop-color:#11CDE0"/>
			<stop  offset="1" style="stop-color:#07D5DF"/>
		</linearGradient>
		<circle style="fill:url(#SVGID_00000029749223044738637750000001641768816422012037_);" cx="621.1" cy="-152.3" r="78.3"/>
		
			<linearGradient id="SVGID_00000011738851341139011740000008772696845245710776_" gradientUnits="userSpaceOnUse" x1="699.5" y1="350.2" x2="796.3" y2="350.2" gradientTransform="matrix(1 0 0 -1 0 168)">
			<stop  offset="0" style="stop-color:#07D5DF"/>
			<stop  offset="2.693525e-02" style="stop-color:#11CDE0"/>
			<stop  offset="0.1837" style="stop-color:#44A1E7"/>
			<stop  offset="0.3205" style="stop-color:#6981ED"/>
			<stop  offset="0.4305" style="stop-color:#806DF0"/>
			<stop  offset="0.5" style="stop-color:#8866F1"/>
			<stop  offset="0.6114" style="stop-color:#9956F3"/>
			<stop  offset="0.8314" style="stop-color:#C62DF7"/>
			<stop  offset="1" style="stop-color:#EC0AFA"/>
		</linearGradient>
		<circle style="fill:url(#SVGID_00000011738851341139011740000008772696845245710776_);" cx="747.9" cy="-182.2" r="48.4"/>
		
			<linearGradient id="SVGID_00000012468429642992357630000000370412103157664163_" gradientUnits="userSpaceOnUse" x1="738.5857" y1="281.4305" x2="795.1724" y2="262.0413" gradientTransform="matrix(1 0 0 -1 0 168)">
			<stop  offset="0" style="stop-color:#07D5DF"/>
			<stop  offset="2.693525e-02" style="stop-color:#11CDE0"/>
			<stop  offset="0.1837" style="stop-color:#44A1E7"/>
			<stop  offset="0.3205" style="stop-color:#6981ED"/>
			<stop  offset="0.4305" style="stop-color:#806DF0"/>
			<stop  offset="0.5" style="stop-color:#8866F1"/>
			<stop  offset="0.6114" style="stop-color:#9956F3"/>
			<stop  offset="0.8314" style="stop-color:#C62DF7"/>
			<stop  offset="1" style="stop-color:#EC0AFA"/>
		</linearGradient>
		<circle style="fill:url(#SVGID_00000012468429642992357630000000370412103157664163_);" cx="766.4" cy="-103.9" r="29.9"/>
		
			<linearGradient id="SVGID_00000147214107615587193450000013827836093700450969_" gradientUnits="userSpaceOnUse" x1="710.8088" y1="277.5504" x2="725.1912" y2="243.4497" gradientTransform="matrix(1 0 0 -1 0 168)">
			<stop  offset="0" style="stop-color:#07D5DF"/>
			<stop  offset="2.693525e-02" style="stop-color:#11CDE0"/>
			<stop  offset="0.1837" style="stop-color:#44A1E7"/>
			<stop  offset="0.3205" style="stop-color:#6981ED"/>
			<stop  offset="0.4305" style="stop-color:#806DF0"/>
			<stop  offset="0.5" style="stop-color:#8866F1"/>
			<stop  offset="0.6114" style="stop-color:#9956F3"/>
			<stop  offset="0.8314" style="stop-color:#C62DF7"/>
			<stop  offset="1" style="stop-color:#EC0AFA"/>
		</linearGradient>
		<circle style="fill:url(#SVGID_00000147214107615587193450000013827836093700450969_);" cx="718" cy="-92.5" r="18.5"/>
		
			<linearGradient id="SVGID_00000042711067266072854220000006900317956474364556_" gradientUnits="userSpaceOnUse" x1="703.4559" y1="299.0342" x2="718.3948" y2="281.7071" gradientTransform="matrix(1 0 0 -1 0 168)">
			<stop  offset="0" style="stop-color:#07D5DF"/>
			<stop  offset="2.693525e-02" style="stop-color:#11CDE0"/>
			<stop  offset="0.1837" style="stop-color:#44A1E7"/>
			<stop  offset="0.3205" style="stop-color:#6981ED"/>
			<stop  offset="0.4305" style="stop-color:#806DF0"/>
			<stop  offset="0.5" style="stop-color:#8866F1"/>
			<stop  offset="0.6114" style="stop-color:#9956F3"/>
			<stop  offset="0.8314" style="stop-color:#C62DF7"/>
			<stop  offset="1" style="stop-color:#EC0AFA"/>
		</linearGradient>
		<circle style="fill:url(#SVGID_00000042711067266072854220000006900317956474364556_);" cx="710.9" cy="-122.4" r="11.4"/>
		
			<linearGradient id="SVGID_00000121963169519960421840000007048134465487341732_" gradientUnits="userSpaceOnUse" x1="722.356" y1="294.8" x2="736.4585" y2="294.8" gradientTransform="matrix(1 0 0 -1 0 168)">
			<stop  offset="0" style="stop-color:#07D5DF"/>
			<stop  offset="2.693525e-02" style="stop-color:#11CDE0"/>
			<stop  offset="0.1837" style="stop-color:#44A1E7"/>
			<stop  offset="0.3205" style="stop-color:#6981ED"/>
			<stop  offset="0.4305" style="stop-color:#806DF0"/>
			<stop  offset="0.5" style="stop-color:#8866F1"/>
			<stop  offset="0.6114" style="stop-color:#9956F3"/>
			<stop  offset="0.8314" style="stop-color:#C62DF7"/>
			<stop  offset="1" style="stop-color:#EC0AFA"/>
		</linearGradient>
		<circle style="fill:url(#SVGID_00000121963169519960421840000007048134465487341732_);" cx="729.4" cy="-126.8" r="7.1"/>
	</g>
</g>
<image style="overflow:visible;enable-background:new    ;" width="1657" height="812" xlink:href="Screenshot 2022-06-01 004151.jpg"  transform="matrix(0.75 0 0 0.75 135.8849 342.1917)">
</image>
<circle class="st13" cx="699.7" cy="280.5" r="39.8"/>
<circle class="st14" cx="884.5" cy="281.3" r="39.8"/>
<image style="overflow:visible;enable-background:new    ;" width="1618" height="730" xlink:href="Screenshot 2022-06-01 011536.jpg"  transform="matrix(0.75 0 0 0.75 132.7437 441.0519)">
</image>
<ellipse transform="matrix(0.1735 -0.9848 0.9848 0.1735 567.5248 1246.6484)" class="st15" cx="1026.5" cy="285.2" rx="46.8" ry="46.8"/>
<linearGradient id="SVGID_00000058564589385274185010000004188862379060059288_" gradientUnits="userSpaceOnUse" x1="180.7" y1="-511.4" x2="271.3" y2="-511.4" gradientTransform="matrix(1 0 0 -1 0 168)">
	<stop  offset="0" style="stop-color:#EC0AFA"/>
	<stop  offset="0.1686" style="stop-color:#C62DF7"/>
	<stop  offset="0.3886" style="stop-color:#9956F3"/>
	<stop  offset="0.5" style="stop-color:#8866F1"/>
	<stop  offset="0.5695" style="stop-color:#806DF0"/>
	<stop  offset="0.6795" style="stop-color:#6981ED"/>
	<stop  offset="0.8163" style="stop-color:#44A1E7"/>
	<stop  offset="0.9731" style="stop-color:#11CDE0"/>
	<stop  offset="1" style="stop-color:#07D5DF"/>
</linearGradient>
<circle style="fill:url(#SVGID_00000058564589385274185010000004188862379060059288_);" cx="226" cy="679.4" r="45.3"/>
<g>
	<path class="st0" d="M202.5,664.4c0.8,0,1.5,0.1,2.1,0.2c0.7,0.1,1.2,0.4,1.7,0.8c0.5,0.4,0.9,0.8,1.2,1.5s0.4,1.4,0.4,2.3
		c0,1.6-0.4,2.8-1.3,3.6c-0.9,0.8-2.2,1.2-4.1,1.2h-1.1v3.6h-3.9v-13h5V664.4z M201.4,667.9v2.4h0.7c0.7,0,1.2-0.1,1.5-0.2
		c0.3-0.2,0.4-0.5,0.4-0.9c0-0.3,0-0.5-0.1-0.7s-0.2-0.3-0.4-0.4c-0.2-0.1-0.4-0.1-0.6-0.2c-0.2,0-0.5,0-0.8,0L201.4,667.9
		L201.4,667.9z"/>
	<path class="st0" d="M213.1,664.4v4.5h3.1v-4.5h3.9v13h-3.9v-4.9h-3.1v4.9h-3.9v-13H213.1z"/>
	<path class="st0" d="M229.4,664.4l4,13h-4.1l-0.4-1.7h-3.2l-0.4,1.7h-4.1l4-13H229.4z M226.5,672.4h1.4l-0.7-2.8L226.5,672.4z"/>
	<path class="st0" d="M234.4,672.9c0.2,0.1,0.5,0.2,0.9,0.4c0.4,0.1,0.7,0.2,1.1,0.3c0.4,0.1,0.8,0.2,1.1,0.2
		c0.4,0.1,0.7,0.1,0.9,0.1c0.4,0,0.7,0,0.9-0.1s0.3-0.2,0.3-0.4c0-0.1,0-0.2-0.1-0.3s-0.2-0.1-0.3-0.2c-0.1-0.1-0.3-0.1-0.5-0.2
		c-0.2-0.1-0.4-0.1-0.7-0.2c-0.6-0.2-1.1-0.4-1.5-0.6c-0.5-0.2-0.9-0.5-1.2-0.8s-0.6-0.7-0.8-1.1c-0.2-0.4-0.3-0.9-0.3-1.4
		c-0.1-1.3,0.3-2.4,1-3.2c0.8-0.8,1.9-1.2,3.5-1.2c0.9,0,1.6,0.1,2.3,0.3s1.3,0.4,1.8,0.6v3.6c-0.2-0.1-0.4-0.2-0.7-0.3
		s-0.6-0.2-1-0.3s-0.7-0.2-1.1-0.2c-0.4-0.1-0.7-0.1-1-0.1c-0.4,0-0.6,0-0.7,0.1c-0.1,0.1-0.2,0.2-0.2,0.3s0.1,0.3,0.2,0.4
		c0.2,0.1,0.4,0.2,0.6,0.3c0.2,0.1,0.4,0.1,0.6,0.2s0.5,0.2,0.7,0.3c0.6,0.2,1.2,0.5,1.6,0.7c0.4,0.3,0.8,0.5,1,0.9
		c0.3,0.3,0.4,0.7,0.6,1c0.1,0.4,0.2,0.8,0.2,1.3c0,0.6,0,1.2-0.2,1.7s-0.5,1-0.9,1.4s-0.9,0.7-1.6,0.9s-1.4,0.3-2.3,0.3
		c-0.4,0-0.7,0-1.1-0.1c-0.4-0.1-0.8-0.1-1.1-0.2c-0.4-0.1-0.7-0.2-1-0.3s-0.6-0.3-0.9-0.4L234.4,672.9z"/>
	<path class="st0" d="M253.9,672.7h-5.1v1.2h5.5v3.6h-9.4v-13h9.2v3.6h-5.3v1.2h5.1V672.7z"/>
	<path class="st0" d="M225,686.1l-2.7,0.8v-3.2l3.6-1.7h2.9v12.6H225V686.1z"/>
</g>
<linearGradient id="SVGID_00000155113518152273286990000009273360054793380252_" gradientUnits="userSpaceOnUse" x1="758.9" y1="-511.6" x2="849.5" y2="-511.6" gradientTransform="matrix(1 0 0 -1 0 168)">
	<stop  offset="0" style="stop-color:#EC0AFA"/>
	<stop  offset="0.1686" style="stop-color:#C62DF7"/>
	<stop  offset="0.3886" style="stop-color:#9956F3"/>
	<stop  offset="0.5" style="stop-color:#8866F1"/>
	<stop  offset="0.5695" style="stop-color:#806DF0"/>
	<stop  offset="0.6795" style="stop-color:#6981ED"/>
	<stop  offset="0.8163" style="stop-color:#44A1E7"/>
	<stop  offset="0.9731" style="stop-color:#11CDE0"/>
	<stop  offset="1" style="stop-color:#07D5DF"/>
</linearGradient>
<circle style="fill:url(#SVGID_00000155113518152273286990000009273360054793380252_);" cx="804.2" cy="679.6" r="45.3"/>
<text transform="matrix(1 0 0 1 688.3888 273.0683)" class="st0" style="font-family:'TTSupersizeBk'; font-size:24.5784px;">PHASE</text>
<text transform="matrix(1 0 0 1 730.3888 302.5683)" class="st0" style="font-family:'TTSupersizeBk'; font-size:24.5784px;">1</text>
<g>
	<path class="st0" d="M731.2,6.4c1.1,0,2.2,0.1,3.2,0.3c1,0.2,1.9,0.6,2.6,1.1c0.7,0.5,1.3,1.3,1.7,2.2s0.6,2.1,0.6,3.5
		c0,2.4-0.6,4.2-1.9,5.4s-3.3,1.7-6.1,1.7h-1.7v5.3h-5.8V6.4H731.2z M729.6,11.7v3.6h1c1,0,1.8-0.1,2.2-0.3s0.7-0.7,0.7-1.4
		c0-0.4-0.1-0.7-0.2-1c-0.1-0.2-0.3-0.4-0.6-0.5s-0.6-0.2-0.9-0.2c-0.4,0-0.7,0-1.2,0h-1V11.7z"/>
	<path class="st0" d="M747.2,6.4v6.7h4.7V6.4h5.8V26h-5.8v-7.3h-4.7V26h-5.8V6.4H747.2z"/>
	<path class="st0" d="M771.5,6.4l6,19.6h-6.1l-0.7-2.5h-4.8l-0.6,2.5h-6.1l6-19.6C765.2,6.4,771.5,6.4,771.5,6.4z M767.2,18.4h2.2
		l-1.1-4.2L767.2,18.4z"/>
	<path class="st0" d="M779.1,19.2c0.4,0.2,0.8,0.4,1.4,0.6c0.5,0.2,1.1,0.3,1.7,0.5c0.6,0.1,1.1,0.2,1.7,0.3c0.6,0.1,1,0.1,1.4,0.1
		c0.6,0,1.1-0.1,1.4-0.2c0.3-0.1,0.4-0.3,0.4-0.6c0-0.2-0.1-0.3-0.2-0.4c-0.1-0.1-0.3-0.2-0.5-0.3c-0.2-0.1-0.5-0.2-0.8-0.3
		c-0.3-0.1-0.7-0.2-1-0.3c-0.8-0.3-1.6-0.6-2.3-1s-1.3-0.8-1.8-1.2c-0.5-0.5-0.9-1-1.2-1.6s-0.5-1.3-0.5-2.2c-0.1-2,0.4-3.6,1.6-4.8
		c1.1-1.2,2.9-1.7,5.2-1.7c1.3,0,2.4,0.1,3.4,0.4s1.9,0.6,2.7,1v5.4c-0.3-0.1-0.6-0.3-1.1-0.4c-0.5-0.1-1-0.3-1.5-0.4
		c-0.5-0.1-1.1-0.2-1.6-0.3s-1-0.1-1.5-0.1c-0.6,0-0.9,0.1-1.1,0.2c-0.2,0.1-0.3,0.3-0.3,0.4c0,0.2,0.1,0.4,0.3,0.5s0.5,0.3,0.9,0.4
		c0.3,0.1,0.6,0.2,0.9,0.3c0.3,0.1,0.7,0.2,1.1,0.4c1,0.4,1.7,0.7,2.4,1.1c0.6,0.4,1.1,0.8,1.5,1.3s0.7,1,0.8,1.6
		c0.2,0.6,0.3,1.2,0.3,2c0,0.9-0.1,1.8-0.3,2.6c-0.3,0.8-0.7,1.5-1.3,2c-0.6,0.6-1.4,1-2.4,1.3s-2.2,0.5-3.5,0.5
		c-0.6,0-1.1,0-1.7-0.1s-1.1-0.2-1.7-0.4c-0.5-0.2-1.1-0.3-1.6-0.5s-0.9-0.4-1.3-0.6L779.1,19.2z"/>
	<path class="st0" d="M808.3,18.8h-7.6v1.8h8.3v5.3h-14.1V6.4h13.8v5.3h-7.9v1.8h7.6L808.3,18.8L808.3,18.8z"/>
	<path class="st0" d="M764.9,38.9l-4,1.2v-4.8l5.5-2.5h4.4v18.9H765V38.9H764.9z"/>
</g>
<g>
	<path class="st0" d="M776.4,665.1c0.9,0,1.7,0.1,2.5,0.3s1.4,0.5,2,0.9s1,1,1.3,1.7s0.5,1.6,0.5,2.7c0,1.9-0.5,3.2-1.5,4.1
		c-1,0.9-2.5,1.3-4.7,1.3h-1.3v4.1h-4.5v-15L776.4,665.1L776.4,665.1z M775.2,669.2v2.7h0.8c0.8,0,1.4-0.1,1.7-0.3s0.5-0.5,0.5-1.1
		c0-0.3-0.1-0.6-0.2-0.8c-0.1-0.2-0.3-0.3-0.5-0.4c-0.2-0.1-0.4-0.2-0.7-0.2s-0.6,0-0.9,0L775.2,669.2L775.2,669.2z"/>
	<path class="st0" d="M788.6,665.1v5.2h3.6v-5.2h4.5v15h-4.5v-5.6h-3.6v5.6h-4.5v-15H788.6z"/>
	<path class="st0" d="M807.3,665.1l4.6,15h-4.7l-0.5-1.9H803l-0.5,1.9h-4.7l4.6-15H807.3z M804.1,674.4h1.7l-0.8-3.2L804.1,674.4z"
		/>
	<path class="st0" d="M813.2,675c0.3,0.1,0.6,0.3,1,0.4c0.4,0.1,0.8,0.3,1.3,0.4c0.4,0.1,0.9,0.2,1.3,0.3c0.4,0.1,0.8,0.1,1.1,0.1
		c0.5,0,0.8,0,1.1-0.1c0.2-0.1,0.3-0.2,0.3-0.4c0-0.1,0-0.2-0.1-0.3s-0.2-0.2-0.4-0.2c-0.2-0.1-0.4-0.1-0.6-0.2
		c-0.2-0.1-0.5-0.2-0.8-0.3c-0.6-0.2-1.2-0.5-1.8-0.7c-0.5-0.3-1-0.6-1.4-0.9c-0.4-0.4-0.7-0.8-0.9-1.2c-0.2-0.5-0.4-1-0.4-1.7
		c-0.1-1.5,0.3-2.8,1.2-3.7s2.2-1.3,4-1.3c1,0,1.9,0.1,2.6,0.3c0.8,0.2,1.5,0.4,2.1,0.7v4.1c-0.2-0.1-0.5-0.2-0.8-0.3
		c-0.4-0.1-0.7-0.2-1.2-0.3c-0.4-0.1-0.8-0.2-1.3-0.3c-0.4-0.1-0.8-0.1-1.1-0.1c-0.4,0-0.7,0-0.8,0.1s-0.2,0.2-0.2,0.3
		c0,0.2,0.1,0.3,0.3,0.4c0.2,0.1,0.4,0.2,0.7,0.3c0.2,0.1,0.4,0.2,0.7,0.2c0.3,0.1,0.5,0.2,0.8,0.3c0.7,0.3,1.3,0.6,1.8,0.9
		c0.5,0.3,0.9,0.6,1.2,1s0.5,0.8,0.6,1.2s0.2,0.9,0.2,1.5c0,0.7-0.1,1.4-0.3,2s-0.6,1.1-1,1.6c-0.5,0.4-1.1,0.8-1.8,1
		c-0.8,0.3-1.7,0.4-2.7,0.4c-0.4,0-0.9,0-1.3-0.1c-0.4-0.1-0.9-0.2-1.3-0.3c-0.4-0.1-0.8-0.2-1.2-0.4s-0.7-0.3-1-0.5L813.2,675z"/>
	<path class="st0" d="M835.7,674.7h-5.9v1.4h6.4v4.1h-10.9v-15h10.6v4.1h-6.1v1.4h5.9V674.7z"/>
	<path class="st0" d="M797.9,695.7c0.3,0.1,0.7,0.2,1,0.2c0.4,0.1,0.7,0.1,1.1,0.1c0.4,0,0.8,0.1,1.1,0.1c0.4,0,0.7,0,1,0
		c0.6,0,1.1-0.1,1.4-0.2c0.3-0.1,0.4-0.3,0.4-0.6c0-0.2-0.1-0.4-0.2-0.5c-0.1-0.1-0.2-0.2-0.4-0.2c-0.2-0.1-0.4-0.1-0.6-0.1
		c-0.2,0-0.5,0-0.7,0h-2.1v-3.8h2.1c0.6,0,1-0.1,1.2-0.3s0.4-0.4,0.4-0.6c0-0.5-0.4-0.8-1.2-0.8c-0.2,0-0.5,0-0.8,0s-0.7,0.1-1,0.1
		c-0.4,0.1-0.8,0.1-1.2,0.2c-0.4,0.1-0.8,0.2-1.2,0.3v-3.7c0.6-0.3,1.3-0.5,2.1-0.7s1.7-0.3,2.7-0.3c0.9,0,1.6,0.1,2.3,0.3
		c0.6,0.2,1.2,0.5,1.6,0.8c0.4,0.3,0.8,0.8,1,1.2c0.2,0.5,0.3,1,0.3,1.5c0,0.6-0.1,1.2-0.3,1.7s-0.6,1-1.2,1.4
		c0.6,0.3,1.1,0.8,1.5,1.3c0.4,0.6,0.6,1.3,0.6,2.1c0,0.7-0.1,1.3-0.4,1.9c-0.3,0.6-0.7,1-1.2,1.4s-1.2,0.7-1.9,0.9
		c-0.8,0.2-1.6,0.3-2.5,0.3c-0.5,0-0.9,0-1.4,0c-0.4,0-0.9-0.1-1.3-0.1c-0.4-0.1-0.8-0.1-1.1-0.2c-0.4-0.1-0.7-0.2-1-0.4
		L797.9,695.7L797.9,695.7z"/>
</g>
<g>
	<path class="st0" d="M823.5,29.2c1.1,0,2.2,0.1,3.2,0.3c1,0.2,1.9,0.6,2.6,1.1c0.7,0.5,1.3,1.3,1.7,2.2c0.4,0.9,0.6,2.1,0.6,3.5
		c0,2.4-0.6,4.2-1.9,5.4s-3.3,1.7-6.1,1.7h-1.7v5.3h-5.8V29.2H823.5z M821.9,34.5V38h1c1,0,1.8-0.1,2.2-0.3s0.7-0.7,0.7-1.4
		c0-0.4-0.1-0.7-0.2-1c-0.1-0.2-0.3-0.4-0.6-0.5s-0.6-0.2-0.9-0.2c-0.4,0-0.8,0-1.2,0L821.9,34.5L821.9,34.5z"/>
	<path class="st0" d="M839.5,29.2v6.7h4.7v-6.7h5.8v19.6h-5.8v-7.3h-4.7v7.3h-5.8V29.2H839.5z"/>
	<path class="st0" d="M863.8,29.2l6,19.6h-6.1l-0.7-2.5h-4.8l-0.6,2.5h-6.1l6-19.6C857.5,29.2,863.8,29.2,863.8,29.2z M859.5,41.2
		h2.2l-1.1-4.2L859.5,41.2z"/>
	<path class="st0" d="M871.4,42c0.4,0.2,0.8,0.4,1.4,0.6c0.5,0.2,1.1,0.3,1.7,0.5s1.1,0.2,1.7,0.3s1,0.1,1.4,0.1
		c0.6,0,1.1-0.1,1.4-0.2c0.3-0.1,0.4-0.3,0.4-0.6c0-0.2-0.1-0.3-0.2-0.4c-0.1-0.1-0.3-0.2-0.5-0.3s-0.5-0.2-0.8-0.3s-0.7-0.2-1-0.3
		c-0.8-0.3-1.6-0.6-2.3-1s-1.3-0.8-1.8-1.2c-0.5-0.5-0.9-1-1.2-1.6s-0.5-1.3-0.5-2.2c-0.1-2,0.4-3.6,1.6-4.8
		c1.1-1.2,2.9-1.7,5.2-1.7c1.3,0,2.4,0.1,3.4,0.4s1.9,0.6,2.7,1v5.4c-0.3-0.1-0.6-0.3-1.1-0.4c-0.5-0.1-1-0.3-1.5-0.4
		c-0.5-0.1-1.1-0.2-1.6-0.3s-1-0.1-1.5-0.1c-0.6,0-0.9,0.1-1.1,0.2c-0.2,0.1-0.3,0.3-0.3,0.4c0,0.2,0.1,0.4,0.3,0.5s0.5,0.3,0.9,0.4
		c0.3,0.1,0.6,0.2,0.9,0.3c0.3,0.1,0.7,0.2,1.1,0.4c1,0.4,1.7,0.7,2.4,1.1c0.6,0.4,1.1,0.8,1.5,1.3s0.7,1,0.8,1.6
		c0.2,0.6,0.3,1.2,0.3,2c0,0.9-0.1,1.8-0.3,2.6c-0.3,0.8-0.7,1.5-1.3,2c-0.6,0.6-1.4,1-2.4,1.3s-2.2,0.5-3.5,0.5
		c-0.5,0-1.1,0-1.7-0.1s-1.1-0.2-1.7-0.4c-0.5-0.2-1.1-0.3-1.6-0.5s-0.9-0.4-1.3-0.6L871.4,42z"/>
	<path class="st0" d="M900.6,41.6H893v1.8h8.3v5.3h-14.1V29.2H901v5.3h-8v1.8h7.6V41.6z"/>
	<path class="st0" d="M851.6,74.5v-3.9l2.5-2.2c0.9-0.8,1.6-1.5,2.3-2.1s1.2-1.2,1.6-1.7c0.4-0.5,0.8-1,1-1.4s0.3-0.8,0.3-1.2
		s-0.1-0.7-0.4-1c-0.3-0.3-0.8-0.4-1.4-0.4c-0.6,0-1.1,0.1-1.7,0.2c-0.6,0.2-1.1,0.4-1.6,0.6c-0.5,0.2-1,0.5-1.4,0.8
		s-0.8,0.5-1.1,0.7v-5.6c0.9-0.7,1.9-1.2,3-1.5s2.3-0.5,3.5-0.5c1.1,0,2.1,0.2,3,0.5s1.6,0.8,2.2,1.3s1,1.2,1.3,2s0.4,1.6,0.4,2.5
		c0,0.8-0.1,1.5-0.3,2.2c-0.2,0.7-0.5,1.3-0.9,2c-0.4,0.6-0.9,1.2-1.4,1.8c-0.5,0.6-1.1,1.1-1.7,1.7h4.6v5.3h-13.8V74.5z"/>
</g>
<linearGradient id="SVGID_00000137120157619407447390000010931698816014501260_" gradientUnits="userSpaceOnUse" x1="437.6" y1="-442" x2="591.4" y2="-442" gradientTransform="matrix(1 0 0 -1 0 168)">
	<stop  offset="0" style="stop-color:#EC0AFA"/>
	<stop  offset="0.1686" style="stop-color:#C62DF7"/>
	<stop  offset="0.3886" style="stop-color:#9956F3"/>
	<stop  offset="0.5" style="stop-color:#8866F1"/>
	<stop  offset="0.5695" style="stop-color:#806DF0"/>
	<stop  offset="0.6795" style="stop-color:#6981ED"/>
	<stop  offset="0.8163" style="stop-color:#44A1E7"/>
	<stop  offset="0.9731" style="stop-color:#11CDE0"/>
	<stop  offset="1" style="stop-color:#07D5DF"/>
</linearGradient>
<circle style="fill:url(#SVGID_00000137120157619407447390000010931698816014501260_);" cx="514.5" cy="610" r="76.9"/>
<g>
	<path class="st0" d="M474.7,584.5c1.3,0,2.5,0.1,3.6,0.4c1.1,0.2,2.1,0.7,2.9,1.3s1.5,1.4,2,2.5c0.5,1,0.7,2.4,0.7,3.9
		c0,2.7-0.7,4.8-2.2,6.1c-1.4,1.3-3.7,2-6.9,2H473v6h-6.6v-22.1h8.3V584.5z M473,590.5v4h1.2c1.2,0,2-0.1,2.5-0.4s0.8-0.8,0.8-1.6
		c0-0.5-0.1-0.8-0.2-1.1c-0.2-0.3-0.4-0.5-0.7-0.6c-0.3-0.1-0.6-0.2-1-0.3c-0.4,0-0.8,0-1.3,0L473,590.5L473,590.5z"/>
	<path class="st0" d="M492.8,584.5v7.6h5.3v-7.6h6.6v22.1h-6.6v-8.3h-5.3v8.3h-6.6v-22.1H492.8z"/>
	<path class="st0" d="M520.3,584.5l6.8,22.1h-6.9l-0.7-2.9H514l-0.7,2.9h-6.9l6.8-22.1H520.3z M515.5,598.1h2.5l-1.2-4.8
		L515.5,598.1z"/>
	<path class="st0" d="M528.9,599c0.4,0.2,0.9,0.4,1.5,0.6s1.2,0.4,1.9,0.5c0.6,0.2,1.3,0.3,1.9,0.4c0.6,0.1,1.2,0.1,1.6,0.1
		c0.7,0,1.2-0.1,1.6-0.2s0.5-0.3,0.5-0.6c0-0.2-0.1-0.3-0.2-0.5c-0.1-0.1-0.3-0.2-0.5-0.4s-0.5-0.2-0.9-0.3
		c-0.3-0.1-0.7-0.2-1.2-0.4c-1-0.3-1.8-0.7-2.6-1.1c-0.8-0.4-1.5-0.9-2.1-1.4s-1-1.1-1.4-1.8c-0.3-0.7-0.5-1.5-0.6-2.4
		c-0.1-2.3,0.5-4.1,1.8-5.4c1.3-1.3,3.3-2,5.9-2c1.5,0,2.8,0.1,3.9,0.4s2.1,0.7,3.1,1.1v6.1c-0.3-0.1-0.7-0.3-1.2-0.5
		s-1.1-0.3-1.7-0.5c-0.6-0.1-1.2-0.3-1.8-0.4s-1.2-0.1-1.7-0.1c-0.6,0-1,0.1-1.2,0.2s-0.3,0.3-0.3,0.5s0.1,0.4,0.4,0.6
		c0.3,0.2,0.6,0.3,1,0.5c0.3,0.1,0.7,0.2,1,0.4s0.8,0.3,1.2,0.4c1.1,0.4,2,0.8,2.7,1.3c0.7,0.4,1.3,0.9,1.7,1.5
		c0.4,0.5,0.7,1.1,0.9,1.8s0.3,1.4,0.3,2.2c0,1-0.1,2-0.4,2.9c-0.3,0.9-0.8,1.7-1.5,2.3s-1.6,1.2-2.7,1.5c-1.1,0.4-2.4,0.6-4,0.6
		c-0.6,0-1.3,0-1.9-0.1c-0.6-0.1-1.3-0.2-1.9-0.4s-1.2-0.4-1.8-0.6c-0.6-0.2-1-0.4-1.5-0.7L528.9,599z"/>
	<path class="st0" d="M562,598.5h-8.7v2.1h9.4v6h-16v-22.1h15.6v6h-9v2h8.7V598.5z"/>
	<path class="st0" d="M506.5,635.8v-4.4l2.8-2.5c1-0.9,1.8-1.7,2.6-2.4c0.7-0.7,1.4-1.3,1.9-1.9c0.5-0.6,0.9-1.1,1.1-1.6
		c0.2-0.5,0.4-0.9,0.4-1.4s-0.2-0.8-0.5-1.2s-0.8-0.5-1.6-0.5c-0.6,0-1.2,0.1-1.9,0.3c-0.6,0.2-1.2,0.4-1.8,0.7s-1.1,0.5-1.6,0.8
		s-0.9,0.6-1.2,0.8v-6.3c1-0.8,2.1-1.3,3.4-1.7s2.6-0.6,3.9-0.6s2.4,0.2,3.3,0.5c1,0.4,1.8,0.9,2.4,1.5c0.7,0.6,1.2,1.4,1.5,2.2
		c0.3,0.9,0.5,1.8,0.5,2.9c0,0.9-0.1,1.7-0.4,2.5c-0.3,0.8-0.6,1.5-1,2.2s-1,1.4-1.6,2c-0.6,0.7-1.2,1.3-1.9,1.9h5.3v6h-15.6V635.8z
		"/>
</g>
<linearGradient id="SVGID_00000034078388852774517280000006392956737750053295_" gradientUnits="userSpaceOnUse" x1="700.6" y1="568.8" x2="854.4" y2="568.8" gradientTransform="matrix(1 0 0 -1 0 168)">
	<stop  offset="0" style="stop-color:#EC0AFA"/>
	<stop  offset="0.1686" style="stop-color:#C62DF7"/>
	<stop  offset="0.3886" style="stop-color:#9956F3"/>
	<stop  offset="0.5" style="stop-color:#8866F1"/>
	<stop  offset="0.5695" style="stop-color:#806DF0"/>
	<stop  offset="0.6795" style="stop-color:#6981ED"/>
	<stop  offset="0.8163" style="stop-color:#44A1E7"/>
	<stop  offset="0.9731" style="stop-color:#11CDE0"/>
	<stop  offset="1" style="stop-color:#07D5DF"/>
</linearGradient>
<circle style="fill:url(#SVGID_00000034078388852774517280000006392956737750053295_);" cx="777.5" cy="-400.8" r="76.9"/>
<g>
	<path class="st0" d="M1031.5,19.6c1.1,0,2.2,0.1,3.2,0.3c1,0.2,1.9,0.6,2.6,1.1s1.3,1.3,1.7,2.2s0.6,2.1,0.6,3.5
		c0,2.4-0.6,4.2-1.9,5.4s-3.3,1.7-6.1,1.7h-1.7v5.3h-5.8V19.6H1031.5z M1029.9,24.9v3.6h1c1,0,1.8-0.1,2.2-0.3
		c0.4-0.2,0.7-0.7,0.7-1.4c0-0.4-0.1-0.8-0.2-1s-0.3-0.4-0.6-0.5s-0.6-0.2-0.9-0.2c-0.4,0-0.8,0-1.2,0h-1V24.9z"/>
	<path class="st0" d="M1047.4,19.6v6.7h4.7v-6.7h5.8v19.6h-5.8v-7.3h-4.7v7.3h-5.8V19.6H1047.4z"/>
	<path class="st0" d="M1071.7,19.6l6,19.6h-6.1l-0.7-2.5h-4.8l-0.6,2.5h-6.1l6-19.6H1071.7z M1067.5,31.5h2.2l-1.1-4.2L1067.5,31.5z
		"/>
	<path class="st0" d="M1079.4,32.4c0.4,0.2,0.8,0.4,1.4,0.6c0.5,0.2,1.1,0.3,1.7,0.5s1.1,0.2,1.7,0.3s1,0.1,1.4,0.1
		c0.6,0,1.1-0.1,1.4-0.2c0.3-0.1,0.4-0.3,0.4-0.6c0-0.2-0.1-0.3-0.2-0.4c-0.1-0.1-0.3-0.2-0.5-0.3s-0.5-0.2-0.8-0.3
		c-0.3-0.1-0.7-0.2-1-0.3c-0.8-0.3-1.6-0.6-2.3-1s-1.3-0.8-1.8-1.2c-0.5-0.5-0.9-1-1.2-1.6c-0.3-0.6-0.5-1.3-0.5-2.2
		c-0.1-2,0.4-3.6,1.6-4.8c1.1-1.2,2.9-1.7,5.2-1.7c1.3,0,2.4,0.1,3.4,0.4s1.9,0.6,2.7,1v5.4c-0.3-0.1-0.6-0.3-1.1-0.4
		s-1-0.3-1.5-0.4s-1.1-0.2-1.6-0.3c-0.5-0.1-1-0.1-1.5-0.1c-0.6,0-0.9,0.1-1.1,0.2s-0.3,0.3-0.3,0.4c0,0.2,0.1,0.4,0.3,0.5
		c0.2,0.1,0.5,0.3,0.9,0.4c0.3,0.1,0.6,0.2,0.9,0.3c0.3,0.1,0.7,0.2,1.1,0.4c1,0.4,1.7,0.7,2.4,1.1c0.6,0.4,1.1,0.8,1.5,1.3
		s0.7,1,0.8,1.6s0.3,1.2,0.3,2c0,0.9-0.1,1.8-0.3,2.6s-0.7,1.5-1.3,2c-0.6,0.6-1.4,1-2.4,1.3s-2.2,0.5-3.5,0.5c-0.5,0-1.1,0-1.7-0.1
		s-1.1-0.2-1.7-0.4c-0.5-0.2-1.1-0.3-1.6-0.5s-0.9-0.4-1.3-0.6L1079.4,32.4z"/>
	<path class="st0" d="M1108.6,32h-7.6v1.8h8.3v5.3h-14.1V19.6h13.8v5.3h-7.9v1.8h7.6V32H1108.6z"/>
	<path class="st0" d="M1059.5,59.4c0.4,0.1,0.9,0.2,1.4,0.3s1,0.1,1.5,0.2c0.5,0.1,1,0.1,1.5,0.1s0.9,0,1.4,0c0.8,0,1.4-0.1,1.8-0.3
		s0.6-0.4,0.6-0.8c0-0.3-0.1-0.5-0.2-0.6s-0.3-0.2-0.6-0.3s-0.5-0.1-0.8-0.1s-0.6,0-0.9,0h-2.8V53h2.7c0.8,0,1.3-0.1,1.6-0.3
		s0.5-0.5,0.5-0.8c0-0.7-0.5-1-1.6-1c-0.3,0-0.7,0-1.1,0s-0.8,0.1-1.3,0.1c-0.5,0.1-1,0.2-1.5,0.3s-1,0.2-1.6,0.4v-4.8
		c0.8-0.4,1.6-0.7,2.7-0.9s2.2-0.3,3.5-0.3c1.1,0,2.1,0.1,2.9,0.4c0.8,0.3,1.5,0.6,2.1,1.1c0.6,0.4,1,1,1.3,1.6s0.4,1.3,0.4,2
		c0,0.8-0.1,1.5-0.4,2.2s-0.8,1.3-1.6,1.8c0.8,0.4,1.4,1,1.9,1.7s0.7,1.6,0.7,2.8c0,0.9-0.2,1.7-0.5,2.4c-0.4,0.7-0.9,1.4-1.6,1.9
		c-0.7,0.5-1.5,0.9-2.5,1.2s-2.1,0.4-3.3,0.4c-0.6,0-1.2,0-1.8,0c-0.6,0-1.1-0.1-1.7-0.2c-0.5-0.1-1-0.2-1.5-0.3
		c-0.5-0.1-0.9-0.3-1.2-0.5V59.4z"/>
</g>
<image style="overflow:visible;" width="500" height="500" xlink:href="goa-twitter-profile.png"  transform="matrix(0.3172 0 0 0.3172 1112.3 -38.5923)">
</image>
<g>
	
		<linearGradient id="SVGID_00000116208339439469128930000015230140184928980113_" gradientUnits="userSpaceOnUse" x1="81.3095" y1="4.8485" x2="81.3095" y2="156.5336">
		<stop  offset="0" style="stop-color:#2A2B8D"/>
		<stop  offset="1" style="stop-color:#100736"/>
	</linearGradient>
	<path style="fill:url(#SVGID_00000116208339439469128930000015230140184928980113_);" d="M81.3,159L81.3,159
		c-42.8,0-77.5-34.7-77.5-77.5v0C3.8,38.7,38.5,4,81.3,4h0c42.8,0,77.5,34.7,77.5,77.5v0C158.8,124.3,124.1,159,81.3,159z"/>
	<g>
		<g>
			<g>
				<g>
					<path class="st21" d="M26.1,96.2c-0.1,0-0.2,0.1-0.2,0.2c-0.3,1.1-0.5,1.7-0.8,2.8c-0.2,0.7-0.3,1.4-0.4,2.2
						c0,0.6,0.3,0.9,0.7,0.9c0.3,0,0.7,0.1,0.9,0.1c0.3,0,0.4,0.1,0.4,0.3c0,0.3-0.2,0.4-0.5,0.4c-1.1,0.1-2,0.1-3.3,0.2
						c-0.3,0-1.9,0.3-3.1,0.4c-0.3,0-0.5-0.1-0.5-0.3c0-0.3,0.2-0.4,0.5-0.4c0.3,0,0.5-0.1,0.8-0.2c0.9-0.3,1.4-1.5,1.9-3.1
						c2.1-6.7,4.3-13.4,6.6-20.1c0.5-1.4,0.7-1.8,1-1.8c0.3,0,0.5,0.5,0.9,1.7c2.1,6.2,4.2,12.4,6.5,18.6c0.8,2.3,1.4,3,2.2,3.1
						c0.3,0.1,0.5,0.1,0.8,0.1c0.3,0,0.5,0.1,0.5,0.3c0,0.2-0.2,0.3-0.6,0.3c-2.3,0.2-4.6,0.3-6.8,0.5c-0.4,0-0.5,0-0.5-0.2
						c0-0.2,0.2-0.4,0.3-0.4c0.2-0.1,0.4-0.3,0.3-0.6c0,0,0,0,0,0c-0.7-1.9-1-2.9-1.7-4.9c0-0.1-0.1-0.2-0.2-0.2
						C29.9,96,28,96.1,26.1,96.2z M31,93.4c0.1,0,0.1-0.1,0.1-0.2c-0.7-2.3-1.5-4.6-2.2-6.9c-0.1-0.2-0.1-0.2-0.2,0
						c-0.7,2.3-1.4,4.7-2.1,7c0,0.1,0,0.2,0.1,0.2L31,93.4z"/>
					<path class="st21" d="M43.1,101.2c-0.4-0.2-0.5-0.6-0.5-1.1c0-2.4,0.1-3.5,0.1-4.3c0-0.5,0.1-0.7,0.3-0.7s0.2,0.3,0.2,0.5
						c0,0.3,0.1,0.6,0.1,0.9c0.3,2.1,2.1,3.7,4.2,3.5c2.3-0.1,3.1-1.5,3.1-2.8c0-1.2-0.2-2.2-2.3-3.8c-0.6-0.5-0.9-0.7-1.5-1.2
						c-2.3-1.7-3.8-4.3-3.9-7.2c-0.1-3.4,3-5.9,6.3-5.7c1,0,1.9,0.2,2.8,0.4c0.4,0.1,0.8,0.2,1.2,0.4c0.2,0.1,0.3,0.2,0.3,0.4
						c0,0.9-0.1,1.4-0.1,3.9c0,0.5-0.1,0.7-0.3,0.7c-0.1,0-0.2-0.1-0.3-0.5c0-0.6-0.2-1.1-0.4-1.6c-0.5-0.9-1.6-1.9-3.4-2
						c-2-0.1-2.8,1.2-2.8,2.5c0,1,0.3,2.1,2,3.5c0.5,0.4,0.8,0.6,1.3,1c2.2,1.9,4.6,4.1,4.5,7.1c0,1.8-1.1,4.1-2.6,5.1
						c-1.3,0.9-2.8,1.4-4.3,1.5C45.3,101.8,44,101.6,43.1,101.2z"/>
					<path class="st21" d="M75.2,97.8c0,1.5,0,1.7-0.5,1.9c-1.9,0.8-4.1,1-6.1,1.1c-6.2,0.4-11.7-3.6-11.8-10.3c0-3.3,1.5-7,4.4-8.8
						c2.2-1.3,4.6-1.6,7.1-1.6c1.3,0.1,2.7,0.2,4,0.4c0.8,0.1,1.7,0.3,2.4,0.3c0.2,0,0.3,0.1,0.2,0.3c0,0.2-0.3,1.3-0.3,4.8
						c0,0.4-0.1,0.5-0.3,0.5c-0.2,0-0.3-0.2-0.3-0.4c0-0.4-0.1-0.9-0.3-1.3c-0.9-2.4-3.8-3.1-6.1-3.1c-1.8,0-3.3,0.5-4.4,1.8
						c-1.3,1.6-1.6,3.8-1.6,5.8c0,4.4,2.1,9.9,7.3,9.7c0.3,0,1,0,1.4-0.3c0.2-0.2,0.3-0.4,0.3-0.7v-1.6c0-1.1,0-2.1,0-3.1
						c0-1.5-0.3-2-1.2-2.2c-0.4-0.1-0.7-0.1-1.1-0.1c-0.2,0-0.4-0.1-0.4-0.3s0.1-0.3,0.5-0.3c1.6,0,3.5,0.1,4.2,0.1
						c0.9,0,2.5-0.1,3.8-0.1c0.4,0,0.6,0.1,0.6,0.3S77.1,91,76.9,91c-0.1,0-0.4,0.1-0.7,0.1c-0.6,0.1-0.9,0.4-0.9,1.3
						c-0.1,0.8-0.1,2.2-0.1,3.5L75.2,97.8z"/>
					<path class="st21" d="M84.3,94.9c-0.1,0-0.2,0.1-0.2,0.2c-0.3,0.8-0.5,1.3-0.8,2.1c-0.2,0.5-0.3,1.1-0.4,1.7
						c0,0.5,0.2,0.7,0.7,0.8c0.3,0,0.7,0.1,0.9,0.1c0.3,0,0.4,0.1,0.4,0.3c0,0.2-0.2,0.3-0.5,0.3c-1.1,0-2-0.1-3.3-0.1
						c-0.3,0-1.9,0.1-3.1,0.1c-0.3,0-0.5-0.1-0.5-0.3c0-0.2,0.2-0.2,0.5-0.3c0.3,0,0.5-0.1,0.8-0.1c0.9-0.2,1.4-1,1.9-2.2
						c2.2-5.2,4.4-10.4,6.6-15.7c0.5-1.1,0.7-1.5,1-1.5c0.3,0,0.5,0.4,0.9,1.3c2.2,5.1,4.3,10.3,6.5,15.5c0.8,2.1,1.4,2.7,2.2,2.9
						c0.3,0.1,0.5,0.1,0.8,0.1c0.3,0,0.5,0.1,0.5,0.3c0,0.2-0.2,0.3-0.6,0.2c-2.3-0.1-4.6-0.2-6.8-0.3c-0.4,0-0.5-0.1-0.5-0.2
						s0.1-0.3,0.3-0.3c0.2,0,0.3-0.2,0.3-0.3c0,0,0-0.1,0-0.1c-0.7-1.7-1-2.5-1.7-4.2c0-0.1-0.1-0.2-0.2-0.2
						C88,94.9,86.1,94.9,84.3,94.9z M89.2,92.8c0.1,0,0.1-0.1,0.1-0.1c-0.7-1.9-1.4-3.7-2.2-5.6c-0.1-0.2-0.1-0.1-0.2,0
						c-0.7,1.9-1.4,3.7-2.1,5.6c0,0,0,0.1,0.1,0.1c0,0,0,0,0,0L89.2,92.8z"/>
					<path class="st21" d="M103.1,88.1c0-1.9,0-3.7-0.1-5.6c0-1.1-0.3-1.5-0.9-1.6c-0.3,0-0.7-0.1-1-0.1c-0.3,0-0.4-0.1-0.4-0.3
						s0.2-0.2,0.5-0.3c1.1,0,3.4-0.1,3.8-0.1c0.5,0,2.8-0.2,4-0.3c2.3-0.1,4,0.1,5,0.7c1.2,0.7,2.2,2.1,2.2,4.3
						c0,2.4-1.4,4.5-3.3,5.8c1.6,2.6,3.1,5.3,4.8,7.7c1.3,1.8,1.9,2.3,2.6,2.5c0.2,0.1,0.4,0.1,0.6,0.1c0.2,0,0.4,0.1,0.4,0.3
						c0,0.3-0.2,0.3-0.5,0.3c-0.9-0.1-1.3-0.1-2.2-0.2c-2.5-0.2-3.6-0.6-4.5-1.2c-0.8-0.6-1.6-1.9-2.5-3.7c-1.1-2.2-1.7-3.3-2.2-4.1
						c-0.1-0.1-0.2-0.2-0.3-0.2l-1.6,0c-0.1,0-0.2,0.1-0.2,0.2V94c0,2.2,0,3.5,0.1,4.6c0.1,0.7,0.2,1.3,1,1.6
						c0.4,0.1,0.7,0.2,1.1,0.2c0.4,0.1,0.4,0.2,0.4,0.3s-0.2,0.2-0.5,0.2c-1.7-0.1-4.3-0.3-4.5-0.3c-0.3,0-2.7,0-3.5-0.1
						c-0.4,0-0.5-0.1-0.5-0.3s0.2-0.2,0.4-0.3c0.3,0,0.6,0,0.8-0.1c0.5-0.1,0.7-0.6,0.8-1.5c0.1-1.9,0.1-3.8,0.1-5.6L103.1,88.1z
						 M107.3,89.9c0,0.2,0.1,0.3,0.2,0.4c0.5,0.3,1.2,0.4,1.9,0.4c0.7,0,1.2-0.1,1.6-0.4c0.5-0.4,0.9-1.7,1-3.6c0.1-2-1.1-5-3.5-4.9
						c-0.3,0-0.7,0-1,0.2c-0.1,0.1-0.1,0.1-0.1,0.3L107.3,89.9z"/>
					<path class="st21" d="M125.1,87.8c0-2.1,0.1-4.2,0-6.3c0-0.9-0.2-1.7-1.1-1.8c-0.2,0-0.5,0-0.9,0c-0.4,0-0.5-0.1-0.5-0.3
						c0-0.2,0.1-0.3,0.6-0.3c0.6,0,2.9-0.1,4-0.2c0.8-0.1,1.9-0.2,4-0.4c3.5-0.4,7.5-0.1,9.8,3c1.9,2.6,2.4,5.8,2.4,8.8
						c0,3.2-0.7,6.7-2.7,9.4c-2.1,2.8-5.3,3.4-8.4,3.2c-0.9-0.1-1.8-0.2-2.6-0.4c-1-0.2-2-0.4-2.4-0.4c-0.6,0-1.2-0.1-1.9-0.1
						c-0.7,0-1,0-1.7-0.1c-0.4,0-0.5-0.2-0.5-0.3c0-0.2,0.2-0.3,0.5-0.3c0.3,0,0.5,0,0.8-0.1c0.5-0.1,0.7-0.6,0.8-1.8
						c0.1-2.1,0.1-4.2,0.1-6.3L125.1,87.8z M129.5,91.2c0,2,0,4.1,0,6.1c0,1.3,0.1,1.9,0.4,2.3c0.4,0.7,1.5,1.3,2.5,1.3
						c1.7,0.1,3.2-0.2,4.5-2c1.6-2.2,1.6-5.3,1.6-7.8c0-2.6-0.5-5.2-1.8-7.6c-1.5-1.9-3-3.4-5.7-3.2c-0.5,0-1.1,0.2-1.3,0.4
						c-0.2,0.2-0.2,0.3-0.2,0.6c0,2,0,3.9,0,5.9V91.2z"/>
				</g>
			</g>
		</g>
		<g>
			<g>
				<g>
					<path class="st21" d="M57.8,68.5c0,0.4,0,0.4-0.2,0.5c-0.9,0.4-2.2,0.6-3.2,0.6c-3.2,0-6.1-1.5-6.1-5.2c0-2.1,1.1-3.6,2.3-4.3
						c1.2-0.8,2.4-0.9,3.5-0.9c0.8,0,1.6,0.1,2.3,0.2c0.3,0.1,0.7,0.1,1,0.1c0.2,0,0.2,0.1,0.2,0.2c-0.1,0.7-0.1,1.4-0.1,2.2
						c0,0.2,0,0.3-0.1,0.3c-0.1,0-0.1-0.1-0.1-0.2c0-0.4-0.2-0.8-0.4-1.1c-0.4-0.4-1.4-1-2.9-1c-0.7,0-1.7,0.1-2.6,0.8
						c-0.7,0.6-1.2,1.6-1.2,3.2c0,2.8,1.8,4.9,4.6,4.9c0.4,0,0.8,0,1.1-0.1c0.2-0.1,0.3-0.3,0.2-0.5V67c0-0.7,0-1.2,0-1.6
						c0-0.4-0.1-0.7-0.6-0.7c-0.2,0-0.3,0-0.5,0c-0.1,0-0.2,0-0.2-0.1s0.1-0.1,0.3-0.1c0.7,0,1.5,0,1.9,0s1.1,0,1.5,0
						c0.2,0,0.3,0,0.3,0.1s-0.1,0.1-0.2,0.1c-0.1,0-0.2,0-0.4,0c-0.4,0.1-0.5,0.3-0.5,0.7c0,0.4,0,0.9,0,1.6L57.8,68.5z"/>
					<path class="st21" d="M60.1,64.4c0-2.2,1.5-5.2,5.4-5.2c3.3,0,5.3,1.9,5.3,4.9c0,3-2.1,5.4-5.4,5.4
						C61.6,69.6,60.1,66.7,60.1,64.4z M69,64.7c0-2.9-1.7-4.8-3.9-4.8c-1.5,0-3.2,0.8-3.2,4.1c0,2.7,1.5,4.9,4,4.9
						C66.8,68.9,69,68.5,69,64.7z"/>
					<path class="st21" d="M73.5,63.3c0-2,0-2.4,0-2.8c0-0.4-0.1-0.7-0.6-0.7c-0.2,0-0.3,0-0.5,0c-0.1,0-0.2,0-0.2-0.1
						s0.1-0.1,0.3-0.1c0.7,0,1.5,0,1.9,0c0.4,0,1.2,0,2,0c1.6,0,3.8,0,5.3,1.5c0.8,0.9,1.3,2.1,1.3,3.3c0,1.4-0.5,2.7-1.4,3.7
						c-0.6,0.6-2,1.6-4.4,1.6c-0.5,0-1,0-1.5-0.1c-0.5,0-1-0.1-1.3-0.1c-0.1,0-0.4,0-0.7,0s-0.6,0-0.9,0c-0.2,0-0.3,0-0.3-0.1
						s0.1-0.1,0.2-0.1c0.2,0,0.3,0,0.5-0.1c0.3-0.1,0.3-0.3,0.4-0.7c0.1-0.6,0.1-1.6,0.1-2.8V63.3z M75.1,64.7c0,1.4,0,2.4,0,2.7
						c0,0.3,0,0.9,0.1,1c0.2,0.3,0.7,0.5,1.7,0.5c1.3,0,2.2-0.3,3-0.9c0.8-0.7,1.1-1.9,1.1-3.3c0-1.7-0.7-2.7-1.3-3.3
						c-1.2-1.2-2.7-1.3-3.7-1.3c-0.3,0-0.6,0-0.9,0.1c-0.1,0-0.2,0.2-0.2,0.3c0,0.4,0,1.6,0,2.6L75.1,64.7z"/>
					<path class="st21" d="M84.7,69.2c-0.2-0.1-0.3-0.2-0.3-0.4c0-0.7,0.1-1.5,0.1-1.7c0-0.2,0.1-0.3,0.2-0.3c0.1,0,0.1,0.1,0.1,0.2
						c0,0.2,0.1,0.5,0.1,0.7c0.3,1,1.1,1.3,1.9,1.3c1.2,0,1.8-0.8,1.8-1.5c0-0.6-0.2-1.2-1.3-2.1l-0.6-0.5c-1.4-1.1-1.9-2.1-1.9-3.1
						c0-1.4,1.2-2.5,3-2.5c0.4,0,0.8,0,1.2,0.1c0.2,0,0.4,0.1,0.5,0.1s0.2,0.1,0.2,0.2c0,0.2-0.1,0.6-0.1,1.6c0,0.3,0,0.4-0.1,0.4
						c-0.1,0-0.1-0.1-0.1-0.2c0-0.3-0.1-0.6-0.3-0.9c-0.2-0.3-0.6-0.6-1.4-0.6c-1,0-1.6,0.6-1.6,1.4c0,0.6,0.3,1.1,1.4,1.9l0.4,0.3
						c1.6,1.2,2.2,2.1,2.2,3.4c0,0.9-0.4,1.8-1.2,2.3c-0.6,0.4-1.4,0.6-2.1,0.5C86,69.6,85.3,69.5,84.7,69.2z"/>
					<path class="st21" d="M95.5,64.4c0-2.2,1.5-5.2,5.4-5.2c3.3,0,5.3,1.9,5.3,4.9c0,3-2.1,5.4-5.4,5.4
						C97,69.6,95.5,66.7,95.5,64.4z M104.4,64.7c0-2.9-1.7-4.8-3.9-4.8c-1.5,0-3.2,0.8-3.2,4.1c0,2.7,1.5,4.9,4,4.9
						C102.3,68.9,104.4,68.5,104.4,64.7z"/>
					<path class="st21" d="M108.9,63.3c0-2,0-2.4,0-2.8c0-0.4-0.1-0.7-0.6-0.7c-0.2,0-0.3,0-0.5,0c-0.1,0-0.2,0-0.2-0.1
						s0.1-0.1,0.3-0.1c0.6,0,1.2,0,1.9,0c0.5,0,3.2,0,3.5,0c0.2,0,0.4,0,0.5-0.1c0.1,0,0.1-0.1,0.2-0.1c0.1,0,0.1,0.1,0.1,0.1
						c0,0.1-0.1,0.3-0.1,0.6c0,0.1,0,0.9-0.1,1.1c0,0.1,0,0.2-0.1,0.2s-0.1-0.1-0.1-0.2c0-0.2,0-0.3-0.1-0.5
						c-0.1-0.2-0.4-0.4-0.9-0.4c-0.5,0-1.6,0-2,0c-0.1,0-0.1,0-0.1,0.2v3.3c0,0.1,0,0.1,0.1,0.1c0.4,0,1.2,0,1.7,0
						c0.8,0,1,0,1.2-0.2c0.1-0.1,0.1-0.1,0.2-0.1s0.1,0,0.1,0.1c0,0.1-0.1,0.4-0.1,0.8c0,0.3-0.1,0.9-0.1,1s0,0.3-0.1,0.3
						c-0.1,0-0.1-0.1-0.1-0.2c0-0.1,0-0.3-0.1-0.4c-0.1-0.3-0.4-0.5-0.7-0.5c-0.3,0-1.7,0-2,0c-0.1,0-0.1,0-0.1,0.1v1.1
						c0,1.3,0,2.2,0.1,2.8c0,0.4,0.1,0.7,0.5,0.7c0.2,0,0.4,0,0.7,0.1c0.2,0,0.2,0,0.2,0.1c0,0.1-0.1,0.1-0.3,0.1c-0.8,0-1.7,0-2,0
						c-0.3,0-1.2,0-1.7,0c-0.2,0-0.3,0-0.3-0.1c0-0.1,0.1-0.1,0.2-0.1c0.2,0,0.3,0,0.5-0.1c0.3-0.1,0.3-0.3,0.4-0.7
						c0.1-0.6,0.1-1.5,0.1-2.8L108.9,63.3z"/>
				</g>
			</g>
		</g>
	</g>
</g>
</svg>
