<?xml version="1.0" encoding="utf-8"?>
<!-- Generator: Adobe Illustrator 26.3.1, SVG Export Plug-In . SVG Version: 6.00 Build 0)  -->
<svg version="1.1" id="Layer_1" xmlns="http://www.w3.org/2000/svg" xmlns:xlink="http://www.w3.org/1999/xlink" x="0px" y="0px"
	 viewBox="0 0 70.6 77.6" style="enable-background:new 0 0 70.6 77.6;" xml:space="preserve">
<style type="text/css">
	.st0{fill:#090D56;}
	.st1{fill:none;stroke:#000000;stroke-width:8;stroke-linecap:round;stroke-miterlimit:10;}
	.st2{fill:none;stroke:#000000;stroke-width:8;stroke-linecap:round;stroke-miterlimit:10;stroke-dasharray:11.9349,11.9349;}
	.st3{fill:url(#SVGID_1_);}
	.st4{fill:none;stroke:#000000;stroke-width:12;stroke-linecap:round;stroke-miterlimit:10;}
	.st5{fill:none;stroke:#000000;stroke-width:12;stroke-linecap:round;stroke-miterlimit:10;stroke-dasharray:19.891,19.891;}
	.st6{fill:url(#SVGID_00000034086023481393196070000008048322950991033014_);}
	.st7{fill:url(#SVGID_00000114049365390997435140000007359484583221559218_);}
	.st8{fill:url(#SVGID_00000002368967598407375950000001169138024737995163_);}
	.st9{fill:#EC0AFA;}
	.st10{fill:#07D5DF;}
	.st11{fill:url(#SVGID_00000145037880431593862570000004051827959402957238_);}
	.st12{fill:url(#SVGID_00000135679564391917572770000011648476200501179054_);}
	.st13{fill:url(#SVGID_00000000930772619474342720000005053122770876675751_);}
</style>
<rect x="-1331.1" y="88.4" class="st0" width="382.5" height="1307.2"/>
<g>
	<g>
		<path class="st1" d="M931.4-150.5c1.1,1.6,2.1,3.3,3.2,5.1"/>
		<path class="st2" d="M940.7-135.1c15.3,27.5,27.8,62.7,19.3,98.7c-14.5,61.3-77,69.4-81.8,118.1c-6.4,64.5,99.6,89.4,98.2,157.7
			c-1.4,69.1-108,89.2-105.7,153.2c2.2,61.8,104.2,75.2,107.2,137.9c3.2,65.5-105.2,87.5-105.7,157.8
			c-0.5,70.5,108.2,95.3,102.7,159.8c-4.9,56.8-91.5,67-102.9,130.5c-7.7,43.3,24,86.6,58.3,120.4"/>
		<path class="st1" d="M934.7,1103.1c1.5,1.4,2.9,2.8,4.4,4.1"/>
	</g>
</g>
<linearGradient id="SVGID_1_" gradientUnits="userSpaceOnUse" x1="178.6876" y1="623.3755" x2="296.026" y2="623.3755">
	<stop  offset="0" style="stop-color:#EC0AFA"/>
	<stop  offset="0.1686" style="stop-color:#C62DF7"/>
	<stop  offset="0.3886" style="stop-color:#9956F3"/>
	<stop  offset="0.5" style="stop-color:#8866F1"/>
	<stop  offset="0.5695" style="stop-color:#806DF0"/>
	<stop  offset="0.6795" style="stop-color:#6981ED"/>
	<stop  offset="0.8163" style="stop-color:#44A1E7"/>
	<stop  offset="0.9731" style="stop-color:#11CDE0"/>
	<stop  offset="1" style="stop-color:#07D5DF"/>
</linearGradient>
<path class="st3" d="M249.2,7.2c-1.7,0-3.3-0.9-4.3-2.4c-1.5-2.5-3.1-5-4.7-7.5c-1.5-2.3-0.8-5.4,1.5-6.9c2.3-1.5,5.4-0.8,6.9,1.5
	c1.7,2.6,3.3,5.2,4.9,7.8c1.4,2.4,0.7,5.4-1.7,6.9C251,6.9,250.1,7.2,249.2,7.2z M235.4,1235.9c2-1.9,2.1-5,0.3-7.1
	c-4.2-4.5-8.1-9-11.7-13.3c-1.8-2.1-4.9-2.4-7-0.7c-2.1,1.8-2.4,4.9-0.7,7c3.7,4.5,7.8,9.2,12.1,13.8c1,1.1,2.3,1.6,3.7,1.6
	C233.2,1237.3,234.5,1236.8,235.4,1235.9z M212,1208.4c2.3-1.6,2.8-4.7,1.2-7c-3.5-5-6.7-10-9.4-14.8c-1.4-2.4-4.4-3.2-6.8-1.9
	c-2.4,1.4-3.2,4.4-1.9,6.8c2.9,5.1,6.3,10.4,9.9,15.6c1,1.4,2.5,2.1,4.1,2.1C210.2,1209.4,211.2,1209.1,212,1208.4z M193.5,1177.6
	c2.6-1,3.8-4,2.7-6.5c-2.3-5.5-4-11-5.2-16.4c-0.6-2.7-3.3-4.4-6-3.8c-2.7,0.6-4.4,3.3-3.8,6c1.3,5.9,3.3,11.9,5.7,18
	c0.8,1.9,2.7,3.1,4.6,3.1C192.2,1178,192.8,1177.8,193.5,1177.6z M184,1142.9c2.8,0,5-2.3,4.9-5.1c0-0.3,0-0.6,0-0.9
	c0-4.2,0.4-8.4,1.1-12.5c0.2-1.1,0.4-2.2,0.7-3.3c0.6-2.7-1.1-5.4-3.8-6c-2.7-0.6-5.4,1.1-6,3.8c-0.3,1.2-0.5,2.5-0.8,3.8
	c-0.8,4.6-1.3,9.4-1.3,14.2c0,0.4,0,0.7,0,1.1C178.9,1140.7,181.2,1142.9,184,1142.9C183.9,1142.9,183.9,1142.9,184,1142.9z
	 M196.4,1105.4c2.5-4.8,5.6-9.4,9.4-14.1c1.8-2.1,1.5-5.3-0.7-7c-2.1-1.8-5.3-1.5-7,0.7c-4.3,5.2-7.7,10.4-10.5,15.9
	c-1.3,2.5-0.3,5.5,2.2,6.7c0.7,0.4,1.5,0.6,2.3,0.6C193.8,1108.2,195.5,1107.2,196.4,1105.4z M217.8,1078.9
	c3.8-3.5,8.2-7.1,13.6-11.3c2.2-1.7,2.6-4.8,0.9-7c-1.7-2.2-4.8-2.6-7-0.9c-5.7,4.4-10.2,8.1-14.2,11.8c-2,1.9-2.2,5-0.4,7.1
	c1,1.1,2.3,1.6,3.7,1.6C215.6,1080.2,216.8,1079.8,217.8,1078.9z M245.8,1056.9c4.7-3.5,9.8-7.3,14.5-11.2c2.1-1.8,2.4-4.9,0.7-7
	c-1.8-2.1-4.9-2.4-7-0.7c-4.5,3.7-9.5,7.4-14.1,10.9c-2.2,1.7-2.7,4.8-1,7c1,1.3,2.5,2,4,2C243.9,1057.9,244.9,1057.6,245.8,1056.9z
	 M274,1033c4.8-5.1,8.5-10.1,11.5-15.4c1.3-2.4,0.5-5.5-1.9-6.8c-2.4-1.4-5.5-0.5-6.8,1.9c-2.5,4.5-5.8,8.9-10,13.4
	c-1.9,2-1.8,5.2,0.2,7.1c1,0.9,2.2,1.3,3.4,1.3C271.7,1034.6,273,1034.1,274,1033z M292.1,999.3c0.4-1.9,0.6-3.9,0.8-5.8
	c0.1-1.7,0.2-3.5,0.2-5.2c0-2.9-0.2-5.8-0.6-8.6c-0.4-2.7-3-4.6-5.7-4.2c-2.7,0.4-4.6,3-4.2,5.7c0.3,2.3,0.5,4.7,0.5,7.1
	c0,1.4-0.1,2.9-0.2,4.3c-0.1,1.6-0.4,3.3-0.7,4.9c-0.5,2.7,1.3,5.3,4,5.8c0.3,0.1,0.6,0.1,0.9,0.1
	C289.6,1003.4,291.7,1001.7,292.1,999.3z M284.3,967.9c2.5-1.2,3.5-4.2,2.3-6.7c-2.6-5.3-6-10.5-10.4-16c-1.7-2.2-4.9-2.5-7-0.8
	c-2.2,1.7-2.5,4.9-0.8,7c3.9,4.9,6.9,9.5,9.2,14.2c0.9,1.8,2.6,2.8,4.5,2.8C282.8,968.4,283.6,968.2,284.3,967.9z M263.7,938.5
	c1.9-2,1.9-5.1,0-7.1c-3.7-3.7-7.9-7.5-13.4-12.5c-2.1-1.8-5.2-1.6-7.1,0.4c-1.8,2.1-1.6,5.2,0.4,7.1c5.4,4.8,9.4,8.5,13,12.1
	c1,1,2.2,1.4,3.5,1.4C261.4,940,262.7,939.5,263.7,938.5z M237.1,914.1c1.8-2.1,1.6-5.2-0.5-7.1c-3.7-3.3-8.6-7.6-13.2-12
	c-2-1.9-5.2-1.8-7.1,0.2c-1.9,2-1.8,5.2,0.2,7.1c4.8,4.5,9.7,9,13.5,12.3c1,0.8,2.1,1.2,3.3,1.2
	C234.7,915.8,236.1,915.2,237.1,914.1z M210.7,889.5c2.1-1.8,2.3-5,0.5-7.1c-4.1-4.7-7.5-9.2-10.3-13.8c-1.5-2.3-4.5-3.1-6.9-1.6
	c-2.3,1.5-3.1,4.5-1.6,6.9c3.1,5,6.8,9.9,11.3,15c1,1.1,2.4,1.7,3.8,1.7C208.6,890.7,209.8,890.3,210.7,889.5z M190.4,859.8
	c2.6-0.9,4-3.7,3.1-6.3c-1.8-5.3-2.9-10.8-3.2-16.3c-0.2-2.8-2.5-4.9-5.3-4.7c-2.8,0.2-4.9,2.5-4.7,5.3c0.4,6.4,1.6,12.8,3.7,18.9
	c0.7,2.1,2.7,3.4,4.7,3.4C189.3,860.1,189.9,860,190.4,859.8z M191.7,820.7c1.2-5.3,3.1-10.5,5.7-15.6c1.3-2.5,0.3-5.5-2.2-6.7
	c-2.5-1.3-5.5-0.3-6.7,2.2c-3,5.9-5.2,12-6.6,18.1c-0.6,2.7,1.1,5.4,3.8,6c0.4,0.1,0.7,0.1,1.1,0.1
	C189.1,824.6,191.1,823,191.7,820.7z M206.7,790.8c3.3-4.2,7.1-8.4,11.7-12.9c2-1.9,2-5.1,0-7.1c-1.9-2-5.1-2-7.1,0
	c-4.9,4.8-9,9.3-12.5,13.8c-1.7,2.2-1.4,5.3,0.8,7c0.9,0.7,2,1.1,3.1,1.1C204.2,792.7,205.7,792,206.7,790.8z M231.5,765.9
	c3.8-3.3,7.8-6.7,11.7-9.9l2-1.7c2.1-1.8,2.4-4.9,0.6-7c-1.8-2.1-4.9-2.4-7-0.6l-2,1.7c-3.9,3.3-7.9,6.7-11.8,10.1
	c-2.1,1.8-2.3,5-0.5,7.1c1,1.1,2.4,1.7,3.8,1.7C229.4,767.1,230.5,766.7,231.5,765.9z M259,742.4c5.2-4.7,9.6-8.8,13.3-12.8
	c1.9-2,1.8-5.2-0.2-7.1c-2-1.9-5.2-1.8-7.1,0.2c-3.5,3.8-7.7,7.8-12.7,12.2c-2.1,1.8-2.2,5-0.4,7.1c1,1.1,2.4,1.7,3.7,1.7
	C256.8,743.7,258,743.2,259,742.4z M284.1,714.9c3.9-5.7,6.7-11.4,8.7-17.2c0.9-2.6-0.5-5.5-3.1-6.3c-2.6-0.9-5.5,0.5-6.3,3.1
	c-1.7,5-4.1,9.8-7.5,14.9c-1.5,2.3-0.9,5.4,1.4,6.9c0.9,0.6,1.8,0.8,2.8,0.8C281.6,717.1,283.2,716.4,284.1,714.9z M296,678.5l0-0.3
	c0-1,0-2-0.1-3c-0.3-5.5-1.3-10.9-2.9-16c-0.9-2.6-3.7-4-6.3-3.2c-2.6,0.9-4.1,3.7-3.2,6.3c1.4,4.3,2.2,8.8,2.5,13.4
	c0,0.9,0.1,1.7,0.1,2.6l0,0.2c0,2.8,2.2,5,5,5c0,0,0,0,0,0C293.8,683.5,296,681.2,296,678.5z M283,648.9c2.3-1.6,2.8-4.7,1.2-7
	c-3.4-4.8-7.4-9.5-12.4-14.4c-2-1.9-5.1-1.9-7.1,0.1c-1.9,2-1.9,5.1,0.1,7.1c4.5,4.4,8.2,8.6,11.1,12.9c1,1.4,2.5,2.1,4.1,2.1
	C281.1,649.8,282.1,649.5,283,648.9z M258.7,622.4c1.7-2.2,1.3-5.3-0.8-7c-4.8-3.8-9.9-7.5-14.6-10.9c-2.2-1.6-5.4-1.1-7,1.1
	c-1.6,2.2-1.1,5.4,1.1,7c4.7,3.4,9.6,7,14.3,10.7c0.9,0.7,2,1.1,3.1,1.1C256.2,624.3,257.7,623.7,258.7,622.4z M229.7,600.9
	c1.7-2.2,1.2-5.3-1-7c-5.6-4.2-10-7.7-13.8-11c-2.1-1.8-5.2-1.6-7.1,0.5c-1.8,2.1-1.6,5.2,0.5,7.1c4.1,3.5,8.6,7.2,14.4,11.5
	c0.9,0.7,1.9,1,3,1C227.2,602.9,228.7,602.2,229.7,600.9z M202,577.7c2.1-1.8,2.4-4.9,0.6-7c-3.9-4.6-6.9-9.2-9.2-13.9
	c-1.2-2.5-4.2-3.6-6.7-2.4c-2.5,1.2-3.6,4.2-2.4,6.7c2.6,5.5,6.1,10.8,10.6,16.1c1,1.2,2.4,1.8,3.8,1.8
	C200,578.9,201.1,578.5,202,577.7z M184.6,546.6c2.7-0.3,4.7-2.8,4.4-5.5c-0.1-1.2-0.2-2.5-0.3-3.7c0-0.6,0-1.2,0-1.8
	c0-3.6,0.4-7.2,1.2-10.7c0.6-2.7-1.1-5.4-3.8-6c-2.7-0.6-5.4,1.1-6,3.8c-0.9,4.2-1.4,8.5-1.4,12.8c0,0.7,0,1.5,0,2.2
	c0.1,1.5,0.2,3,0.3,4.5c0.3,2.6,2.4,4.5,5,4.5C184.2,546.7,184.4,546.7,184.6,546.6z M195.9,509.6c2.6-4.5,5.9-9,10.1-13.7
	c1.8-2.1,1.6-5.2-0.4-7.1c-2.1-1.8-5.2-1.6-7.1,0.4c-4.6,5.2-8.3,10.2-11.2,15.3c-1.4,2.4-0.6,5.5,1.8,6.8c0.8,0.5,1.6,0.7,2.5,0.7
	C193.3,512.2,195,511.3,195.9,509.6z M218.4,483.6c4.7-4.2,9.5-8.2,13.6-11.6c2.1-1.8,2.4-4.9,0.7-7c-1.8-2.1-4.9-2.4-7-0.7
	c-4.2,3.4-9.1,7.5-13.9,11.9c-2,1.9-2.2,5-0.4,7.1c1,1.1,2.3,1.6,3.7,1.6C216.2,484.9,217.4,484.5,218.4,483.6z M245.9,460.6
	c5.6-4.6,10-8.4,13.8-12c2-1.9,2.2-5,0.3-7.1c-1.9-2-5-2.2-7.1-0.3c-3.7,3.4-8,7.1-13.4,11.7c-2.1,1.8-2.4,4.9-0.7,7
	c1,1.2,2.4,1.8,3.9,1.8C243.8,461.7,245,461.4,245.9,460.6z M272.8,435.3c4.5-5.1,8.1-10.1,11.2-15.2c1.4-2.4,0.6-5.4-1.7-6.9
	c-2.4-1.4-5.4-0.6-6.9,1.7c-2.7,4.6-6,9.1-10.1,13.8c-1.8,2.1-1.6,5.2,0.5,7.1c0.9,0.8,2.1,1.2,3.3,1.2
	C270.4,437,271.8,436.5,272.8,435.3z M291.7,402.5c1.7-5.8,2.6-11.9,2.7-18c0-0.4,0-0.7,0-1.1c0-2.8-2.2-5-5-5c0,0,0,0,0,0
	c-2.7,0-5,2.2-5,5c0,0.3,0,0.6,0,0.9c-0.1,5.3-0.9,10.5-2.3,15.4c-0.8,2.7,0.8,5.4,3.4,6.2c0.5,0.1,0.9,0.2,1.4,0.2
	C289.1,406.1,291.1,404.7,291.7,402.5z M288.4,370.4c2.7-0.8,4.2-3.5,3.4-6.2c-1.7-5.9-4.3-11.8-7.6-17.6c-1.4-2.4-4.4-3.2-6.8-1.8
	c-2.4,1.4-3.2,4.5-1.8,6.8c3,5.1,5.2,10.2,6.7,15.3c0.6,2.2,2.6,3.6,4.8,3.6C287.4,370.6,287.9,370.5,288.4,370.4z M272.6,338.3
	c2.1-1.8,2.4-4.9,0.6-7c-3.6-4.3-7.7-8.7-12.6-13.5c-2-1.9-5.1-1.9-7.1,0.1c-1.9,2-1.9,5.1,0.1,7.1c4.7,4.6,8.6,8.8,12,12.8
	c1,1.2,2.4,1.8,3.8,1.8C270.5,339.4,271.7,339.1,272.6,338.3z M247.6,312.3c1.8-2.1,1.7-5.2-0.4-7.1c-1.7-1.6-3.5-3.1-5.3-4.7
	c-2.7-2.4-5.5-4.9-8.2-7.3c-2-1.9-5.2-1.7-7.1,0.3c-1.9,2-1.7,5.2,0.3,7.1c2.7,2.5,5.5,4.9,8.2,7.4c1.7,1.6,3.5,3.1,5.2,4.7
	c1,0.9,2.2,1.3,3.3,1.3C245.2,313.9,246.6,313.4,247.6,312.3z M220.9,288c2-1.9,2-5.1,0.1-7.1c-4.6-4.7-8.3-8.9-11.5-13.1
	c-1.7-2.2-4.8-2.6-7-1c-2.2,1.7-2.6,4.8-1,7c3.4,4.5,7.4,9.1,12.3,14c1,1,2.3,1.5,3.6,1.5C218.6,289.4,219.9,288.9,220.9,288z
	 M198.2,260c2.5-1.1,3.6-4.1,2.5-6.6c-2.4-5.2-3.8-10.4-4.4-15.7c-0.3-2.7-2.8-4.7-5.5-4.4c-2.7,0.3-4.7,2.8-4.4,5.5
	c0.7,6.3,2.5,12.6,5.3,18.8c0.8,1.8,2.7,2.9,4.6,2.9C196.8,260.5,197.5,260.3,198.2,260z M197.1,221.4c1.1-5.3,3.1-10.2,6-15.1
	c1.4-2.4,0.6-5.4-1.7-6.9c-2.4-1.4-5.4-0.6-6.9,1.7c-3.5,5.8-5.9,11.8-7.2,18.1c-0.6,2.7,1.1,5.4,3.8,5.9c0.4,0.1,0.7,0.1,1.1,0.1
	C194.5,225.3,196.6,223.7,197.1,221.4z M213.5,193c4.1-4.3,8.6-8.3,12.8-12.1c2.1-1.8,2.3-5,0.4-7.1c-1.8-2.1-5-2.3-7.1-0.4
	c-4.2,3.7-9.1,8.1-13.4,12.7c-1.9,2-1.8,5.2,0.2,7.1c1,0.9,2.2,1.4,3.4,1.4C211.2,194.5,212.5,194,213.5,193z M239.9,168.9
	c5.2-4.8,9.4-8.9,13.1-13c1.9-2,1.7-5.2-0.4-7.1c-2-1.9-5.2-1.7-7.1,0.4c-3.5,3.9-7.5,7.8-12.5,12.4c-2,1.9-2.2,5-0.3,7.1
	c1,1.1,2.3,1.6,3.7,1.6C237.7,170.2,238.9,169.8,239.9,168.9z M264.6,141c3.5-5.4,6.4-11,8.7-16.8c1-2.6-0.2-5.5-2.8-6.5
	c-2.6-1-5.5,0.2-6.5,2.8c-2.1,5.3-4.7,10.2-7.9,15.1c-1.5,2.3-0.8,5.4,1.5,6.9c0.8,0.5,1.8,0.8,2.7,0.8
	C262,143.2,263.6,142.4,264.6,141z M278.7,106c1.2-6.1,1.9-12.4,2.1-18.8c0.1-2.8-2.1-5.1-4.9-5.1c-2.8-0.1-5.1,2.1-5.1,4.9
	c-0.1,5.8-0.8,11.5-1.9,17.1c-0.5,2.7,1.2,5.3,3.9,5.9c0.3,0.1,0.7,0.1,1,0.1C276.1,110,278.2,108.4,278.7,106z M275.4,74.1
	c2.7-0.4,4.7-2.9,4.3-5.6c-0.8-6-2.1-12.1-3.7-18.3c-0.7-2.7-3.5-4.2-6.1-3.5c-2.7,0.7-4.2,3.5-3.5,6.1c1.6,5.7,2.7,11.5,3.5,17
	c0.3,2.5,2.5,4.3,4.9,4.3C274.9,74.1,275.1,74.1,275.4,74.1z M267.2,39c2.6-1,3.8-3.9,2.8-6.5c-2.2-5.5-4.7-11.2-7.6-16.9
	c-1.2-2.5-4.3-3.5-6.7-2.2c-2.5,1.2-3.5,4.3-2.2,6.7c2.7,5.4,5.2,10.8,7.2,16c0.8,2,2.7,3.2,4.7,3.2C266,39.4,266.6,39.3,267.2,39z
	 M255.7,1255.6c1.9-2,1.8-5.2-0.3-7.1c-2.2-2-4.4-4.1-6.5-6.1c-2-1.9-5.1-1.9-7.1,0.1c-1.9,2-1.9,5.1,0.1,7.1
	c2.1,2.1,4.4,4.2,6.6,6.3c1,0.9,2.2,1.3,3.4,1.3C253.4,1257.2,254.7,1256.7,255.7,1255.6z"/>
<g>
	<g>
		<path class="st4" d="M-297.8,13.9c1.8,2.7,3.5,5.5,5.3,8.5"/>
		<path class="st5" d="M-283.1,39.9c12.5,25.6,21.2,56.5,13.8,88.1c-14.5,61.3-77,69.4-81.8,118.1c-6.4,64.5,99.6,89.4,98.2,157.7
			c-1.4,69.1-108,89.2-105.7,153.2c2.2,61.8,104.2,75.2,107.2,137.9c3.2,65.5-105.2,87.5-105.7,157.8
			c-0.5,70.5,108.2,95.3,102.7,159.8c-4.9,56.8-91.5,67-102.9,130.5c-7.3,40.9,20.6,81.9,52.7,114.8"/>
		<path class="st4" d="M-297.4,1264.7c2.4,2.3,4.8,4.6,7.2,6.9"/>
	</g>
</g>
<linearGradient id="SVGID_00000162313279363403624390000016587467762664561851_" gradientUnits="userSpaceOnUse" x1="-265.9668" y1="601.085" x2="-146.9406" y2="601.085">
	<stop  offset="0" style="stop-color:#EC0AFA"/>
	<stop  offset="0.1686" style="stop-color:#C62DF7"/>
	<stop  offset="0.3886" style="stop-color:#9956F3"/>
	<stop  offset="0.5" style="stop-color:#8866F1"/>
	<stop  offset="0.5695" style="stop-color:#806DF0"/>
	<stop  offset="0.6795" style="stop-color:#6981ED"/>
	<stop  offset="0.8163" style="stop-color:#44A1E7"/>
	<stop  offset="0.9731" style="stop-color:#11CDE0"/>
	<stop  offset="1" style="stop-color:#07D5DF"/>
</linearGradient>
<path style="fill:url(#SVGID_00000162313279363403624390000016587467762664561851_);" d="M-194.3-13.3c-2,0-4-1-5.2-2.9
	c-1.6-2.7-3.4-5.5-5.2-8.3c-1.8-2.8-1-6.5,1.8-8.3c2.8-1.8,6.5-1,8.3,1.8c1.9,2.9,3.7,5.8,5.4,8.7c1.7,2.8,0.8,6.5-2.1,8.2
	C-192.2-13.6-193.2-13.3-194.3-13.3z M-209.9,1212.3c2.4-2.2,2.6-6,0.4-8.5c-4.5-5-8.8-10-12.7-14.8c-2.1-2.6-5.8-3-8.4-1
	c-2.6,2.1-3,5.8-1,8.4c4,5.1,8.5,10.3,13.2,15.4c1.2,1.3,2.8,2,4.4,2C-212.5,1213.8-211,1213.3-209.9,1212.3z M-235.2,1181.6
	c2.8-1.8,3.5-5.5,1.7-8.3c-3.7-5.6-6.9-11.2-9.6-16.6c-1.5-3-5.1-4.2-8-2.7s-4.2,5.1-2.7,8c2.9,5.8,6.4,11.8,10.3,17.8
	c1.2,1.8,3.1,2.7,5,2.7C-237.4,1182.6-236.2,1182.3-235.2,1181.6z M-254.1,1146.7c3.2-1,4.9-4.3,4-7.5c-1.9-6.2-3.1-12.3-3.6-18.2
	c-0.3-3.3-3.2-5.8-6.5-5.5c-3.3,0.3-5.7,3.2-5.5,6.5c0.6,6.8,2,13.7,4.1,20.7c0.8,2.6,3.2,4.2,5.7,4.2
	C-255.3,1147-254.7,1146.9-254.1,1146.7z M-253.1,1102.7l0.1-0.4c1-5.9,2.9-11.5,5.4-16.9c1.4-3,0.2-6.6-2.8-8c-3-1.4-6.6-0.2-8,2.8
	c-3,6.3-5.2,13-6.4,19.9l-0.1,0.5c-0.6,3.3,1.6,6.4,4.9,6.9c0.3,0.1,0.7,0.1,1,0.1C-256.1,1107.7-253.6,1105.6-253.1,1102.7z
	 M-237.6,1070c3.7-4.5,8-8.9,13.2-13.5c2.5-2.2,2.7-6,0.5-8.5c-2.2-2.5-6-2.7-8.5-0.5c-5.7,5.1-10.5,10-14.5,14.9
	c-2.1,2.6-1.7,6.3,0.8,8.4c1.1,0.9,2.5,1.4,3.8,1.4C-240.5,1072.2-238.8,1071.4-237.6,1070z M-209.3,1044.2c2.8-2.1,5.7-4.3,8.5-6.4
	c2.5-1.9,5-3.7,7.4-5.5c2.6-2,3.2-5.8,1.2-8.4c-2-2.6-5.8-3.2-8.4-1.2c-2.4,1.8-4.9,3.7-7.3,5.5c-2.9,2.1-5.8,4.3-8.6,6.4
	c-2.6,2-3.2,5.8-1.1,8.4c1.2,1.6,3,2.4,4.8,2.4C-211.7,1045.4-210.4,1045-209.3,1044.2z M-177.5,1019.5c5.9-5.2,10.6-10.2,14.4-15.3
	c2-2.6,1.5-6.4-1.2-8.4c-2.6-2-6.4-1.5-8.4,1.2c-3.3,4.4-7.5,8.9-12.8,13.6c-2.5,2.2-2.7,6-0.5,8.5c1.2,1.3,2.8,2,4.5,2
	C-180.1,1021-178.7,1020.5-177.5,1019.5z M-152.9,985c1.5-4.4,2.4-9.1,2.8-13.8c0.2-1.7,0.2-3.5,0.2-5.3c0-0.9,0-1.8-0.1-2.7
	c-0.1-3.3-3-5.9-6.3-5.7c-3.3,0.2-5.9,3-5.7,6.3c0,0.7,0,1.4,0,2.1c0,1.4-0.1,2.8-0.2,4.2c-0.3,3.8-1.1,7.5-2.2,11
	c-1,3.1,0.7,6.5,3.8,7.6c0.6,0.2,1.3,0.3,1.9,0.3C-156,989.1-153.7,987.5-152.9,985z M-158,949.9c3-1.3,4.5-4.8,3.2-7.9
	c-2.6-6.1-6.2-12.1-11-18.3c-2-2.6-5.8-3.1-8.4-1.1c-2.6,2-3.1,5.8-1.1,8.4c4.2,5.4,7.2,10.5,9.5,15.7c1,2.3,3.2,3.6,5.5,3.6
	C-159.6,950.4-158.8,950.2-158,949.9z M-179.6,916.9c2.3-2.4,2.3-6.2-0.1-8.5c-5.1-5.1-10.6-10-14.9-13.7c-2.5-2.2-6.3-2-8.5,0.5
	s-2,6.3,0.5,8.5c4.1,3.6,9.5,8.4,14.4,13.3c1.2,1.2,2.7,1.7,4.2,1.7C-182.3,918.7-180.8,918.1-179.6,916.9z M-209,890
	c2.2-2.5,2-6.3-0.5-8.5c-5.9-5.2-10.3-9.4-14.3-13.3c-2.3-2.3-6.1-2.3-8.5,0c-2.3,2.3-2.3,6.1,0,8.5c4.1,4.1,8.7,8.4,14.8,13.8
	c1.1,1,2.6,1.5,4,1.5C-211.8,892-210.2,891.4-209,890z M-237.6,862.4c2.6-2,3.1-5.8,1.1-8.4c-4.1-5.3-7.4-10.5-9.9-15.7
	c-1.4-3-5-4.2-8-2.8c-3,1.4-4.2,5-2.8,8c2.9,6,6.6,11.8,11.2,17.9c1.2,1.5,3,2.3,4.7,2.3C-240,863.6-238.7,863.2-237.6,862.4z
	 M-256.9,827.9c3.3-0.5,5.5-3.6,5-6.9c-0.5-3.1-0.8-6.4-0.8-9.6l0-0.5c0-2.7,0.2-5.3,0.6-7.9c0.5-3.3-1.8-6.3-5.1-6.8
	c-3.3-0.5-6.3,1.8-6.8,5.1c-0.4,3.1-0.7,6.3-0.7,9.5l0,0.6c0,3.9,0.3,7.8,0.9,11.5c0.5,2.9,3,5,5.9,5
	C-257.6,828-257.2,828-256.9,827.9z M-247,785.8c2.4-5.3,5.6-10.4,9.7-15.7c2-2.6,1.5-6.4-1.1-8.4c-2.6-2-6.4-1.5-8.4,1.1
	c-4.7,6-8.3,11.9-11.1,18c-1.4,3-0.1,6.6,2.9,8c0.8,0.4,1.7,0.6,2.5,0.6C-250.2,789.3-248,788-247,785.8z M-224.5,756
	c4-3.9,8.6-8.1,14.4-13.1c2.5-2.2,2.8-6,0.6-8.5s-6-2.8-8.5-0.6c-6.1,5.2-10.8,9.5-15,13.7c-2.4,2.3-2.4,6.1-0.1,8.5
	c1.2,1.2,2.7,1.8,4.3,1.8C-227.2,757.7-225.7,757.1-224.5,756z M-194.9,730c4.6-3.9,10-8.5,15.2-13.3c2.4-2.3,2.6-6.1,0.3-8.5
	c-2.3-2.4-6.1-2.6-8.5-0.3c-4.9,4.6-10.2,9.1-14.7,12.9c-2.5,2.1-2.8,5.9-0.7,8.5c1.2,1.4,2.9,2.1,4.6,2.1
	C-197.4,731.4-196,731-194.9,730z M-165.5,701.8c5-6,8.8-11.8,11.8-17.7c1.5-3,0.3-6.6-2.7-8c-3-1.5-6.6-0.3-8,2.7
	c-2.5,5.1-5.9,10.1-10.2,15.3c-2.1,2.5-1.8,6.3,0.8,8.5c1.1,0.9,2.5,1.4,3.8,1.4C-168.3,703.9-166.6,703.2-165.5,701.8z
	 M-147.4,663.3c0.3-2.4,0.4-4.9,0.4-7.3c0-1,0-2.1-0.1-3.1c-0.2-3.9-0.7-7.7-1.6-11.4c-0.8-3.2-4-5.2-7.2-4.4
	c-3.2,0.8-5.2,4-4.4,7.2c0.7,3,1.1,6,1.3,9.2c0,0.8,0.1,1.7,0.1,2.5c0,2-0.1,4-0.4,5.9c-0.4,3.3,2,6.3,5.2,6.7c0.2,0,0.5,0,0.7,0
	C-150.3,668.6-147.7,666.3-147.4,663.3z M-159.1,629.8c2.8-1.8,3.6-5.5,1.8-8.3c-3.5-5.5-7.9-10.8-13.5-16.3
	c-2.4-2.3-6.2-2.3-8.5,0.1c-2.3,2.4-2.3,6.2,0.1,8.5c4.9,4.8,8.8,9.5,11.8,14.2c1.1,1.8,3.1,2.8,5.1,2.8
	C-161.2,630.8-160.1,630.5-159.1,629.8z M-185.2,600.2c2-2.6,1.6-6.4-1-8.4c-5.1-4-10.4-7.8-16.2-12c-2.7-1.9-6.4-1.3-8.4,1.3
	c-1.9,2.7-1.3,6.4,1.3,8.4c5.7,4.1,10.8,7.9,15.8,11.7c1.1,0.9,2.4,1.3,3.7,1.3C-188.2,602.5-186.4,601.7-185.2,600.2z
	 M-217.2,576.4c2-2.6,1.5-6.4-1.1-8.4c-6-4.6-10.7-8.5-14.7-12.4c-2.4-2.3-6.2-2.2-8.5,0.2c-2.3,2.4-2.2,6.2,0.2,8.5
	c4.4,4.2,9.4,8.4,15.7,13.2c1.1,0.8,2.4,1.2,3.6,1.2C-220.2,578.8-218.4,578-217.2,576.4z M-246.8,549.9c2.7-1.9,3.5-5.6,1.6-8.3
	c-3.6-5.3-6-10.5-7.5-16.1c-0.8-3.2-4.1-5.1-7.3-4.3c-3.2,0.8-5.1,4.1-4.3,7.3c1.8,6.9,4.8,13.3,9.2,19.7c1.2,1.7,3,2.6,5,2.6
	C-249,551-247.9,550.6-246.8,549.9z M-254,508.1c0.6-5.8,2.3-11.3,5-16.9c1.5-3,0.3-6.6-2.7-8c-3-1.5-6.6-0.3-8,2.7
	c-3.4,6.8-5.5,13.8-6.2,20.9c-0.4,3.3,2,6.3,5.3,6.6c0.2,0,0.4,0,0.6,0C-256.9,513.4-254.3,511.1-254,508.1z M-238.7,476
	c3.6-4.3,8-8.7,13.4-13.6c2.5-2.2,2.6-6,0.4-8.5s-6-2.6-8.5-0.4c-5.8,5.2-10.5,10.1-14.5,14.7c-2.1,2.5-1.8,6.3,0.7,8.5
	c1.1,1,2.5,1.4,3.9,1.4C-241.6,478.1-239.9,477.4-238.7,476z M-210.3,449.7c1.6-1.3,3.2-2.6,4.7-3.9c3.5-2.9,7.1-5.8,10.7-8.8
	c2.5-2.1,2.9-5.9,0.7-8.5c-2.1-2.5-5.9-2.9-8.5-0.7c-3.5,2.9-7.1,5.9-10.6,8.7c-1.6,1.3-3.2,2.6-4.8,3.9c-2.6,2.1-2.9,5.9-0.8,8.4
	c1.2,1.4,2.9,2.2,4.6,2.2C-212.8,451-211.5,450.6-210.3,449.7z M-179.8,423.4c5.5-5.3,10.1-10.3,13.9-15.4c2-2.6,1.5-6.4-1.1-8.4
	c-2.6-2-6.4-1.5-8.4,1.1c-3.5,4.6-7.7,9.2-12.8,14.1c-2.4,2.3-2.4,6.1-0.1,8.5c1.2,1.2,2.7,1.8,4.3,1.8
	C-182.4,425.1-180.9,424.6-179.8,423.4z M-154.8,389.9c3-6.7,4.9-13.7,5.8-20.8c0.4-3.3-2-6.3-5.3-6.7c-3.3-0.4-6.3,2-6.7,5.3
	c-0.7,6-2.3,11.6-4.8,17.3c-1.4,3,0,6.6,3,7.9c0.8,0.4,1.6,0.5,2.4,0.5C-158,393.5-155.8,392.2-154.8,389.9z M-154.5,354.6
	c3.3-0.6,5.4-3.8,4.7-7c-1.3-6.8-3.8-13.6-7.2-20.3c-1.5-2.9-5.2-4.1-8.1-2.5c-2.9,1.5-4.1,5.2-2.5,8.1c3,5.7,5,11.2,6.1,17
	c0.6,2.9,3.1,4.9,5.9,4.9C-155.3,354.7-154.9,354.7-154.5,354.6z M-169.6,318.3c2.6-2.1,3-5.9,0.9-8.4c-3.9-4.8-8.4-9.7-13.9-15.1
	c-2.4-2.3-6.2-2.3-8.5,0.1c-2.3,2.4-2.3,6.2,0.1,8.5c5.2,5.1,9.4,9.7,13,14.1c1.2,1.5,2.9,2.2,4.7,2.2
	C-172,319.6-170.7,319.2-169.6,318.3z M-197,289.5c2.2-2.5,2-6.3-0.5-8.5c-1.3-1.2-2.6-2.3-3.9-3.5c-3.6-3.2-7.3-6.5-10.8-9.8
	c-2.4-2.2-6.2-2.1-8.5,0.3c-2.2,2.4-2.1,6.2,0.3,8.5c3.6,3.3,7.3,6.7,11,9.9c1.3,1.2,2.6,2.3,3.9,3.5c1.1,1,2.6,1.5,4,1.5
	C-199.8,291.4-198.2,290.8-197,289.5z M-226.3,262.5c2.4-2.2,2.6-6,0.3-8.5c-4.8-5.2-8.6-10-11.7-14.8c-1.8-2.8-5.5-3.6-8.3-1.8
	s-3.6,5.5-1.8,8.3c3.4,5.3,7.7,10.7,12.9,16.4c1.2,1.3,2.8,1.9,4.4,1.9C-228.9,264.1-227.5,263.6-226.3,262.5z M-249.4,230.4
	c3.2-0.9,5-4.2,4.2-7.4c-1.2-4.3-1.8-8.6-1.8-13c0-1.5,0.1-3,0.2-4.5c0.3-3.3-2.1-6.2-5.4-6.5c-3.3-0.3-6.2,2.1-6.5,5.4
	c-0.2,1.8-0.2,3.7-0.2,5.5c0,5.5,0.8,11,2.2,16.3c0.7,2.6,3.2,4.4,5.8,4.4C-250.5,230.6-249.9,230.5-249.4,230.4z M-242.2,188.5
	c2.4-5,5.8-9.8,10.3-14.9c2.2-2.5,2-6.3-0.5-8.5c-2.5-2.2-6.3-2-8.5,0.5c-5.3,5.9-9.3,11.7-12.2,17.7c-1.4,3-0.2,6.6,2.8,8
	c0.8,0.4,1.7,0.6,2.6,0.6C-245.3,191.9-243.2,190.7-242.2,188.5z M-218.1,160.3c1.7-1.6,3.5-3.1,5.3-4.7c3.2-2.8,6.4-5.6,9.7-8.6
	c2.4-2.2,2.6-6,0.4-8.5s-6-2.6-8.5-0.4c-3.1,2.9-6.4,5.7-9.5,8.4c-1.8,1.6-3.6,3.2-5.4,4.7c-2.5,2.2-2.7,6-0.5,8.5
	c1.2,1.3,2.8,2,4.5,2C-220.6,161.8-219.2,161.3-218.1,160.3z M-188.6,132.5c4.9-5.6,8.9-11.1,12.3-16.9c1.7-2.9,0.7-6.5-2.1-8.2
	c-2.9-1.7-6.5-0.7-8.2,2.1c-3,5.2-6.7,10.1-11,15.1c-2.2,2.5-1.9,6.3,0.6,8.5c1.1,1,2.5,1.5,3.9,1.5
	C-191.5,134.5-189.8,133.8-188.6,132.5z M-167.6,96.3c0.9-2.8,1.7-5.7,2.4-8.6c0.9-3.9,1.6-7.9,2.1-11.9c0.4-3.3-1.9-6.3-5.2-6.7
	c-3.3-0.4-6.3,1.9-6.7,5.2c-0.4,3.6-1.1,7.1-1.9,10.6c-0.6,2.6-1.3,5.2-2.2,7.6c-1,3.1,0.7,6.5,3.8,7.6c0.6,0.2,1.3,0.3,1.9,0.3
	C-170.8,100.4-168.4,98.8-167.6,96.3z M-168.1,61.2c3.3-0.2,5.8-3.1,5.6-6.4c-0.4-6.7-1.4-13.6-3-20.6c-0.7-3.2-3.9-5.3-7.2-4.5
	c-3.2,0.7-5.3,3.9-4.5,7.2c1.4,6.3,2.3,12.6,2.7,18.7c0.2,3.2,2.8,5.6,6,5.6C-168.3,61.2-168.2,61.2-168.1,61.2z M-174.9,22.1
	c3.1-1.1,4.7-4.6,3.6-7.7c-2.3-6.2-5-12.5-8.1-18.9c-1.5-3-5-4.2-8-2.8c-3,1.5-4.2,5-2.8,8c2.9,6,5.5,11.9,7.6,17.7
	c0.9,2.4,3.2,3.9,5.6,3.9C-176.3,22.5-175.6,22.3-174.9,22.1z M-187.5,1234c2.3-2.4,2.1-6.2-0.3-8.5c-2.4-2.3-4.9-4.6-7.1-6.8
	c-2.4-2.3-6.2-2.3-8.5,0.1c-2.3,2.4-2.3,6.2,0.1,8.5c2.4,2.3,4.8,4.6,7.3,7c1.2,1.1,2.6,1.6,4.1,1.6
	C-190.3,1235.9-188.7,1235.3-187.5,1234z"/>
<linearGradient id="SVGID_00000009556983870019716240000017222058174682274731_" gradientUnits="userSpaceOnUse" x1="-1226.8042" y1="747.0767" x2="-1107.778" y2="747.0767">
	<stop  offset="0" style="stop-color:#EC0AFA"/>
	<stop  offset="0.1686" style="stop-color:#C62DF7"/>
	<stop  offset="0.3886" style="stop-color:#9956F3"/>
	<stop  offset="0.5" style="stop-color:#8866F1"/>
	<stop  offset="0.5695" style="stop-color:#806DF0"/>
	<stop  offset="0.6795" style="stop-color:#6981ED"/>
	<stop  offset="0.8163" style="stop-color:#44A1E7"/>
	<stop  offset="0.9731" style="stop-color:#11CDE0"/>
	<stop  offset="1" style="stop-color:#07D5DF"/>
</linearGradient>
<path style="fill:url(#SVGID_00000009556983870019716240000017222058174682274731_);" d="M-1155.1,132.7c-2,0-4-1-5.2-2.9
	c-1.6-2.7-3.4-5.5-5.2-8.3c-1.8-2.8-1-6.5,1.8-8.3c2.8-1.8,6.5-1,8.3,1.8c1.9,2.9,3.7,5.8,5.4,8.7c1.7,2.8,0.8,6.5-2.1,8.2
	C-1153,132.4-1154.1,132.7-1155.1,132.7z M-1170.7,1358.3c2.4-2.2,2.6-6,0.4-8.5c-4.5-5-8.8-10-12.7-14.8c-2.1-2.6-5.8-3-8.4-1
	c-2.6,2.1-3,5.8-1,8.4c4,5.1,8.5,10.3,13.2,15.4c1.2,1.3,2.8,2,4.4,2C-1173.3,1359.8-1171.8,1359.3-1170.7,1358.3z M-1196.1,1327.6
	c2.8-1.8,3.5-5.5,1.7-8.3c-3.7-5.6-6.9-11.2-9.6-16.6c-1.5-3-5.1-4.2-8-2.7s-4.2,5.1-2.7,8c2.9,5.8,6.4,11.8,10.3,17.8
	c1.2,1.8,3.1,2.7,5,2.7C-1198.2,1328.6-1197.1,1328.3-1196.1,1327.6z M-1215,1292.7c3.2-1,4.9-4.3,4-7.5c-1.9-6.2-3.1-12.3-3.6-18.2
	c-0.3-3.3-3.2-5.8-6.5-5.5c-3.3,0.3-5.7,3.2-5.5,6.5c0.6,6.8,2,13.7,4.1,20.7c0.8,2.6,3.2,4.2,5.7,4.2
	C-1216.1,1293-1215.5,1292.9-1215,1292.7z M-1213.9,1248.7l0.1-0.4c1-5.9,2.9-11.5,5.4-16.9c1.4-3,0.2-6.6-2.8-8
	c-3-1.4-6.6-0.2-8,2.8c-3,6.3-5.2,13-6.4,19.9l-0.1,0.5c-0.6,3.3,1.6,6.4,4.9,6.9c0.3,0.1,0.7,0.1,1,0.1
	C-1216.9,1253.7-1214.4,1251.6-1213.9,1248.7z M-1198.5,1216c3.7-4.5,8-8.9,13.2-13.5c2.5-2.2,2.7-6,0.5-8.5c-2.2-2.5-6-2.7-8.5-0.5
	c-5.7,5.1-10.5,10-14.5,14.9c-2.1,2.6-1.7,6.3,0.8,8.4c1.1,0.9,2.5,1.4,3.8,1.4C-1201.4,1218.2-1199.6,1217.4-1198.5,1216z
	 M-1170.2,1190.2c2.8-2.1,5.7-4.3,8.5-6.4c2.5-1.9,5-3.7,7.4-5.5c2.6-2,3.2-5.8,1.2-8.4c-2-2.6-5.8-3.2-8.4-1.2
	c-2.4,1.8-4.9,3.7-7.3,5.5c-2.9,2.1-5.8,4.3-8.6,6.4c-2.6,2-3.2,5.8-1.1,8.4c1.2,1.6,3,2.4,4.8,2.4
	C-1172.5,1191.4-1171.2,1191-1170.2,1190.2z M-1138.4,1165.5c5.9-5.2,10.6-10.2,14.4-15.3c2-2.6,1.5-6.4-1.2-8.4
	c-2.6-2-6.4-1.5-8.4,1.2c-3.3,4.4-7.5,8.9-12.8,13.6c-2.5,2.2-2.7,6-0.5,8.5c1.2,1.3,2.8,2,4.5,2
	C-1140.9,1167-1139.5,1166.5-1138.4,1165.5z M-1113.7,1131c1.5-4.4,2.4-9.1,2.8-13.8c0.2-1.7,0.2-3.5,0.2-5.3c0-0.9,0-1.8-0.1-2.7
	c-0.1-3.3-3-5.9-6.3-5.7c-3.3,0.2-5.9,3-5.7,6.3c0,0.7,0,1.4,0,2.1c0,1.4-0.1,2.8-0.2,4.2c-0.3,3.8-1.1,7.5-2.2,11
	c-1,3.1,0.7,6.5,3.8,7.6c0.6,0.2,1.3,0.3,1.9,0.3C-1116.9,1135.1-1114.5,1133.5-1113.7,1131z M-1118.8,1095.9c3-1.3,4.5-4.8,3.2-7.9
	c-2.6-6.1-6.2-12.1-11-18.3c-2-2.6-5.8-3.1-8.4-1.1c-2.6,2-3.1,5.8-1.1,8.4c4.2,5.4,7.2,10.5,9.5,15.7c1,2.3,3.2,3.6,5.5,3.6
	C-1120.4,1096.4-1119.6,1096.2-1118.8,1095.9z M-1140.5,1062.9c2.3-2.4,2.3-6.2-0.1-8.5c-5.1-5.1-10.6-10-14.9-13.7
	c-2.5-2.2-6.3-2-8.5,0.5s-2,6.3,0.5,8.5c4.1,3.6,9.5,8.4,14.4,13.3c1.2,1.2,2.7,1.7,4.2,1.7
	C-1143.2,1064.6-1141.6,1064.1-1140.5,1062.9z M-1169.8,1036c2.2-2.5,2-6.3-0.5-8.5c-5.9-5.2-10.3-9.4-14.3-13.3
	c-2.3-2.3-6.1-2.3-8.5,0c-2.3,2.3-2.3,6.1,0,8.5c4.1,4.1,8.7,8.4,14.8,13.8c1.1,1,2.6,1.5,4,1.5
	C-1172.7,1038-1171,1037.3-1169.8,1036z M-1198.4,1008.4c2.6-2,3.1-5.8,1.1-8.4c-4.1-5.3-7.4-10.5-9.9-15.7c-1.4-3-5-4.2-8-2.8
	c-3,1.4-4.2,5-2.8,8c2.9,6,6.6,11.8,11.2,17.9c1.2,1.5,3,2.3,4.7,2.3C-1200.8,1009.6-1199.5,1009.2-1198.4,1008.4z M-1217.7,973.9
	c3.3-0.5,5.5-3.6,5-6.9c-0.5-3.1-0.8-6.4-0.8-9.6l0-0.5c0-2.7,0.2-5.3,0.6-7.9c0.5-3.3-1.8-6.3-5.1-6.8c-3.3-0.5-6.3,1.8-6.8,5.1
	c-0.4,3.1-0.7,6.3-0.7,9.5l0,0.6c0,3.9,0.3,7.8,0.9,11.5c0.5,2.9,3,5,5.9,5C-1218.4,974-1218.1,974-1217.7,973.9z M-1207.8,931.8
	c2.4-5.3,5.6-10.4,9.7-15.7c2-2.6,1.5-6.4-1.1-8.4c-2.6-2-6.4-1.5-8.4,1.1c-4.7,6-8.3,11.9-11.1,18c-1.4,3-0.1,6.6,2.9,8
	c0.8,0.4,1.7,0.6,2.5,0.6C-1211,935.3-1208.9,934-1207.8,931.8z M-1185.4,902c4-3.9,8.6-8.1,14.4-13.1c2.5-2.2,2.8-6,0.6-8.5
	s-6-2.8-8.5-0.6c-6.1,5.2-10.8,9.5-15,13.7c-2.4,2.3-2.4,6.1-0.1,8.5c1.2,1.2,2.7,1.8,4.3,1.8C-1188,903.7-1186.5,903.1-1185.4,902z
	 M-1155.7,876c4.6-3.9,10-8.5,15.2-13.3c2.4-2.3,2.6-6.1,0.3-8.5c-2.3-2.4-6.1-2.6-8.5-0.3c-4.9,4.6-10.2,9.1-14.7,12.9
	c-2.5,2.1-2.8,5.9-0.7,8.5c1.2,1.4,2.9,2.1,4.6,2.1C-1158.2,877.4-1156.9,877-1155.7,876z M-1126.3,847.8c5-6,8.8-11.8,11.8-17.7
	c1.5-3,0.3-6.6-2.7-8c-3-1.5-6.6-0.3-8,2.7c-2.5,5.1-5.9,10.1-10.2,15.3c-2.1,2.5-1.8,6.3,0.8,8.5c1.1,0.9,2.5,1.4,3.8,1.4
	C-1129.2,849.9-1127.5,849.2-1126.3,847.8z M-1108.2,809.3c0.3-2.4,0.4-4.9,0.4-7.3c0-1,0-2.1-0.1-3.1c-0.2-3.9-0.7-7.7-1.6-11.4
	c-0.8-3.2-4-5.2-7.2-4.4c-3.2,0.8-5.2,4-4.4,7.2c0.7,3,1.1,6,1.3,9.2c0,0.8,0.1,1.7,0.1,2.5c0,2-0.1,4-0.4,5.9
	c-0.4,3.3,2,6.3,5.2,6.7c0.2,0,0.5,0,0.7,0C-1111.2,814.6-1108.6,812.3-1108.2,809.3z M-1119.9,775.8c2.8-1.8,3.6-5.5,1.8-8.3
	c-3.5-5.5-7.9-10.8-13.5-16.3c-2.4-2.3-6.2-2.3-8.5,0.1c-2.3,2.4-2.3,6.2,0.1,8.5c4.9,4.8,8.8,9.5,11.8,14.2
	c1.1,1.8,3.1,2.8,5.1,2.8C-1122,776.8-1120.9,776.5-1119.9,775.8z M-1146.1,746.2c2-2.6,1.6-6.4-1-8.4c-5.1-4-10.4-7.8-16.2-12
	c-2.7-1.9-6.4-1.3-8.4,1.3c-1.9,2.7-1.3,6.4,1.3,8.4c5.7,4.1,10.8,7.9,15.8,11.7c1.1,0.9,2.4,1.3,3.7,1.3
	C-1149,748.5-1147.3,747.7-1146.1,746.2z M-1178.1,722.4c2-2.6,1.5-6.4-1.1-8.4c-6-4.6-10.7-8.5-14.7-12.4c-2.4-2.3-6.2-2.2-8.5,0.2
	c-2.3,2.4-2.2,6.2,0.2,8.5c4.4,4.2,9.4,8.4,15.7,13.2c1.1,0.8,2.4,1.2,3.6,1.2C-1181,724.8-1179.2,724-1178.1,722.4z M-1207.7,695.9
	c2.7-1.9,3.5-5.6,1.6-8.3c-3.6-5.3-6-10.5-7.5-16.1c-0.8-3.2-4.1-5.1-7.3-4.3c-3.2,0.8-5.1,4.1-4.3,7.3c1.8,6.9,4.8,13.3,9.2,19.7
	c1.2,1.7,3,2.6,5,2.6C-1209.9,697-1208.7,696.6-1207.7,695.9z M-1214.8,654c0.6-5.8,2.3-11.3,5-16.9c1.5-3,0.3-6.6-2.7-8
	c-3-1.5-6.6-0.3-8,2.7c-3.4,6.8-5.5,13.8-6.2,20.9c-0.4,3.3,2,6.3,5.3,6.6c0.2,0,0.4,0,0.6,0C-1217.8,659.4-1215.2,657.1-1214.8,654
	z M-1199.5,622c3.6-4.3,8-8.7,13.4-13.6c2.5-2.2,2.6-6,0.4-8.5s-6-2.6-8.5-0.4c-5.8,5.2-10.5,10.1-14.5,14.7
	c-2.1,2.5-1.8,6.3,0.7,8.5c1.1,1,2.5,1.4,3.9,1.4C-1202.4,624.1-1200.7,623.4-1199.5,622z M-1171.2,595.6c1.6-1.3,3.2-2.6,4.7-3.9
	c3.5-2.9,7.1-5.8,10.7-8.8c2.5-2.1,2.9-5.9,0.7-8.5c-2.1-2.5-5.9-2.9-8.5-0.7c-3.5,2.9-7.1,5.9-10.6,8.7c-1.6,1.3-3.2,2.6-4.8,3.9
	c-2.6,2.1-2.9,5.9-0.8,8.4c1.2,1.4,2.9,2.2,4.6,2.2C-1173.6,597-1172.3,596.6-1171.2,595.6z M-1140.6,569.4
	c5.5-5.3,10.1-10.3,13.9-15.4c2-2.6,1.5-6.4-1.1-8.4c-2.6-2-6.4-1.5-8.4,1.1c-3.5,4.6-7.7,9.2-12.8,14.1c-2.4,2.3-2.4,6.1-0.1,8.5
	c1.2,1.2,2.7,1.8,4.3,1.8C-1143.3,571.1-1141.8,570.6-1140.6,569.4z M-1115.6,535.9c3-6.7,4.9-13.7,5.8-20.8c0.4-3.3-2-6.3-5.3-6.7
	c-3.3-0.4-6.3,2-6.7,5.3c-0.7,6-2.3,11.6-4.8,17.3c-1.4,3,0,6.6,3,7.9c0.8,0.4,1.6,0.5,2.4,0.5
	C-1118.8,539.5-1116.6,538.1-1115.6,535.9z M-1115.4,500.6c3.3-0.6,5.4-3.8,4.7-7c-1.3-6.8-3.8-13.6-7.2-20.3
	c-1.5-2.9-5.2-4.1-8.1-2.5c-2.9,1.5-4.1,5.2-2.5,8.1c3,5.7,5,11.2,6.1,17c0.6,2.9,3.1,4.9,5.9,4.9
	C-1116.1,500.7-1115.8,500.7-1115.4,500.6z M-1130.4,464.3c2.6-2.1,3-5.9,0.9-8.4c-3.9-4.8-8.4-9.7-13.9-15.1
	c-2.4-2.3-6.2-2.3-8.5,0.1c-2.3,2.4-2.3,6.2,0.1,8.5c5.2,5.1,9.4,9.7,13,14.1c1.2,1.5,2.9,2.2,4.7,2.2
	C-1132.9,465.6-1131.5,465.2-1130.4,464.3z M-1157.8,435.4c2.2-2.5,2-6.3-0.5-8.5c-1.3-1.2-2.6-2.3-3.9-3.5
	c-3.6-3.2-7.3-6.5-10.8-9.8c-2.4-2.2-6.2-2.1-8.5,0.3c-2.2,2.4-2.1,6.2,0.3,8.5c3.6,3.3,7.3,6.7,11,9.9c1.3,1.2,2.6,2.3,3.9,3.5
	c1.1,1,2.6,1.5,4,1.5C-1160.7,437.4-1159,436.8-1157.8,435.4z M-1187.2,408.5c2.4-2.2,2.6-6,0.3-8.5c-4.8-5.2-8.6-10-11.7-14.8
	c-1.8-2.8-5.5-3.6-8.3-1.8s-3.6,5.5-1.8,8.3c3.4,5.3,7.7,10.7,12.9,16.4c1.2,1.3,2.8,1.9,4.4,1.9
	C-1189.8,410.1-1188.3,409.6-1187.2,408.5z M-1210.2,376.4c3.2-0.9,5-4.2,4.2-7.4c-1.2-4.3-1.8-8.6-1.8-13c0-1.5,0.1-3,0.2-4.5
	c0.3-3.3-2.1-6.2-5.4-6.5c-3.3-0.3-6.2,2.1-6.5,5.4c-0.2,1.8-0.2,3.7-0.2,5.5c0,5.5,0.8,11,2.2,16.3c0.7,2.6,3.2,4.4,5.8,4.4
	C-1211.3,376.6-1210.8,376.5-1210.2,376.4z M-1203,334.5c2.4-5,5.8-9.8,10.3-14.9c2.2-2.5,2-6.3-0.5-8.5c-2.5-2.2-6.3-2-8.5,0.5
	c-5.3,5.9-9.3,11.7-12.2,17.7c-1.4,3-0.2,6.6,2.8,8c0.8,0.4,1.7,0.6,2.6,0.6C-1206.2,337.9-1204,336.7-1203,334.5z M-1178.9,306.3
	c1.7-1.6,3.5-3.1,5.3-4.7c3.2-2.8,6.4-5.6,9.7-8.6c2.4-2.2,2.6-6,0.4-8.5s-6-2.6-8.5-0.4c-3.1,2.9-6.4,5.7-9.5,8.4
	c-1.8,1.6-3.6,3.2-5.4,4.7c-2.5,2.2-2.7,6-0.5,8.5c1.2,1.3,2.8,2,4.5,2C-1181.5,307.8-1180,307.3-1178.9,306.3z M-1149.5,278.4
	c4.9-5.6,8.9-11.1,12.3-16.9c1.7-2.9,0.7-6.5-2.1-8.2c-2.9-1.7-6.5-0.7-8.2,2.1c-3,5.2-6.7,10.1-11,15.1c-2.2,2.5-1.9,6.3,0.6,8.5
	c1.1,1,2.5,1.5,3.9,1.5C-1152.3,280.5-1150.6,279.8-1149.5,278.4z M-1128.4,242.3c0.9-2.8,1.7-5.7,2.4-8.6c0.9-3.9,1.6-7.9,2.1-11.9
	c0.4-3.3-1.9-6.3-5.2-6.7c-3.3-0.4-6.3,1.9-6.7,5.2c-0.4,3.6-1.1,7.1-1.9,10.6c-0.6,2.6-1.3,5.2-2.2,7.6c-1,3.1,0.7,6.5,3.8,7.6
	c0.6,0.2,1.3,0.3,1.9,0.3C-1131.6,246.4-1129.2,244.8-1128.4,242.3z M-1128.9,207.2c3.3-0.2,5.8-3.1,5.6-6.4
	c-0.4-6.7-1.4-13.6-3-20.6c-0.7-3.2-3.9-5.3-7.2-4.5c-3.2,0.7-5.3,3.9-4.5,7.2c1.4,6.3,2.3,12.6,2.7,18.7c0.2,3.2,2.8,5.6,6,5.6
	C-1129.2,207.2-1129,207.2-1128.9,207.2z M-1135.7,168.1c3.1-1.1,4.7-4.6,3.6-7.7c-2.3-6.2-5-12.5-8.1-18.9c-1.5-3-5-4.2-8-2.8
	c-3,1.5-4.2,5-2.8,8c2.9,6,5.5,11.9,7.6,17.7c0.9,2.4,3.2,3.9,5.6,3.9C-1137.1,168.5-1136.4,168.3-1135.7,168.1z M-1148.3,1380
	c2.3-2.4,2.1-6.2-0.3-8.5c-2.4-2.3-4.9-4.6-7.1-6.8c-2.4-2.3-6.2-2.3-8.5,0.1c-2.3,2.4-2.3,6.2,0.1,8.5c2.4,2.3,4.8,4.6,7.3,7
	c1.2,1.1,2.6,1.6,4.1,1.6C-1151.1,1381.9-1149.5,1381.3-1148.3,1380z"/>
<linearGradient id="SVGID_00000145044733594175752250000006593901162086600895_" gradientUnits="userSpaceOnUse" x1="404.1213" y1="490.0138" x2="557.9213" y2="490.0138" gradientTransform="matrix(1 0 0 -1 0 871.0914)">
	<stop  offset="0" style="stop-color:#EC0AFA"/>
	<stop  offset="0.1686" style="stop-color:#C62DF7"/>
	<stop  offset="0.3886" style="stop-color:#9956F3"/>
	<stop  offset="0.5" style="stop-color:#8866F1"/>
	<stop  offset="0.5695" style="stop-color:#806DF0"/>
	<stop  offset="0.6795" style="stop-color:#6981ED"/>
	<stop  offset="0.8163" style="stop-color:#44A1E7"/>
	<stop  offset="0.9731" style="stop-color:#11CDE0"/>
	<stop  offset="1" style="stop-color:#07D5DF"/>
</linearGradient>
<circle style="fill:url(#SVGID_00000145044733594175752250000006593901162086600895_);" cx="481" cy="381.1" r="76.9"/>
<path class="st9" d="M538.2,868.1c3.2,19.6,21.6,33,41.3,29.9c2.5-0.4,4.8-1,7.1-1.9l32.8,23.7l-9.7-60.2c-0.1-1-0.2-1.9-0.3-2.9
	c-3.2-19.6-21.6-33-41.3-29.9C548.5,829.9,535.1,848.4,538.2,868.1z M550.4,866.1c-2.1-12.9,6.7-25.1,19.6-27.1
	c12.9-2.1,25.1,6.7,27.1,19.6c2.1,12.9-6.7,25.1-19.6,27.1C564.6,887.8,552.5,879,550.4,866.1z"/>
<path class="st9" d="M527.7,1182.7c3.2,19.6,21.6,33,41.3,29.9c2.5-0.4,4.8-1,7.1-1.9l32.8,23.7l-9.7-60.2c-0.1-1-0.2-1.9-0.3-2.9
	c-3.2-19.6-21.6-33-41.3-29.9C537.9,1144.6,524.5,1163.1,527.7,1182.7z M539.9,1180.8c-2.1-12.9,6.7-25.1,19.6-27.1
	c12.9-2.1,25.1,6.7,27.1,19.6c2.1,12.9-6.7,25.1-19.6,27.1C554.1,1202.5,541.9,1193.7,539.9,1180.8z"/>
<path class="st9" d="M532.5,578.9c3.2,19.6,21.6,33,41.3,29.9c2.5-0.4,4.8-1,7.1-1.9l32.8,23.7l-9.7-60.2c-0.1-1-0.2-1.9-0.3-2.9
	c-3.2-19.6-21.6-33-41.3-29.9C542.7,540.8,529.3,559.3,532.5,578.9z M544.7,577c-2.1-12.9,6.7-25.1,19.6-27.1
	c12.9-2.1,25.1,6.7,27.1,19.6c2.1,12.9-6.7,25.1-19.6,27.1C558.9,598.7,546.7,589.9,544.7,577z"/>
<path class="st9" d="M545,291.3c3.2,19.6,21.6,33,41.3,29.9c2.5-0.4,4.8-1,7.1-1.9l32.8,23.7l-9.7-60.2c-0.1-1-0.2-1.9-0.3-2.9
	c-3.2-19.6-21.6-33-41.3-29.9C555.2,253.2,541.9,271.6,545,291.3z M557.2,289.3c-2.1-12.9,6.7-25.1,19.6-27.1
	c12.9-2.1,25.1,6.7,27.1,19.6c2.1,12.9-6.7,25.1-19.6,27.1C571.4,311,559.3,302.3,557.2,289.3z"/>
<path class="st10" d="M390-91.3c-19.6-3.2-38.1,10.2-41.3,29.9c-0.2,1-0.3,1.9-0.3,2.9l-9.7,60.2l32.8-23.7c2.2,0.8,4.6,1.5,7.1,1.9
	c19.6,3.2,38.1-10.2,41.3-29.9C423-69.7,409.6-88.2,390-91.3z M380.5-32.4c-12.9-2.1-21.7-14.2-19.6-27.1
	c2.1-12.9,14.2-21.7,27.1-19.6c12.9,2.1,21.7,14.2,19.6,27.1C405.6-39.1,393.5-30.3,380.5-32.4z"/>
<path class="st10" d="M396.8,187.8c-19.6-3.2-38.1,10.2-41.3,29.9c-0.2,1-0.3,1.9-0.3,2.9l-9.7,60.2l32.8-23.7
	c2.2,0.8,4.6,1.5,7.1,1.9c19.6,3.2,38.1-10.2,41.3-29.9C429.8,209.4,416.4,191,396.8,187.8z M387.3,246.8
	c-12.9-2.1-21.7-14.2-19.6-27.1c2.1-12.9,14.2-21.7,27.1-19.6c12.9,2.1,21.7,14.2,19.6,27.1C412.4,240.1,400.2,248.8,387.3,246.8z"
	/>
<path class="st10" d="M398.8,466.4c-19.6-3.2-38.1,10.2-41.3,29.9c-0.2,1-0.3,1.9-0.3,2.9l-9.7,60.2l32.8-23.7
	c2.2,0.8,4.6,1.5,7.1,1.9c19.6,3.2,38.1-10.2,41.3-29.9C431.8,488,418.4,469.5,398.8,466.4z M389.3,525.3
	c-12.9-2.1-21.7-14.2-19.6-27.1c2.1-12.9,14.2-21.7,27.1-19.6c12.9,2.1,21.7,14.2,19.6,27.1C414.4,518.6,402.2,527.4,389.3,525.3z"
	/>
<path class="st10" d="M400.5,777.2c-19.6-3.2-38.1,10.2-41.3,29.9c-0.2,1-0.3,1.9-0.3,2.9l-9.7,60.2l32.8-23.7
	c2.2,0.8,4.6,1.5,7.1,1.9c19.6,3.2,38.1-10.2,41.3-29.9C433.6,798.9,420.2,780.4,400.5,777.2z M391.1,836.2
	c-12.9-2.1-21.7-14.2-19.6-27.1c2.1-12.9,14.2-21.7,27.1-19.6c12.9,2.1,21.7,14.2,19.6,27.1C416.2,829.5,404,838.3,391.1,836.2z"/>
<circle class="st9" cx="-136.6" cy="-166.9" r="39.8"/>
<circle class="st10" cx="-396.5" cy="-166.1" r="39.8"/>
<rect x="-854.4" y="-166.9" class="st0" width="382.5" height="1371.2"/>
<path class="st9" d="M-784.6,645.9c2.5,15.4,17,25.9,32.4,23.5c1.9-0.3,3.8-0.8,5.6-1.5l25.8,18.6l-7.6-47.3
	c-0.1-0.8-0.1-1.5-0.3-2.3c-2.5-15.4-17-25.9-32.4-23.5C-776.6,615.9-787.1,630.4-784.6,645.9z M-775.1,644.3
	c-1.6-10.1,5.3-19.7,15.4-21.3s19.7,5.3,21.3,15.4c1.6,10.1-5.3,19.7-15.4,21.3S-773.4,654.5-775.1,644.3z"/>
<path class="st9" d="M-769.8,964.5c2.5,15.4,17,25.9,32.4,23.5c1.9-0.3,3.8-0.8,5.6-1.5l25.8,18.6l-7.6-47.3
	c-0.1-0.8-0.1-1.5-0.3-2.3c-2.5-15.4-17-25.9-32.4-23.5C-761.7,934.5-772.3,949.1-769.8,964.5z M-760.2,963
	c-1.6-10.1,5.3-19.7,15.4-21.3c10.1-1.6,19.7,5.3,21.3,15.4c1.6,10.1-5.3,19.7-15.4,21.3C-749,980-758.6,973.1-760.2,963z"/>
<path class="st9" d="M3.6,34.9c2.5,15.4,17,25.9,32.4,23.5c1.9-0.3,3.8-0.8,5.6-1.5l25.8,18.6l-7.6-47.3c-0.1-0.8-0.1-1.5-0.3-2.3
	C57,10.5,42.5,0,27.1,2.5C11.6,4.9,1.1,19.5,3.6,34.9z M13.2,33.4C11.5,23.2,18.4,13.7,28.6,12c10.1-1.6,19.7,5.3,21.3,15.4
	c1.6,10.1-5.3,19.7-15.4,21.3C24.3,50.4,14.8,43.5,13.2,33.4z"/>
<linearGradient id="SVGID_00000183962575216953009960000016529448488786403979_" gradientUnits="userSpaceOnUse" x1="-25.0825" y1="-243.4592" x2="39.0477" y2="-243.4592">
	<stop  offset="0" style="stop-color:#07D5DF"/>
	<stop  offset="2.690003e-02" style="stop-color:#11CDE0"/>
	<stop  offset="0.1837" style="stop-color:#44A1E7"/>
	<stop  offset="0.3205" style="stop-color:#6981ED"/>
	<stop  offset="0.4305" style="stop-color:#806DF0"/>
	<stop  offset="0.5" style="stop-color:#8866F1"/>
	<stop  offset="0.6114" style="stop-color:#9956F3"/>
	<stop  offset="0.8314" style="stop-color:#C62DF7"/>
	<stop  offset="1" style="stop-color:#EC0AFA"/>
</linearGradient>
<path style="fill:url(#SVGID_00000183962575216953009960000016529448488786403979_);" d="M-24.7-247.4c2.5,15.4,17,25.9,32.4,23.5
	c1.9-0.3,3.8-0.8,5.6-1.5L39-206.7l-7.6-47.3c-0.1-0.8-0.1-1.5-0.3-2.3c-2.5-15.4-17-25.9-32.4-23.5
	C-16.7-277.3-27.2-262.8-24.7-247.4z M-15.1-248.9c-1.6-10.1,5.3-19.7,15.4-21.3c10.1-1.6,19.7,5.3,21.3,15.4
	c1.6,10.1-5.3,19.7-15.4,21.3C-4-231.9-13.5-238.8-15.1-248.9z"/>
<linearGradient id="SVGID_00000034773634323562436660000011998807292809773219_" gradientUnits="userSpaceOnUse" x1="6.9826" y1="-355.8738" x2="71.1128" y2="-355.8738">
	<stop  offset="0" style="stop-color:#07D5DF"/>
	<stop  offset="2.690003e-02" style="stop-color:#11CDE0"/>
	<stop  offset="0.1837" style="stop-color:#44A1E7"/>
	<stop  offset="0.3205" style="stop-color:#6981ED"/>
	<stop  offset="0.4305" style="stop-color:#806DF0"/>
	<stop  offset="0.5" style="stop-color:#8866F1"/>
	<stop  offset="0.6114" style="stop-color:#9956F3"/>
	<stop  offset="0.8314" style="stop-color:#C62DF7"/>
	<stop  offset="1" style="stop-color:#EC0AFA"/>
</linearGradient>
<path style="fill:url(#SVGID_00000034773634323562436660000011998807292809773219_);" d="M47.3-392.2c-15.4-2.5-30,8-32.4,23.5
	c-0.1,0.8-0.2,1.5-0.3,2.3L7-319.2l25.8-18.6c1.8,0.7,3.6,1.2,5.6,1.5c15.4,2.5,30-8,32.4-23.5C73.2-375.2,62.7-389.8,47.3-392.2z
	 M39.9-345.9c-10.1-1.6-17.1-11.2-15.4-21.3c1.6-10.1,11.2-17.1,21.3-15.4c10.1,1.6,17.1,11.2,15.4,21.3
	C59.5-351.2,50-344.3,39.9-345.9z"/>
<path class="st10" d="M-538.7-13.9c-15.4-2.5-30,8-32.4,23.5c-0.1,0.8-0.2,1.5-0.3,2.3l-7.6,47.3l25.8-18.6c1.8,0.7,3.6,1.2,5.6,1.5
	c15.4,2.5,30-8,32.4-23.5C-512.8,3.1-523.3-11.4-538.7-13.9z M-546.2,32.4c-10.1-1.6-17.1-11.2-15.4-21.3
	C-560,1-550.4-5.9-540.3-4.3c10.1,1.6,17.1,11.2,15.4,21.3C-526.5,27.2-536,34.1-546.2,32.4z"/>
<path class="st10" d="M-538.7,451.3c-15.4-2.5-30,8-32.4,23.5c-0.1,0.8-0.2,1.5-0.3,2.3l-7.6,47.3l25.8-18.6
	c1.8,0.7,3.6,1.2,5.6,1.5c15.4,2.5,30-8,32.4-23.5C-512.8,468.3-523.3,453.8-538.7,451.3z M-546.2,497.6
	c-10.1-1.6-17.1-11.2-15.4-21.3c1.6-10.1,11.2-17.1,21.3-15.4c10.1,1.6,17.1,11.2,15.4,21.3C-526.5,492.3-536,499.2-546.2,497.6z"/>
<path class="st10" d="M-536.1,787.2c-15.4-2.5-30,8-32.4,23.5c-0.1,0.8-0.2,1.5-0.3,2.3l-7.6,47.3l25.8-18.6
	c1.8,0.7,3.6,1.2,5.6,1.5c15.4,2.5,30-8,32.4-23.5C-510.2,804.1-520.7,789.6-536.1,787.2z M-543.6,833.5
	c-10.1-1.6-17.1-11.2-15.4-21.3c1.6-10.1,11.2-17.1,21.3-15.4c10.1,1.6,17.1,11.2,15.4,21.3C-523.9,828.2-533.4,835.1-543.6,833.5z"
	/>
<linearGradient id="SVGID_00000006704605558840318730000016115801290571187094_" gradientUnits="userSpaceOnUse" x1="-638.652" y1="-134.1666" x2="-644.7797" y2="1168.9824">
	<stop  offset="0" style="stop-color:#07D5DF"/>
	<stop  offset="2.690003e-02" style="stop-color:#11CDE0"/>
	<stop  offset="0.1837" style="stop-color:#44A1E7"/>
	<stop  offset="0.3205" style="stop-color:#6981ED"/>
	<stop  offset="0.4305" style="stop-color:#806DF0"/>
	<stop  offset="0.5" style="stop-color:#8866F1"/>
	<stop  offset="0.6114" style="stop-color:#9956F3"/>
	<stop  offset="0.8314" style="stop-color:#C62DF7"/>
	<stop  offset="1" style="stop-color:#EC0AFA"/>
</linearGradient>
<path style="fill:url(#SVGID_00000006704605558840318730000016115801290571187094_);" d="M-629.3-116.4c-2,0-4-1-5.2-2.9
	c-1.6-2.7-3.4-5.5-5.2-8.3c-1.8-2.8-1-6.5,1.8-8.3c2.8-1.8,6.5-1,8.3,1.8c1.9,2.9,3.7,5.8,5.4,8.7c1.7,2.8,0.8,6.5-2.1,8.2
	C-627.2-116.7-628.3-116.4-629.3-116.4z M-644.9,1109.1c2.4-2.2,2.6-6,0.4-8.5c-4.5-5-8.8-10-12.7-14.8c-2.1-2.6-5.8-3-8.4-1
	c-2.6,2.1-3,5.8-1,8.4c4,5.1,8.5,10.3,13.2,15.4c1.2,1.3,2.8,2,4.4,2C-647.5,1110.7-646.1,1110.2-644.9,1109.1z M-670.3,1078.5
	c2.8-1.8,3.5-5.5,1.7-8.3c-3.7-5.6-6.9-11.2-9.6-16.6c-1.5-3-5.1-4.2-8-2.7s-4.2,5.1-2.7,8c2.9,5.8,6.4,11.8,10.3,17.8
	c1.2,1.8,3.1,2.7,5,2.7C-672.5,1079.5-671.3,1079.2-670.3,1078.5z M-689.2,1043.6c3.2-1,4.9-4.3,4-7.5c-1.9-6.2-3.1-12.3-3.6-18.2
	c-0.3-3.3-3.2-5.8-6.5-5.5c-3.3,0.3-5.7,3.2-5.5,6.5c0.6,6.8,2,13.7,4.1,20.7c0.8,2.6,3.2,4.2,5.7,4.2
	C-690.4,1043.9-689.8,1043.8-689.2,1043.6z M-688.1,999.6l0.1-0.4c1-5.9,2.9-11.5,5.4-16.9c1.4-3,0.2-6.6-2.8-8
	c-3-1.4-6.6-0.2-8,2.8c-3,6.3-5.2,13-6.4,19.9l-0.1,0.5c-0.6,3.3,1.6,6.4,4.9,6.9c0.3,0.1,0.7,0.1,1,0.1
	C-691.2,1004.6-688.6,1002.5-688.1,999.6z M-672.7,966.9c3.7-4.5,8-8.9,13.2-13.5c2.5-2.2,2.7-6,0.5-8.5c-2.2-2.5-6-2.7-8.5-0.5
	c-5.7,5.1-10.5,10-14.5,14.9c-2.1,2.6-1.7,6.3,0.8,8.4c1.1,0.9,2.5,1.4,3.8,1.4C-675.6,969.1-673.9,968.3-672.7,966.9z
	 M-644.4,941.1c2.8-2.1,5.7-4.3,8.5-6.4c2.5-1.9,5-3.7,7.4-5.5c2.6-2,3.2-5.8,1.2-8.4c-2-2.6-5.8-3.2-8.4-1.2
	c-2.4,1.8-4.9,3.7-7.3,5.5c-2.9,2.1-5.8,4.3-8.6,6.4c-2.6,2-3.2,5.8-1.1,8.4c1.2,1.6,3,2.4,4.8,2.4
	C-646.8,942.3-645.5,941.9-644.4,941.1z M-612.6,916.3c5.9-5.2,10.6-10.2,14.4-15.3c2-2.6,1.5-6.4-1.2-8.4c-2.6-2-6.4-1.5-8.4,1.2
	c-3.3,4.4-7.5,8.9-12.8,13.6c-2.5,2.2-2.7,6-0.5,8.5c1.2,1.3,2.8,2,4.5,2C-615.2,917.9-613.8,917.4-612.6,916.3z M-587.9,881.9
	c1.5-4.4,2.4-9.1,2.8-13.8c0.2-1.7,0.2-3.5,0.2-5.3c0-0.9,0-1.8-0.1-2.7c-0.1-3.3-3-5.9-6.3-5.7c-3.3,0.2-5.9,3-5.7,6.3
	c0,0.7,0,1.4,0,2.1c0,1.4-0.1,2.8-0.2,4.2c-0.3,3.8-1.1,7.5-2.2,11c-1,3.1,0.7,6.5,3.8,7.6c0.6,0.2,1.3,0.3,1.9,0.3
	C-591.1,886-588.8,884.4-587.9,881.9z M-593.1,846.8c3-1.3,4.5-4.8,3.2-7.9c-2.6-6.1-6.2-12.1-11-18.3c-2-2.6-5.8-3.1-8.4-1.1
	c-2.6,2-3.1,5.8-1.1,8.4c4.2,5.4,7.2,10.5,9.5,15.7c1,2.3,3.2,3.6,5.5,3.6C-594.6,847.3-593.8,847.1-593.1,846.8z M-614.7,813.8
	c2.3-2.4,2.3-6.2-0.1-8.5c-5.1-5.1-10.6-10-14.9-13.7c-2.5-2.2-6.3-2-8.5,0.5s-2,6.3,0.5,8.5c4.1,3.6,9.5,8.4,14.4,13.3
	c1.2,1.2,2.7,1.7,4.2,1.7C-617.4,815.5-615.9,814.9-614.7,813.8z M-644.1,786.9c2.2-2.5,2-6.3-0.5-8.5c-5.9-5.2-10.3-9.4-14.3-13.3
	c-2.3-2.3-6.1-2.3-8.5,0c-2.3,2.3-2.3,6.1,0,8.5c4.1,4.1,8.7,8.4,14.8,13.8c1.1,1,2.6,1.5,4,1.5
	C-646.9,788.9-645.3,788.2-644.1,786.9z M-672.7,759.3c2.6-2,3.1-5.8,1.1-8.4c-4.1-5.3-7.4-10.5-9.9-15.7c-1.4-3-5-4.2-8-2.8
	c-3,1.4-4.2,5-2.8,8c2.9,6,6.6,11.8,11.2,17.9c1.2,1.5,3,2.3,4.7,2.3C-675.1,760.5-673.8,760.1-672.7,759.3z M-692,724.8
	c3.3-0.5,5.5-3.6,5-6.9c-0.5-3.1-0.8-6.4-0.8-9.6l0-0.5c0-2.7,0.2-5.3,0.6-7.9c0.5-3.3-1.8-6.3-5.1-6.8c-3.3-0.5-6.3,1.8-6.8,5.1
	c-0.4,3.1-0.7,6.3-0.7,9.5l0,0.6c0,3.9,0.3,7.8,0.9,11.5c0.5,2.9,3,5,5.9,5C-692.6,724.9-692.3,724.9-692,724.8z M-682.1,682.7
	c2.4-5.3,5.6-10.4,9.7-15.7c2-2.6,1.5-6.4-1.1-8.4c-2.6-2-6.4-1.5-8.4,1.1c-4.7,6-8.3,11.9-11.1,18c-1.4,3-0.1,6.6,2.9,8
	c0.8,0.4,1.7,0.6,2.5,0.6C-685.3,686.2-683.1,684.9-682.1,682.7z M-659.6,652.8c4-3.9,8.6-8.1,14.4-13.1c2.5-2.2,2.8-6,0.6-8.5
	s-6-2.8-8.5-0.6c-6.1,5.2-10.8,9.5-15,13.7c-2.4,2.3-2.4,6.1-0.1,8.5c1.2,1.2,2.7,1.8,4.3,1.8C-662.3,654.6-660.8,654-659.6,652.8z
	 M-630,626.9c4.6-3.9,10-8.5,15.2-13.3c2.4-2.3,2.6-6.1,0.3-8.5c-2.3-2.4-6.1-2.6-8.5-0.3c-4.9,4.6-10.2,9.1-14.7,12.9
	c-2.5,2.1-2.8,5.9-0.7,8.5c1.2,1.4,2.9,2.1,4.6,2.1C-632.5,628.3-631.1,627.9-630,626.9z M-600.5,598.7c5-6,8.8-11.8,11.8-17.7
	c1.5-3,0.3-6.6-2.7-8c-3-1.5-6.6-0.3-8,2.7c-2.5,5.1-5.9,10.1-10.2,15.3c-2.1,2.5-1.8,6.3,0.8,8.5c1.1,0.9,2.5,1.4,3.8,1.4
	C-603.4,600.8-601.7,600.1-600.5,598.7z M-582.5,560.2c0.3-2.4,0.4-4.9,0.4-7.3c0-1,0-2.1-0.1-3.1c-0.2-3.9-0.7-7.7-1.6-11.4
	c-0.8-3.2-4-5.2-7.2-4.4c-3.2,0.8-5.2,4-4.4,7.2c0.7,3,1.1,6,1.3,9.2c0,0.8,0.1,1.7,0.1,2.5c0,2-0.1,4-0.4,5.9
	c-0.4,3.3,2,6.3,5.2,6.7c0.2,0,0.5,0,0.7,0C-585.4,565.5-582.8,563.2-582.5,560.2z M-594.1,526.7c2.8-1.8,3.6-5.5,1.8-8.3
	c-3.5-5.5-7.9-10.8-13.5-16.3c-2.4-2.3-6.2-2.3-8.5,0.1c-2.3,2.4-2.3,6.2,0.1,8.5c4.9,4.8,8.8,9.5,11.8,14.2
	c1.1,1.8,3.1,2.8,5.1,2.8C-596.3,527.7-595.1,527.4-594.1,526.7z M-620.3,497.1c2-2.6,1.6-6.4-1-8.4c-5.1-4-10.4-7.8-16.2-12
	c-2.7-1.9-6.4-1.3-8.4,1.3c-1.9,2.7-1.3,6.4,1.3,8.4c5.7,4.1,10.8,7.9,15.8,11.7c1.1,0.9,2.4,1.3,3.7,1.3
	C-623.3,499.4-621.5,498.6-620.3,497.1z M-652.3,473.3c2-2.6,1.5-6.4-1.1-8.4c-6-4.6-10.7-8.5-14.7-12.4c-2.4-2.3-6.2-2.2-8.5,0.2
	c-2.3,2.4-2.2,6.2,0.2,8.5c4.4,4.2,9.4,8.4,15.7,13.2c1.1,0.8,2.4,1.2,3.6,1.2C-655.3,475.7-653.5,474.9-652.3,473.3z M-681.9,446.8
	c2.7-1.9,3.5-5.6,1.6-8.3c-3.6-5.3-6-10.5-7.5-16.1c-0.8-3.2-4.1-5.1-7.3-4.3c-3.2,0.8-5.1,4.1-4.3,7.3c1.8,6.9,4.8,13.3,9.2,19.7
	c1.2,1.7,3,2.6,5,2.6C-684.1,447.9-682.9,447.5-681.9,446.8z M-689.1,404.9c0.6-5.8,2.3-11.3,5-16.9c1.5-3,0.3-6.6-2.7-8
	c-3-1.5-6.6-0.3-8,2.7c-3.4,6.8-5.5,13.8-6.2,20.9c-0.4,3.3,2,6.3,5.3,6.6c0.2,0,0.4,0,0.6,0C-692,410.3-689.4,408-689.1,404.9z
	 M-673.8,372.9c3.6-4.3,8-8.7,13.4-13.6c2.5-2.2,2.6-6,0.4-8.5s-6-2.6-8.5-0.4c-5.8,5.2-10.5,10.1-14.5,14.7
	c-2.1,2.5-1.8,6.3,0.7,8.5c1.1,1,2.5,1.4,3.9,1.4C-676.6,375-674.9,374.3-673.8,372.9z M-645.4,346.5c1.6-1.3,3.2-2.6,4.7-3.9
	c3.5-2.9,7.1-5.8,10.7-8.8c2.5-2.1,2.9-5.9,0.7-8.5c-2.1-2.5-5.9-2.9-8.5-0.7c-3.5,2.9-7.1,5.9-10.6,8.7c-1.6,1.3-3.2,2.6-4.8,3.9
	c-2.6,2.1-2.9,5.9-0.8,8.4c1.2,1.4,2.9,2.2,4.6,2.2C-647.9,347.9-646.5,347.5-645.4,346.5z M-614.8,320.3
	c5.5-5.3,10.1-10.3,13.9-15.4c2-2.6,1.5-6.4-1.1-8.4c-2.6-2-6.4-1.5-8.4,1.1c-3.5,4.6-7.7,9.2-12.8,14.1c-2.4,2.3-2.4,6.1-0.1,8.5
	c1.2,1.2,2.7,1.8,4.3,1.8C-617.5,322-616,321.5-614.8,320.3z M-589.9,286.8c3-6.7,4.9-13.7,5.8-20.8c0.4-3.3-2-6.3-5.3-6.7
	c-3.3-0.4-6.3,2-6.7,5.3c-0.7,6-2.3,11.6-4.8,17.3c-1.4,3,0,6.6,3,7.9c0.8,0.4,1.6,0.5,2.4,0.5C-593.1,290.4-590.9,289-589.9,286.8z
	 M-589.6,251.5c3.3-0.6,5.4-3.8,4.7-7c-1.3-6.8-3.8-13.6-7.2-20.3c-1.5-2.9-5.2-4.1-8.1-2.5c-2.9,1.5-4.1,5.2-2.5,8.1
	c3,5.7,5,11.2,6.1,17c0.6,2.9,3.1,4.9,5.9,4.9C-590.4,251.6-590,251.6-589.6,251.5z M-604.7,215.1c2.6-2.1,3-5.9,0.9-8.4
	c-3.9-4.8-8.4-9.7-13.9-15.1c-2.4-2.3-6.2-2.3-8.5,0.1c-2.3,2.4-2.3,6.2,0.1,8.5c5.2,5.1,9.4,9.7,13,14.1c1.2,1.5,2.9,2.2,4.7,2.2
	C-607.1,216.5-605.8,216-604.7,215.1z M-632.1,186.3c2.2-2.5,2-6.3-0.5-8.5c-1.3-1.2-2.6-2.3-3.9-3.5c-3.6-3.2-7.3-6.5-10.8-9.8
	c-2.4-2.2-6.2-2.1-8.5,0.3c-2.2,2.4-2.1,6.2,0.3,8.5c3.6,3.3,7.3,6.7,11,9.9c1.3,1.2,2.6,2.3,3.9,3.5c1.1,1,2.6,1.5,4,1.5
	C-634.9,188.3-633.3,187.7-632.1,186.3z M-661.4,159.4c2.4-2.2,2.6-6,0.3-8.5c-4.8-5.2-8.6-10-11.7-14.8c-1.8-2.8-5.5-3.6-8.3-1.8
	s-3.6,5.5-1.8,8.3c3.4,5.3,7.7,10.7,12.9,16.4c1.2,1.3,2.8,1.9,4.4,1.9C-664,161-662.6,160.5-661.4,159.4z M-684.5,127.3
	c3.2-0.9,5-4.2,4.2-7.4c-1.2-4.3-1.8-8.6-1.8-13c0-1.5,0.1-3,0.2-4.5c0.3-3.3-2.1-6.2-5.4-6.5c-3.3-0.3-6.2,2.1-6.5,5.4
	c-0.2,1.8-0.2,3.7-0.2,5.5c0,5.5,0.8,11,2.2,16.3c0.7,2.6,3.2,4.4,5.8,4.4C-685.6,127.5-685,127.4-684.5,127.3z M-677.3,85.4
	c2.4-5,5.8-9.8,10.3-14.9c2.2-2.5,2-6.3-0.5-8.5c-2.5-2.2-6.3-2-8.5,0.5c-5.3,5.9-9.3,11.7-12.2,17.7c-1.4,3-0.2,6.6,2.8,8
	c0.8,0.4,1.7,0.6,2.6,0.6C-680.4,88.8-678.3,87.6-677.3,85.4z M-653.1,57.2c1.7-1.6,3.5-3.1,5.3-4.7c3.2-2.8,6.4-5.6,9.7-8.6
	c2.4-2.2,2.6-6,0.4-8.5s-6-2.6-8.5-0.4c-3.1,2.9-6.4,5.7-9.5,8.4c-1.8,1.6-3.6,3.2-5.4,4.7c-2.5,2.2-2.7,6-0.5,8.5
	c1.2,1.3,2.8,2,4.5,2C-655.7,58.7-654.3,58.2-653.1,57.2z M-623.7,29.3c4.9-5.6,8.9-11.1,12.3-16.9c1.7-2.9,0.7-6.5-2.1-8.2
	c-2.9-1.7-6.5-0.7-8.2,2.1c-3,5.2-6.7,10.1-11,15.1c-2.2,2.5-1.9,6.3,0.6,8.5c1.1,1,2.5,1.5,3.9,1.5
	C-626.6,31.4-624.9,30.7-623.7,29.3z M-602.7-6.8c0.9-2.8,1.7-5.7,2.4-8.6c0.9-3.9,1.6-7.9,2.1-11.9c0.4-3.3-1.9-6.3-5.2-6.7
	c-3.3-0.4-6.3,1.9-6.7,5.2c-0.4,3.6-1.1,7.1-1.9,10.6c-0.6,2.6-1.3,5.2-2.2,7.6c-1,3.1,0.7,6.5,3.8,7.6c0.6,0.2,1.3,0.3,1.9,0.3
	C-605.8-2.7-603.5-4.3-602.7-6.8z M-603.1-41.9c3.3-0.2,5.8-3.1,5.6-6.4c-0.4-6.7-1.4-13.6-3-20.6c-0.7-3.2-3.9-5.3-7.2-4.5
	c-3.2,0.7-5.3,3.9-4.5,7.2c1.4,6.3,2.3,12.6,2.7,18.7c0.2,3.2,2.8,5.6,6,5.6C-603.4-41.9-603.3-41.9-603.1-41.9z M-610-81
	c3.1-1.1,4.7-4.6,3.6-7.7c-2.3-6.2-5-12.5-8.1-18.9c-1.5-3-5-4.2-8-2.8c-3,1.5-4.2,5-2.8,8c2.9,6,5.5,11.9,7.6,17.7
	c0.9,2.4,3.2,3.9,5.6,3.9C-611.3-80.7-610.6-80.8-610-81z M-622.6,1130.9c2.3-2.4,2.1-6.2-0.3-8.5c-2.4-2.3-4.9-4.6-7.1-6.8
	c-2.4-2.3-6.2-2.3-8.5,0.1c-2.3,2.4-2.3,6.2,0.1,8.5c2.4,2.3,4.8,4.6,7.3,7c1.2,1.1,2.6,1.6,4.1,1.6
	C-625.4,1132.8-623.8,1132.2-622.6,1130.9z"/>
</svg>
