<?xml version="1.0" encoding="utf-8"?>
<!-- Generator: Adobe Illustrator 26.3.1, SVG Export Plug-In . SVG Version: 6.00 Build 0)  -->
<svg version="1.1" id="Layer_1" xmlns="http://www.w3.org/2000/svg" xmlns:xlink="http://www.w3.org/1999/xlink" x="0px" y="0px"
	 viewBox="0 0 155.5 1303.8" style="enable-background:new 0 0 155.5 1303.8;" xml:space="preserve">
<style type="text/css">
	.st0{fill:url(#SVGID_1_);}
</style>
<linearGradient id="SVGID_1_" gradientUnits="userSpaceOnUse" x1="18.2235" y1="651.9042" x2="137.2497" y2="651.9042">
	<stop  offset="0" style="stop-color:#EC0AFA"/>
	<stop  offset="0.1686" style="stop-color:#C62DF7"/>
	<stop  offset="0.3886" style="stop-color:#9956F3"/>
	<stop  offset="0.5" style="stop-color:#8866F1"/>
	<stop  offset="0.5695" style="stop-color:#806DF0"/>
	<stop  offset="0.6795" style="stop-color:#6981ED"/>
	<stop  offset="0.8163" style="stop-color:#44A1E7"/>
	<stop  offset="0.9731" style="stop-color:#11CDE0"/>
	<stop  offset="1" style="stop-color:#07D5DF"/>
</linearGradient>
<path class="st0" d="M89.9,37.5c-2,0-4-1-5.2-2.9c-1.6-2.7-3.4-5.5-5.2-8.3c-1.8-2.8-1-6.5,1.8-8.3c2.8-1.8,6.5-1,8.3,1.8
	c1.9,2.9,3.7,5.8,5.4,8.7c1.7,2.8,0.8,6.5-2.1,8.2C92,37.3,91,37.5,89.9,37.5z M74.3,1263.1c2.4-2.2,2.6-6,0.4-8.5
	c-4.5-5-8.8-10-12.7-14.8c-2.1-2.6-5.8-3-8.4-1c-2.6,2.1-3,5.8-1,8.4c4,5.1,8.5,10.3,13.2,15.4c1.2,1.3,2.8,2,4.4,2
	C71.7,1264.7,73.2,1264.1,74.3,1263.1z M49,1232.5c2.8-1.8,3.5-5.5,1.7-8.3c-3.7-5.6-6.9-11.2-9.6-16.6c-1.5-3-5.1-4.2-8-2.7
	s-4.2,5.1-2.7,8c2.9,5.8,6.4,11.8,10.3,17.8c1.2,1.8,3.1,2.7,5,2.7C46.8,1233.4,48,1233.1,49,1232.5z M30.1,1197.5
	c3.2-1,4.9-4.3,4-7.5c-1.9-6.2-3.1-12.3-3.6-18.2c-0.3-3.3-3.2-5.8-6.5-5.5c-3.3,0.3-5.7,3.2-5.5,6.5c0.6,6.8,2,13.7,4.1,20.7
	c0.8,2.6,3.2,4.2,5.7,4.2C28.9,1197.8,29.5,1197.7,30.1,1197.5z M31.1,1153.5l0.1-0.4c1-5.9,2.9-11.5,5.4-16.9c1.4-3,0.2-6.6-2.8-8
	c-3-1.4-6.6-0.2-8,2.8c-3,6.3-5.2,13-6.4,19.9l-0.1,0.5c-0.6,3.3,1.6,6.4,4.9,6.9c0.3,0.1,0.7,0.1,1,0.1
	C28.1,1158.5,30.6,1156.4,31.1,1153.5z M46.6,1120.8c3.7-4.5,8-8.9,13.2-13.5c2.5-2.2,2.7-6,0.5-8.5c-2.2-2.5-6-2.7-8.5-0.5
	c-5.7,5.1-10.5,10-14.5,14.9c-2.1,2.6-1.7,6.3,0.8,8.4c1.1,0.9,2.5,1.4,3.8,1.4C43.7,1123,45.4,1122.2,46.6,1120.8z M74.9,1095
	c2.8-2.1,5.7-4.3,8.5-6.4c2.5-1.9,5-3.7,7.4-5.5c2.6-2,3.2-5.8,1.2-8.4c-2-2.6-5.8-3.2-8.4-1.2c-2.4,1.8-4.9,3.7-7.3,5.5
	c-2.9,2.1-5.8,4.3-8.6,6.4c-2.6,2-3.2,5.8-1.1,8.4c1.2,1.6,3,2.4,4.8,2.4C72.5,1096.2,73.8,1095.8,74.9,1095z M106.7,1070.3
	c5.9-5.2,10.6-10.2,14.4-15.3c2-2.6,1.5-6.4-1.2-8.4c-2.6-2-6.4-1.5-8.4,1.2c-3.3,4.4-7.5,8.9-12.8,13.6c-2.5,2.2-2.7,6-0.5,8.5
	c1.2,1.3,2.8,2,4.5,2C104.1,1071.8,105.5,1071.3,106.7,1070.3z M131.3,1035.8c1.5-4.4,2.4-9.1,2.8-13.8c0.2-1.7,0.2-3.5,0.2-5.3
	c0-0.9,0-1.8-0.1-2.7c-0.1-3.3-3-5.9-6.3-5.7c-3.3,0.2-5.9,3-5.7,6.3c0,0.7,0,1.4,0,2.1c0,1.4-0.1,2.8-0.2,4.2
	c-0.3,3.8-1.1,7.5-2.2,11c-1,3.1,0.7,6.5,3.8,7.6c0.6,0.2,1.3,0.3,1.9,0.3C128.2,1040,130.5,1038.4,131.3,1035.8z M126.2,1000.7
	c3-1.3,4.5-4.8,3.2-7.9c-2.6-6.1-6.2-12.1-11-18.3c-2-2.6-5.8-3.1-8.4-1.1c-2.6,2-3.1,5.8-1.1,8.4c4.2,5.4,7.2,10.5,9.5,15.7
	c1,2.3,3.2,3.6,5.5,3.6C124.6,1001.2,125.4,1001.1,126.2,1000.7z M104.6,967.7c2.3-2.4,2.3-6.2-0.1-8.5c-5.1-5.1-10.6-10-14.9-13.7
	c-2.5-2.2-6.3-2-8.5,0.5s-2,6.3,0.5,8.5c4.1,3.6,9.5,8.4,14.4,13.3c1.2,1.2,2.7,1.7,4.2,1.7C101.9,969.5,103.4,968.9,104.6,967.7z
	 M75.2,940.8c2.2-2.5,2-6.3-0.5-8.5c-5.9-5.2-10.3-9.4-14.3-13.3c-2.3-2.3-6.1-2.3-8.5,0c-2.3,2.3-2.3,6.1,0,8.5
	c4.1,4.1,8.7,8.4,14.8,13.8c1.1,1,2.6,1.5,4,1.5C72.4,942.9,74,942.2,75.2,940.8z M46.6,913.2c2.6-2,3.1-5.8,1.1-8.4
	c-4.1-5.3-7.4-10.5-9.9-15.7c-1.4-3-5-4.2-8-2.8c-3,1.4-4.2,5-2.8,8c2.9,6,6.6,11.8,11.2,17.9c1.2,1.5,3,2.3,4.7,2.3
	C44.2,914.4,45.5,914,46.6,913.2z M27.3,878.8c3.3-0.5,5.5-3.6,5-6.9c-0.5-3.1-0.8-6.4-0.8-9.6l0-0.5c0-2.7,0.2-5.3,0.6-7.9
	c0.5-3.3-1.8-6.3-5.1-6.8c-3.3-0.5-6.3,1.8-6.8,5.1c-0.4,3.1-0.7,6.3-0.7,9.5l0,0.6c0,3.9,0.3,7.8,0.9,11.5c0.5,2.9,3,5,5.9,5
	C26.6,878.8,27,878.8,27.3,878.8z M37.2,836.7c2.4-5.3,5.6-10.4,9.7-15.7c2-2.6,1.5-6.4-1.1-8.4c-2.6-2-6.4-1.5-8.4,1.1
	c-4.7,6-8.3,11.9-11.1,18c-1.4,3-0.1,6.6,2.9,8c0.8,0.4,1.7,0.6,2.5,0.6C34,840.1,36.2,838.8,37.2,836.7z M59.7,806.8
	c4-3.9,8.6-8.1,14.4-13.1c2.5-2.2,2.8-6,0.6-8.5s-6-2.8-8.5-0.6c-6.1,5.2-10.8,9.5-15,13.7c-2.4,2.3-2.4,6.1-0.1,8.5
	c1.2,1.2,2.7,1.8,4.3,1.8C57,808.5,58.5,807.9,59.7,806.8z M89.3,780.8c4.6-3.9,10-8.5,15.2-13.3c2.4-2.3,2.6-6.1,0.3-8.5
	c-2.3-2.4-6.1-2.6-8.5-0.3c-4.9,4.6-10.2,9.1-14.7,12.9c-2.5,2.1-2.8,5.9-0.7,8.5c1.2,1.4,2.9,2.1,4.6,2.1
	C86.8,782.3,88.2,781.8,89.3,780.8z M118.7,752.6c5-6,8.8-11.8,11.8-17.7c1.5-3,0.3-6.6-2.7-8c-3-1.5-6.6-0.3-8,2.7
	c-2.5,5.1-5.9,10.1-10.2,15.3c-2.1,2.5-1.8,6.3,0.8,8.5c1.1,0.9,2.5,1.4,3.8,1.4C115.8,754.8,117.6,754,118.7,752.6z M136.8,714.1
	c0.3-2.4,0.4-4.9,0.4-7.3c0-1,0-2.1-0.1-3.1c-0.2-3.9-0.7-7.7-1.6-11.4c-0.8-3.2-4-5.2-7.2-4.4c-3.2,0.8-5.2,4-4.4,7.2
	c0.7,3,1.1,6,1.3,9.2c0,0.8,0.1,1.7,0.1,2.5c0,2-0.1,4-0.4,5.9c-0.4,3.3,2,6.3,5.2,6.7c0.2,0,0.5,0,0.7,0
	C133.9,719.4,136.4,717.2,136.8,714.1z M125.1,680.6c2.8-1.8,3.6-5.5,1.8-8.3c-3.5-5.5-7.9-10.8-13.5-16.3c-2.4-2.3-6.2-2.3-8.5,0.1
	c-2.3,2.4-2.3,6.2,0.1,8.5c4.9,4.8,8.8,9.5,11.8,14.2c1.1,1.8,3.1,2.8,5.1,2.8C123,681.6,124.1,681.3,125.1,680.6z M98.9,651
	c2-2.6,1.6-6.4-1-8.4c-5.1-4-10.4-7.8-16.2-12c-2.7-1.9-6.4-1.3-8.4,1.3c-1.9,2.7-1.3,6.4,1.3,8.4c5.7,4.1,10.8,7.9,15.8,11.7
	c1.1,0.9,2.4,1.3,3.7,1.3C96,653.3,97.8,652.5,98.9,651z M67,627.3c2-2.6,1.5-6.4-1.1-8.4c-6-4.6-10.7-8.5-14.7-12.4
	c-2.4-2.3-6.2-2.2-8.5,0.2c-2.3,2.4-2.2,6.2,0.2,8.5c4.4,4.2,9.4,8.4,15.7,13.2c1.1,0.8,2.4,1.2,3.6,1.2
	C64,629.6,65.8,628.8,67,627.3z M37.4,600.8c2.7-1.9,3.5-5.6,1.6-8.3c-3.6-5.3-6-10.5-7.5-16.1c-0.8-3.2-4.1-5.1-7.3-4.3
	c-3.2,0.8-5.1,4.1-4.3,7.3c1.8,6.9,4.8,13.3,9.2,19.7c1.2,1.7,3,2.6,5,2.6C35.2,601.8,36.3,601.5,37.4,600.8z M30.2,558.9
	c0.6-5.8,2.3-11.3,5-16.9c1.5-3,0.3-6.6-2.7-8c-3-1.5-6.6-0.3-8,2.7c-3.4,6.8-5.5,13.8-6.2,20.9c-0.4,3.3,2,6.3,5.3,6.6
	c0.2,0,0.4,0,0.6,0C27.3,564.2,29.9,562,30.2,558.9z M45.5,526.8c3.6-4.3,8-8.7,13.4-13.6c2.5-2.2,2.6-6,0.4-8.5s-6-2.6-8.5-0.4
	c-5.8,5.2-10.5,10.1-14.5,14.7c-2.1,2.5-1.8,6.3,0.7,8.5c1.1,1,2.5,1.4,3.9,1.4C42.6,528.9,44.3,528.2,45.5,526.8z M73.8,500.5
	c1.6-1.3,3.2-2.6,4.7-3.9c3.5-2.9,7.1-5.8,10.7-8.8c2.5-2.1,2.9-5.9,0.7-8.5c-2.1-2.5-5.9-2.9-8.5-0.7c-3.5,2.9-7.1,5.9-10.6,8.7
	c-1.6,1.3-3.2,2.6-4.8,3.9c-2.6,2.1-2.9,5.9-0.8,8.4c1.2,1.4,2.9,2.2,4.6,2.2C71.4,501.8,72.7,501.4,73.8,500.5z M104.4,474.3
	c5.5-5.3,10.1-10.3,13.9-15.4c2-2.6,1.5-6.4-1.1-8.4c-2.6-2-6.4-1.5-8.4,1.1c-3.5,4.6-7.7,9.2-12.8,14.1c-2.4,2.3-2.4,6.1-0.1,8.5
	c1.2,1.2,2.7,1.8,4.3,1.8C101.8,476,103.3,475.4,104.4,474.3z M129.4,440.7c3-6.7,4.9-13.7,5.8-20.8c0.4-3.3-2-6.3-5.3-6.7
	c-3.3-0.4-6.3,2-6.7,5.3c-0.7,6-2.3,11.6-4.8,17.3c-1.4,3,0,6.6,3,7.9c0.8,0.4,1.6,0.5,2.4,0.5C126.2,444.3,128.4,443,129.4,440.7z
	 M129.7,405.4c3.3-0.6,5.4-3.8,4.7-7c-1.3-6.8-3.8-13.6-7.2-20.3c-1.5-2.9-5.2-4.1-8.1-2.5c-2.9,1.5-4.1,5.2-2.5,8.1
	c3,5.7,5,11.2,6.1,17c0.6,2.9,3.1,4.9,5.9,4.9C128.9,405.5,129.3,405.5,129.7,405.4z M114.6,369.1c2.6-2.1,3-5.9,0.9-8.4
	c-3.9-4.8-8.4-9.7-13.9-15.1c-2.4-2.3-6.2-2.3-8.5,0.1c-2.3,2.4-2.3,6.2,0.1,8.5c5.2,5.1,9.4,9.7,13,14.1c1.2,1.5,2.9,2.2,4.7,2.2
	C112.1,370.4,113.5,370,114.6,369.1z M87.2,340.3c2.2-2.5,2-6.3-0.5-8.5c-1.3-1.2-2.6-2.3-3.9-3.5c-3.6-3.2-7.3-6.5-10.8-9.8
	c-2.4-2.2-6.2-2.1-8.5,0.3c-2.2,2.4-2.1,6.2,0.3,8.5c3.6,3.3,7.3,6.7,11,9.9c1.3,1.2,2.6,2.3,3.9,3.5c1.1,1,2.6,1.5,4,1.5
	C84.4,342.3,86,341.6,87.2,340.3z M57.9,313.4c2.4-2.2,2.6-6,0.3-8.5c-4.8-5.2-8.6-10-11.7-14.8c-1.8-2.8-5.5-3.6-8.3-1.8
	s-3.6,5.5-1.8,8.3c3.4,5.3,7.7,10.7,12.9,16.4c1.2,1.3,2.8,1.9,4.4,1.9C55.2,315,56.7,314.4,57.9,313.4z M34.8,281.2
	c3.2-0.9,5-4.2,4.2-7.4c-1.2-4.3-1.8-8.6-1.8-13c0-1.5,0.1-3,0.2-4.5c0.3-3.3-2.1-6.2-5.4-6.5c-3.3-0.3-6.2,2.1-6.5,5.4
	c-0.2,1.8-0.2,3.7-0.2,5.5c0,5.5,0.8,11,2.2,16.3c0.7,2.6,3.2,4.4,5.8,4.4C33.7,281.4,34.3,281.3,34.8,281.2z M42,239.4
	c2.4-5,5.8-9.8,10.3-14.9c2.2-2.5,2-6.3-0.5-8.5c-2.5-2.2-6.3-2-8.5,0.5c-5.3,5.9-9.3,11.7-12.2,17.7c-1.4,3-0.2,6.6,2.8,8
	c0.8,0.4,1.7,0.6,2.6,0.6C38.8,242.7,41,241.5,42,239.4z M66.1,211.1c1.7-1.6,3.5-3.1,5.3-4.7c3.2-2.8,6.4-5.6,9.7-8.6
	c2.4-2.2,2.6-6,0.4-8.5s-6-2.6-8.5-0.4c-3.1,2.9-6.4,5.7-9.5,8.4c-1.8,1.6-3.6,3.2-5.4,4.7c-2.5,2.2-2.7,6-0.5,8.5
	c1.2,1.3,2.8,2,4.5,2C63.6,212.6,65,212.1,66.1,211.1z M95.6,183.3c4.9-5.6,8.9-11.1,12.3-16.9c1.7-2.9,0.7-6.5-2.1-8.2
	c-2.9-1.7-6.5-0.7-8.2,2.1c-3,5.2-6.7,10.1-11,15.1c-2.2,2.5-1.9,6.3,0.6,8.5c1.1,1,2.5,1.5,3.9,1.5
	C92.7,185.3,94.4,184.6,95.6,183.3z M116.6,147.1c0.9-2.8,1.7-5.7,2.4-8.6c0.9-3.9,1.6-7.9,2.1-11.9c0.4-3.3-1.9-6.3-5.2-6.7
	c-3.3-0.4-6.3,1.9-6.7,5.2c-0.4,3.6-1.1,7.1-1.9,10.6c-0.6,2.6-1.3,5.2-2.2,7.6c-1,3.1,0.7,6.5,3.8,7.6c0.6,0.2,1.3,0.3,1.9,0.3
	C113.4,151.2,115.8,149.6,116.6,147.1z M116.1,112c3.3-0.2,5.8-3.1,5.6-6.4c-0.4-6.7-1.4-13.6-3-20.6c-0.7-3.2-3.9-5.3-7.2-4.5
	c-3.2,0.7-5.3,3.9-4.5,7.2c1.4,6.3,2.3,12.6,2.7,18.7c0.2,3.2,2.8,5.6,6,5.6C115.9,112,116,112,116.1,112z M109.3,72.9
	c3.1-1.1,4.7-4.6,3.6-7.7c-2.3-6.2-5-12.5-8.1-18.9c-1.5-3-5-4.2-8-2.8c-3,1.5-4.2,5-2.8,8c2.9,6,5.5,11.9,7.6,17.7
	c0.9,2.4,3.2,3.9,5.6,3.9C107.9,73.3,108.6,73.2,109.3,72.9z M96.7,1284.8c2.3-2.4,2.1-6.2-0.3-8.5c-2.4-2.3-4.9-4.6-7.1-6.8
	c-2.4-2.3-6.2-2.3-8.5,0.1c-2.3,2.4-2.3,6.2,0.1,8.5c2.4,2.3,4.8,4.6,7.3,7c1.2,1.1,2.6,1.6,4.1,1.6
	C93.9,1286.8,95.5,1286.1,96.7,1284.8z"/>
</svg>
