<?xml version="1.0" encoding="utf-8"?>
<!-- Generator: Adobe Illustrator 26.3.1, SVG Export Plug-In . SVG Version: 6.00 Build 0)  -->
<svg version="1.1" id="Layer_1" xmlns="http://www.w3.org/2000/svg" xmlns:xlink="http://www.w3.org/1999/xlink" x="0px" y="0px"
	 viewBox="0 0 155.5 1303.8" style="enable-background:new 0 0 155.5 1303.8;" xml:space="preserve">
<style type="text/css">
	.st0{fill:url(#SVGID_1_);}
</style>
<linearGradient id="SVGID_1_" gradientUnits="userSpaceOnUse" x1="20.3791" y1="651.9041" x2="135.4059" y2="651.9041">
	<stop  offset="0" style="stop-color:#EC0AFA"/>
	<stop  offset="0.1686" style="stop-color:#C62DF7"/>
	<stop  offset="0.3886" style="stop-color:#9956F3"/>
	<stop  offset="0.5" style="stop-color:#8866F1"/>
	<stop  offset="0.5695" style="stop-color:#806DF0"/>
	<stop  offset="0.6795" style="stop-color:#6981ED"/>
	<stop  offset="0.8163" style="stop-color:#44A1E7"/>
	<stop  offset="0.9731" style="stop-color:#11CDE0"/>
	<stop  offset="1" style="stop-color:#07D5DF"/>
</linearGradient>
<path class="st0" d="M90.1,35.5c-1.4,0-2.7-0.7-3.4-1.9c-1.6-2.8-3.4-5.6-5.2-8.4c-1.2-1.9-0.7-4.3,1.2-5.5c1.9-1.2,4.3-0.7,5.5,1.2
	c1.9,2.9,3.7,5.8,5.4,8.6c1.1,1.9,0.5,4.4-1.4,5.5C91.5,35.4,90.8,35.5,90.1,35.5z M73.1,1261.6c1.6-1.5,1.7-4,0.3-5.7
	c-4.6-5-8.9-10-12.7-14.9c-1.4-1.7-3.9-2-5.6-0.6c-1.7,1.4-2,3.9-0.6,5.6c4,5,8.4,10.2,13.1,15.3c0.8,0.9,1.9,1.3,3,1.3
	C71.4,1262.7,72.4,1262.3,73.1,1261.6z M48,1230.8c1.8-1.2,2.4-3.7,1.2-5.5c-3.7-5.7-7-11.3-9.7-16.8c-1-2-3.4-2.8-5.4-1.8
	c-2,1-2.8,3.4-1.8,5.4c2.9,5.8,6.3,11.7,10.2,17.6c0.8,1.2,2,1.8,3.3,1.8C46.6,1231.4,47.4,1231.2,48,1230.8z M29.6,1195.6
	c2.1-0.7,3.3-2.9,2.6-5c-1.9-6.3-3.2-12.6-3.7-18.6c-0.2-2.2-2.1-3.8-4.3-3.6c-2.2,0.2-3.8,2.1-3.6,4.3c0.6,6.6,1.9,13.4,4,20.3
	c0.5,1.7,2.1,2.8,3.8,2.8C28.8,1195.8,29.2,1195.7,29.6,1195.6z M29.3,1153.2l0.1-0.4c1.1-6,3-11.9,5.6-17.4c1-2,0.1-4.4-1.9-5.3
	c-2-0.9-4.4-0.1-5.3,1.9c-2.9,6.2-5,12.7-6.2,19.4l-0.1,0.5c-0.4,2.2,1.1,4.2,3.3,4.6c0.2,0,0.5,0.1,0.7,0.1
	C27.3,1156.5,29,1155.1,29.3,1153.2z M45.2,1119.5c3.7-4.6,8.1-9.1,13.4-13.8c1.7-1.5,1.8-4,0.3-5.6c-1.5-1.7-4-1.8-5.6-0.3
	c-5.6,5-10.3,9.8-14.3,14.7c-1.4,1.7-1.1,4.2,0.6,5.6c0.7,0.6,1.6,0.9,2.5,0.9C43.2,1121,44.4,1120.5,45.2,1119.5z M73.8,1093.4
	c2.8-2.2,5.7-4.3,8.5-6.4c2.5-1.8,5-3.7,7.4-5.5c1.8-1.3,2.1-3.8,0.8-5.6c-1.3-1.8-3.8-2.1-5.6-0.8c-2.4,1.8-4.9,3.7-7.4,5.5
	c-2.9,2.1-5.7,4.3-8.6,6.4c-1.8,1.3-2.1,3.8-0.8,5.6c0.8,1,2,1.6,3.2,1.6C72.2,1094.2,73.1,1094,73.8,1093.4z M105.5,1068.8
	c5.8-5.2,10.4-10.1,14.2-15c1.3-1.8,1-4.3-0.8-5.6c-1.8-1.3-4.3-1-5.6,0.8c-3.4,4.5-7.7,9.1-13.1,13.9c-1.6,1.5-1.8,4-0.3,5.6
	c0.8,0.9,1.9,1.3,3,1.3C103.8,1069.8,104.7,1069.5,105.5,1068.8z M129.6,1035.2c1.4-4.3,2.3-8.8,2.7-13.3c0.1-1.7,0.2-3.4,0.2-5.1
	c0-0.9,0-1.7-0.1-2.6c-0.1-2.2-2-3.9-4.2-3.8c-2.2,0.1-3.9,2-3.8,4.2c0,0.7,0.1,1.5,0.1,2.2c0,1.4-0.1,2.9-0.2,4.4
	c-0.3,3.9-1.1,7.8-2.3,11.5c-0.7,2.1,0.4,4.4,2.5,5.1c0.4,0.1,0.8,0.2,1.3,0.2C127.5,1038,129,1036.9,129.6,1035.2z M125.6,998.9
	c2-0.9,3-3.2,2.1-5.3c-2.5-5.9-6.1-11.8-10.7-17.8c-1.4-1.7-3.9-2.1-5.6-0.7c-1.7,1.3-2.1,3.9-0.7,5.6c4.3,5.5,7.4,10.8,9.7,16.1
	c0.6,1.5,2.1,2.4,3.7,2.4C124.5,999.2,125,999.1,125.6,998.9z M103.3,966.3c1.6-1.6,1.5-4.1,0-5.7c-5.1-5-10.6-9.9-14.8-13.6
	c-1.7-1.5-4.2-1.3-5.6,0.4s-1.3,4.2,0.4,5.6c4.1,3.6,9.5,8.4,14.5,13.3c0.8,0.8,1.8,1.2,2.8,1.2
	C101.5,967.5,102.5,967.1,103.3,966.3z M73.9,939.5c1.5-1.7,1.3-4.2-0.3-5.6c-5.9-5.3-10.4-9.4-14.4-13.4c-1.6-1.6-4.1-1.6-5.7,0
	c-1.6,1.6-1.6,4.1,0,5.7c4.1,4.1,8.7,8.4,14.7,13.7c0.8,0.7,1.7,1,2.7,1C72,940.9,73.1,940.4,73.9,939.5z M45.5,911.6
	c1.7-1.4,2.1-3.9,0.7-5.6c-4.2-5.5-7.5-10.7-10.1-16.1c-1-2-3.4-2.8-5.3-1.9c-2,1-2.8,3.3-1.9,5.3c2.8,5.9,6.4,11.6,11,17.5
	c0.8,1,2,1.5,3.2,1.5C43.9,912.4,44.8,912.2,45.5,911.6z M27.1,876.8c2.2-0.4,3.7-2.4,3.3-4.6c-0.5-3.3-0.8-6.6-0.8-9.9l0-0.5
	c0-2.7,0.2-5.5,0.6-8.2c0.3-2.2-1.2-4.2-3.4-4.5c-2.2-0.3-4.2,1.2-4.5,3.4c-0.4,3-0.6,6.1-0.7,9.2l0,0.5c0,3.8,0.3,7.6,0.9,11.2
	c0.3,2,2,3.4,3.9,3.4C26.7,876.8,26.9,876.8,27.1,876.8z M35.5,835.8c2.5-5.4,5.8-10.7,10-16.1c1.4-1.7,1-4.3-0.7-5.6
	c-1.7-1.4-4.3-1-5.6,0.7c-4.6,5.9-8.1,11.7-10.9,17.6c-0.9,2-0.1,4.4,1.9,5.3c0.5,0.3,1.1,0.4,1.7,0.4
	C33.4,838.1,34.9,837.3,35.5,835.8z M58.4,805.4c4-4,8.6-8.2,14.5-13.2c1.7-1.4,1.9-4,0.4-5.6c-1.4-1.7-4-1.9-5.6-0.4
	c-6,5.2-10.8,9.5-14.9,13.6c-1.6,1.5-1.6,4.1-0.1,5.7c0.8,0.8,1.8,1.2,2.9,1.2C56.6,806.5,57.7,806.1,58.4,805.4z M88.1,779.3
	c4.6-3.9,10-8.5,15.1-13.3c1.6-1.5,1.7-4,0.2-5.7c-1.5-1.6-4-1.7-5.7-0.2c-5,4.6-10.3,9.2-14.8,13c-1.7,1.4-1.9,4-0.5,5.6
	c0.8,0.9,1.9,1.4,3.1,1.4C86.5,780.3,87.4,779.9,88.1,779.3z M117.4,751.3c4.9-5.9,8.6-11.5,11.5-17.3c1-2,0.2-4.4-1.8-5.4
	c-2-1-4.4-0.2-5.4,1.8c-2.6,5.2-6,10.3-10.5,15.7c-1.4,1.7-1.2,4.2,0.5,5.6c0.7,0.6,1.7,0.9,2.6,0.9
	C115.4,752.8,116.6,752.3,117.4,751.3z M135,713.9c0.3-2.3,0.4-4.7,0.4-7.1c0-1,0-2-0.1-3c-0.2-3.7-0.7-7.4-1.6-11
	c-0.5-2.1-2.7-3.5-4.8-3c-2.1,0.5-3.5,2.7-3,4.8c0.7,3.1,1.2,6.3,1.3,9.5c0,0.9,0.1,1.7,0.1,2.6c0,2.1-0.1,4.1-0.4,6.2
	c-0.3,2.2,1.3,4.2,3.5,4.4c0.2,0,0.3,0,0.5,0C133,717.4,134.7,715.9,135,713.9z M124.2,679c1.9-1.2,2.4-3.7,1.2-5.5
	c-3.4-5.4-7.8-10.6-13.2-16c-1.6-1.5-4.1-1.5-5.7,0c-1.6,1.6-1.5,4.1,0,5.7c5,4.9,9,9.7,12.1,14.6c0.8,1.2,2.1,1.8,3.4,1.8
	C122.8,679.6,123.5,679.4,124.2,679z M97.5,649.8c1.4-1.7,1.1-4.3-0.7-5.6c-5.1-4-10.3-7.8-16.1-12c-1.8-1.3-4.3-0.9-5.6,0.9
	s-0.9,4.3,0.9,5.6c5.7,4.1,10.9,7.9,15.9,11.8c0.7,0.6,1.6,0.8,2.5,0.8C95.6,651.3,96.7,650.8,97.5,649.8z M65.5,626
	c1.3-1.8,1-4.3-0.7-5.6c-6-4.6-10.8-8.6-14.9-12.5c-1.6-1.5-4.1-1.5-5.7,0.1c-1.5,1.6-1.5,4.1,0.1,5.7c4.3,4.1,9.3,8.3,15.5,13.1
	c0.7,0.6,1.6,0.8,2.4,0.8C63.6,627.6,64.8,627.1,65.5,626z M36.4,599.1c1.8-1.2,2.3-3.7,1.1-5.6c-3.7-5.5-6.2-10.9-7.8-16.7
	c-0.6-2.1-2.8-3.4-4.9-2.8c-2.1,0.6-3.4,2.8-2.8,4.9c1.8,6.6,4.7,12.9,8.9,19.1c0.8,1.1,2,1.8,3.3,1.8
	C34.9,599.8,35.7,599.6,36.4,599.1z M28.4,558.7c0.6-6,2.4-11.8,5.2-17.5c1-2,0.2-4.4-1.8-5.4s-4.4-0.2-5.4,1.8
	c-3.3,6.5-5.3,13.4-6,20.2c-0.2,2.2,1.4,4.2,3.5,4.4c0.1,0,0.3,0,0.4,0C26.4,562.2,28.1,560.7,28.4,558.7z M44.1,525.5
	c3.7-4.3,8.1-8.9,13.6-13.8c1.6-1.5,1.8-4,0.3-5.7s-4-1.8-5.7-0.3c-5.7,5.2-10.4,9.9-14.3,14.5c-1.4,1.7-1.2,4.2,0.5,5.6
	c0.8,0.6,1.7,1,2.6,1C42.2,526.9,43.4,526.4,44.1,525.5z M72.7,498.9c1.6-1.3,3.2-2.6,4.8-3.9c3.5-2.9,7.1-5.8,10.6-8.8
	c1.7-1.4,1.9-3.9,0.5-5.6c-1.4-1.7-3.9-1.9-5.6-0.5c-3.5,2.9-7.1,5.9-10.6,8.7c-1.6,1.3-3.2,2.6-4.8,3.9c-1.7,1.4-2,3.9-0.6,5.6
	c0.8,1,1.9,1.5,3.1,1.5C71.1,499.8,72,499.5,72.7,498.9z M103.2,472.8c5.4-5.3,9.9-10.2,13.7-15.2c1.3-1.7,1-4.3-0.7-5.6
	c-1.7-1.3-4.3-1-5.6,0.7c-3.6,4.6-7.8,9.3-13,14.3c-1.6,1.5-1.6,4.1-0.1,5.7c0.8,0.8,1.8,1.2,2.9,1.2
	C101.4,474,102.4,473.6,103.2,472.8z M127.7,439.9c2.9-6.5,4.8-13.3,5.6-20.2c0.3-2.2-1.3-4.2-3.5-4.4c-2.2-0.3-4.2,1.3-4.4,3.5
	c-0.7,6.2-2.4,12-5,17.9c-0.9,2,0,4.4,2,5.3c0.5,0.2,1.1,0.3,1.6,0.3C125.6,442.3,127.1,441.4,127.7,439.9z M129.4,403.4
	c2.2-0.4,3.6-2.5,3.2-4.7c-1.3-6.6-3.7-13.3-7-19.7c-1-2-3.4-2.7-5.4-1.7c-2,1-2.7,3.4-1.7,5.4c3.1,5.8,5.1,11.6,6.3,17.5
	c0.4,1.9,2,3.2,3.9,3.2C128.9,403.5,129.2,403.5,129.4,403.4z M113.5,367.5c1.7-1.4,2-3.9,0.6-5.6c-3.8-4.7-8.4-9.6-13.8-14.9
	c-1.6-1.5-4.1-1.5-5.7,0.1c-1.5,1.6-1.5,4.1,0.1,5.7c5.2,5.1,9.5,9.8,13.2,14.3c0.8,1,1.9,1.5,3.1,1.5
	C111.9,368.4,112.7,368.1,113.5,367.5z M85.9,338.9c1.5-1.6,1.3-4.2-0.3-5.6c-1.3-1.2-2.6-2.3-3.9-3.5c-3.6-3.2-7.3-6.5-10.8-9.8
	c-1.6-1.5-4.2-1.4-5.7,0.2c-1.5,1.6-1.4,4.2,0.2,5.7c3.6,3.3,7.3,6.6,10.9,9.9c1.3,1.2,2.6,2.3,3.9,3.5c0.8,0.7,1.7,1,2.7,1
	C84,340.3,85.1,339.8,85.9,338.9z M56.7,311.9c1.6-1.5,1.7-4,0.2-5.7c-4.9-5.3-8.8-10.2-11.9-15c-1.2-1.9-3.7-2.4-5.5-1.2
	c-1.9,1.2-2.4,3.7-1.2,5.5c3.4,5.2,7.5,10.5,12.7,16.1c0.8,0.9,1.9,1.3,2.9,1.3C54.9,313,55.9,312.6,56.7,311.9z M34.4,279.3
	c2.1-0.6,3.4-2.8,2.8-4.9c-1.2-4.4-1.9-9-1.9-13.6c0-1.5,0.1-3.1,0.2-4.7c0.2-2.2-1.4-4.1-3.6-4.3c-2.2-0.2-4.1,1.4-4.3,3.6
	c-0.2,1.8-0.2,3.6-0.2,5.4c0,5.3,0.7,10.6,2.2,15.7c0.5,1.8,2.1,2.9,3.8,2.9C33.7,279.4,34.1,279.4,34.4,279.3z M40.4,238.5
	c2.5-5.1,6-10.1,10.6-15.4c1.5-1.6,1.3-4.2-0.3-5.6c-1.6-1.5-4.2-1.3-5.6,0.3c-5.2,5.8-9.1,11.4-11.9,17.2c-1,2-0.1,4.4,1.9,5.3
	c0.6,0.3,1.2,0.4,1.7,0.4C38.3,240.7,39.7,239.9,40.4,238.5z M65,209.6c1.8-1.6,3.5-3.1,5.3-4.7c3.1-2.8,6.4-5.6,9.6-8.5
	c1.6-1.5,1.7-4,0.3-5.7c-1.5-1.6-4-1.7-5.7-0.3c-3.2,2.9-6.4,5.7-9.5,8.4c-1.8,1.6-3.6,3.1-5.4,4.7c-1.7,1.5-1.8,4-0.3,5.6
	c0.8,0.9,1.9,1.3,3,1.3C63.3,210.6,64.2,210.3,65,209.6z M94.2,182c4.8-5.5,8.8-10.9,12.1-16.6c1.1-1.9,0.5-4.4-1.4-5.5
	c-1.9-1.1-4.4-0.5-5.5,1.4c-3.1,5.3-6.8,10.3-11.3,15.4c-1.5,1.7-1.3,4.2,0.4,5.6c0.8,0.7,1.7,1,2.6,1
	C92.3,183.3,93.4,182.9,94.2,182z M114.9,146.5c0.9-2.7,1.7-5.6,2.4-8.5c0.9-3.8,1.6-7.7,2.1-11.7c0.3-2.2-1.3-4.2-3.5-4.5
	c-2.2-0.3-4.2,1.3-4.5,3.5c-0.4,3.6-1.1,7.3-1.9,10.8c-0.6,2.7-1.4,5.3-2.2,7.8c-0.7,2.1,0.4,4.4,2.5,5.1c0.4,0.1,0.8,0.2,1.3,0.2
	C112.8,149.2,114.3,148.2,114.9,146.5z M116.2,110c2.2-0.1,3.9-2,3.7-4.2c-0.4-6.6-1.4-13.4-2.9-20.3c-0.5-2.2-2.6-3.5-4.8-3
	c-2.2,0.5-3.5,2.6-3,4.8c1.4,6.4,2.4,12.8,2.8,19c0.1,2.1,1.9,3.7,4,3.7C116,110,116.1,110,116.2,110z M108.8,71
	c2.1-0.8,3.1-3.1,2.4-5.1c-2.2-6.1-4.9-12.4-8-18.7c-1-2-3.4-2.8-5.4-1.8c-2,1-2.8,3.4-1.8,5.4c2.9,6,5.5,12,7.7,17.9
	c0.6,1.6,2.1,2.6,3.8,2.6C107.9,71.3,108.3,71.2,108.8,71z M95.4,1283.5c1.5-1.6,1.4-4.1-0.2-5.7c-2.4-2.3-4.9-4.6-7.2-6.8
	c-1.6-1.5-4.1-1.5-5.7,0.1c-1.5,1.6-1.5,4.1,0.1,5.7c2.4,2.3,4.8,4.6,7.3,7c0.8,0.7,1.7,1.1,2.7,1.1
	C93.5,1284.8,94.6,1284.3,95.4,1283.5z"/>
</svg>
