<?xml version="1.0" encoding="utf-8"?>
<!-- Generator: Adobe Illustrator 26.3.1, SVG Export Plug-In . SVG Version: 6.00 Build 0)  -->
<svg version="1.1" id="Layer_1" xmlns="http://www.w3.org/2000/svg" xmlns:xlink="http://www.w3.org/1999/xlink" x="0px" y="0px"
	 viewBox="0 0 666.1 166" style="enable-background:new 0 0 666.1 166;" xml:space="preserve">
<style type="text/css">
	.st0{fill:#FFFFFF;}
	.st1{fill:url(#SVGID_1_);}
	.st2{fill:url(#SVGID_00000155852248187019559180000008718622801966375309_);}
	.st3{fill:url(#SVGID_00000098907852843883535000000009886403283880518574_);}
	.st4{fill:url(#SVGID_00000127032519625601539180000017728731924012134564_);}
	.st5{fill:url(#SVGID_00000105415381771458672600000005477710644955079063_);}
	.st6{fill:url(#SVGID_00000002345639834876838570000011692527450403313331_);}
	.st7{fill:url(#SVGID_00000033332864196140366080000017675185690539830409_);}
	.st8{fill:url(#SVGID_00000080166448976433975730000018349244828557104052_);}
	.st9{fill:url(#SVGID_00000166641740718002542910000009971149145032978603_);}
	.st10{fill:url(#SVGID_00000134932373907307841530000017140815519416242356_);}
	.st11{fill:url(#SVGID_00000173871084804089851650000016328351325997712540_);}
	.st12{fill:url(#SVGID_00000178905778294944590890000001544723240413943717_);}
	.st13{fill:#EC0AFA;}
	.st14{fill:#07D5DF;}
	.st15{fill:#8866F1;}
	.st16{fill:url(#SVGID_00000011728874392639749590000016074986940007029378_);}
	.st17{fill:url(#SVGID_00000014625036014580595970000009012434096769199506_);}
	.st18{fill:url(#SVGID_00000101801666576660863660000017480159221033742989_);}
	.st19{fill:url(#SVGID_00000155859382286382457490000016397214141802979500_);}
</style>
<g>
	<g>
		<path class="st0" d="M285.9,74.7l-6.3-20.4l-0.4,21h-13.6l2.5-47.6h16.2l7.4,23.2l7.5-23.2h16.2l2.5,47.6h-13.6l-0.4-21l-6.3,20.4
			H285.9z"/>
		<path class="st0" d="M342.3,76.1c-3.2,0-6-0.4-8.5-1.2c-2.5-0.8-4.5-2-6.2-3.6c-1.7-1.7-2.9-3.8-3.8-6.3c-0.9-2.6-1.3-5.7-1.3-9.3
			V27.8h14.2v28c0,2.6,0.5,4.5,1.4,5.7c1,1.2,2.3,1.8,4,1.8c1.8,0,3.2-0.6,4.1-1.8c1-1.2,1.4-3.1,1.4-5.7v-28h14.2v27.8
			c0,3.6-0.4,6.7-1.3,9.3c-0.8,2.6-2.1,4.7-3.8,6.3c-1.7,1.7-3.7,2.9-6.1,3.6C348.3,75.7,345.5,76.1,342.3,76.1z"/>
		<path class="st0" d="M381.4,27.8v34.6h20.2v13h-34.4V27.8H381.4z"/>
		<path class="st0" d="M411.5,40.9h-11.5V27.8h37.4v13.1h-11.7v34.5h-14.2V40.9z"/>
		<path class="st0" d="M456.3,27.8v47.6h-14.2V27.8H456.3z"/>
		<path class="st0" d="M475.1,75.4l-14.5-47.6h14.9l7.3,28.6l7.3-28.6h14.9l-14.5,47.6H475.1z"/>
		<path class="st0" d="M541.5,58h-18.6v4.4H543v13h-34.4V27.8h33.5v13h-19.3v4.3h18.6V58z"/>
		<path class="st0" d="M565.8,27.8c2.8,0,5.4,0.3,7.8,0.8c2.4,0.5,4.5,1.4,6.3,2.7c1.8,1.3,3.2,3.1,4.2,5.3c1,2.2,1.5,5.1,1.5,8.5
			c0,3.5-0.5,6.4-1.6,8.8c-1,2.4-2.7,4.2-4.9,5.6l8.6,15.9h-16.8l-6.4-13H562v13h-14.2V27.8H565.8z M562,40.7v8.7h2.5
			c2.5,0,4.3-0.3,5.4-0.8c1.1-0.6,1.6-1.7,1.6-3.4c0-1-0.2-1.8-0.5-2.4c-0.3-0.6-0.8-1-1.4-1.3c-0.6-0.3-1.4-0.5-2.2-0.6
			c-0.9-0.1-1.8-0.1-2.9-0.1H562z"/>
		<path class="st0" d="M591.3,58.9c0.9,0.5,2,0.9,3.3,1.3c1.3,0.4,2.7,0.8,4.1,1.2c1.4,0.3,2.8,0.6,4.1,0.8c1.3,0.2,2.5,0.3,3.4,0.3
			c1.6,0,2.7-0.1,3.4-0.4c0.7-0.3,1-0.7,1-1.3c0-0.4-0.1-0.7-0.4-1c-0.2-0.3-0.6-0.5-1.1-0.8c-0.5-0.2-1.1-0.5-1.8-0.7
			c-0.7-0.2-1.6-0.5-2.5-0.8c-2-0.7-3.9-1.5-5.6-2.3c-1.7-0.8-3.2-1.8-4.4-3c-1.3-1.1-2.2-2.4-3-3.9c-0.7-1.5-1.1-3.3-1.2-5.3
			c-0.2-4.9,1-8.8,3.8-11.6c2.8-2.8,7-4.2,12.7-4.2c3.2,0,6,0.3,8.4,1c2.4,0.6,4.6,1.4,6.6,2.3v13.1c-0.6-0.3-1.5-0.7-2.6-1
			c-1.1-0.4-2.3-0.7-3.6-1c-1.3-0.3-2.6-0.6-4-0.8c-1.3-0.2-2.5-0.3-3.6-0.3c-1.3,0-2.2,0.1-2.7,0.4c-0.4,0.3-0.7,0.6-0.7,1.1
			c0,0.5,0.3,1,0.8,1.3c0.6,0.3,1.3,0.7,2.2,1c0.7,0.2,1.4,0.5,2.2,0.8c0.8,0.3,1.7,0.6,2.6,0.9c2.3,0.9,4.3,1.8,5.8,2.7
			c1.5,0.9,2.8,2,3.7,3.1c0.9,1.1,1.6,2.4,2,3.8c0.4,1.4,0.7,3,0.7,4.8c0.1,2.3-0.2,4.3-0.8,6.3c-0.7,1.9-1.8,3.6-3.3,5
			c-1.5,1.4-3.4,2.5-5.8,3.3c-2.4,0.8-5.3,1.2-8.6,1.2c-1.3,0-2.7-0.1-4.1-0.3c-1.4-0.2-2.7-0.5-4.1-0.9c-1.3-0.4-2.6-0.8-3.8-1.2
			c-1.2-0.5-2.2-0.9-3.1-1.4L591.3,58.9z"/>
		<path class="st0" d="M662.6,58h-18.6v4.4h20.2v13h-34.4V27.8h33.5v13h-19.3v4.3h18.6V58z"/>
		<path class="st0" d="M266.4,121.7c0.9,0.5,2,0.9,3.3,1.3c1.3,0.4,2.7,0.8,4.1,1.2c1.4,0.3,2.8,0.6,4.1,0.8
			c1.3,0.2,2.5,0.3,3.4,0.3c1.6,0,2.7-0.1,3.4-0.4c0.7-0.3,1-0.7,1-1.3c0-0.4-0.1-0.7-0.4-1c-0.2-0.3-0.6-0.5-1.1-0.8
			c-0.5-0.2-1.1-0.5-1.8-0.7c-0.7-0.2-1.6-0.5-2.5-0.8c-2-0.7-3.9-1.5-5.6-2.3c-1.7-0.8-3.2-1.8-4.4-3c-1.3-1.1-2.2-2.4-3-3.9
			c-0.7-1.5-1.1-3.3-1.2-5.3c-0.2-4.9,1-8.8,3.8-11.6c2.8-2.8,7-4.2,12.7-4.2c3.2,0,6,0.3,8.4,1c2.4,0.6,4.6,1.4,6.6,2.3v13.1
			c-0.6-0.3-1.5-0.7-2.6-1c-1.1-0.4-2.3-0.7-3.6-1c-1.3-0.3-2.6-0.6-4-0.8c-1.3-0.2-2.5-0.3-3.6-0.3c-1.3,0-2.2,0.1-2.7,0.4
			c-0.4,0.3-0.7,0.6-0.7,1.1c0,0.5,0.3,1,0.8,1.3c0.6,0.3,1.3,0.7,2.2,1c0.7,0.2,1.4,0.5,2.2,0.8c0.8,0.3,1.7,0.6,2.6,0.9
			c2.3,0.9,4.3,1.8,5.8,2.7c1.5,0.9,2.8,2,3.7,3.1c0.9,1.1,1.6,2.4,2,3.8c0.4,1.4,0.7,3,0.7,4.8c0.1,2.3-0.2,4.3-0.8,6.3
			c-0.7,1.9-1.8,3.6-3.3,5c-1.5,1.4-3.4,2.5-5.8,3.3c-2.4,0.8-5.3,1.2-8.6,1.2c-1.3,0-2.7-0.1-4.1-0.3c-1.4-0.2-2.7-0.5-4.1-0.9
			c-1.3-0.4-2.6-0.8-3.8-1.2c-1.2-0.5-2.2-0.9-3.1-1.4L266.4,121.7z"/>
		<path class="st0" d="M315.3,103.6h-11.5V90.5h37.4v13.1h-11.7v34.5h-14.2V103.6z"/>
		<path class="st0" d="M365.2,138.8c-3.2,0-6-0.4-8.5-1.2c-2.5-0.8-4.5-2-6.2-3.6c-1.7-1.7-2.9-3.8-3.8-6.3
			c-0.9-2.6-1.3-5.7-1.3-9.3V90.5h14.2v28c0,2.6,0.5,4.5,1.4,5.7c1,1.2,2.3,1.8,4,1.8c1.8,0,3.2-0.6,4.1-1.8c1-1.2,1.4-3.1,1.4-5.7
			v-28h14.2v27.8c0,3.6-0.4,6.7-1.3,9.3c-0.8,2.6-2.1,4.7-3.8,6.3c-1.7,1.7-3.7,2.9-6.1,3.6C371.2,138.4,368.4,138.8,365.2,138.8z"
			/>
		<path class="st0" d="M405.1,90.5c3.3,0,6.5,0.4,9.4,1.1c2.9,0.7,5.5,2,7.7,3.8c2.2,1.8,3.9,4.2,5.2,7.3c1.3,3.1,1.9,7,1.9,11.7
			c0,8.1-2,14.1-5.9,17.9c-3.9,3.9-9.9,5.8-17.8,5.8h-15.4V90.5H405.1z M404,103.5V125h0.5c1.7,0,3.3-0.2,4.6-0.5
			c1.4-0.3,2.5-0.9,3.4-1.7c0.9-0.8,1.6-1.9,2.1-3.3c0.5-1.4,0.7-3.1,0.7-5.2c0-2.3-0.3-4.2-0.8-5.6c-0.5-1.4-1.3-2.5-2.3-3.3
			c-1-0.8-2.1-1.3-3.4-1.6c-1.3-0.3-2.7-0.4-4.2-0.4H404z"/>
		<path class="st0" d="M448.7,90.5v47.6h-14.2V90.5H448.7z"/>
		<path class="st0" d="M500.2,114.3c0,3.9-0.5,7.4-1.6,10.5c-1.1,3-2.7,5.6-4.7,7.7c-2,2.1-4.5,3.6-7.3,4.7c-2.8,1.1-6,1.6-9.5,1.6
			s-6.7-0.5-9.5-1.6c-2.8-1.1-5.3-2.6-7.3-4.7c-2-2.1-3.6-4.6-4.7-7.7c-1.1-3-1.6-6.5-1.6-10.5c0-3.9,0.5-7.4,1.6-10.5
			c1.1-3,2.7-5.6,4.7-7.7c2-2.1,4.5-3.6,7.3-4.7c2.8-1.1,6-1.6,9.5-1.6s6.7,0.5,9.5,1.6c2.8,1.1,5.3,2.6,7.3,4.7
			c2,2.1,3.6,4.6,4.7,7.7C499.6,106.9,500.2,110.4,500.2,114.3z M477.1,102.5c-2.7,0-4.8,0.9-6.3,2.8c-1.5,1.9-2.3,4.8-2.3,8.7
			c0,4,0.8,6.9,2.3,8.7c1.5,1.8,3.5,2.7,6.1,2.7c2.7,0,4.9-0.9,6.4-2.7c1.6-1.8,2.3-4.7,2.3-8.7c0-3.9-0.8-6.9-2.3-8.7
			C481.8,103.5,479.7,102.5,477.1,102.5z"/>
	</g>
	<g>
		<linearGradient id="SVGID_1_" gradientUnits="userSpaceOnUse" x1="-8.2604" y1="83" x2="148.4348" y2="83">
			<stop  offset="0" style="stop-color:#EC0AFA"/>
			<stop  offset="0.1686" style="stop-color:#C62DF7"/>
			<stop  offset="0.3886" style="stop-color:#9956F3"/>
			<stop  offset="0.5" style="stop-color:#8866F1"/>
			<stop  offset="0.5695" style="stop-color:#806DF0"/>
			<stop  offset="0.6795" style="stop-color:#6981ED"/>
			<stop  offset="0.8163" style="stop-color:#44A1E7"/>
			<stop  offset="0.9731" style="stop-color:#11CDE0"/>
			<stop  offset="1" style="stop-color:#07D5DF"/>
		</linearGradient>
		<circle class="st1" cx="80.3" cy="83" r="78.3"/>
		
			<linearGradient id="SVGID_00000028286609971564708010000015029461457238475961_" gradientUnits="userSpaceOnUse" x1="158.6476" y1="53.0712" x2="255.4852" y2="53.0712">
			<stop  offset="0" style="stop-color:#07D5DF"/>
			<stop  offset="2.693525e-02" style="stop-color:#11CDE0"/>
			<stop  offset="0.1837" style="stop-color:#44A1E7"/>
			<stop  offset="0.3205" style="stop-color:#6981ED"/>
			<stop  offset="0.4305" style="stop-color:#806DF0"/>
			<stop  offset="0.5" style="stop-color:#8866F1"/>
			<stop  offset="0.6114" style="stop-color:#9956F3"/>
			<stop  offset="0.8314" style="stop-color:#C62DF7"/>
			<stop  offset="1" style="stop-color:#EC0AFA"/>
		</linearGradient>
		<circle style="fill:url(#SVGID_00000028286609971564708010000015029461457238475961_);" cx="207.1" cy="53.1" r="48.4"/>
		
			<linearGradient id="SVGID_00000040560085892652245890000014297625071941138069_" gradientUnits="userSpaceOnUse" x1="197.7536" y1="121.8922" x2="254.3947" y2="141.3002">
			<stop  offset="0" style="stop-color:#07D5DF"/>
			<stop  offset="2.693525e-02" style="stop-color:#11CDE0"/>
			<stop  offset="0.1837" style="stop-color:#44A1E7"/>
			<stop  offset="0.3205" style="stop-color:#6981ED"/>
			<stop  offset="0.4305" style="stop-color:#806DF0"/>
			<stop  offset="0.5" style="stop-color:#8866F1"/>
			<stop  offset="0.6114" style="stop-color:#9956F3"/>
			<stop  offset="0.8314" style="stop-color:#C62DF7"/>
			<stop  offset="1" style="stop-color:#EC0AFA"/>
		</linearGradient>
		<circle style="fill:url(#SVGID_00000040560085892652245890000014297625071941138069_);" cx="225.6" cy="131.4" r="29.9"/>
		
			<linearGradient id="SVGID_00000179604478076005741530000005322158760027700397_" gradientUnits="userSpaceOnUse" x1="169.9503" y1="125.8164" x2="184.3249" y2="159.8988">
			<stop  offset="0" style="stop-color:#07D5DF"/>
			<stop  offset="2.693525e-02" style="stop-color:#11CDE0"/>
			<stop  offset="0.1837" style="stop-color:#44A1E7"/>
			<stop  offset="0.3205" style="stop-color:#6981ED"/>
			<stop  offset="0.4305" style="stop-color:#806DF0"/>
			<stop  offset="0.5" style="stop-color:#8866F1"/>
			<stop  offset="0.6114" style="stop-color:#9956F3"/>
			<stop  offset="0.8314" style="stop-color:#C62DF7"/>
			<stop  offset="1" style="stop-color:#EC0AFA"/>
		</linearGradient>
		<circle style="fill:url(#SVGID_00000179604478076005741530000005322158760027700397_);" cx="177.1" cy="142.9" r="18.5"/>
		
			<linearGradient id="SVGID_00000126290573392051778480000014239805627840393868_" gradientUnits="userSpaceOnUse" x1="162.6169" y1="104.2652" x2="177.5558" y2="121.5924">
			<stop  offset="0" style="stop-color:#07D5DF"/>
			<stop  offset="2.693525e-02" style="stop-color:#11CDE0"/>
			<stop  offset="0.1837" style="stop-color:#44A1E7"/>
			<stop  offset="0.3205" style="stop-color:#6981ED"/>
			<stop  offset="0.4305" style="stop-color:#806DF0"/>
			<stop  offset="0.5" style="stop-color:#8866F1"/>
			<stop  offset="0.6114" style="stop-color:#9956F3"/>
			<stop  offset="0.8314" style="stop-color:#C62DF7"/>
			<stop  offset="1" style="stop-color:#EC0AFA"/>
		</linearGradient>
		<circle style="fill:url(#SVGID_00000126290573392051778480000014239805627840393868_);" cx="170.1" cy="112.9" r="11.4"/>
		
			<linearGradient id="SVGID_00000068673571746088751280000007588976249579984772_" gradientUnits="userSpaceOnUse" x1="181.5251" y1="108.5413" x2="195.6276" y2="108.5413">
			<stop  offset="0" style="stop-color:#07D5DF"/>
			<stop  offset="2.693525e-02" style="stop-color:#11CDE0"/>
			<stop  offset="0.1837" style="stop-color:#44A1E7"/>
			<stop  offset="0.3205" style="stop-color:#6981ED"/>
			<stop  offset="0.4305" style="stop-color:#806DF0"/>
			<stop  offset="0.5" style="stop-color:#8866F1"/>
			<stop  offset="0.6114" style="stop-color:#9956F3"/>
			<stop  offset="0.8314" style="stop-color:#C62DF7"/>
			<stop  offset="1" style="stop-color:#EC0AFA"/>
		</linearGradient>
		<circle style="fill:url(#SVGID_00000068673571746088751280000007588976249579984772_);" cx="188.6" cy="108.5" r="7.1"/>
	</g>
</g>
<g>
	<g>
		<path class="st0" d="M826.8-160.6l-6.3-20.4l-0.4,21h-13.6l2.5-47.6h16.2l7.4,23.2l7.5-23.2h16.2l2.5,47.6h-13.6l-0.4-21
			l-6.3,20.4H826.8z"/>
		<path class="st0" d="M883.1-159.3c-3.2,0-6-0.4-8.5-1.2c-2.5-0.8-4.5-2-6.2-3.6c-1.7-1.7-2.9-3.8-3.8-6.3
			c-0.9-2.6-1.3-5.7-1.3-9.3v-27.8h14.2v28c0,2.6,0.5,4.5,1.4,5.7c1,1.2,2.3,1.8,4,1.8c1.8,0,3.2-0.6,4.1-1.8c1-1.2,1.4-3.1,1.4-5.7
			v-28h14.2v27.8c0,3.6-0.4,6.7-1.3,9.3c-0.8,2.6-2.1,4.7-3.8,6.3c-1.7,1.7-3.7,2.9-6.1,3.6C889.1-159.6,886.3-159.3,883.1-159.3z"
			/>
		<path class="st0" d="M922.2-207.5v34.6h20.2v13H908v-47.6H922.2z"/>
		<path class="st0" d="M952.3-194.4h-11.5v-13.1h37.4v13.1h-11.7v34.5h-14.2V-194.4z"/>
		<path class="st0" d="M997.1-207.5v47.6H983v-47.6H997.1z"/>
		<path class="st0" d="M1015.9-159.9l-14.5-47.6h14.9l7.3,28.6l7.3-28.6h14.9l-14.5,47.6H1015.9z"/>
		<path class="st0" d="M1082.3-177.3h-18.6v4.4h20.2v13h-34.4v-47.6h33.5v13h-19.3v4.3h18.6V-177.3z"/>
		<path class="st0" d="M1106.6-207.5c2.8,0,5.4,0.3,7.8,0.8c2.4,0.5,4.5,1.4,6.3,2.7c1.8,1.3,3.2,3.1,4.2,5.3c1,2.2,1.5,5.1,1.5,8.5
			c0,3.5-0.5,6.4-1.6,8.8c-1,2.4-2.7,4.2-4.9,5.6l8.6,15.9h-16.8l-6.4-13h-2.6v13h-14.2v-47.6H1106.6z M1102.8-194.6v8.7h2.5
			c2.5,0,4.3-0.3,5.4-0.8c1.1-0.6,1.6-1.7,1.6-3.4c0-1-0.2-1.8-0.5-2.4c-0.3-0.6-0.8-1-1.4-1.3c-0.6-0.3-1.4-0.5-2.2-0.6
			c-0.9-0.1-1.8-0.1-2.9-0.1H1102.8z"/>
		<path class="st0" d="M1132.2-176.4c0.9,0.5,2,0.9,3.3,1.3c1.3,0.4,2.7,0.8,4.1,1.2c1.4,0.3,2.8,0.6,4.1,0.8
			c1.3,0.2,2.5,0.3,3.4,0.3c1.6,0,2.7-0.1,3.4-0.4c0.7-0.3,1-0.7,1-1.3c0-0.4-0.1-0.7-0.4-1c-0.2-0.3-0.6-0.5-1.1-0.8
			c-0.5-0.2-1.1-0.5-1.8-0.7c-0.7-0.2-1.6-0.5-2.5-0.8c-2-0.7-3.9-1.5-5.6-2.3c-1.7-0.8-3.2-1.8-4.4-3c-1.3-1.1-2.2-2.4-3-3.9
			c-0.7-1.5-1.1-3.3-1.2-5.3c-0.2-4.9,1-8.8,3.8-11.6c2.8-2.8,7-4.2,12.7-4.2c3.2,0,6,0.3,8.4,1c2.4,0.6,4.6,1.4,6.6,2.3v13.1
			c-0.6-0.3-1.5-0.7-2.6-1c-1.1-0.4-2.3-0.7-3.6-1c-1.3-0.3-2.6-0.6-4-0.8c-1.3-0.2-2.5-0.3-3.6-0.3c-1.3,0-2.2,0.1-2.7,0.4
			c-0.4,0.3-0.7,0.6-0.7,1.1c0,0.5,0.3,1,0.8,1.3c0.6,0.3,1.3,0.7,2.2,1c0.7,0.2,1.4,0.5,2.2,0.8c0.8,0.3,1.7,0.6,2.6,0.9
			c2.3,0.9,4.3,1.8,5.8,2.7c1.5,0.9,2.8,2,3.7,3.1c0.9,1.1,1.6,2.4,2,3.8c0.4,1.4,0.7,3,0.7,4.8c0.1,2.3-0.2,4.3-0.8,6.3
			c-0.7,1.9-1.8,3.6-3.3,5c-1.5,1.4-3.4,2.5-5.8,3.3c-2.4,0.8-5.3,1.2-8.6,1.2c-1.3,0-2.7-0.1-4.1-0.3c-1.4-0.2-2.7-0.5-4.1-0.9
			c-1.3-0.4-2.6-0.8-3.8-1.2c-1.2-0.5-2.2-0.9-3.1-1.4L1132.2-176.4z"/>
		<path class="st0" d="M1203.4-177.3h-18.6v4.4h20.2v13h-34.4v-47.6h33.5v13h-19.3v4.3h18.6V-177.3z"/>
		<path class="st0" d="M807.3-113.7c0.9,0.5,2,0.9,3.3,1.3c1.3,0.4,2.7,0.8,4.1,1.2c1.4,0.3,2.8,0.6,4.1,0.8
			c1.3,0.2,2.5,0.3,3.4,0.3c1.6,0,2.7-0.1,3.4-0.4s1-0.7,1-1.3c0-0.4-0.1-0.7-0.4-1c-0.2-0.3-0.6-0.5-1.1-0.8
			c-0.5-0.2-1.1-0.5-1.8-0.7c-0.7-0.2-1.6-0.5-2.5-0.8c-2-0.7-3.9-1.5-5.6-2.3c-1.7-0.8-3.2-1.8-4.4-3c-1.3-1.1-2.2-2.4-3-3.9
			c-0.7-1.5-1.1-3.3-1.2-5.3c-0.2-4.9,1-8.8,3.8-11.6c2.8-2.8,7-4.2,12.7-4.2c3.2,0,6,0.3,8.4,1c2.4,0.6,4.6,1.4,6.6,2.3v13.1
			c-0.6-0.3-1.5-0.7-2.6-1c-1.1-0.4-2.3-0.7-3.6-1c-1.3-0.3-2.6-0.6-4-0.8c-1.3-0.2-2.5-0.3-3.6-0.3c-1.3,0-2.2,0.1-2.7,0.4
			c-0.4,0.3-0.7,0.6-0.7,1.1c0,0.5,0.3,1,0.8,1.3c0.6,0.3,1.3,0.7,2.2,1c0.7,0.2,1.4,0.5,2.2,0.8c0.8,0.3,1.7,0.6,2.6,0.9
			c2.3,0.9,4.3,1.8,5.8,2.7c1.5,0.9,2.8,2,3.7,3.1c0.9,1.1,1.6,2.4,2,3.8c0.4,1.4,0.7,3,0.7,4.8c0.1,2.3-0.2,4.3-0.8,6.3
			c-0.7,1.9-1.8,3.6-3.3,5c-1.5,1.4-3.4,2.5-5.8,3.3c-2.4,0.8-5.3,1.2-8.6,1.2c-1.3,0-2.7-0.1-4.1-0.3c-1.4-0.2-2.7-0.5-4.1-0.9
			c-1.3-0.4-2.6-0.8-3.8-1.2c-1.2-0.5-2.2-0.9-3.1-1.4L807.3-113.7z"/>
		<path class="st0" d="M856.1-131.7h-11.5v-13.1H882v13.1h-11.7v34.5h-14.2V-131.7z"/>
		<path class="st0" d="M906-96.5c-3.2,0-6-0.4-8.5-1.2c-2.5-0.8-4.5-2-6.2-3.6c-1.7-1.7-2.9-3.8-3.8-6.3c-0.9-2.6-1.3-5.7-1.3-9.3
			v-27.8h14.2v28c0,2.6,0.5,4.5,1.4,5.7c1,1.2,2.3,1.8,4,1.8c1.8,0,3.2-0.6,4.1-1.8c1-1.2,1.4-3.1,1.4-5.7v-28h14.2v27.8
			c0,3.6-0.4,6.7-1.3,9.3c-0.8,2.6-2.1,4.7-3.8,6.3c-1.7,1.7-3.7,2.9-6.1,3.6C912.1-96.9,909.3-96.5,906-96.5z"/>
		<path class="st0" d="M946-144.8c3.3,0,6.5,0.4,9.4,1.1c2.9,0.7,5.5,2,7.7,3.8c2.2,1.8,3.9,4.2,5.2,7.3c1.3,3.1,1.9,7,1.9,11.7
			c0,8.1-2,14.1-5.9,17.9c-3.9,3.9-9.9,5.8-17.8,5.8h-15.4v-47.6H946z M944.8-131.8v21.6h0.5c1.7,0,3.3-0.2,4.6-0.5
			c1.4-0.3,2.5-0.9,3.4-1.7c0.9-0.8,1.6-1.9,2.1-3.3c0.5-1.4,0.7-3.1,0.7-5.2c0-2.3-0.3-4.2-0.8-5.6c-0.5-1.4-1.3-2.5-2.3-3.3
			c-1-0.8-2.1-1.3-3.4-1.6c-1.3-0.3-2.7-0.4-4.2-0.4H944.8z"/>
		<path class="st0" d="M989.5-144.8v47.6h-14.2v-47.6H989.5z"/>
		<path class="st0" d="M1041-121c0,3.9-0.5,7.4-1.6,10.5c-1.1,3-2.7,5.6-4.7,7.7c-2,2.1-4.5,3.6-7.3,4.7c-2.8,1.1-6,1.6-9.5,1.6
			c-3.5,0-6.7-0.5-9.5-1.6c-2.8-1.1-5.3-2.6-7.3-4.7c-2-2.1-3.6-4.6-4.7-7.7c-1.1-3-1.6-6.5-1.6-10.5c0-3.9,0.5-7.4,1.6-10.5
			c1.1-3,2.7-5.6,4.7-7.7c2-2.1,4.5-3.6,7.3-4.7c2.8-1.1,6-1.6,9.5-1.6c3.5,0,6.7,0.5,9.5,1.6c2.8,1.1,5.3,2.6,7.3,4.7
			c2,2.1,3.6,4.6,4.7,7.7C1040.5-128.5,1041-125,1041-121z M1017.9-132.8c-2.7,0-4.8,0.9-6.3,2.8c-1.5,1.9-2.3,4.8-2.3,8.7
			c0,4,0.8,6.9,2.3,8.7c1.5,1.8,3.5,2.7,6.1,2.7c2.7,0,4.9-0.9,6.4-2.7c1.6-1.8,2.3-4.7,2.3-8.7c0-3.9-0.8-6.9-2.3-8.7
			C1022.7-131.9,1020.6-132.8,1017.9-132.8z"/>
	</g>
	<g>
		
			<linearGradient id="SVGID_00000094589253682562556480000002725681008275571092_" gradientUnits="userSpaceOnUse" x1="542.7832" y1="-152.3192" x2="699.4785" y2="-152.3192">
			<stop  offset="0" style="stop-color:#EC0AFA"/>
			<stop  offset="0.1686" style="stop-color:#C62DF7"/>
			<stop  offset="0.3886" style="stop-color:#9956F3"/>
			<stop  offset="0.5" style="stop-color:#8866F1"/>
			<stop  offset="0.5695" style="stop-color:#806DF0"/>
			<stop  offset="0.6795" style="stop-color:#6981ED"/>
			<stop  offset="0.8163" style="stop-color:#44A1E7"/>
			<stop  offset="0.9731" style="stop-color:#11CDE0"/>
			<stop  offset="1" style="stop-color:#07D5DF"/>
		</linearGradient>
		<circle style="fill:url(#SVGID_00000094589253682562556480000002725681008275571092_);" cx="621.1" cy="-152.3" r="78.3"/>
		
			<linearGradient id="SVGID_00000008847948596612486880000015988133526812176041_" gradientUnits="userSpaceOnUse" x1="699.4785" y1="-182.248" x2="796.3161" y2="-182.248">
			<stop  offset="0" style="stop-color:#07D5DF"/>
			<stop  offset="2.693525e-02" style="stop-color:#11CDE0"/>
			<stop  offset="0.1837" style="stop-color:#44A1E7"/>
			<stop  offset="0.3205" style="stop-color:#6981ED"/>
			<stop  offset="0.4305" style="stop-color:#806DF0"/>
			<stop  offset="0.5" style="stop-color:#8866F1"/>
			<stop  offset="0.6114" style="stop-color:#9956F3"/>
			<stop  offset="0.8314" style="stop-color:#C62DF7"/>
			<stop  offset="1" style="stop-color:#EC0AFA"/>
		</linearGradient>
		<circle style="fill:url(#SVGID_00000008847948596612486880000015988133526812176041_);" cx="747.9" cy="-182.2" r="48.4"/>
		
			<linearGradient id="SVGID_00000147940634039010151530000006459149681271733651_" gradientUnits="userSpaceOnUse" x1="738.5845" y1="-113.4269" x2="795.2256" y2="-94.019">
			<stop  offset="0" style="stop-color:#07D5DF"/>
			<stop  offset="2.693525e-02" style="stop-color:#11CDE0"/>
			<stop  offset="0.1837" style="stop-color:#44A1E7"/>
			<stop  offset="0.3205" style="stop-color:#6981ED"/>
			<stop  offset="0.4305" style="stop-color:#806DF0"/>
			<stop  offset="0.5" style="stop-color:#8866F1"/>
			<stop  offset="0.6114" style="stop-color:#9956F3"/>
			<stop  offset="0.8314" style="stop-color:#C62DF7"/>
			<stop  offset="1" style="stop-color:#EC0AFA"/>
		</linearGradient>
		<circle style="fill:url(#SVGID_00000147940634039010151530000006459149681271733651_);" cx="766.4" cy="-103.9" r="29.9"/>
		
			<linearGradient id="SVGID_00000123424730145941756470000013898539125845712563_" gradientUnits="userSpaceOnUse" x1="710.7812" y1="-109.5027" x2="725.1558" y2="-75.4204">
			<stop  offset="0" style="stop-color:#07D5DF"/>
			<stop  offset="2.693525e-02" style="stop-color:#11CDE0"/>
			<stop  offset="0.1837" style="stop-color:#44A1E7"/>
			<stop  offset="0.3205" style="stop-color:#6981ED"/>
			<stop  offset="0.4305" style="stop-color:#806DF0"/>
			<stop  offset="0.5" style="stop-color:#8866F1"/>
			<stop  offset="0.6114" style="stop-color:#9956F3"/>
			<stop  offset="0.8314" style="stop-color:#C62DF7"/>
			<stop  offset="1" style="stop-color:#EC0AFA"/>
		</linearGradient>
		<circle style="fill:url(#SVGID_00000123424730145941756470000013898539125845712563_);" cx="718" cy="-92.5" r="18.5"/>
		
			<linearGradient id="SVGID_00000029036358415124043110000017394494240084289712_" gradientUnits="userSpaceOnUse" x1="703.4478" y1="-131.0539" x2="718.3867" y2="-113.7268">
			<stop  offset="0" style="stop-color:#07D5DF"/>
			<stop  offset="2.693525e-02" style="stop-color:#11CDE0"/>
			<stop  offset="0.1837" style="stop-color:#44A1E7"/>
			<stop  offset="0.3205" style="stop-color:#6981ED"/>
			<stop  offset="0.4305" style="stop-color:#806DF0"/>
			<stop  offset="0.5" style="stop-color:#8866F1"/>
			<stop  offset="0.6114" style="stop-color:#9956F3"/>
			<stop  offset="0.8314" style="stop-color:#C62DF7"/>
			<stop  offset="1" style="stop-color:#EC0AFA"/>
		</linearGradient>
		<circle style="fill:url(#SVGID_00000029036358415124043110000017394494240084289712_);" cx="710.9" cy="-122.4" r="11.4"/>
		
			<linearGradient id="SVGID_00000019654429544484367400000000418929050583030671_" gradientUnits="userSpaceOnUse" x1="722.356" y1="-126.7779" x2="736.4585" y2="-126.7779">
			<stop  offset="0" style="stop-color:#07D5DF"/>
			<stop  offset="2.693525e-02" style="stop-color:#11CDE0"/>
			<stop  offset="0.1837" style="stop-color:#44A1E7"/>
			<stop  offset="0.3205" style="stop-color:#6981ED"/>
			<stop  offset="0.4305" style="stop-color:#806DF0"/>
			<stop  offset="0.5" style="stop-color:#8866F1"/>
			<stop  offset="0.6114" style="stop-color:#9956F3"/>
			<stop  offset="0.8314" style="stop-color:#C62DF7"/>
			<stop  offset="1" style="stop-color:#EC0AFA"/>
		</linearGradient>
		<circle style="fill:url(#SVGID_00000019654429544484367400000000418929050583030671_);" cx="729.4" cy="-126.8" r="7.1"/>
	</g>
</g>
<image style="overflow:visible;" width="1657" height="812" xlink:href="Screenshot 2022-06-01 004151.jpg"  transform="matrix(0.75 0 0 0.75 135.8849 342.1917)">
</image>
<circle class="st13" cx="699.7" cy="280.5" r="39.8"/>
<circle class="st14" cx="884.5" cy="281.3" r="39.8"/>
<image style="overflow:visible;" width="1618" height="730" xlink:href="Screenshot 2022-06-01 011536.jpg"  transform="matrix(0.75 0 0 0.75 132.7437 441.0519)">
</image>
<circle class="st15" cx="1026.5" cy="285.2" r="46.8"/>
<linearGradient id="SVGID_00000135659136010801472780000008451372337457678774_" gradientUnits="userSpaceOnUse" x1="180.6415" y1="679.4261" x2="271.2809" y2="679.4261">
	<stop  offset="0" style="stop-color:#EC0AFA"/>
	<stop  offset="0.1686" style="stop-color:#C62DF7"/>
	<stop  offset="0.3886" style="stop-color:#9956F3"/>
	<stop  offset="0.5" style="stop-color:#8866F1"/>
	<stop  offset="0.5695" style="stop-color:#806DF0"/>
	<stop  offset="0.6795" style="stop-color:#6981ED"/>
	<stop  offset="0.8163" style="stop-color:#44A1E7"/>
	<stop  offset="0.9731" style="stop-color:#11CDE0"/>
	<stop  offset="1" style="stop-color:#07D5DF"/>
</linearGradient>
<circle style="fill:url(#SVGID_00000135659136010801472780000008451372337457678774_);" cx="226" cy="679.4" r="45.3"/>
<g>
	<path class="st0" d="M202.5,664.4c0.8,0,1.5,0.1,2.1,0.2c0.7,0.1,1.2,0.4,1.7,0.8c0.5,0.4,0.9,0.8,1.2,1.5s0.4,1.4,0.4,2.3
		c0,1.6-0.4,2.8-1.3,3.6c-0.9,0.8-2.2,1.2-4.1,1.2h-1.1v3.6h-3.9v-13H202.5z M201.4,667.9v2.4h0.7c0.7,0,1.2-0.1,1.5-0.2
		c0.3-0.2,0.4-0.5,0.4-0.9c0-0.3,0-0.5-0.1-0.7c-0.1-0.2-0.2-0.3-0.4-0.4c-0.2-0.1-0.4-0.1-0.6-0.2c-0.2,0-0.5,0-0.8,0H201.4z"/>
	<path class="st0" d="M213.1,664.4v4.5h3.1v-4.5h3.9v13h-3.9v-4.9h-3.1v4.9h-3.9v-13H213.1z"/>
	<path class="st0" d="M229.4,664.4l4,13h-4.1l-0.4-1.7h-3.2l-0.4,1.7h-4.1l4-13H229.4z M226.5,672.4h1.4l-0.7-2.8L226.5,672.4z"/>
	<path class="st0" d="M234.4,672.9c0.2,0.1,0.5,0.2,0.9,0.4c0.4,0.1,0.7,0.2,1.1,0.3c0.4,0.1,0.8,0.2,1.1,0.2
		c0.4,0.1,0.7,0.1,0.9,0.1c0.4,0,0.7,0,0.9-0.1c0.2-0.1,0.3-0.2,0.3-0.4c0-0.1,0-0.2-0.1-0.3c-0.1-0.1-0.2-0.1-0.3-0.2
		c-0.1-0.1-0.3-0.1-0.5-0.2c-0.2-0.1-0.4-0.1-0.7-0.2c-0.6-0.2-1.1-0.4-1.5-0.6c-0.5-0.2-0.9-0.5-1.2-0.8c-0.3-0.3-0.6-0.7-0.8-1.1
		c-0.2-0.4-0.3-0.9-0.3-1.4c-0.1-1.3,0.3-2.4,1-3.2c0.8-0.8,1.9-1.2,3.5-1.2c0.9,0,1.6,0.1,2.3,0.3c0.7,0.2,1.3,0.4,1.8,0.6v3.6
		c-0.2-0.1-0.4-0.2-0.7-0.3c-0.3-0.1-0.6-0.2-1-0.3c-0.4-0.1-0.7-0.2-1.1-0.2c-0.4-0.1-0.7-0.1-1-0.1c-0.4,0-0.6,0-0.7,0.1
		c-0.1,0.1-0.2,0.2-0.2,0.3c0,0.1,0.1,0.3,0.2,0.4c0.2,0.1,0.4,0.2,0.6,0.3c0.2,0.1,0.4,0.1,0.6,0.2s0.5,0.2,0.7,0.3
		c0.6,0.2,1.2,0.5,1.6,0.7c0.4,0.3,0.8,0.5,1,0.9c0.3,0.3,0.4,0.7,0.6,1c0.1,0.4,0.2,0.8,0.2,1.3c0,0.6,0,1.2-0.2,1.7
		c-0.2,0.5-0.5,1-0.9,1.4c-0.4,0.4-0.9,0.7-1.6,0.9s-1.4,0.3-2.3,0.3c-0.4,0-0.7,0-1.1-0.1c-0.4-0.1-0.8-0.1-1.1-0.2
		c-0.4-0.1-0.7-0.2-1-0.3c-0.3-0.1-0.6-0.3-0.9-0.4L234.4,672.9z"/>
	<path class="st0" d="M253.9,672.7h-5.1v1.2h5.5v3.6h-9.4v-13h9.2v3.6h-5.3v1.2h5.1V672.7z"/>
	<path class="st0" d="M225,686.1l-2.7,0.8v-3.2l3.6-1.7h2.9v12.6H225V686.1z"/>
</g>
<linearGradient id="SVGID_00000150100190496079695980000009582158811905623688_" gradientUnits="userSpaceOnUse" x1="758.921" y1="679.5775" x2="849.5604" y2="679.5775">
	<stop  offset="0" style="stop-color:#EC0AFA"/>
	<stop  offset="0.1686" style="stop-color:#C62DF7"/>
	<stop  offset="0.3886" style="stop-color:#9956F3"/>
	<stop  offset="0.5" style="stop-color:#8866F1"/>
	<stop  offset="0.5695" style="stop-color:#806DF0"/>
	<stop  offset="0.6795" style="stop-color:#6981ED"/>
	<stop  offset="0.8163" style="stop-color:#44A1E7"/>
	<stop  offset="0.9731" style="stop-color:#11CDE0"/>
	<stop  offset="1" style="stop-color:#07D5DF"/>
</linearGradient>
<circle style="fill:url(#SVGID_00000150100190496079695980000009582158811905623688_);" cx="804.2" cy="679.6" r="45.3"/>
<text transform="matrix(1 0 0 1 688.3888 273.0683)"><tspan x="0" y="0" class="st0" style="font-family:'TTSupersizeBk'; font-size:24.5784px;">PHASE</tspan><tspan x="42" y="29.5" class="st0" style="font-family:'TTSupersizeBk'; font-size:24.5784px;">1</tspan></text>
<g>
	<path class="st0" d="M731.2,6.4c1.1,0,2.2,0.1,3.2,0.3c1,0.2,1.9,0.6,2.6,1.1c0.7,0.5,1.3,1.3,1.7,2.2c0.4,0.9,0.6,2.1,0.6,3.5
		c0,2.4-0.6,4.2-1.9,5.4s-3.3,1.7-6.1,1.7h-1.7v5.3h-5.8V6.4H731.2z M729.6,11.7v3.6h1c1,0,1.8-0.1,2.2-0.3c0.4-0.2,0.7-0.7,0.7-1.4
		c0-0.4-0.1-0.7-0.2-1c-0.1-0.2-0.3-0.4-0.6-0.5s-0.6-0.2-0.9-0.2c-0.4,0-0.7,0-1.2,0H729.6z"/>
	<path class="st0" d="M747.2,6.4v6.7h4.7V6.4h5.8v19.6h-5.8v-7.3h-4.7v7.3h-5.8V6.4H747.2z"/>
	<path class="st0" d="M771.5,6.4l6,19.6h-6.1l-0.7-2.5h-4.8l-0.6,2.5h-6.1l6-19.6H771.5z M767.2,18.4h2.2l-1.1-4.2L767.2,18.4z"/>
	<path class="st0" d="M779.1,19.2c0.4,0.2,0.8,0.4,1.4,0.6c0.5,0.2,1.1,0.3,1.7,0.5c0.6,0.1,1.1,0.2,1.7,0.3c0.6,0.1,1,0.1,1.4,0.1
		c0.6,0,1.1-0.1,1.4-0.2c0.3-0.1,0.4-0.3,0.4-0.6c0-0.2-0.1-0.3-0.2-0.4c-0.1-0.1-0.3-0.2-0.5-0.3c-0.2-0.1-0.5-0.2-0.8-0.3
		c-0.3-0.1-0.7-0.2-1-0.3c-0.8-0.3-1.6-0.6-2.3-1s-1.3-0.8-1.8-1.2c-0.5-0.5-0.9-1-1.2-1.6c-0.3-0.6-0.5-1.3-0.5-2.2
		c-0.1-2,0.4-3.6,1.6-4.8c1.1-1.2,2.9-1.7,5.2-1.7c1.3,0,2.4,0.1,3.4,0.4c1,0.3,1.9,0.6,2.7,1v5.4c-0.3-0.1-0.6-0.3-1.1-0.4
		c-0.5-0.1-1-0.3-1.5-0.4c-0.5-0.1-1.1-0.2-1.6-0.3c-0.5-0.1-1-0.1-1.5-0.1c-0.6,0-0.9,0.1-1.1,0.2c-0.2,0.1-0.3,0.3-0.3,0.4
		c0,0.2,0.1,0.4,0.3,0.5c0.2,0.1,0.5,0.3,0.9,0.4c0.3,0.1,0.6,0.2,0.9,0.3c0.3,0.1,0.7,0.2,1.1,0.4c1,0.4,1.7,0.7,2.4,1.1
		c0.6,0.4,1.1,0.8,1.5,1.3c0.4,0.5,0.7,1,0.8,1.6c0.2,0.6,0.3,1.2,0.3,2c0,0.9-0.1,1.8-0.3,2.6c-0.3,0.8-0.7,1.5-1.3,2
		c-0.6,0.6-1.4,1-2.4,1.3c-1,0.3-2.2,0.5-3.5,0.5c-0.6,0-1.1,0-1.7-0.1s-1.1-0.2-1.7-0.4c-0.5-0.2-1.1-0.3-1.6-0.5
		c-0.5-0.2-0.9-0.4-1.3-0.6L779.1,19.2z"/>
	<path class="st0" d="M808.3,18.8h-7.6v1.8h8.3v5.3h-14.1V6.4h13.8v5.3h-7.9v1.8h7.6V18.8z"/>
	<path class="st0" d="M764.9,38.9l-4,1.2v-4.8l5.5-2.5h4.4v18.9h-5.8V38.9z"/>
</g>
<g>
	<path class="st0" d="M776.4,665.1c0.9,0,1.7,0.1,2.5,0.3c0.8,0.2,1.4,0.5,2,0.9c0.6,0.4,1,1,1.3,1.7c0.3,0.7,0.5,1.6,0.5,2.7
		c0,1.9-0.5,3.2-1.5,4.1c-1,0.9-2.5,1.3-4.7,1.3h-1.3v4.1h-4.5v-15H776.4z M775.2,669.2v2.7h0.8c0.8,0,1.4-0.1,1.7-0.3
		c0.3-0.2,0.5-0.5,0.5-1.1c0-0.3-0.1-0.6-0.2-0.8c-0.1-0.2-0.3-0.3-0.5-0.4c-0.2-0.1-0.4-0.2-0.7-0.2c-0.3,0-0.6,0-0.9,0H775.2z"/>
	<path class="st0" d="M788.6,665.1v5.2h3.6v-5.2h4.5v15h-4.5v-5.6h-3.6v5.6h-4.5v-15H788.6z"/>
	<path class="st0" d="M807.3,665.1l4.6,15h-4.7l-0.5-1.9h-3.7l-0.5,1.9h-4.7l4.6-15H807.3z M804.1,674.4h1.7l-0.8-3.2L804.1,674.4z"
		/>
	<path class="st0" d="M813.2,675c0.3,0.1,0.6,0.3,1,0.4c0.4,0.1,0.8,0.3,1.3,0.4c0.4,0.1,0.9,0.2,1.3,0.3c0.4,0.1,0.8,0.1,1.1,0.1
		c0.5,0,0.8,0,1.1-0.1c0.2-0.1,0.3-0.2,0.3-0.4c0-0.1,0-0.2-0.1-0.3c-0.1-0.1-0.2-0.2-0.4-0.2c-0.2-0.1-0.4-0.1-0.6-0.2
		c-0.2-0.1-0.5-0.2-0.8-0.3c-0.6-0.2-1.2-0.5-1.8-0.7c-0.5-0.3-1-0.6-1.4-0.9c-0.4-0.4-0.7-0.8-0.9-1.2c-0.2-0.5-0.4-1-0.4-1.7
		c-0.1-1.5,0.3-2.8,1.2-3.7c0.9-0.9,2.2-1.3,4-1.3c1,0,1.9,0.1,2.6,0.3c0.8,0.2,1.5,0.4,2.1,0.7v4.1c-0.2-0.1-0.5-0.2-0.8-0.3
		c-0.4-0.1-0.7-0.2-1.2-0.3c-0.4-0.1-0.8-0.2-1.3-0.3c-0.4-0.1-0.8-0.1-1.1-0.1c-0.4,0-0.7,0-0.8,0.1c-0.1,0.1-0.2,0.2-0.2,0.3
		c0,0.2,0.1,0.3,0.3,0.4c0.2,0.1,0.4,0.2,0.7,0.3c0.2,0.1,0.4,0.2,0.7,0.2c0.3,0.1,0.5,0.2,0.8,0.3c0.7,0.3,1.3,0.6,1.8,0.9
		c0.5,0.3,0.9,0.6,1.2,1c0.3,0.4,0.5,0.8,0.6,1.2c0.1,0.4,0.2,0.9,0.2,1.5c0,0.7-0.1,1.4-0.3,2c-0.2,0.6-0.6,1.1-1,1.6
		c-0.5,0.4-1.1,0.8-1.8,1c-0.8,0.3-1.7,0.4-2.7,0.4c-0.4,0-0.9,0-1.3-0.1c-0.4-0.1-0.9-0.2-1.3-0.3c-0.4-0.1-0.8-0.2-1.2-0.4
		s-0.7-0.3-1-0.5L813.2,675z"/>
	<path class="st0" d="M835.7,674.7h-5.9v1.4h6.4v4.1h-10.9v-15h10.6v4.1h-6.1v1.4h5.9V674.7z"/>
	<path class="st0" d="M797.9,695.7c0.3,0.1,0.7,0.2,1,0.2c0.4,0.1,0.7,0.1,1.1,0.1c0.4,0,0.8,0.1,1.1,0.1c0.4,0,0.7,0,1,0
		c0.6,0,1.1-0.1,1.4-0.2c0.3-0.1,0.4-0.3,0.4-0.6c0-0.2-0.1-0.4-0.2-0.5c-0.1-0.1-0.2-0.2-0.4-0.2c-0.2-0.1-0.4-0.1-0.6-0.1
		c-0.2,0-0.5,0-0.7,0h-2.1v-3.8h2.1c0.6,0,1-0.1,1.2-0.3c0.2-0.2,0.4-0.4,0.4-0.6c0-0.5-0.4-0.8-1.2-0.8c-0.2,0-0.5,0-0.8,0
		c-0.3,0-0.7,0.1-1,0.1c-0.4,0.1-0.8,0.1-1.2,0.2c-0.4,0.1-0.8,0.2-1.2,0.3v-3.7c0.6-0.3,1.3-0.5,2.1-0.7c0.8-0.2,1.7-0.3,2.7-0.3
		c0.9,0,1.6,0.1,2.3,0.3c0.6,0.2,1.2,0.5,1.6,0.8c0.4,0.3,0.8,0.8,1,1.2c0.2,0.5,0.3,1,0.3,1.5c0,0.6-0.1,1.2-0.3,1.7
		c-0.2,0.5-0.6,1-1.2,1.4c0.6,0.3,1.1,0.8,1.5,1.3c0.4,0.6,0.6,1.3,0.6,2.1c0,0.7-0.1,1.3-0.4,1.9c-0.3,0.6-0.7,1-1.2,1.4
		c-0.5,0.4-1.2,0.7-1.9,0.9c-0.8,0.2-1.6,0.3-2.5,0.3c-0.5,0-0.9,0-1.4,0c-0.4,0-0.9-0.1-1.3-0.1c-0.4-0.1-0.8-0.1-1.1-0.2
		c-0.4-0.1-0.7-0.2-1-0.4V695.7z"/>
</g>
<g>
	<path class="st0" d="M823.5,29.2c1.1,0,2.2,0.1,3.2,0.3c1,0.2,1.9,0.6,2.6,1.1c0.7,0.5,1.3,1.3,1.7,2.2s0.6,2.1,0.6,3.5
		c0,2.4-0.6,4.2-1.9,5.4s-3.3,1.7-6.1,1.7h-1.7v5.3h-5.8V29.2H823.5z M821.9,34.5V38h1c1,0,1.8-0.1,2.2-0.3c0.4-0.2,0.7-0.7,0.7-1.4
		c0-0.4-0.1-0.7-0.2-1c-0.1-0.2-0.3-0.4-0.6-0.5s-0.6-0.2-0.9-0.2c-0.4,0-0.8,0-1.2,0H821.9z"/>
	<path class="st0" d="M839.5,29.2v6.7h4.7v-6.7h5.8v19.6h-5.8v-7.3h-4.7v7.3h-5.8V29.2H839.5z"/>
	<path class="st0" d="M863.8,29.2l6,19.6h-6.1l-0.7-2.5h-4.8l-0.6,2.5h-6.1l6-19.6H863.8z M859.5,41.2h2.2l-1.1-4.2L859.5,41.2z"/>
	<path class="st0" d="M871.4,42c0.4,0.2,0.8,0.4,1.4,0.6c0.5,0.2,1.1,0.3,1.7,0.5s1.1,0.2,1.7,0.3s1,0.1,1.4,0.1
		c0.6,0,1.1-0.1,1.4-0.2c0.3-0.1,0.4-0.3,0.4-0.6c0-0.2-0.1-0.3-0.2-0.4c-0.1-0.1-0.3-0.2-0.5-0.3s-0.5-0.2-0.8-0.3
		c-0.3-0.1-0.7-0.2-1-0.3c-0.8-0.3-1.6-0.6-2.3-1s-1.3-0.8-1.8-1.2c-0.5-0.5-0.9-1-1.2-1.6c-0.3-0.6-0.5-1.3-0.5-2.2
		c-0.1-2,0.4-3.6,1.6-4.8c1.1-1.2,2.9-1.7,5.2-1.7c1.3,0,2.4,0.1,3.4,0.4c1,0.3,1.9,0.6,2.7,1v5.4c-0.3-0.1-0.6-0.3-1.1-0.4
		c-0.5-0.1-1-0.3-1.5-0.4c-0.5-0.1-1.1-0.2-1.6-0.3c-0.5-0.1-1-0.1-1.5-0.1c-0.6,0-0.9,0.1-1.1,0.2c-0.2,0.1-0.3,0.3-0.3,0.4
		c0,0.2,0.1,0.4,0.3,0.5s0.5,0.3,0.9,0.4c0.3,0.1,0.6,0.2,0.9,0.3c0.3,0.1,0.7,0.2,1.1,0.4c1,0.4,1.7,0.7,2.4,1.1
		c0.6,0.4,1.1,0.8,1.5,1.3c0.4,0.5,0.7,1,0.8,1.6c0.2,0.6,0.3,1.2,0.3,2c0,0.9-0.1,1.8-0.3,2.6c-0.3,0.8-0.7,1.5-1.3,2
		c-0.6,0.6-1.4,1-2.4,1.3c-1,0.3-2.2,0.5-3.5,0.5c-0.5,0-1.1,0-1.7-0.1s-1.1-0.2-1.7-0.4c-0.5-0.2-1.1-0.3-1.6-0.5
		c-0.5-0.2-0.9-0.4-1.3-0.6L871.4,42z"/>
	<path class="st0" d="M900.6,41.6H893v1.8h8.3v5.3h-14.1V29.2h13.8v5.3H893v1.8h7.6V41.6z"/>
	<path class="st0" d="M851.6,74.5v-3.9l2.5-2.2c0.9-0.8,1.6-1.5,2.3-2.1c0.7-0.6,1.2-1.2,1.6-1.7c0.4-0.5,0.8-1,1-1.4
		c0.2-0.4,0.3-0.8,0.3-1.2c0-0.4-0.1-0.7-0.4-1c-0.3-0.3-0.8-0.4-1.4-0.4c-0.6,0-1.1,0.1-1.7,0.2c-0.6,0.2-1.1,0.4-1.6,0.6
		c-0.5,0.2-1,0.5-1.4,0.8c-0.4,0.3-0.8,0.5-1.1,0.7v-5.6c0.9-0.7,1.9-1.2,3-1.5c1.1-0.3,2.3-0.5,3.5-0.5c1.1,0,2.1,0.2,3,0.5
		c0.9,0.3,1.6,0.8,2.2,1.3s1,1.2,1.3,2s0.4,1.6,0.4,2.5c0,0.8-0.1,1.5-0.3,2.2c-0.2,0.7-0.5,1.3-0.9,2c-0.4,0.6-0.9,1.2-1.4,1.8
		c-0.5,0.6-1.1,1.1-1.7,1.7h4.6v5.3H851.6z"/>
</g>
<linearGradient id="SVGID_00000143612901616734659000000011347811174913037732_" gradientUnits="userSpaceOnUse" x1="437.6888" y1="609.9847" x2="591.3932" y2="609.9847">
	<stop  offset="0" style="stop-color:#EC0AFA"/>
	<stop  offset="0.1686" style="stop-color:#C62DF7"/>
	<stop  offset="0.3886" style="stop-color:#9956F3"/>
	<stop  offset="0.5" style="stop-color:#8866F1"/>
	<stop  offset="0.5695" style="stop-color:#806DF0"/>
	<stop  offset="0.6795" style="stop-color:#6981ED"/>
	<stop  offset="0.8163" style="stop-color:#44A1E7"/>
	<stop  offset="0.9731" style="stop-color:#11CDE0"/>
	<stop  offset="1" style="stop-color:#07D5DF"/>
</linearGradient>
<circle style="fill:url(#SVGID_00000143612901616734659000000011347811174913037732_);" cx="514.5" cy="610" r="76.9"/>
<g>
	<path class="st0" d="M474.7,584.5c1.3,0,2.5,0.1,3.6,0.4c1.1,0.2,2.1,0.7,2.9,1.3s1.5,1.4,2,2.5c0.5,1,0.7,2.4,0.7,3.9
		c0,2.7-0.7,4.8-2.2,6.1c-1.4,1.3-3.7,2-6.9,2H473v6h-6.6v-22.1H474.7z M473,590.5v4h1.2c1.2,0,2-0.1,2.5-0.4s0.8-0.8,0.8-1.6
		c0-0.5-0.1-0.8-0.2-1.1c-0.2-0.3-0.4-0.5-0.7-0.6c-0.3-0.1-0.6-0.2-1-0.3c-0.4,0-0.8,0-1.3,0H473z"/>
	<path class="st0" d="M492.8,584.5v7.6h5.3v-7.6h6.6v22.1h-6.6v-8.3h-5.3v8.3h-6.6v-22.1H492.8z"/>
	<path class="st0" d="M520.3,584.5l6.8,22.1h-6.9l-0.7-2.9H514l-0.7,2.9h-6.9l6.8-22.1H520.3z M515.5,598.1h2.5l-1.2-4.8
		L515.5,598.1z"/>
	<path class="st0" d="M528.9,599c0.4,0.2,0.9,0.4,1.5,0.6s1.2,0.4,1.9,0.5c0.6,0.2,1.3,0.3,1.9,0.4c0.6,0.1,1.2,0.1,1.6,0.1
		c0.7,0,1.2-0.1,1.6-0.2s0.5-0.3,0.5-0.6c0-0.2-0.1-0.3-0.2-0.5c-0.1-0.1-0.3-0.2-0.5-0.4s-0.5-0.2-0.9-0.3
		c-0.3-0.1-0.7-0.2-1.2-0.4c-1-0.3-1.8-0.7-2.6-1.1c-0.8-0.4-1.5-0.9-2.1-1.4c-0.6-0.5-1-1.1-1.4-1.8c-0.3-0.7-0.5-1.5-0.6-2.4
		c-0.1-2.3,0.5-4.1,1.8-5.4c1.3-1.3,3.3-2,5.9-2c1.5,0,2.8,0.1,3.9,0.4s2.1,0.7,3.1,1.1v6.1c-0.3-0.1-0.7-0.3-1.2-0.5
		c-0.5-0.2-1.1-0.3-1.7-0.5c-0.6-0.1-1.2-0.3-1.8-0.4s-1.2-0.1-1.7-0.1c-0.6,0-1,0.1-1.2,0.2s-0.3,0.3-0.3,0.5
		c0,0.2,0.1,0.4,0.4,0.6c0.3,0.2,0.6,0.3,1,0.5c0.3,0.1,0.7,0.2,1,0.4s0.8,0.3,1.2,0.4c1.1,0.4,2,0.8,2.7,1.3
		c0.7,0.4,1.3,0.9,1.7,1.5c0.4,0.5,0.7,1.1,0.9,1.8s0.3,1.4,0.3,2.2c0,1-0.1,2-0.4,2.9c-0.3,0.9-0.8,1.7-1.5,2.3
		c-0.7,0.6-1.6,1.2-2.7,1.5c-1.1,0.4-2.4,0.6-4,0.6c-0.6,0-1.3,0-1.9-0.1c-0.6-0.1-1.3-0.2-1.9-0.4s-1.2-0.4-1.8-0.6
		c-0.6-0.2-1-0.4-1.5-0.7L528.9,599z"/>
	<path class="st0" d="M562,598.5h-8.7v2.1h9.4v6h-16v-22.1h15.6v6h-9v2h8.7V598.5z"/>
	<path class="st0" d="M506.5,635.8v-4.4l2.8-2.5c1-0.9,1.8-1.7,2.6-2.4c0.7-0.7,1.4-1.3,1.9-1.9c0.5-0.6,0.9-1.1,1.1-1.6
		c0.2-0.5,0.4-0.9,0.4-1.4c0-0.5-0.2-0.8-0.5-1.2s-0.8-0.5-1.6-0.5c-0.6,0-1.2,0.1-1.9,0.3c-0.6,0.2-1.2,0.4-1.8,0.7
		s-1.1,0.5-1.6,0.8c-0.5,0.3-0.9,0.6-1.2,0.8v-6.3c1-0.8,2.1-1.3,3.4-1.7c1.3-0.4,2.6-0.6,3.9-0.6c1.3,0,2.4,0.2,3.3,0.5
		c1,0.4,1.8,0.9,2.4,1.5c0.7,0.6,1.2,1.4,1.5,2.2c0.3,0.9,0.5,1.8,0.5,2.9c0,0.9-0.1,1.7-0.4,2.5c-0.3,0.8-0.6,1.5-1,2.2
		c-0.4,0.7-1,1.4-1.6,2c-0.6,0.7-1.2,1.3-1.9,1.9h5.3v6H506.5z"/>
</g>
<linearGradient id="SVGID_00000114794032049606783760000003352297137176895146_" gradientUnits="userSpaceOnUse" x1="989.8088" y1="42.2404" x2="1143.5132" y2="42.2404">
	<stop  offset="0" style="stop-color:#EC0AFA"/>
	<stop  offset="0.1686" style="stop-color:#C62DF7"/>
	<stop  offset="0.3886" style="stop-color:#9956F3"/>
	<stop  offset="0.5" style="stop-color:#8866F1"/>
	<stop  offset="0.5695" style="stop-color:#806DF0"/>
	<stop  offset="0.6795" style="stop-color:#6981ED"/>
	<stop  offset="0.8163" style="stop-color:#44A1E7"/>
	<stop  offset="0.9731" style="stop-color:#11CDE0"/>
	<stop  offset="1" style="stop-color:#07D5DF"/>
</linearGradient>
<circle style="fill:url(#SVGID_00000114794032049606783760000003352297137176895146_);" cx="1066.7" cy="42.2" r="76.9"/>
<g>
	<path class="st0" d="M1031.5,19.6c1.1,0,2.2,0.1,3.2,0.3c1,0.2,1.9,0.6,2.6,1.1s1.3,1.3,1.7,2.2s0.6,2.1,0.6,3.5
		c0,2.4-0.6,4.2-1.9,5.4s-3.3,1.7-6.1,1.7h-1.7v5.3h-5.8V19.6H1031.5z M1029.9,24.9v3.6h1c1,0,1.8-0.1,2.2-0.3
		c0.4-0.2,0.7-0.7,0.7-1.4c0-0.4-0.1-0.8-0.2-1c-0.1-0.2-0.3-0.4-0.6-0.5s-0.6-0.2-0.9-0.2c-0.4,0-0.8,0-1.2,0H1029.9z"/>
	<path class="st0" d="M1047.4,19.6v6.7h4.7v-6.7h5.8v19.6h-5.8v-7.3h-4.7v7.3h-5.8V19.6H1047.4z"/>
	<path class="st0" d="M1071.7,19.6l6,19.6h-6.1l-0.7-2.5h-4.8l-0.6,2.5h-6.1l6-19.6H1071.7z M1067.5,31.5h2.2l-1.1-4.2L1067.5,31.5z
		"/>
	<path class="st0" d="M1079.4,32.4c0.4,0.2,0.8,0.4,1.4,0.6c0.5,0.2,1.1,0.3,1.7,0.5s1.1,0.2,1.7,0.3s1,0.1,1.4,0.1
		c0.6,0,1.1-0.1,1.4-0.2c0.3-0.1,0.4-0.3,0.4-0.6c0-0.2-0.1-0.3-0.2-0.4c-0.1-0.1-0.3-0.2-0.5-0.3c-0.2-0.1-0.5-0.2-0.8-0.3
		c-0.3-0.1-0.7-0.2-1-0.3c-0.8-0.3-1.6-0.6-2.3-1s-1.3-0.8-1.8-1.2c-0.5-0.5-0.9-1-1.2-1.6c-0.3-0.6-0.5-1.3-0.5-2.2
		c-0.1-2,0.4-3.6,1.6-4.8c1.1-1.2,2.9-1.7,5.2-1.7c1.3,0,2.4,0.1,3.4,0.4c1,0.3,1.9,0.6,2.7,1v5.4c-0.3-0.1-0.6-0.3-1.1-0.4
		c-0.5-0.1-1-0.3-1.5-0.4c-0.5-0.1-1.1-0.2-1.6-0.3c-0.5-0.1-1-0.1-1.5-0.1c-0.6,0-0.9,0.1-1.1,0.2c-0.2,0.1-0.3,0.3-0.3,0.4
		c0,0.2,0.1,0.4,0.3,0.5c0.2,0.1,0.5,0.3,0.9,0.4c0.3,0.1,0.6,0.2,0.9,0.3c0.3,0.1,0.7,0.2,1.1,0.4c1,0.4,1.7,0.7,2.4,1.1
		c0.6,0.4,1.1,0.8,1.5,1.3s0.7,1,0.8,1.6s0.3,1.2,0.3,2c0,0.9-0.1,1.8-0.3,2.6s-0.7,1.5-1.3,2c-0.6,0.6-1.4,1-2.4,1.3
		s-2.2,0.5-3.5,0.5c-0.5,0-1.1,0-1.7-0.1s-1.1-0.2-1.7-0.4c-0.5-0.2-1.1-0.3-1.6-0.5c-0.5-0.2-0.9-0.4-1.3-0.6L1079.4,32.4z"/>
	<path class="st0" d="M1108.6,32h-7.6v1.8h8.3v5.3h-14.1V19.6h13.8v5.3h-7.9v1.8h7.6V32z"/>
	<path class="st0" d="M1059.5,59.4c0.4,0.1,0.9,0.2,1.4,0.3s1,0.1,1.5,0.2c0.5,0.1,1,0.1,1.5,0.1s0.9,0,1.4,0c0.8,0,1.4-0.1,1.8-0.3
		c0.4-0.2,0.6-0.4,0.6-0.8c0-0.3-0.1-0.5-0.2-0.6c-0.1-0.1-0.3-0.2-0.6-0.3s-0.5-0.1-0.8-0.1c-0.3,0-0.6,0-0.9,0h-2.8V53h2.7
		c0.8,0,1.3-0.1,1.6-0.3s0.5-0.5,0.5-0.8c0-0.7-0.5-1-1.6-1c-0.3,0-0.7,0-1.1,0s-0.8,0.1-1.3,0.1c-0.5,0.1-1,0.2-1.5,0.3
		c-0.5,0.1-1,0.2-1.6,0.4v-4.8c0.8-0.4,1.6-0.7,2.7-0.9s2.2-0.3,3.5-0.3c1.1,0,2.1,0.1,2.9,0.4c0.8,0.3,1.5,0.6,2.1,1.1
		c0.6,0.4,1,1,1.3,1.6c0.3,0.6,0.4,1.3,0.4,2c0,0.8-0.1,1.5-0.4,2.2c-0.3,0.7-0.8,1.3-1.6,1.8c0.8,0.4,1.4,1,1.9,1.7
		c0.5,0.7,0.7,1.6,0.7,2.8c0,0.9-0.2,1.7-0.5,2.4c-0.4,0.7-0.9,1.4-1.6,1.9c-0.7,0.5-1.5,0.9-2.5,1.2s-2.1,0.4-3.3,0.4
		c-0.6,0-1.2,0-1.8,0c-0.6,0-1.1-0.1-1.7-0.2c-0.5-0.1-1-0.2-1.5-0.3c-0.5-0.1-0.9-0.3-1.2-0.5V59.4z"/>
</g>
</svg>
