<?xml version="1.0" encoding="utf-8"?>
<!-- Generator: Adobe Illustrator 26.3.1, SVG Export Plug-In . SVG Version: 6.00 Build 0)  -->
<svg version="1.1" id="Layer_1" xmlns="http://www.w3.org/2000/svg" xmlns:xlink="http://www.w3.org/1999/xlink" x="0px" y="0px"
	 viewBox="0 0 1017.2 1096.9" style="enable-background:new 0 0 1017.2 1096.9;" xml:space="preserve">
<style type="text/css">
	.st0{fill:#00042A;}
	.st1{fill:url(#SVGID_1_);}
	.st2{fill:#EC0AFA;}
	.st3{fill:#07D5DF;}
	.st4{fill:#8866F1;}
	.st5{fill:#FFFFFF;}
	.st6{fill:none;stroke:url(#SVGID_00000180363831132571921650000016982697814040834443_);stroke-width:3;stroke-miterlimit:10;}
	.st7{fill:none;stroke:url(#SVGID_00000100363625031684327010000018297025111301321132_);stroke-width:3;stroke-miterlimit:10;}
	.st8{fill:none;stroke:url(#SVGID_00000059278456253760869530000010872079651622413470_);stroke-width:3;stroke-miterlimit:10;}
	.st9{fill:none;stroke:url(#SVGID_00000153687619200235639170000018279913757931901607_);stroke-width:3;stroke-miterlimit:10;}
	.st10{fill:none;stroke:url(#SVGID_00000181055697856401365750000007420574528040036535_);stroke-width:3;stroke-miterlimit:10;}
	.st11{fill:none;stroke:url(#SVGID_00000145019670854889005240000012178012428569255849_);stroke-width:3;stroke-miterlimit:10;}
	.st12{fill:none;stroke:url(#SVGID_00000161610771811227903070000009909011266212551076_);stroke-width:3;stroke-miterlimit:10;}
	.st13{fill:none;stroke:url(#SVGID_00000109740753593639135400000010232691435292439433_);stroke-width:3;stroke-miterlimit:10;}
	.st14{fill:none;stroke:url(#SVGID_00000128482037094578192250000016433673292415253400_);stroke-width:3;stroke-miterlimit:10;}
	.st15{fill:none;stroke:url(#SVGID_00000085222446998983008730000012402373800712771464_);stroke-width:3;stroke-miterlimit:10;}
</style>
<rect x="201.2" y="1321.5" class="st0" width="1389.6" height="1558.2"/>
<linearGradient id="SVGID_1_" gradientUnits="userSpaceOnUse" x1="-884.5194" y1="193.7437" x2="-792.1194" y2="193.7437" gradientTransform="matrix(1 0 0 1 0 -77.75)">
	<stop  offset="0" style="stop-color:#EC0AFA"/>
	<stop  offset="0.1686" style="stop-color:#C62DF7"/>
	<stop  offset="0.3886" style="stop-color:#9956F3"/>
	<stop  offset="0.5" style="stop-color:#8866F1"/>
	<stop  offset="0.5695" style="stop-color:#806DF0"/>
	<stop  offset="0.6795" style="stop-color:#6981ED"/>
	<stop  offset="0.8163" style="stop-color:#44A1E7"/>
	<stop  offset="0.9731" style="stop-color:#11CDE0"/>
	<stop  offset="1" style="stop-color:#07D5DF"/>
</linearGradient>
<circle class="st1" cx="-832.2" cy="116" r="46.2"/>
<text transform="matrix(1 0 0 1 1707.5919 515.5062)"><tspan x="0" y="0" class="st3" style="font-family:'Roboto-Bold'; font-size:100px;">Revenue Model</tspan><tspan x="56.3" y="88" class="st2" style="font-family:'Roboto-Regular'; font-size:73.3652px;">Build Fee &amp; Equity</tspan></text>
<text transform="matrix(1 0 0 1 1529.2596 -148.2744)"><tspan x="0" y="0" class="st5" style="font-family:'Roboto-Bold'; font-size:59.8994px;">Multiverse  Studio </tspan><tspan x="135.9" y="71.9" class="st5" style="font-family:'Roboto-Bold'; font-size:59.8994px;">Revenue</tspan></text>
<text transform="matrix(1 0 0 1 1996.9674 246.3923)"><tspan x="0" y="0" class="st5" style="font-family:'Roboto-Regular'; font-size:34px;">In-House</tspan><tspan x="-80.9" y="40.8" class="st5" style="font-family:'Roboto-Regular'; font-size:34px;">Game Development</tspan></text>
<text transform="matrix(1 0 0 1 1871.8783 340.2812)" class="st5" style="font-family:'Roboto-Regular'; font-size:34px;">$MLTI Governance Token</text>
<circle class="st2" cx="-637" cy="-210.9" r="39.8"/>
<circle class="st3" cx="-637" cy="-122.4" r="39.8"/>
<ellipse class="st4" cx="-495.1" cy="-118.5" rx="46.8" ry="46.8"/>
<g>
	<g>
		<path class="st5" d="M280.6,105.4l10.9,30.9l10.9-30.9H314V148h-8.8v-11.6l0.9-20.1L294.6,148h-6l-11.5-31.7l0.9,20.1V148h-8.8
			v-42.6H280.6z"/>
		<path class="st5" d="M340,144.7c-2.1,2.5-5,3.8-8.7,3.8c-3.4,0-6-1-7.8-2.9c-1.8-1.9-2.7-4.8-2.7-8.6v-20.7h8.5v20.5
			c0,3.3,1.5,4.9,4.5,4.9c2.9,0,4.8-1,5.9-3v-22.4h8.5V148h-8L340,144.7z"/>
		<path class="st5" d="M363.5,148H355V103h8.5V148z"/>
		<path class="st5" d="M380.6,108.5v7.8h5.4v6.2h-5.4v15.8c0,1.2,0.2,2,0.7,2.5c0.4,0.5,1.3,0.8,2.6,0.8c0.9,0,1.8-0.1,2.5-0.2v6.4
			c-1.7,0.5-3.4,0.8-5.1,0.8c-5.9,0-9-3-9.1-9v-17.1h-4.6v-6.2h4.6v-7.8H380.6z"/>
		<path class="st5" d="M390.7,108.1c0-1.3,0.4-2.3,1.3-3.1c0.8-0.8,2-1.2,3.5-1.2c1.4,0,2.6,0.4,3.5,1.2c0.9,0.8,1.3,1.9,1.3,3.1
			c0,1.3-0.4,2.3-1.3,3.2c-0.9,0.8-2,1.2-3.4,1.2c-1.4,0-2.6-0.4-3.4-1.2S390.7,109.4,390.7,108.1z M399.6,148h-8.5v-31.6h8.5V148z"
			/>
		<path class="st5" d="M418.5,137.6l5.9-21.3h8.8L422.5,148h-8.1l-10.7-31.6h8.8L418.5,137.6z"/>
		<path class="st5" d="M451.1,148.5c-4.6,0-8.4-1.4-11.3-4.3c-2.9-2.8-4.4-6.6-4.4-11.4v-0.8c0-3.2,0.6-6,1.8-8.5
			c1.2-2.5,3-4.4,5.2-5.8c2.3-1.4,4.8-2,7.7-2c4.3,0,7.7,1.4,10.2,4.1c2.5,2.7,3.7,6.6,3.7,11.6v3.5h-20.2c0.3,2.1,1.1,3.7,2.5,5
			c1.4,1.2,3.1,1.9,5.2,1.9c3.3,0,5.8-1.2,7.6-3.5l4.2,4.7c-1.3,1.8-3,3.2-5.1,4.2S453.7,148.5,451.1,148.5z M450.1,122.5
			c-1.7,0-3,0.6-4.1,1.7c-1,1.1-1.7,2.8-2,4.9h11.8v-0.7c0-1.9-0.5-3.3-1.5-4.4C453.3,123.1,451.9,122.5,450.1,122.5z"/>
		<path class="st5" d="M486.7,124.2c-1.2-0.2-2.2-0.2-3-0.2c-3.2,0-5.3,1.1-6.3,3.2V148h-8.5v-31.6h8l0.2,3.8c1.7-2.9,4-4.4,7-4.4
			c0.9,0,1.8,0.1,2.6,0.4L486.7,124.2z"/>
		<path class="st5" d="M507.9,139.2c0-1-0.5-1.8-1.5-2.4c-1-0.6-2.7-1.1-4.9-1.6c-7.5-1.6-11.3-4.8-11.3-9.6c0-2.8,1.2-5.2,3.5-7
			c2.3-1.9,5.4-2.8,9.1-2.8c4,0,7.2,0.9,9.6,2.8c2.4,1.9,3.6,4.3,3.6,7.4h-8.5c0-1.2-0.4-2.2-1.2-3c-0.8-0.8-2-1.2-3.7-1.2
			c-1.4,0-2.5,0.3-3.3,1c-0.8,0.6-1.2,1.5-1.2,2.5c0,0.9,0.4,1.7,1.3,2.3c0.9,0.6,2.4,1.1,4.5,1.5c2.1,0.4,3.9,0.9,5.3,1.4
			c4.5,1.6,6.7,4.5,6.7,8.5c0,2.9-1.2,5.2-3.7,7s-5.7,2.7-9.6,2.7c-2.7,0-5-0.5-7.1-1.4c-2.1-0.9-3.7-2.2-4.8-3.9
			c-1.2-1.6-1.8-3.4-1.8-5.3h8c0.1,1.5,0.6,2.7,1.7,3.5c1,0.8,2.4,1.2,4.2,1.2c1.6,0,2.8-0.3,3.7-0.9S507.9,140.2,507.9,139.2z"/>
		<path class="st5" d="M536.1,148.5c-4.6,0-8.4-1.4-11.3-4.3c-2.9-2.8-4.4-6.6-4.4-11.4v-0.8c0-3.2,0.6-6,1.8-8.5
			c1.2-2.5,3-4.4,5.2-5.8c2.3-1.4,4.8-2,7.7-2c4.3,0,7.7,1.4,10.2,4.1c2.5,2.7,3.7,6.6,3.7,11.6v3.5H529c0.3,2.1,1.1,3.7,2.5,5
			c1.4,1.2,3.1,1.9,5.2,1.9c3.3,0,5.8-1.2,7.6-3.5l4.2,4.7c-1.3,1.8-3,3.2-5.1,4.2S538.7,148.5,536.1,148.5z M535.1,122.5
			c-1.7,0-3,0.6-4.1,1.7c-1,1.1-1.7,2.8-2,4.9h11.8v-0.7c0-1.9-0.5-3.3-1.5-4.4C538.3,123.1,536.9,122.5,535.1,122.5z"/>
		<path class="st5" d="M606.4,136.8c0-1.7-0.6-2.9-1.8-3.8s-3.3-1.8-6.3-2.8c-3-1-5.5-2-7.2-2.9c-4.8-2.6-7.3-6.1-7.3-10.6
			c0-2.3,0.6-4.4,1.9-6.2s3.2-3.2,5.6-4.2c2.4-1,5.2-1.5,8.2-1.5c3,0,5.8,0.6,8.1,1.7s4.2,2.7,5.5,4.7c1.3,2,2,4.3,2,6.8h-8.8
			c0-1.9-0.6-3.5-1.8-4.5s-3-1.6-5.2-1.6c-2.1,0-3.8,0.5-5,1.4s-1.8,2.1-1.8,3.6c0,1.4,0.7,2.5,2.1,3.5c1.4,0.9,3.4,1.8,6.2,2.6
			c5,1.5,8.6,3.4,10.9,5.6c2.3,2.2,3.4,5,3.4,8.3c0,3.7-1.4,6.6-4.2,8.7c-2.8,2.1-6.5,3.1-11.3,3.1c-3.3,0-6.3-0.6-9-1.8
			c-2.7-1.2-4.7-2.8-6.2-4.9c-1.4-2.1-2.1-4.5-2.1-7.3h8.8c0,4.7,2.8,7,8.4,7c2.1,0,3.7-0.4,4.9-1.3S606.4,138.3,606.4,136.8z"/>
		<path class="st5" d="M630.7,108.5v7.8h5.4v6.2h-5.4v15.8c0,1.2,0.2,2,0.7,2.5c0.4,0.5,1.3,0.8,2.6,0.8c0.9,0,1.8-0.1,2.5-0.2v6.4
			c-1.7,0.5-3.4,0.8-5.1,0.8c-5.9,0-9-3-9.1-9v-17.1h-4.6v-6.2h4.6v-7.8H630.7z"/>
		<path class="st5" d="M659.7,144.7c-2.1,2.5-5,3.8-8.7,3.8c-3.4,0-6-1-7.8-2.9c-1.8-1.9-2.7-4.8-2.7-8.6v-20.7h8.5v20.5
			c0,3.3,1.5,4.9,4.5,4.9c2.9,0,4.8-1,5.9-3v-22.4h8.5V148h-8L659.7,144.7z"/>
		<path class="st5" d="M673,131.9c0-4.9,1.1-8.9,3.3-11.8s5.2-4.4,9.1-4.4c3.1,0,5.6,1.2,7.6,3.5V103h8.5V148h-7.6l-0.4-3.4
			c-2.1,2.6-4.8,3.9-8.1,3.9c-3.7,0-6.7-1.5-9-4.4C674.1,141.2,673,137.1,673,131.9z M681.4,132.5c0,3,0.5,5.2,1.5,6.8
			c1,1.6,2.5,2.4,4.5,2.4c2.6,0,4.5-1.1,5.5-3.3v-12.5c-1.1-2.2-2.9-3.3-5.5-3.3C683.5,122.6,681.4,125.9,681.4,132.5z"/>
		<path class="st5" d="M708,108.1c0-1.3,0.4-2.3,1.3-3.1c0.8-0.8,2-1.2,3.5-1.2c1.4,0,2.6,0.4,3.5,1.2c0.9,0.8,1.3,1.9,1.3,3.1
			c0,1.3-0.4,2.3-1.3,3.2c-0.9,0.8-2,1.2-3.4,1.2c-1.4,0-2.6-0.4-3.4-1.2S708,109.4,708,108.1z M717,148h-8.5v-31.6h8.5V148z"/>
		<path class="st5" d="M722.6,131.8c0-3.1,0.6-5.9,1.8-8.4c1.2-2.5,2.9-4.4,5.2-5.7c2.3-1.3,4.9-2,7.9-2c4.3,0,7.8,1.3,10.5,3.9
			c2.7,2.6,4.2,6.2,4.5,10.6l0.1,2.2c0,4.9-1.4,8.8-4.1,11.7c-2.7,2.9-6.3,4.4-10.9,4.4s-8.2-1.5-10.9-4.4
			c-2.7-2.9-4.1-6.9-4.1-11.9V131.8z M731.1,132.4c0,3,0.6,5.3,1.7,6.9c1.1,1.6,2.8,2.4,4.9,2.4c2,0,3.6-0.8,4.8-2.4
			c1.2-1.6,1.7-4.1,1.7-7.5c0-2.9-0.6-5.2-1.7-6.9c-1.2-1.6-2.8-2.4-4.9-2.4c-2.1,0-3.7,0.8-4.8,2.4S731.1,129.1,731.1,132.4z"/>
		<path class="st5" d="M421,204.3h-7v15.6h-8.8v-42.6h15.8c5,0,8.9,1.1,11.6,3.4s4.1,5.4,4.1,9.5c0,2.9-0.6,5.3-1.9,7.3
			c-1.3,1.9-3.2,3.5-5.7,4.6l9.2,17.4v0.4H429L421,204.3z M414,197.1h7.1c2.2,0,3.9-0.6,5.1-1.7c1.2-1.1,1.8-2.7,1.8-4.6
			c0-2-0.6-3.6-1.7-4.7c-1.1-1.2-2.9-1.7-5.2-1.7h-7V197.1z"/>
		<path class="st5" d="M457.5,220.4c-4.6,0-8.4-1.4-11.3-4.3c-2.9-2.8-4.4-6.6-4.4-11.4V204c0-3.2,0.6-6,1.8-8.5
			c1.2-2.5,3-4.4,5.2-5.8c2.3-1.4,4.8-2,7.7-2c4.3,0,7.7,1.4,10.2,4.1c2.5,2.7,3.7,6.6,3.7,11.6v3.5h-20.2c0.3,2.1,1.1,3.7,2.5,5
			c1.4,1.2,3.1,1.9,5.2,1.9c3.3,0,5.8-1.2,7.6-3.5l4.2,4.7c-1.3,1.8-3,3.2-5.1,4.2C462.5,219.9,460.1,220.4,457.5,220.4z
			 M456.5,194.4c-1.7,0-3,0.6-4.1,1.7c-1,1.1-1.7,2.8-2,4.9h11.8v-0.7c0-1.9-0.5-3.3-1.5-4.4C459.7,194.9,458.3,194.4,456.5,194.4z"
			/>
		<path class="st5" d="M486.8,209.5l5.9-21.3h8.8l-10.7,31.6h-8.1l-10.7-31.6h8.8L486.8,209.5z"/>
		<path class="st5" d="M519.4,220.4c-4.6,0-8.4-1.4-11.3-4.3c-2.9-2.8-4.4-6.6-4.4-11.4V204c0-3.2,0.6-6,1.8-8.5
			c1.2-2.5,3-4.4,5.2-5.8c2.3-1.4,4.8-2,7.7-2c4.3,0,7.7,1.4,10.2,4.1c2.5,2.7,3.7,6.6,3.7,11.6v3.5h-20.2c0.3,2.1,1.1,3.7,2.5,5
			c1.4,1.2,3.1,1.9,5.2,1.9c3.3,0,5.8-1.2,7.6-3.5l4.2,4.7c-1.3,1.8-3,3.2-5.1,4.2C524.4,219.9,522,220.4,519.4,220.4z M518.4,194.4
			c-1.7,0-3,0.6-4.1,1.7c-1,1.1-1.7,2.8-2,4.9h11.8v-0.7c0-1.9-0.5-3.3-1.5-4.4C521.6,194.9,520.2,194.4,518.4,194.4z"/>
		<path class="st5" d="M545,188.2l0.3,3.7c2.3-2.8,5.3-4.2,9.1-4.2c3.4,0,5.8,1,7.5,3c1.6,2,2.5,4.9,2.5,8.8v20.4h-8.5v-20.2
			c0-1.8-0.4-3.1-1.2-3.9c-0.8-0.8-2.1-1.2-3.9-1.2c-2.4,0-4.2,1-5.4,3v22.3H537v-31.6H545z"/>
		<path class="st5" d="M589.7,216.6c-2.1,2.5-5,3.8-8.7,3.8c-3.4,0-6-1-7.8-2.9c-1.8-1.9-2.7-4.8-2.7-8.6v-20.7h8.5v20.5
			c0,3.3,1.5,4.9,4.5,4.9c2.9,0,4.8-1,5.9-3v-22.4h8.5v31.6h-8L589.7,216.6z"/>
		<path class="st5" d="M618.8,220.4c-4.6,0-8.4-1.4-11.3-4.3c-2.9-2.8-4.4-6.6-4.4-11.4V204c0-3.2,0.6-6,1.8-8.5
			c1.2-2.5,3-4.4,5.2-5.8c2.3-1.4,4.8-2,7.7-2c4.3,0,7.7,1.4,10.2,4.1c2.5,2.7,3.7,6.6,3.7,11.6v3.5h-20.2c0.3,2.1,1.1,3.7,2.5,5
			c1.4,1.2,3.1,1.9,5.2,1.9c3.3,0,5.8-1.2,7.6-3.5l4.2,4.7c-1.3,1.8-3,3.2-5.1,4.2C623.9,219.9,621.5,220.4,618.8,220.4z
			 M617.9,194.4c-1.7,0-3,0.6-4.1,1.7c-1,1.1-1.7,2.8-2,4.9h11.8v-0.7c0-1.9-0.5-3.3-1.5-4.4C621,194.9,619.7,194.4,617.9,194.4z"/>
	</g>
	<g>
		<path class="st5" d="M162.2,568.3c-0.3,2.6-1.2,4.5-2.8,5.9c-1.6,1.4-3.7,2.1-6.3,2.1c-2.9,0-5.1-1-6.9-3.1
			c-1.7-2-2.6-4.8-2.6-8.2v-2.3c0-2.2,0.4-4.2,1.2-5.9c0.8-1.7,1.9-3,3.4-3.9s3.2-1.4,5.1-1.4c2.6,0,4.6,0.7,6.2,2.1
			c1.5,1.4,2.5,3.4,2.7,6H159c-0.3-1.9-0.9-3.3-1.8-4.2c-0.9-0.9-2.2-1.3-3.9-1.3c-2,0-3.6,0.8-4.8,2.3c-1.2,1.5-1.7,3.6-1.7,6.4
			v2.3c0,2.6,0.5,4.7,1.6,6.3s2.6,2.3,4.6,2.3c1.8,0,3.1-0.4,4.1-1.2c0.9-0.8,1.6-2.2,1.9-4.2H162.2z"/>
		<path class="st5" d="M165.2,566.8c0-1.8,0.3-3.3,1-4.7c0.7-1.4,1.7-2.5,2.9-3.3c1.2-0.8,2.6-1.1,4.2-1.1c2.4,0,4.4,0.8,5.9,2.5
			c1.5,1.7,2.3,3.9,2.3,6.8v0.2c0,1.7-0.3,3.3-1,4.7c-0.7,1.4-1.6,2.5-2.9,3.2c-1.2,0.8-2.7,1.2-4.3,1.2c-2.4,0-4.4-0.8-5.9-2.5
			c-1.5-1.7-2.3-3.9-2.3-6.7V566.8z M168.3,567.2c0,2,0.5,3.6,1.4,4.8c0.9,1.2,2.2,1.8,3.7,1.8c1.6,0,2.8-0.6,3.7-1.8
			c0.9-1.2,1.4-2.9,1.4-5.1c0-2-0.5-3.6-1.4-4.8c-0.9-1.2-2.2-1.8-3.7-1.8c-1.5,0-2.7,0.6-3.7,1.8
			C168.8,563.2,168.3,564.9,168.3,567.2z"/>
		<path class="st5" d="M188.3,558l0.1,2.3c1.4-1.7,3.2-2.6,5.4-2.6c3.8,0,5.7,2.1,5.7,6.4V576h-3.1v-11.9c0-1.3-0.3-2.3-0.9-2.9
			c-0.6-0.6-1.5-0.9-2.7-0.9c-1,0-1.9,0.3-2.6,0.8s-1.3,1.2-1.8,2.1V576h-3.1v-18H188.3z"/>
		<path class="st5" d="M208.4,553.6v4.3h3.4v2.4h-3.4v11.2c0,0.7,0.1,1.3,0.4,1.6s0.8,0.5,1.5,0.5c0.4,0,0.8-0.1,1.5-0.2v2.5
			c-0.8,0.2-1.6,0.3-2.4,0.3c-1.4,0-2.4-0.4-3.1-1.2s-1-2-1-3.5v-11.1H202V558h3.3v-4.3H208.4z"/>
		<path class="st5" d="M224,560.8c-0.5-0.1-1-0.1-1.5-0.1c-2,0-3.4,0.9-4.1,2.6V576h-3.1v-18h3l0,2.1c1-1.6,2.4-2.4,4.3-2.4
			c0.6,0,1.1,0.1,1.4,0.2V560.8z"/>
		<path class="st5" d="M237.2,576c-0.2-0.4-0.3-1-0.4-1.9c-1.4,1.5-3.1,2.2-5.1,2.2c-1.8,0-3.2-0.5-4.4-1.5c-1.1-1-1.7-2.3-1.7-3.8
			c0-1.9,0.7-3.3,2.1-4.4c1.4-1,3.4-1.6,6-1.6h3v-1.4c0-1.1-0.3-1.9-1-2.6c-0.6-0.6-1.6-1-2.8-1c-1.1,0-2,0.3-2.8,0.8
			c-0.7,0.6-1.1,1.2-1.1,2H226c0-0.9,0.3-1.8,1-2.6c0.6-0.8,1.5-1.5,2.6-2c1.1-0.5,2.3-0.7,3.6-0.7c2.1,0,3.7,0.5,4.9,1.6
			c1.2,1,1.8,2.5,1.8,4.3v8.3c0,1.6,0.2,3,0.6,3.9v0.3H237.2z M232.1,573.6c1,0,1.9-0.2,2.7-0.7s1.5-1.1,1.9-1.9v-3.7h-2.4
			c-3.8,0-5.6,1.1-5.6,3.3c0,1,0.3,1.7,1,2.3C230.3,573.4,231.1,573.6,232.1,573.6z"/>
		<path class="st5" d="M251.8,573.8c1.1,0,2.1-0.3,2.9-1s1.3-1.5,1.4-2.5h2.9c-0.1,1-0.4,2-1.1,2.9s-1.5,1.7-2.6,2.2
			c-1.1,0.6-2.2,0.8-3.5,0.8c-2.4,0-4.4-0.8-5.8-2.4c-1.4-1.6-2.2-3.9-2.2-6.7v-0.5c0-1.7,0.3-3.3,1-4.7s1.6-2.4,2.8-3.2
			c1.2-0.8,2.6-1.1,4.3-1.1c2,0,3.7,0.6,5,1.8c1.3,1.2,2,2.8,2.1,4.7h-2.9c-0.1-1.2-0.5-2.1-1.3-2.9c-0.8-0.7-1.8-1.1-2.9-1.1
			c-1.6,0-2.8,0.6-3.6,1.7c-0.9,1.1-1.3,2.7-1.3,4.9v0.6c0,2.1,0.4,3.7,1.3,4.8C249,573.2,250.2,573.8,251.8,573.8z"/>
		<path class="st5" d="M266.6,553.6v4.3h3.4v2.4h-3.4v11.2c0,0.7,0.1,1.3,0.4,1.6s0.8,0.5,1.5,0.5c0.4,0,0.8-0.1,1.5-0.2v2.5
			c-0.8,0.2-1.6,0.3-2.4,0.3c-1.4,0-2.4-0.4-3.1-1.2s-1-2-1-3.5v-11.1h-3.3V558h3.3v-4.3H266.6z"/>
		<path class="st5" d="M281,576.3c-2.4,0-4.4-0.8-5.9-2.4c-1.5-1.6-2.3-3.7-2.3-6.4v-0.6c0-1.8,0.3-3.4,1-4.8
			c0.7-1.4,1.6-2.5,2.9-3.3c1.2-0.8,2.5-1.2,4-1.2c2.3,0,4.2,0.8,5.4,2.3c1.3,1.5,1.9,3.7,1.9,6.6v1.3h-12.2c0,1.8,0.6,3.2,1.6,4.3
			c1,1.1,2.2,1.6,3.8,1.6c1.1,0,2-0.2,2.8-0.7c0.8-0.4,1.4-1,2-1.8l1.9,1.5C286.3,575.1,284,576.3,281,576.3z M280.6,560.2
			c-1.2,0-2.3,0.5-3.1,1.4c-0.8,0.9-1.4,2.2-1.6,3.8h9v-0.2c-0.1-1.6-0.5-2.8-1.3-3.6C282.9,560.6,281.9,560.2,280.6,560.2z"/>
		<path class="st5" d="M290.8,566.8c0-2.8,0.7-5,2-6.6s3-2.5,5.1-2.5c2.1,0,3.8,0.7,5,2.2v-9.4h3.1V576h-2.8L303,574
			c-1.2,1.5-2.9,2.3-5.1,2.3c-2.1,0-3.8-0.9-5.1-2.6c-1.3-1.7-2-3.9-2-6.7V566.8z M293.9,567.2c0,2,0.4,3.6,1.3,4.8
			c0.8,1.2,2,1.7,3.5,1.7c1.9,0,3.4-0.9,4.3-2.6v-8.3c-0.9-1.7-2.3-2.5-4.2-2.5c-1.5,0-2.7,0.6-3.5,1.7S293.9,564.9,293.9,567.2z"/>
		<path class="st5" d="M97.3,613.6c-0.8,1.2-2,2.1-3.4,2.6c-1.5,0.6-3.2,0.9-5.1,0.9c-2,0-3.7-0.5-5.2-1.4c-1.5-0.9-2.7-2.2-3.5-3.9
			c-0.8-1.7-1.3-3.7-1.3-5.9v-2.1c0-3.6,0.8-6.5,2.5-8.5c1.7-2,4.1-3,7.2-3c2.5,0,4.6,0.6,6.1,1.9c1.5,1.3,2.5,3.1,2.8,5.5h-3.2
			c-0.6-3.2-2.5-4.8-5.7-4.8c-2.1,0-3.8,0.8-4.9,2.3c-1.1,1.5-1.7,3.7-1.7,6.5v2c0,2.7,0.6,4.9,1.9,6.5s2.9,2.4,5,2.4
			c1.2,0,2.2-0.1,3.1-0.4s1.6-0.7,2.2-1.3v-5.4h-5.6v-2.6h8.8V613.6z"/>
		<path class="st5" d="M113.2,616.8c-0.2-0.4-0.3-1-0.4-1.9c-1.4,1.5-3.1,2.2-5.1,2.2c-1.8,0-3.2-0.5-4.4-1.5
			c-1.1-1-1.7-2.3-1.7-3.8c0-1.9,0.7-3.3,2.1-4.4c1.4-1,3.4-1.6,6-1.6h3v-1.4c0-1.1-0.3-1.9-1-2.6c-0.6-0.6-1.6-1-2.8-1
			c-1.1,0-2,0.3-2.8,0.8c-0.7,0.6-1.1,1.2-1.1,2H102c0-0.9,0.3-1.8,1-2.6c0.6-0.8,1.5-1.5,2.6-2c1.1-0.5,2.3-0.7,3.6-0.7
			c2.1,0,3.7,0.5,4.9,1.6c1.2,1,1.8,2.5,1.8,4.3v8.3c0,1.6,0.2,3,0.6,3.9v0.3H113.2z M108.1,614.4c1,0,1.9-0.2,2.7-0.7
			s1.5-1.1,1.9-1.9V608h-2.4c-3.8,0-5.6,1.1-5.6,3.3c0,1,0.3,1.7,1,2.3C106.3,614.2,107.1,614.4,108.1,614.4z"/>
		<path class="st5" d="M123.5,598.8l0.1,2c1.3-1.5,3.1-2.3,5.3-2.3c2.5,0,4.2,1,5.1,2.9c0.6-0.9,1.4-1.6,2.3-2.1
			c1-0.5,2.1-0.8,3.4-0.8c3.9,0,5.9,2.1,6,6.3v12h-3.1v-11.9c0-1.3-0.3-2.2-0.9-2.9c-0.6-0.6-1.6-1-3-1c-1.1,0-2.1,0.3-2.8,1
			s-1.2,1.6-1.3,2.7v11.9h-3.1V605c0-2.6-1.3-3.9-3.8-3.9c-2,0-3.4,0.9-4.1,2.6v13.1h-3.1v-18H123.5z"/>
		<path class="st5" d="M157.9,617.1c-2.4,0-4.4-0.8-5.9-2.4c-1.5-1.6-2.3-3.7-2.3-6.4v-0.6c0-1.8,0.3-3.4,1-4.8
			c0.7-1.4,1.6-2.5,2.9-3.3c1.2-0.8,2.5-1.2,4-1.2c2.3,0,4.2,0.8,5.4,2.3c1.3,1.5,1.9,3.7,1.9,6.6v1.3h-12.2c0,1.8,0.6,3.2,1.6,4.3
			c1,1.1,2.2,1.6,3.8,1.6c1.1,0,2-0.2,2.8-0.7c0.8-0.4,1.4-1,2-1.8l1.9,1.5C163.2,615.9,160.9,617.1,157.9,617.1z M157.5,601
			c-1.2,0-2.3,0.5-3.1,1.4c-0.8,0.9-1.4,2.2-1.6,3.8h9v-0.2c-0.1-1.6-0.5-2.8-1.3-3.6C159.8,601.4,158.8,601,157.5,601z"/>
		<path class="st5" d="M177.4,616.8v-24.2h6.8c2.1,0,4,0.5,5.6,1.4s2.9,2.3,3.7,4c0.9,1.7,1.3,3.7,1.3,5.9v1.5c0,2.3-0.4,4.3-1.3,6
			c-0.9,1.7-2.1,3-3.8,4c-1.6,0.9-3.5,1.4-5.7,1.4H177.4z M180.5,595.2v19h3.4c2.5,0,4.4-0.8,5.7-2.3c1.4-1.5,2.1-3.7,2.1-6.5v-1.4
			c0-2.7-0.6-4.9-1.9-6.4c-1.3-1.5-3.1-2.3-5.5-2.3H180.5z"/>
		<path class="st5" d="M206.6,617.1c-2.4,0-4.4-0.8-5.9-2.4c-1.5-1.6-2.3-3.7-2.3-6.4v-0.6c0-1.8,0.3-3.4,1-4.8
			c0.7-1.4,1.6-2.5,2.9-3.3c1.2-0.8,2.5-1.2,4-1.2c2.3,0,4.2,0.8,5.4,2.3c1.3,1.5,1.9,3.7,1.9,6.6v1.3h-12.2c0,1.8,0.6,3.2,1.6,4.3
			c1,1.1,2.2,1.6,3.8,1.6c1.1,0,2-0.2,2.8-0.7c0.8-0.4,1.4-1,2-1.8l1.9,1.5C211.9,615.9,209.6,617.1,206.6,617.1z M206.2,601
			c-1.2,0-2.3,0.5-3.1,1.4c-0.8,0.9-1.4,2.2-1.6,3.8h9v-0.2c-0.1-1.6-0.5-2.8-1.3-3.6C208.5,601.4,207.5,601,206.2,601z"/>
		<path class="st5" d="M222.9,612.6l4.4-13.8h3.1l-6.4,18h-2.3l-6.5-18h3.1L222.9,612.6z"/>
		<path class="st5" d="M240.7,617.1c-2.4,0-4.4-0.8-5.9-2.4c-1.5-1.6-2.3-3.7-2.3-6.4v-0.6c0-1.8,0.3-3.4,1-4.8
			c0.7-1.4,1.6-2.5,2.9-3.3c1.2-0.8,2.5-1.2,4-1.2c2.3,0,4.2,0.8,5.4,2.3c1.3,1.5,1.9,3.7,1.9,6.6v1.3h-12.2c0,1.8,0.6,3.2,1.6,4.3
			c1,1.1,2.2,1.6,3.8,1.6c1.1,0,2-0.2,2.8-0.7c0.8-0.4,1.4-1,2-1.8l1.9,1.5C245.9,615.9,243.7,617.1,240.7,617.1z M240.3,601
			c-1.2,0-2.3,0.5-3.1,1.4c-0.8,0.9-1.4,2.2-1.6,3.8h9v-0.2c-0.1-1.6-0.5-2.8-1.3-3.6C242.6,601.4,241.6,601,240.3,601z"/>
		<path class="st5" d="M254.6,616.8h-3.1v-25.5h3.1V616.8z"/>
		<path class="st5" d="M258.7,607.6c0-1.8,0.3-3.3,1-4.7c0.7-1.4,1.7-2.5,2.9-3.3c1.2-0.8,2.6-1.1,4.2-1.1c2.4,0,4.4,0.8,5.9,2.5
			c1.5,1.7,2.3,3.9,2.3,6.8v0.2c0,1.7-0.3,3.3-1,4.7c-0.7,1.4-1.6,2.5-2.9,3.2c-1.2,0.8-2.7,1.2-4.3,1.2c-2.4,0-4.4-0.8-5.9-2.5
			c-1.5-1.7-2.3-3.9-2.3-6.7V607.6z M261.8,608c0,2,0.5,3.6,1.4,4.8c0.9,1.2,2.2,1.8,3.7,1.8c1.6,0,2.8-0.6,3.7-1.8
			c0.9-1.2,1.4-2.9,1.4-5.1c0-2-0.5-3.6-1.4-4.8c-0.9-1.2-2.2-1.8-3.7-1.8c-1.5,0-2.7,0.6-3.7,1.8C262.2,604,261.8,605.7,261.8,608z
			"/>
		<path class="st5" d="M294,608c0,2.7-0.6,4.9-1.9,6.6c-1.3,1.7-2.9,2.5-5.1,2.5c-2.2,0-3.9-0.7-5.1-2.1v8.6h-3.1v-24.9h2.8l0.1,2
			c1.3-1.5,3-2.3,5.2-2.3c2.2,0,3.9,0.8,5.1,2.4c1.3,1.6,1.9,3.9,1.9,6.8V608z M291,607.6c0-2-0.4-3.6-1.3-4.8
			c-0.9-1.2-2-1.8-3.6-1.8c-1.9,0-3.3,0.8-4.2,2.5v8.6c0.9,1.6,2.3,2.5,4.2,2.5c1.5,0,2.6-0.6,3.5-1.8
			C290.5,611.7,291,609.9,291,607.6z"/>
		<path class="st5" d="M300.8,598.8l0.1,2c1.3-1.5,3.1-2.3,5.3-2.3c2.5,0,4.2,1,5.1,2.9c0.6-0.9,1.4-1.6,2.3-2.1
			c1-0.5,2.1-0.8,3.4-0.8c3.9,0,5.9,2.1,6,6.3v12H320v-11.9c0-1.3-0.3-2.2-0.9-2.9c-0.6-0.6-1.6-1-3-1c-1.1,0-2.1,0.3-2.8,1
			s-1.2,1.6-1.3,2.7v11.9H309V605c0-2.6-1.3-3.9-3.8-3.9c-2,0-3.4,0.9-4.1,2.6v13.1h-3.1v-18H300.8z"/>
		<path class="st5" d="M335.2,617.1c-2.4,0-4.4-0.8-5.9-2.4c-1.5-1.6-2.3-3.7-2.3-6.4v-0.6c0-1.8,0.3-3.4,1-4.8
			c0.7-1.4,1.6-2.5,2.9-3.3c1.2-0.8,2.5-1.2,4-1.2c2.3,0,4.2,0.8,5.4,2.3c1.3,1.5,1.9,3.7,1.9,6.6v1.3H330c0,1.8,0.6,3.2,1.6,4.3
			c1,1.1,2.2,1.6,3.8,1.6c1.1,0,2-0.2,2.8-0.7c0.8-0.4,1.4-1,2-1.8l1.9,1.5C340.5,615.9,338.2,617.1,335.2,617.1z M334.8,601
			c-1.2,0-2.3,0.5-3.1,1.4c-0.8,0.9-1.4,2.2-1.6,3.8h9v-0.2c-0.1-1.6-0.5-2.8-1.3-3.6C337.1,601.4,336.1,601,334.8,601z"/>
		<path class="st5" d="M348.7,598.8l0.1,2.3c1.4-1.7,3.2-2.6,5.4-2.6c3.8,0,5.7,2.1,5.7,6.4v11.9h-3.1v-11.9c0-1.3-0.3-2.3-0.9-2.9
			c-0.6-0.6-1.5-0.9-2.7-0.9c-1,0-1.9,0.3-2.6,0.8s-1.3,1.2-1.8,2.1v12.8h-3.1v-18H348.7z"/>
		<path class="st5" d="M368.7,594.4v4.3h3.4v2.4h-3.4v11.2c0,0.7,0.1,1.3,0.4,1.6s0.8,0.5,1.5,0.5c0.4,0,0.8-0.1,1.5-0.2v2.5
			c-0.8,0.2-1.6,0.3-2.4,0.3c-1.4,0-2.4-0.4-3.1-1.2s-1-2-1-3.5v-11.1h-3.3v-2.4h3.3v-4.3H368.7z"/>
	</g>
	<g>
		<path class="st5" d="M96.2,962.2c-0.8,1.2-2,2-3.4,2.6c-1.5,0.6-3.2,0.9-5.1,0.9c-2,0-3.7-0.5-5.2-1.4c-1.5-0.9-2.7-2.2-3.5-3.9
			c-0.8-1.7-1.3-3.7-1.3-5.9v-2.1c0-3.6,0.8-6.5,2.5-8.5c1.7-2,4.1-3,7.2-3c2.5,0,4.6,0.6,6.1,1.9c1.5,1.3,2.5,3.1,2.8,5.5H93
			c-0.6-3.2-2.5-4.8-5.7-4.8c-2.1,0-3.8,0.8-4.9,2.3c-1.1,1.5-1.7,3.7-1.7,6.5v2c0,2.7,0.6,4.9,1.9,6.5s2.9,2.4,5,2.4
			c1.2,0,2.2-0.1,3.1-0.4c0.9-0.3,1.6-0.7,2.2-1.3V956h-5.6v-2.6h8.8V962.2z"/>
		<path class="st5" d="M112.1,965.4c-0.2-0.4-0.3-1-0.4-1.9c-1.4,1.5-3.1,2.2-5.1,2.2c-1.8,0-3.2-0.5-4.4-1.5
			c-1.1-1-1.7-2.3-1.7-3.8c0-1.9,0.7-3.3,2.1-4.4c1.4-1,3.4-1.6,6-1.6h3v-1.4c0-1.1-0.3-1.9-1-2.6c-0.6-0.6-1.6-1-2.8-1
			c-1.1,0-2,0.3-2.8,0.8s-1.1,1.2-1.1,2h-3.1c0-0.9,0.3-1.8,1-2.6c0.6-0.8,1.5-1.5,2.6-2c1.1-0.5,2.3-0.7,3.6-0.7
			c2.1,0,3.7,0.5,4.9,1.6c1.2,1,1.8,2.5,1.8,4.3v8.3c0,1.6,0.2,3,0.6,3.9v0.3H112.1z M107,963.1c1,0,1.9-0.2,2.7-0.7
			s1.5-1.1,1.9-1.9v-3.7h-2.4c-3.8,0-5.6,1.1-5.6,3.3c0,1,0.3,1.7,1,2.3S106,963.1,107,963.1z"/>
		<path class="st5" d="M122.4,947.4l0.1,2c1.3-1.5,3.1-2.3,5.3-2.3c2.5,0,4.2,1,5.1,2.9c0.6-0.9,1.4-1.6,2.3-2.1
			c1-0.5,2.1-0.8,3.4-0.8c3.9,0,5.9,2.1,6,6.3v12h-3.1v-11.9c0-1.3-0.3-2.2-0.9-2.9c-0.6-0.6-1.6-1-3-1c-1.1,0-2.1,0.3-2.8,1
			s-1.2,1.6-1.3,2.7v11.9h-3.1v-11.8c0-2.6-1.3-3.9-3.8-3.9c-2,0-3.4,0.9-4.1,2.6v13.1h-3.1v-18H122.4z"/>
		<path class="st5" d="M156.7,965.7c-2.4,0-4.4-0.8-5.9-2.4c-1.5-1.6-2.3-3.7-2.3-6.4v-0.6c0-1.8,0.3-3.4,1-4.8
			c0.7-1.4,1.6-2.5,2.9-3.3c1.2-0.8,2.5-1.2,4-1.2c2.3,0,4.2,0.8,5.4,2.3s1.9,3.7,1.9,6.6v1.3h-12.2c0,1.8,0.6,3.2,1.6,4.3
			c1,1.1,2.2,1.6,3.8,1.6c1.1,0,2-0.2,2.8-0.7s1.4-1,2-1.8l1.9,1.5C162,964.6,159.7,965.7,156.7,965.7z M156.3,949.6
			c-1.2,0-2.3,0.5-3.1,1.4c-0.8,0.9-1.4,2.2-1.6,3.8h9v-0.2c-0.1-1.6-0.5-2.8-1.3-3.6C158.7,950.1,157.6,949.6,156.3,949.6z"/>
		<path class="st5" d="M176.2,965.4v-24.2h6.8c2.1,0,4,0.5,5.6,1.4s2.9,2.3,3.7,4c0.9,1.7,1.3,3.7,1.3,5.9v1.5c0,2.3-0.4,4.3-1.3,6
			c-0.9,1.7-2.1,3-3.8,4c-1.6,0.9-3.5,1.4-5.7,1.4H176.2z M179.4,943.8v19h3.4c2.5,0,4.4-0.8,5.7-2.3c1.4-1.5,2.1-3.7,2.1-6.5v-1.4
			c0-2.7-0.6-4.9-1.9-6.4c-1.3-1.5-3.1-2.3-5.5-2.3H179.4z"/>
		<path class="st5" d="M205.5,965.7c-2.4,0-4.4-0.8-5.9-2.4c-1.5-1.6-2.3-3.7-2.3-6.4v-0.6c0-1.8,0.3-3.4,1-4.8
			c0.7-1.4,1.6-2.5,2.9-3.3c1.2-0.8,2.5-1.2,4-1.2c2.3,0,4.2,0.8,5.4,2.3s1.9,3.7,1.9,6.6v1.3h-12.2c0,1.8,0.6,3.2,1.6,4.3
			c1,1.1,2.2,1.6,3.8,1.6c1.1,0,2-0.2,2.8-0.7s1.4-1,2-1.8l1.9,1.5C210.7,964.6,208.5,965.7,205.5,965.7z M205.1,949.6
			c-1.2,0-2.3,0.5-3.1,1.4c-0.8,0.9-1.4,2.2-1.6,3.8h9v-0.2c-0.1-1.6-0.5-2.8-1.3-3.6C207.4,950.1,206.4,949.6,205.1,949.6z"/>
		<path class="st5" d="M221.7,961.2l4.4-13.8h3.1l-6.4,18h-2.3l-6.5-18h3.1L221.7,961.2z"/>
		<path class="st5" d="M239.5,965.7c-2.4,0-4.4-0.8-5.9-2.4c-1.5-1.6-2.3-3.7-2.3-6.4v-0.6c0-1.8,0.3-3.4,1-4.8
			c0.7-1.4,1.6-2.5,2.9-3.3c1.2-0.8,2.5-1.2,4-1.2c2.3,0,4.2,0.8,5.4,2.3s1.9,3.7,1.9,6.6v1.3h-12.2c0,1.8,0.6,3.2,1.6,4.3
			c1,1.1,2.2,1.6,3.8,1.6c1.1,0,2-0.2,2.8-0.7s1.4-1,2-1.8l1.9,1.5C244.8,964.6,242.5,965.7,239.5,965.7z M239.1,949.6
			c-1.2,0-2.3,0.5-3.1,1.4c-0.8,0.9-1.4,2.2-1.6,3.8h9v-0.2c-0.1-1.6-0.5-2.8-1.3-3.6C241.4,950.1,240.4,949.6,239.1,949.6z"/>
		<path class="st5" d="M253.4,965.4h-3.1v-25.5h3.1V965.4z"/>
		<path class="st5" d="M257.5,956.3c0-1.8,0.3-3.3,1-4.7c0.7-1.4,1.7-2.5,2.9-3.3c1.2-0.8,2.6-1.1,4.2-1.1c2.4,0,4.4,0.8,5.9,2.5
			c1.5,1.7,2.3,3.9,2.3,6.8v0.2c0,1.7-0.3,3.3-1,4.7c-0.7,1.4-1.6,2.5-2.9,3.2c-1.2,0.8-2.7,1.2-4.3,1.2c-2.4,0-4.4-0.8-5.9-2.5
			c-1.5-1.7-2.3-3.9-2.3-6.7V956.3z M260.6,956.6c0,2,0.5,3.6,1.4,4.8c0.9,1.2,2.2,1.8,3.7,1.8c1.6,0,2.8-0.6,3.7-1.8
			c0.9-1.2,1.4-2.9,1.4-5.1c0-2-0.5-3.6-1.4-4.8c-0.9-1.2-2.2-1.8-3.7-1.8c-1.5,0-2.7,0.6-3.7,1.8S260.6,954.4,260.6,956.6z"/>
		<path class="st5" d="M292.9,956.6c0,2.7-0.6,4.9-1.9,6.6s-2.9,2.5-5.1,2.5c-2.2,0-3.9-0.7-5.1-2.1v8.6h-3.1v-24.9h2.8l0.1,2
			c1.3-1.5,3-2.3,5.2-2.3c2.2,0,3.9,0.8,5.1,2.4c1.3,1.6,1.9,3.9,1.9,6.8V956.6z M289.8,956.3c0-2-0.4-3.6-1.3-4.8s-2-1.8-3.6-1.8
			c-1.9,0-3.3,0.8-4.2,2.5v8.6c0.9,1.6,2.3,2.5,4.2,2.5c1.5,0,2.6-0.6,3.5-1.8C289.4,960.3,289.8,958.6,289.8,956.3z"/>
		<path class="st5" d="M299.7,947.4l0.1,2c1.3-1.5,3.1-2.3,5.3-2.3c2.5,0,4.2,1,5.1,2.9c0.6-0.9,1.4-1.6,2.3-2.1
			c1-0.5,2.1-0.8,3.4-0.8c3.9,0,5.9,2.1,6,6.3v12h-3.1v-11.9c0-1.3-0.3-2.2-0.9-2.9c-0.6-0.6-1.6-1-3-1c-1.1,0-2.1,0.3-2.8,1
			s-1.2,1.6-1.3,2.7v11.9h-3.1v-11.8c0-2.6-1.3-3.9-3.8-3.9c-2,0-3.4,0.9-4.1,2.6v13.1h-3.1v-18H299.7z"/>
		<path class="st5" d="M334,965.7c-2.4,0-4.4-0.8-5.9-2.4c-1.5-1.6-2.3-3.7-2.3-6.4v-0.6c0-1.8,0.3-3.4,1-4.8
			c0.7-1.4,1.6-2.5,2.9-3.3c1.2-0.8,2.5-1.2,4-1.2c2.3,0,4.2,0.8,5.4,2.3s1.9,3.7,1.9,6.6v1.3h-12.2c0,1.8,0.6,3.2,1.6,4.3
			c1,1.1,2.2,1.6,3.8,1.6c1.1,0,2-0.2,2.8-0.7s1.4-1,2-1.8l1.9,1.5C339.3,964.6,337,965.7,334,965.7z M333.7,949.6
			c-1.2,0-2.3,0.5-3.1,1.4c-0.8,0.9-1.4,2.2-1.6,3.8h9v-0.2c-0.1-1.6-0.5-2.8-1.3-3.6C336,950.1,334.9,949.6,333.7,949.6z"/>
		<path class="st5" d="M347.5,947.4l0.1,2.3c1.4-1.7,3.2-2.6,5.4-2.6c3.8,0,5.7,2.1,5.7,6.4v11.9h-3.1v-11.9c0-1.3-0.3-2.3-0.9-2.9
			c-0.6-0.6-1.5-0.9-2.7-0.9c-1,0-1.9,0.3-2.6,0.8s-1.3,1.2-1.8,2.1v12.8h-3.1v-18H347.5z"/>
		<path class="st5" d="M367.5,943.1v4.3h3.4v2.4h-3.4V961c0,0.7,0.1,1.3,0.4,1.6c0.3,0.4,0.8,0.5,1.5,0.5c0.4,0,0.8-0.1,1.5-0.2v2.5
			c-0.8,0.2-1.6,0.3-2.4,0.3c-1.4,0-2.4-0.4-3.1-1.2s-1-2-1-3.5v-11.1h-3.3v-2.4h3.3v-4.3H367.5z"/>
		<path class="st5" d="M212.7,995.5h-10.1v10.7h-3.2V982h15v2.6h-11.8v8.3h10.1V995.5z"/>
		<path class="st5" d="M224.8,1006.5c-2.4,0-4.4-0.8-5.9-2.4c-1.5-1.6-2.3-3.7-2.3-6.4v-0.6c0-1.8,0.3-3.4,1-4.8
			c0.7-1.4,1.6-2.5,2.9-3.3c1.2-0.8,2.5-1.2,4-1.2c2.3,0,4.2,0.8,5.4,2.3s1.9,3.7,1.9,6.6v1.3h-12.2c0,1.8,0.6,3.2,1.6,4.3
			c1,1.1,2.2,1.6,3.8,1.6c1.1,0,2-0.2,2.8-0.7s1.4-1,2-1.8l1.9,1.5C230.1,1005.4,227.8,1006.5,224.8,1006.5z M224.4,990.4
			c-1.2,0-2.3,0.5-3.1,1.4c-0.8,0.9-1.4,2.2-1.6,3.8h9v-0.2c-0.1-1.6-0.5-2.8-1.3-3.6C226.7,990.9,225.7,990.4,224.4,990.4z"/>
		<path class="st5" d="M242.8,1006.5c-2.4,0-4.4-0.8-5.9-2.4c-1.5-1.6-2.3-3.7-2.3-6.4v-0.6c0-1.8,0.3-3.4,1-4.8
			c0.7-1.4,1.6-2.5,2.9-3.3c1.2-0.8,2.5-1.2,4-1.2c2.3,0,4.2,0.8,5.4,2.3s1.9,3.7,1.9,6.6v1.3h-12.2c0,1.8,0.6,3.2,1.6,4.3
			c1,1.1,2.2,1.6,3.8,1.6c1.1,0,2-0.2,2.8-0.7s1.4-1,2-1.8l1.9,1.5C248.1,1005.4,245.8,1006.5,242.8,1006.5z M242.4,990.4
			c-1.2,0-2.3,0.5-3.1,1.4c-0.8,0.9-1.4,2.2-1.6,3.8h9v-0.2c-0.1-1.6-0.5-2.8-1.3-3.6C244.7,990.9,243.7,990.4,242.4,990.4z"/>
	</g>
	<g>
		<path class="st5" d="M693.2,970.2h-10.5v8.6h12.2v2.6h-15.4v-24.2h15.2v2.6h-12v7.8h10.5V970.2z"/>
		<path class="st5" d="M697.4,972.3c0-2.8,0.6-5.1,1.9-6.7s3-2.5,5.2-2.5c2.1,0,3.8,0.7,5,2.1l0.1-1.8h2.8v24.9h-3.1v-8.6
			c-1.2,1.3-2.9,2-4.9,2c-2.2,0-3.9-0.8-5.2-2.5c-1.3-1.7-1.9-3.9-1.9-6.7V972.3z M700.4,972.6c0,2.1,0.4,3.7,1.3,4.8
			c0.9,1.2,2,1.8,3.5,1.8c1.8,0,3.2-0.8,4.2-2.4V968c-1-1.6-2.4-2.4-4.2-2.4c-1.5,0-2.7,0.6-3.5,1.8S700.4,970.3,700.4,972.6z"/>
		<path class="st5" d="M728.5,979.6c-1.2,1.4-2.9,2.1-5.3,2.1c-1.9,0-3.4-0.6-4.4-1.7c-1-1.1-1.5-2.8-1.5-4.9v-11.7h3.1V975
			c0,2.7,1.1,4.1,3.3,4.1c2.3,0,3.9-0.9,4.7-2.6v-13.1h3.1v18h-2.9L728.5,979.6z"/>
		<path class="st5" d="M736.2,958.7c0-0.5,0.2-0.9,0.5-1.3c0.3-0.3,0.8-0.5,1.4-0.5s1.1,0.2,1.4,0.5s0.5,0.8,0.5,1.3
			s-0.2,0.9-0.5,1.2s-0.8,0.5-1.4,0.5s-1-0.2-1.4-0.5C736.3,959.6,736.2,959.2,736.2,958.7z M739.5,981.4h-3.1v-18h3.1V981.4z"/>
		<path class="st5" d="M748.6,959.1v4.3h3.4v2.4h-3.4V977c0,0.7,0.1,1.3,0.4,1.6c0.3,0.4,0.8,0.5,1.5,0.5c0.4,0,0.8-0.1,1.5-0.2v2.5
			c-0.8,0.2-1.6,0.3-2.4,0.3c-1.4,0-2.4-0.4-3.1-1.2s-1-2-1-3.5v-11.1h-3.3v-2.4h3.3v-4.3H748.6z"/>
		<path class="st5" d="M761.4,976.9l4.2-13.5h3.3l-7.2,20.7c-1.1,3-2.9,4.5-5.3,4.5l-0.6,0l-1.1-0.2v-2.5l0.8,0.1
			c1,0,1.9-0.2,2.4-0.6c0.6-0.4,1.1-1.2,1.4-2.3l0.7-1.8l-6.4-17.8h3.4L761.4,976.9z"/>
		<path class="st5" d="M780.6,983.5H778l10.1-26.2h2.6L780.6,983.5z"/>
		<path class="st5" d="M811.8,971.6h-5.7v9.8h-3.2v-24.2h8c2.7,0,4.8,0.6,6.3,1.9c1.5,1.2,2.2,3,2.2,5.4c0,1.5-0.4,2.8-1.2,3.9
			c-0.8,1.1-1.9,2-3.4,2.5l5.7,10.3v0.2H817L811.8,971.6z M806.1,969h4.9c1.6,0,2.8-0.4,3.8-1.2c0.9-0.8,1.4-1.9,1.4-3.3
			c0-1.5-0.4-2.6-1.3-3.4c-0.9-0.8-2.2-1.2-3.9-1.2h-4.9V969z"/>
		<path class="st5" d="M822.6,972.3c0-1.8,0.3-3.3,1-4.7c0.7-1.4,1.7-2.5,2.9-3.3c1.2-0.8,2.6-1.1,4.2-1.1c2.4,0,4.4,0.8,5.9,2.5
			c1.5,1.7,2.3,3.9,2.3,6.8v0.2c0,1.7-0.3,3.3-1,4.7c-0.7,1.4-1.6,2.5-2.9,3.2c-1.2,0.8-2.7,1.2-4.3,1.2c-2.4,0-4.4-0.8-5.9-2.5
			c-1.5-1.7-2.3-3.9-2.3-6.7V972.3z M825.7,972.6c0,2,0.5,3.6,1.4,4.8c0.9,1.2,2.2,1.8,3.7,1.8c1.6,0,2.8-0.6,3.7-1.8
			c0.9-1.2,1.4-2.9,1.4-5.1c0-2-0.5-3.6-1.4-4.8c-0.9-1.2-2.2-1.8-3.7-1.8c-1.5,0-2.7,0.6-3.7,1.8S825.7,970.4,825.7,972.6z"/>
		<path class="st5" d="M848.4,976.9l4.2-13.5h3.3l-7.2,20.7c-1.1,3-2.9,4.5-5.3,4.5l-0.6,0l-1.1-0.2v-2.5l0.8,0.1
			c1,0,1.9-0.2,2.4-0.6c0.6-0.4,1.1-1.2,1.4-2.3l0.7-1.8l-6.4-17.8h3.4L848.4,976.9z"/>
		<path class="st5" d="M869.5,981.4c-0.2-0.4-0.3-1-0.4-1.9c-1.4,1.5-3.1,2.2-5.1,2.2c-1.8,0-3.2-0.5-4.4-1.5
			c-1.1-1-1.7-2.3-1.7-3.8c0-1.9,0.7-3.3,2.1-4.4c1.4-1,3.4-1.6,6-1.6h3v-1.4c0-1.1-0.3-1.9-1-2.6c-0.6-0.6-1.6-1-2.8-1
			c-1.1,0-2,0.3-2.8,0.8s-1.1,1.2-1.1,2h-3.1c0-0.9,0.3-1.8,1-2.6c0.6-0.8,1.5-1.5,2.6-2c1.1-0.5,2.3-0.7,3.6-0.7
			c2.1,0,3.7,0.5,4.9,1.6c1.2,1,1.8,2.5,1.8,4.3v8.3c0,1.6,0.2,3,0.6,3.9v0.3H869.5z M864.4,979.1c1,0,1.9-0.2,2.7-0.7
			s1.5-1.1,1.9-1.9v-3.7h-2.4c-3.8,0-5.6,1.1-5.6,3.3c0,1,0.3,1.7,1,2.3S863.4,979.1,864.4,979.1z"/>
		<path class="st5" d="M880.2,981.4h-3.1v-25.5h3.1V981.4z"/>
		<path class="st5" d="M889.3,959.1v4.3h3.4v2.4h-3.4V977c0,0.7,0.1,1.3,0.4,1.6c0.3,0.4,0.8,0.5,1.5,0.5c0.4,0,0.8-0.1,1.5-0.2v2.5
			c-0.8,0.2-1.6,0.3-2.4,0.3c-1.4,0-2.4-0.4-3.1-1.2s-1-2-1-3.5v-11.1h-3.3v-2.4h3.3v-4.3H889.3z"/>
		<path class="st5" d="M902.1,976.9l4.2-13.5h3.3l-7.2,20.7c-1.1,3-2.9,4.5-5.3,4.5l-0.6,0l-1.1-0.2v-2.5l0.8,0.1
			c1,0,1.9-0.2,2.4-0.6c0.6-0.4,1.1-1.2,1.4-2.3l0.7-1.8l-6.4-17.8h3.4L902.1,976.9z"/>
	</g>
	<g>
		<path class="st5" d="M730.1,551.6h-3.2v-24.2h3.2V551.6z"/>
		<path class="st5" d="M738.4,533.7l0.1,2.3c1.4-1.7,3.2-2.6,5.4-2.6c3.8,0,5.7,2.1,5.7,6.4v11.9h-3.1v-11.9c0-1.3-0.3-2.3-0.9-2.9
			c-0.6-0.6-1.5-0.9-2.7-0.9c-1,0-1.9,0.3-2.6,0.8s-1.3,1.2-1.8,2.1v12.8h-3.1v-18H738.4z"/>
		<path class="st5" d="M760.6,542.6h-8.1v-2.5h8.1V542.6z"/>
		<path class="st5" d="M782.7,551.6h-3.2v-11.2h-12.2v11.2h-3.2v-24.2h3.2v10.4h12.2v-10.4h3.2V551.6z"/>
		<path class="st5" d="M787,542.5c0-1.8,0.3-3.3,1-4.7c0.7-1.4,1.7-2.5,2.9-3.3c1.2-0.8,2.6-1.1,4.2-1.1c2.4,0,4.4,0.8,5.9,2.5
			c1.5,1.7,2.3,3.9,2.3,6.8v0.2c0,1.7-0.3,3.3-1,4.7c-0.7,1.4-1.6,2.5-2.9,3.2c-1.2,0.8-2.7,1.2-4.3,1.2c-2.4,0-4.4-0.8-5.9-2.5
			c-1.5-1.7-2.3-3.9-2.3-6.7V542.5z M790.1,542.8c0,2,0.5,3.6,1.4,4.8c0.9,1.2,2.2,1.8,3.7,1.8c1.6,0,2.8-0.6,3.7-1.8
			c0.9-1.2,1.4-2.9,1.4-5.1c0-2-0.5-3.6-1.4-4.8c-0.9-1.2-2.2-1.8-3.7-1.8c-1.5,0-2.7,0.6-3.7,1.8
			C790.6,538.9,790.1,540.6,790.1,542.8z"/>
		<path class="st5" d="M818.3,549.9c-1.2,1.4-2.9,2.1-5.3,2.1c-1.9,0-3.4-0.6-4.4-1.7c-1-1.1-1.5-2.8-1.5-4.9v-11.7h3.1v11.6
			c0,2.7,1.1,4.1,3.3,4.1c2.3,0,3.9-0.9,4.7-2.6v-13.1h3.1v18h-2.9L818.3,549.9z"/>
		<path class="st5" d="M836.4,546.9c0-0.8-0.3-1.5-0.9-1.9c-0.6-0.5-1.7-0.9-3.3-1.2c-1.6-0.3-2.8-0.7-3.7-1.2c-0.9-0.5-1.6-1-2-1.7
			c-0.4-0.6-0.7-1.4-0.7-2.3c0-1.5,0.6-2.7,1.9-3.7c1.2-1,2.8-1.5,4.8-1.5c2,0,3.7,0.5,5,1.6c1.3,1.1,1.9,2.4,1.9,4h-3.1
			c0-0.8-0.4-1.6-1.1-2.2c-0.7-0.6-1.6-0.9-2.7-0.9c-1.1,0-2,0.2-2.6,0.7c-0.6,0.5-0.9,1.1-0.9,1.9c0,0.7,0.3,1.3,0.9,1.7
			c0.6,0.4,1.6,0.7,3.2,1.1c1.5,0.3,2.8,0.8,3.7,1.2c1,0.5,1.7,1,2.1,1.7c0.5,0.7,0.7,1.5,0.7,2.4c0,1.6-0.6,2.9-1.9,3.9
			c-1.3,1-2.9,1.5-5,1.5c-1.4,0-2.7-0.3-3.8-0.8s-2-1.2-2.6-2.1c-0.6-0.9-0.9-1.9-0.9-3h3.1c0.1,1,0.5,1.8,1.2,2.4
			c0.8,0.6,1.8,0.9,3,0.9c1.2,0,2.1-0.2,2.8-0.7C836.1,548.3,836.4,547.7,836.4,546.9z"/>
		<path class="st5" d="M851,552c-2.4,0-4.4-0.8-5.9-2.4c-1.5-1.6-2.3-3.7-2.3-6.4v-0.6c0-1.8,0.3-3.4,1-4.8c0.7-1.4,1.6-2.5,2.9-3.3
			c1.2-0.8,2.5-1.2,4-1.2c2.3,0,4.2,0.8,5.4,2.3c1.3,1.5,1.9,3.7,1.9,6.6v1.3h-12.2c0,1.8,0.6,3.2,1.6,4.3c1,1.1,2.2,1.6,3.8,1.6
			c1.1,0,2-0.2,2.8-0.7c0.8-0.4,1.4-1,2-1.8l1.9,1.5C856.2,550.8,854,552,851,552z M850.6,535.9c-1.2,0-2.3,0.5-3.1,1.4
			c-0.8,0.9-1.4,2.2-1.6,3.8h9v-0.2c-0.1-1.6-0.5-2.8-1.3-3.6C852.9,536.3,851.9,535.9,850.6,535.9z"/>
		<path class="st5" d="M663.9,589.3c-0.8,1.2-2,2.1-3.4,2.6c-1.5,0.6-3.2,0.9-5.1,0.9c-2,0-3.7-0.5-5.2-1.4
			c-1.5-0.9-2.7-2.2-3.5-3.9c-0.8-1.7-1.3-3.7-1.3-5.9v-2.1c0-3.6,0.8-6.5,2.5-8.5c1.7-2,4.1-3,7.2-3c2.5,0,4.6,0.6,6.1,1.9
			c1.5,1.3,2.5,3.1,2.8,5.5h-3.2c-0.6-3.2-2.5-4.8-5.7-4.8c-2.1,0-3.8,0.8-4.9,2.3c-1.1,1.5-1.7,3.7-1.7,6.5v2
			c0,2.7,0.6,4.9,1.9,6.5s2.9,2.4,5,2.4c1.2,0,2.2-0.1,3.1-0.4s1.6-0.7,2.2-1.3V583h-5.6v-2.6h8.8V589.3z"/>
		<path class="st5" d="M679.8,592.4c-0.2-0.4-0.3-1-0.4-1.9c-1.4,1.5-3.1,2.2-5.1,2.2c-1.8,0-3.2-0.5-4.4-1.5
			c-1.1-1-1.7-2.3-1.7-3.8c0-1.9,0.7-3.3,2.1-4.4c1.4-1,3.4-1.6,6-1.6h3v-1.4c0-1.1-0.3-1.9-1-2.6c-0.6-0.6-1.6-1-2.8-1
			c-1.1,0-2,0.3-2.8,0.8c-0.7,0.6-1.1,1.2-1.1,2h-3.1c0-0.9,0.3-1.8,1-2.6c0.6-0.8,1.5-1.5,2.6-2c1.1-0.5,2.3-0.7,3.6-0.7
			c2.1,0,3.7,0.5,4.9,1.6c1.2,1,1.8,2.5,1.8,4.3v8.3c0,1.6,0.2,3,0.6,3.9v0.3H679.8z M674.7,590.1c1,0,1.9-0.2,2.7-0.7
			s1.5-1.1,1.9-1.9v-3.7h-2.4c-3.8,0-5.6,1.1-5.6,3.3c0,1,0.3,1.7,1,2.3C672.9,589.8,673.7,590.1,674.7,590.1z"/>
		<path class="st5" d="M690.1,574.5l0.1,2c1.3-1.5,3.1-2.3,5.3-2.3c2.5,0,4.2,1,5.1,2.9c0.6-0.9,1.4-1.6,2.3-2.1
			c1-0.5,2.1-0.8,3.4-0.8c3.9,0,5.9,2.1,6,6.3v12h-3.1v-11.9c0-1.3-0.3-2.2-0.9-2.9c-0.6-0.6-1.6-1-3-1c-1.1,0-2.1,0.3-2.8,1
			s-1.2,1.6-1.3,2.7v11.9h-3.1v-11.8c0-2.6-1.3-3.9-3.8-3.9c-2,0-3.4,0.9-4.1,2.6v13.1h-3.1v-18H690.1z"/>
		<path class="st5" d="M724.5,592.8c-2.4,0-4.4-0.8-5.9-2.4c-1.5-1.6-2.3-3.7-2.3-6.4v-0.6c0-1.8,0.3-3.4,1-4.8
			c0.7-1.4,1.6-2.5,2.9-3.3c1.2-0.8,2.5-1.2,4-1.2c2.3,0,4.2,0.8,5.4,2.3c1.3,1.5,1.9,3.7,1.9,6.6v1.3h-12.2c0,1.8,0.6,3.2,1.6,4.3
			c1,1.1,2.2,1.6,3.8,1.6c1.1,0,2-0.2,2.8-0.7c0.8-0.4,1.4-1,2-1.8l1.9,1.5C729.7,591.6,727.5,592.8,724.5,592.8z M724.1,576.7
			c-1.2,0-2.3,0.5-3.1,1.4c-0.8,0.9-1.4,2.2-1.6,3.8h9v-0.2c-0.1-1.6-0.5-2.8-1.3-3.6C726.4,577.1,725.4,576.7,724.1,576.7z"/>
		<path class="st5" d="M743.9,592.4v-24.2h6.8c2.1,0,4,0.5,5.6,1.4s2.9,2.3,3.7,4c0.9,1.7,1.3,3.7,1.3,5.9v1.5c0,2.3-0.4,4.3-1.3,6
			c-0.9,1.7-2.1,3-3.8,4c-1.6,0.9-3.5,1.4-5.7,1.4H743.9z M747.1,570.9v19h3.4c2.5,0,4.4-0.8,5.7-2.3c1.4-1.5,2.1-3.7,2.1-6.5v-1.4
			c0-2.7-0.6-4.9-1.9-6.4c-1.3-1.5-3.1-2.3-5.5-2.3H747.1z"/>
		<path class="st5" d="M773.2,592.8c-2.4,0-4.4-0.8-5.9-2.4c-1.5-1.6-2.3-3.7-2.3-6.4v-0.6c0-1.8,0.3-3.4,1-4.8
			c0.7-1.4,1.6-2.5,2.9-3.3c1.2-0.8,2.5-1.2,4-1.2c2.3,0,4.2,0.8,5.4,2.3c1.3,1.5,1.9,3.7,1.9,6.6v1.3H768c0,1.8,0.6,3.2,1.6,4.3
			c1,1.1,2.2,1.6,3.8,1.6c1.1,0,2-0.2,2.8-0.7c0.8-0.4,1.4-1,2-1.8l1.9,1.5C778.4,591.6,776.2,592.8,773.2,592.8z M772.8,576.7
			c-1.2,0-2.3,0.5-3.1,1.4c-0.8,0.9-1.4,2.2-1.6,3.8h9v-0.2c-0.1-1.6-0.5-2.8-1.3-3.6C775.1,577.1,774.1,576.7,772.8,576.7z"/>
		<path class="st5" d="M789.4,588.3l4.4-13.8h3.1l-6.4,18h-2.3l-6.5-18h3.1L789.4,588.3z"/>
		<path class="st5" d="M807.2,592.8c-2.4,0-4.4-0.8-5.9-2.4c-1.5-1.6-2.3-3.7-2.3-6.4v-0.6c0-1.8,0.3-3.4,1-4.8
			c0.7-1.4,1.6-2.5,2.9-3.3c1.2-0.8,2.5-1.2,4-1.2c2.3,0,4.2,0.8,5.4,2.3c1.3,1.5,1.9,3.7,1.9,6.6v1.3h-12.2c0,1.8,0.6,3.2,1.6,4.3
			c1,1.1,2.2,1.6,3.8,1.6c1.1,0,2-0.2,2.8-0.7c0.8-0.4,1.4-1,2-1.8l1.9,1.5C812.5,591.6,810.2,592.8,807.2,592.8z M806.8,576.7
			c-1.2,0-2.3,0.5-3.1,1.4c-0.8,0.9-1.4,2.2-1.6,3.8h9v-0.2c-0.1-1.6-0.5-2.8-1.3-3.6C809.1,577.1,808.1,576.7,806.8,576.7z"/>
		<path class="st5" d="M821.1,592.4h-3.1v-25.5h3.1V592.4z"/>
		<path class="st5" d="M825.2,583.3c0-1.8,0.3-3.3,1-4.7c0.7-1.4,1.7-2.5,2.9-3.3c1.2-0.8,2.6-1.1,4.2-1.1c2.4,0,4.4,0.8,5.9,2.5
			c1.5,1.7,2.3,3.9,2.3,6.8v0.2c0,1.7-0.3,3.3-1,4.7c-0.7,1.4-1.6,2.5-2.9,3.2c-1.2,0.8-2.7,1.2-4.3,1.2c-2.4,0-4.4-0.8-5.9-2.5
			c-1.5-1.7-2.3-3.9-2.3-6.7V583.3z M828.3,583.6c0,2,0.5,3.6,1.4,4.8c0.9,1.2,2.2,1.8,3.7,1.8c1.6,0,2.8-0.6,3.7-1.8
			c0.9-1.2,1.4-2.9,1.4-5.1c0-2-0.5-3.6-1.4-4.8c-0.9-1.2-2.2-1.8-3.7-1.8c-1.5,0-2.7,0.6-3.7,1.8
			C828.8,579.7,828.3,581.4,828.3,583.6z"/>
		<path class="st5" d="M860.6,583.6c0,2.7-0.6,4.9-1.9,6.6c-1.3,1.7-2.9,2.5-5.1,2.5c-2.2,0-3.9-0.7-5.1-2.1v8.6h-3.1v-24.9h2.8
			l0.1,2c1.3-1.5,3-2.3,5.2-2.3c2.2,0,3.9,0.8,5.1,2.4c1.3,1.6,1.9,3.9,1.9,6.8V583.6z M857.5,583.3c0-2-0.4-3.6-1.3-4.8
			c-0.9-1.2-2-1.8-3.6-1.8c-1.9,0-3.3,0.8-4.2,2.5v8.6c0.9,1.6,2.3,2.5,4.2,2.5c1.5,0,2.6-0.6,3.5-1.8
			C857.1,587.3,857.5,585.6,857.5,583.3z"/>
		<path class="st5" d="M867.4,574.5l0.1,2c1.3-1.5,3.1-2.3,5.3-2.3c2.5,0,4.2,1,5.1,2.9c0.6-0.9,1.4-1.6,2.3-2.1
			c1-0.5,2.1-0.8,3.4-0.8c3.9,0,5.9,2.1,6,6.3v12h-3.1v-11.9c0-1.3-0.3-2.2-0.9-2.9c-0.6-0.6-1.6-1-3-1c-1.1,0-2.1,0.3-2.8,1
			s-1.2,1.6-1.3,2.7v11.9h-3.1v-11.8c0-2.6-1.3-3.9-3.8-3.9c-2,0-3.4,0.9-4.1,2.6v13.1h-3.1v-18H867.4z"/>
		<path class="st5" d="M901.8,592.8c-2.4,0-4.4-0.8-5.9-2.4c-1.5-1.6-2.3-3.7-2.3-6.4v-0.6c0-1.8,0.3-3.4,1-4.8
			c0.7-1.4,1.6-2.5,2.9-3.3c1.2-0.8,2.5-1.2,4-1.2c2.3,0,4.2,0.8,5.4,2.3c1.3,1.5,1.9,3.7,1.9,6.6v1.3h-12.2c0,1.8,0.6,3.2,1.6,4.3
			c1,1.1,2.2,1.6,3.8,1.6c1.1,0,2-0.2,2.8-0.7c0.8-0.4,1.4-1,2-1.8l1.9,1.5C907,591.6,904.8,592.8,901.8,592.8z M901.4,576.7
			c-1.2,0-2.3,0.5-3.1,1.4c-0.8,0.9-1.4,2.2-1.6,3.8h9v-0.2c-0.1-1.6-0.5-2.8-1.3-3.6C903.7,577.1,902.7,576.7,901.4,576.7z"/>
		<path class="st5" d="M915.2,574.5l0.1,2.3c1.4-1.7,3.2-2.6,5.4-2.6c3.8,0,5.7,2.1,5.7,6.4v11.9h-3.1v-11.9c0-1.3-0.3-2.3-0.9-2.9
			c-0.6-0.6-1.5-0.9-2.7-0.9c-1,0-1.9,0.3-2.6,0.8s-1.3,1.2-1.8,2.1v12.8h-3.1v-18H915.2z"/>
		<path class="st5" d="M935.2,570.1v4.3h3.4v2.4h-3.4V588c0,0.7,0.1,1.3,0.4,1.6s0.8,0.5,1.5,0.5c0.4,0,0.8-0.1,1.5-0.2v2.5
			c-0.8,0.2-1.6,0.3-2.4,0.3c-1.4,0-2.4-0.4-3.1-1.2s-1-2-1-3.5v-11.1h-3.3v-2.4h3.3v-4.3H935.2z"/>
	</g>
	<g>
		<path class="st5" d="M616.8,639.3c0-1-0.4-1.9-1.1-2.6c-0.7-0.7-1.9-1.3-3.6-1.9c-2.4-0.7-4.1-1.7-5.2-2.8
			c-1.1-1.2-1.6-2.6-1.6-4.4c0-1.8,0.5-3.3,1.6-4.5c1.1-1.2,2.5-1.9,4.4-2.1v-3.6h2.5v3.7c1.9,0.3,3.3,1,4.3,2.3
			c1,1.3,1.6,3.1,1.6,5.4h-3.1c0-1.6-0.4-2.8-1.1-3.7c-0.7-0.9-1.7-1.4-3-1.4c-1.3,0-2.3,0.3-3,1s-1,1.6-1,2.9c0,1.1,0.4,2,1.1,2.7
			c0.7,0.7,1.9,1.3,3.6,1.8c1.7,0.5,3,1.2,4,1.8c0.9,0.7,1.6,1.4,2.1,2.3c0.4,0.9,0.7,1.9,0.7,3.1c0,1.9-0.6,3.4-1.7,4.5
			c-1.1,1.1-2.7,1.8-4.7,2v3.2h-2.5v-3.2c-2.1-0.2-3.7-0.9-4.8-2.2c-1.2-1.3-1.8-3-1.8-5.2h3.1c0,1.5,0.4,2.7,1.2,3.6s2,1.2,3.4,1.2
			c1.5,0,2.6-0.3,3.4-1S616.8,640.5,616.8,639.3z"/>
		<path class="st5" d="M628.6,621.3l7.9,19.7l7.9-19.7h4.1v24.2h-3.2v-9.4l0.3-10.2l-7.9,19.6h-2.4l-7.9-19.5l0.3,10.1v9.4h-3.2
			v-24.2H628.6z"/>
		<path class="st5" d="M657.4,642.9h11.5v2.6h-14.7v-24.2h3.2V642.9z"/>
		<path class="st5" d="M684.6,624h-7.8v21.6h-3.2V624H666v-2.6h18.7V624z"/>
		<path class="st5" d="M691.7,645.5h-3.2v-24.2h3.2V645.5z"/>
		<path class="st5" d="M723.7,642.3c-0.8,1.2-2,2.1-3.4,2.6c-1.5,0.6-3.2,0.9-5.1,0.9c-2,0-3.7-0.5-5.2-1.4
			c-1.5-0.9-2.7-2.2-3.5-3.9c-0.8-1.7-1.3-3.7-1.3-5.9v-2.1c0-3.6,0.8-6.5,2.5-8.5c1.7-2,4.1-3,7.2-3c2.5,0,4.6,0.6,6.1,1.9
			c1.5,1.3,2.5,3.1,2.8,5.5h-3.2c-0.6-3.2-2.5-4.8-5.7-4.8c-2.1,0-3.8,0.8-4.9,2.3c-1.1,1.5-1.7,3.7-1.7,6.5v2
			c0,2.7,0.6,4.9,1.9,6.5s2.9,2.4,5,2.4c1.2,0,2.2-0.1,3.1-0.4s1.6-0.7,2.2-1.3v-5.4H715v-2.6h8.8V642.3z"/>
		<path class="st5" d="M727.8,636.4c0-1.8,0.3-3.3,1-4.7c0.7-1.4,1.7-2.5,2.9-3.3c1.2-0.8,2.6-1.1,4.2-1.1c2.4,0,4.4,0.8,5.9,2.5
			c1.5,1.7,2.3,3.9,2.3,6.8v0.2c0,1.7-0.3,3.3-1,4.7c-0.7,1.4-1.6,2.5-2.9,3.2c-1.2,0.8-2.7,1.2-4.3,1.2c-2.4,0-4.4-0.8-5.9-2.5
			c-1.5-1.7-2.3-3.9-2.3-6.7V636.4z M730.8,636.7c0,2,0.5,3.6,1.4,4.8c0.9,1.2,2.2,1.8,3.7,1.8c1.6,0,2.8-0.6,3.7-1.8
			c0.9-1.2,1.4-2.9,1.4-5.1c0-2-0.5-3.6-1.4-4.8c-0.9-1.2-2.2-1.8-3.7-1.8c-1.5,0-2.7,0.6-3.7,1.8
			C731.3,632.8,730.8,634.5,730.8,636.7z"/>
		<path class="st5" d="M753.6,641.4l4.4-13.8h3.1l-6.4,18h-2.3l-6.5-18h3.1L753.6,641.4z"/>
		<path class="st5" d="M771.4,645.8c-2.4,0-4.4-0.8-5.9-2.4c-1.5-1.6-2.3-3.7-2.3-6.4v-0.6c0-1.8,0.3-3.4,1-4.8
			c0.7-1.4,1.6-2.5,2.9-3.3c1.2-0.8,2.5-1.2,4-1.2c2.3,0,4.2,0.8,5.4,2.3c1.3,1.5,1.9,3.7,1.9,6.6v1.3h-12.2c0,1.8,0.6,3.2,1.6,4.3
			c1,1.1,2.2,1.6,3.8,1.6c1.1,0,2-0.2,2.8-0.7c0.8-0.4,1.4-1,2-1.8l1.9,1.5C776.7,644.7,774.4,645.8,771.4,645.8z M771,629.7
			c-1.2,0-2.3,0.5-3.1,1.4c-0.8,0.9-1.4,2.2-1.6,3.8h9v-0.2c-0.1-1.6-0.5-2.8-1.3-3.6C773.3,630.2,772.3,629.7,771,629.7z"/>
		<path class="st5" d="M790.7,630.3c-0.5-0.1-1-0.1-1.5-0.1c-2,0-3.4,0.9-4.1,2.6v12.8H782v-18h3l0,2.1c1-1.6,2.4-2.4,4.3-2.4
			c0.6,0,1.1,0.1,1.4,0.2V630.3z"/>
		<path class="st5" d="M796.4,627.6l0.1,2.3c1.4-1.7,3.2-2.6,5.4-2.6c3.8,0,5.7,2.1,5.7,6.4v11.9h-3.1v-11.9c0-1.3-0.3-2.3-0.9-2.9
			c-0.6-0.6-1.5-0.9-2.7-0.9c-1,0-1.9,0.3-2.6,0.8s-1.3,1.2-1.8,2.1v12.8h-3.1v-18H796.4z"/>
		<path class="st5" d="M823.3,645.5c-0.2-0.4-0.3-1-0.4-1.9c-1.4,1.5-3.1,2.2-5.1,2.2c-1.8,0-3.2-0.5-4.4-1.5
			c-1.1-1-1.7-2.3-1.7-3.8c0-1.9,0.7-3.3,2.1-4.4c1.4-1,3.4-1.6,6-1.6h3v-1.4c0-1.1-0.3-1.9-1-2.6c-0.6-0.6-1.6-1-2.8-1
			c-1.1,0-2,0.3-2.8,0.8c-0.7,0.6-1.1,1.2-1.1,2h-3.1c0-0.9,0.3-1.8,1-2.6c0.6-0.8,1.5-1.5,2.6-2c1.1-0.5,2.3-0.7,3.6-0.7
			c2.1,0,3.7,0.5,4.9,1.6c1.2,1,1.8,2.5,1.8,4.3v8.3c0,1.6,0.2,3,0.6,3.9v0.3H823.3z M818.2,643.2c1,0,1.9-0.2,2.7-0.7
			s1.5-1.1,1.9-1.9v-3.7h-2.4c-3.8,0-5.6,1.1-5.6,3.3c0,1,0.3,1.7,1,2.3C816.4,642.9,817.2,643.2,818.2,643.2z"/>
		<path class="st5" d="M833.6,627.6l0.1,2.3c1.4-1.7,3.2-2.6,5.4-2.6c3.8,0,5.7,2.1,5.7,6.4v11.9h-3.1v-11.9c0-1.3-0.3-2.3-0.9-2.9
			c-0.6-0.6-1.5-0.9-2.7-0.9c-1,0-1.9,0.3-2.6,0.8s-1.3,1.2-1.8,2.1v12.8h-3.1v-18H833.6z"/>
		<path class="st5" d="M856.7,643.3c1.1,0,2.1-0.3,2.9-1s1.3-1.5,1.4-2.5h2.9c-0.1,1-0.4,2-1.1,2.9s-1.5,1.7-2.6,2.2
			c-1.1,0.6-2.2,0.8-3.5,0.8c-2.4,0-4.4-0.8-5.8-2.4c-1.4-1.6-2.2-3.9-2.2-6.7v-0.5c0-1.7,0.3-3.3,1-4.7s1.6-2.4,2.8-3.2
			c1.2-0.8,2.6-1.1,4.3-1.1c2,0,3.7,0.6,5,1.8c1.3,1.2,2,2.8,2.1,4.7h-2.9c-0.1-1.2-0.5-2.1-1.3-2.9c-0.8-0.7-1.8-1.1-2.9-1.1
			c-1.6,0-2.8,0.6-3.6,1.7c-0.9,1.1-1.3,2.7-1.3,4.9v0.6c0,2.1,0.4,3.7,1.3,4.8C853.9,642.8,855.1,643.3,856.7,643.3z"/>
		<path class="st5" d="M874.8,645.8c-2.4,0-4.4-0.8-5.9-2.4c-1.5-1.6-2.3-3.7-2.3-6.4v-0.6c0-1.8,0.3-3.4,1-4.8
			c0.7-1.4,1.6-2.5,2.9-3.3c1.2-0.8,2.5-1.2,4-1.2c2.3,0,4.2,0.8,5.4,2.3c1.3,1.5,1.9,3.7,1.9,6.6v1.3h-12.2c0,1.8,0.6,3.2,1.6,4.3
			c1,1.1,2.2,1.6,3.8,1.6c1.1,0,2-0.2,2.8-0.7c0.8-0.4,1.4-1,2-1.8l1.9,1.5C880,644.7,877.8,645.8,874.8,645.8z M874.4,629.7
			c-1.2,0-2.3,0.5-3.1,1.4c-0.8,0.9-1.4,2.2-1.6,3.8h9v-0.2c-0.1-1.6-0.5-2.8-1.3-3.6C876.7,630.2,875.7,629.7,874.4,629.7z"/>
		<path class="st5" d="M910.2,624h-7.8v21.6h-3.2V624h-7.8v-2.6h18.7V624z"/>
		<path class="st5" d="M910.9,636.4c0-1.8,0.3-3.3,1-4.7c0.7-1.4,1.7-2.5,2.9-3.3c1.2-0.8,2.6-1.1,4.2-1.1c2.4,0,4.4,0.8,5.9,2.5
			c1.5,1.7,2.3,3.9,2.3,6.8v0.2c0,1.7-0.3,3.3-1,4.7c-0.7,1.4-1.6,2.5-2.9,3.2c-1.2,0.8-2.7,1.2-4.3,1.2c-2.4,0-4.4-0.8-5.9-2.5
			c-1.5-1.7-2.3-3.9-2.3-6.7V636.4z M914,636.7c0,2,0.5,3.6,1.4,4.8c0.9,1.2,2.2,1.8,3.7,1.8c1.6,0,2.8-0.6,3.7-1.8
			c0.9-1.2,1.4-2.9,1.4-5.1c0-2-0.5-3.6-1.4-4.8c-0.9-1.2-2.2-1.8-3.7-1.8c-1.5,0-2.7,0.6-3.7,1.8C914.4,632.8,914,634.5,914,636.7z
			"/>
		<path class="st5" d="M936.1,637.2l-1.9,2v6.3h-3.1V620h3.1v15.4l1.6-2l5.6-5.9h3.7l-7,7.5l7.8,10.5h-3.6L936.1,637.2z"/>
		<path class="st5" d="M955.5,645.8c-2.4,0-4.4-0.8-5.9-2.4c-1.5-1.6-2.3-3.7-2.3-6.4v-0.6c0-1.8,0.3-3.4,1-4.8
			c0.7-1.4,1.6-2.5,2.9-3.3c1.2-0.8,2.5-1.2,4-1.2c2.3,0,4.2,0.8,5.4,2.3c1.3,1.5,1.9,3.7,1.9,6.6v1.3h-12.2c0,1.8,0.6,3.2,1.6,4.3
			c1,1.1,2.2,1.6,3.8,1.6c1.1,0,2-0.2,2.8-0.7c0.8-0.4,1.4-1,2-1.8l1.9,1.5C960.7,644.7,958.5,645.8,955.5,645.8z M955.1,629.7
			c-1.2,0-2.3,0.5-3.1,1.4c-0.8,0.9-1.4,2.2-1.6,3.8h9v-0.2c-0.1-1.6-0.5-2.8-1.3-3.6C957.4,630.2,956.4,629.7,955.1,629.7z"/>
		<path class="st5" d="M968.9,627.6l0.1,2.3c1.4-1.7,3.2-2.6,5.4-2.6c3.8,0,5.7,2.1,5.7,6.4v11.9h-3.1v-11.9c0-1.3-0.3-2.3-0.9-2.9
			c-0.6-0.6-1.5-0.9-2.7-0.9c-1,0-1.9,0.3-2.6,0.8s-1.3,1.2-1.8,2.1v12.8H966v-18H968.9z"/>
	</g>
	
		<linearGradient id="SVGID_00000139976650897923529750000003337151003632394908_" gradientUnits="userSpaceOnUse" x1="221.5957" y1="393.1033" x2="507.9286" y2="393.1033">
		<stop  offset="0" style="stop-color:#EC0AFA"/>
		<stop  offset="0.1686" style="stop-color:#C62DF7"/>
		<stop  offset="0.3886" style="stop-color:#9956F3"/>
		<stop  offset="0.5" style="stop-color:#8866F1"/>
		<stop  offset="0.5695" style="stop-color:#806DF0"/>
		<stop  offset="0.6795" style="stop-color:#6981ED"/>
		<stop  offset="0.8163" style="stop-color:#44A1E7"/>
		<stop  offset="0.9731" style="stop-color:#11CDE0"/>
		<stop  offset="1" style="stop-color:#07D5DF"/>
	</linearGradient>
	
		<polyline style="fill:none;stroke:url(#SVGID_00000139976650897923529750000003337151003632394908_);stroke-width:3;stroke-miterlimit:10;" points="
		506.4,300 506.4,379.5 223.1,379.5 223.1,486.2 	"/>
	
		<linearGradient id="SVGID_00000010296594726403616550000012736128182896951942_" gradientUnits="userSpaceOnUse" x1="508.4286" y1="432.12" x2="796.1513" y2="432.12">
		<stop  offset="0" style="stop-color:#07D5DF"/>
		<stop  offset="2.690003e-02" style="stop-color:#11CDE0"/>
		<stop  offset="0.1837" style="stop-color:#44A1E7"/>
		<stop  offset="0.3205" style="stop-color:#6981ED"/>
		<stop  offset="0.4305" style="stop-color:#806DF0"/>
		<stop  offset="0.5" style="stop-color:#8866F1"/>
		<stop  offset="0.6114" style="stop-color:#9956F3"/>
		<stop  offset="0.8314" style="stop-color:#C62DF7"/>
		<stop  offset="1" style="stop-color:#EC0AFA"/>
	</linearGradient>
	
		<polyline style="fill:none;stroke:url(#SVGID_00000010296594726403616550000012736128182896951942_);stroke-width:3;stroke-miterlimit:10;" points="
		508.4,379.5 794.7,379.5 794.7,486.2 	"/>
	
		<linearGradient id="SVGID_00000068641109849720588050000017536989381642806670_" gradientUnits="userSpaceOnUse" x1="222.318" y1="818.3199" x2="512.1509" y2="818.3199">
		<stop  offset="0" style="stop-color:#EC0AFA"/>
		<stop  offset="0.1686" style="stop-color:#C62DF7"/>
		<stop  offset="0.3886" style="stop-color:#9956F3"/>
		<stop  offset="0.5" style="stop-color:#8866F1"/>
		<stop  offset="0.5695" style="stop-color:#806DF0"/>
		<stop  offset="0.6795" style="stop-color:#6981ED"/>
		<stop  offset="0.8163" style="stop-color:#44A1E7"/>
		<stop  offset="0.9731" style="stop-color:#11CDE0"/>
		<stop  offset="1" style="stop-color:#07D5DF"/>
	</linearGradient>
	
		<polyline style="fill:none;stroke:url(#SVGID_00000068641109849720588050000017536989381642806670_);stroke-width:3;stroke-miterlimit:10;" points="
		512.2,765.7 223.8,765.7 223.8,872.4 	"/>
	
		<linearGradient id="SVGID_00000029747998715705574690000002224833709959882170_" gradientUnits="userSpaceOnUse" x1="507.1508" y1="818.3199" x2="795.8735" y2="818.3199">
		<stop  offset="0" style="stop-color:#07D5DF"/>
		<stop  offset="2.690003e-02" style="stop-color:#11CDE0"/>
		<stop  offset="0.1837" style="stop-color:#44A1E7"/>
		<stop  offset="0.3205" style="stop-color:#6981ED"/>
		<stop  offset="0.4305" style="stop-color:#806DF0"/>
		<stop  offset="0.5" style="stop-color:#8866F1"/>
		<stop  offset="0.6114" style="stop-color:#9956F3"/>
		<stop  offset="0.8314" style="stop-color:#C62DF7"/>
		<stop  offset="1" style="stop-color:#EC0AFA"/>
	</linearGradient>
	
		<polyline style="fill:none;stroke:url(#SVGID_00000029747998715705574690000002224833709959882170_);stroke-width:3;stroke-miterlimit:10;" points="
		507.2,765.7 794.4,765.7 794.4,872.4 	"/>
	
		<linearGradient id="SVGID_00000080906508514796082310000015964998200595036087_" gradientUnits="userSpaceOnUse" x1="223.818" y1="765.7366" x2="223.818" y2="686.2033">
		<stop  offset="0" style="stop-color:#EC0AFA"/>
		<stop  offset="0.1686" style="stop-color:#C62DF7"/>
		<stop  offset="0.3886" style="stop-color:#9956F3"/>
		<stop  offset="0.5" style="stop-color:#8866F1"/>
		<stop  offset="0.5695" style="stop-color:#806DF0"/>
		<stop  offset="0.6795" style="stop-color:#6981ED"/>
		<stop  offset="0.8163" style="stop-color:#44A1E7"/>
		<stop  offset="0.9731" style="stop-color:#11CDE0"/>
		<stop  offset="1" style="stop-color:#07D5DF"/>
	</linearGradient>
	
		<line style="fill:none;stroke:url(#SVGID_00000080906508514796082310000015964998200595036087_);stroke-width:3;stroke-miterlimit:10;" x1="223.8" y1="686.2" x2="223.8" y2="765.7"/>
	
		<linearGradient id="SVGID_00000114766153121202731080000002869265054743222173_" gradientUnits="userSpaceOnUse" x1="15.6997" y1="586.2033" x2="431.6029" y2="586.2033">
		<stop  offset="0" style="stop-color:#EC0AFA"/>
		<stop  offset="0.1686" style="stop-color:#C62DF7"/>
		<stop  offset="0.3886" style="stop-color:#9956F3"/>
		<stop  offset="0.5" style="stop-color:#8866F1"/>
		<stop  offset="0.5695" style="stop-color:#806DF0"/>
		<stop  offset="0.6795" style="stop-color:#6981ED"/>
		<stop  offset="0.8163" style="stop-color:#44A1E7"/>
		<stop  offset="0.9731" style="stop-color:#11CDE0"/>
		<stop  offset="1" style="stop-color:#07D5DF"/>
	</linearGradient>
	
		<path style="fill:none;stroke:url(#SVGID_00000114766153121202731080000002869265054743222173_);stroke-width:3;stroke-miterlimit:10;" d="
		M400.1,686.2H47.2c-16.6,0-30-13.4-30-30v-140c0-16.6,13.4-30,30-30h352.9c16.6,0,30,13.4,30,30v140
		C430.1,672.8,416.7,686.2,400.1,686.2z"/>
	
		<linearGradient id="SVGID_00000168086043967470474540000013574251110815638959_" gradientUnits="userSpaceOnUse" x1="584.9219" y1="586.2033" x2="1000.8251" y2="586.2033">
		<stop  offset="0" style="stop-color:#07D5DF"/>
		<stop  offset="2.690003e-02" style="stop-color:#11CDE0"/>
		<stop  offset="0.1837" style="stop-color:#44A1E7"/>
		<stop  offset="0.3205" style="stop-color:#6981ED"/>
		<stop  offset="0.4305" style="stop-color:#806DF0"/>
		<stop  offset="0.5" style="stop-color:#8866F1"/>
		<stop  offset="0.6114" style="stop-color:#9956F3"/>
		<stop  offset="0.8314" style="stop-color:#C62DF7"/>
		<stop  offset="1" style="stop-color:#EC0AFA"/>
	</linearGradient>
	
		<path style="fill:none;stroke:url(#SVGID_00000168086043967470474540000013574251110815638959_);stroke-width:3;stroke-miterlimit:10;" d="
		M969.3,686.2H616.4c-16.6,0-30-13.4-30-30v-140c0-16.6,13.4-30,30-30h352.9c16.6,0,30,13.4,30,30v140
		C999.3,672.8,985.9,686.2,969.3,686.2z"/>
	
		<linearGradient id="SVGID_00000025432985989679362550000003125281177907924359_" gradientUnits="userSpaceOnUse" x1="586.4219" y1="972.4033" x2="1002.3251" y2="972.4033">
		<stop  offset="0" style="stop-color:#07D5DF"/>
		<stop  offset="2.690003e-02" style="stop-color:#11CDE0"/>
		<stop  offset="0.1837" style="stop-color:#44A1E7"/>
		<stop  offset="0.3205" style="stop-color:#6981ED"/>
		<stop  offset="0.4305" style="stop-color:#806DF0"/>
		<stop  offset="0.5" style="stop-color:#8866F1"/>
		<stop  offset="0.6114" style="stop-color:#9956F3"/>
		<stop  offset="0.8314" style="stop-color:#C62DF7"/>
		<stop  offset="1" style="stop-color:#EC0AFA"/>
	</linearGradient>
	
		<path style="fill:none;stroke:url(#SVGID_00000025432985989679362550000003125281177907924359_);stroke-width:3;stroke-miterlimit:10;" d="
		M970.8,1072.4H617.9c-16.6,0-30-13.4-30-30v-140c0-16.6,13.4-30,30-30h352.9c16.6,0,30,13.4,30,30v140
		C1000.8,1059,987.4,1072.4,970.8,1072.4z"/>
	
		<linearGradient id="SVGID_00000101081768118580025000000013876209507494410631_" gradientUnits="userSpaceOnUse" x1="14.8664" y1="972.4033" x2="430.7696" y2="972.4033">
		<stop  offset="0" style="stop-color:#EC0AFA"/>
		<stop  offset="0.1686" style="stop-color:#C62DF7"/>
		<stop  offset="0.3886" style="stop-color:#9956F3"/>
		<stop  offset="0.5" style="stop-color:#8866F1"/>
		<stop  offset="0.5695" style="stop-color:#806DF0"/>
		<stop  offset="0.6795" style="stop-color:#6981ED"/>
		<stop  offset="0.8163" style="stop-color:#44A1E7"/>
		<stop  offset="0.9731" style="stop-color:#11CDE0"/>
		<stop  offset="1" style="stop-color:#07D5DF"/>
	</linearGradient>
	
		<path style="fill:none;stroke:url(#SVGID_00000101081768118580025000000013876209507494410631_);stroke-width:3;stroke-miterlimit:10;" d="
		M399.3,1072.4H46.4c-16.6,0-30-13.4-30-30v-140c0-16.6,13.4-30,28-30h352.9c18.6,0,32,13.4,32,30v140
		C429.3,1059,415.8,1072.4,399.3,1072.4z"/>
	
		<linearGradient id="SVGID_00000121974967929018424330000015233347554332157577_" gradientUnits="userSpaceOnUse" x1="222.4846" y1="162.2255" x2="794.3735" y2="162.2255">
		<stop  offset="0" style="stop-color:#EC0AFA"/>
		<stop  offset="0.1686" style="stop-color:#C62DF7"/>
		<stop  offset="0.3886" style="stop-color:#9956F3"/>
		<stop  offset="0.5" style="stop-color:#8866F1"/>
		<stop  offset="0.5695" style="stop-color:#806DF0"/>
		<stop  offset="0.6795" style="stop-color:#6981ED"/>
		<stop  offset="0.8163" style="stop-color:#44A1E7"/>
		<stop  offset="0.9731" style="stop-color:#11CDE0"/>
		<stop  offset="1" style="stop-color:#07D5DF"/>
	</linearGradient>
	
		<path style="fill:none;stroke:url(#SVGID_00000121974967929018424330000015233347554332157577_);stroke-width:3;stroke-miterlimit:10;" d="
		M762.9,300H254c-16.6,0-30-13.4-30-30V54.4c0-16.6,13.4-30,30-30h508.9c16.6,0,30,13.4,30,30V270C792.9,286.6,779.4,300,762.9,300z
		"/>
</g>
</svg>
