<?xml version="1.0" encoding="utf-8"?>
<!-- Generator: Adobe Illustrator 26.3.1, SVG Export Plug-In . SVG Version: 6.00 Build 0)  -->
<svg version="1.1" id="Layer_1" xmlns="http://www.w3.org/2000/svg" xmlns:xlink="http://www.w3.org/1999/xlink" x="0px" y="0px"
	 viewBox="0 0 1017.2 1096.9" style="enable-background:new 0 0 1017.2 1096.9;" xml:space="preserve">
<style type="text/css">
	.st0{fill:#00042A;}
	.st1{fill:url(#SVGID_1_);}
	.st2{fill:#EC0AFA;}
	.st3{fill:#07D5DF;}
	.st4{fill:#8866F1;}
	.st5{fill:#FFFFFF;}
	.st6{fill:none;stroke:url(#SVGID_00000124849487569940552440000002711083816134655156_);stroke-width:3;stroke-miterlimit:10;}
	.st7{fill:none;stroke:url(#SVGID_00000158709454005481586290000011530192220778730938_);stroke-width:3;stroke-miterlimit:10;}
	.st8{fill:none;stroke:url(#SVGID_00000002382768230574928510000006334615042709366145_);stroke-width:3;stroke-miterlimit:10;}
	.st9{fill:none;stroke:url(#SVGID_00000000935560757787284630000008062168043608314287_);stroke-width:3;stroke-miterlimit:10;}
	.st10{fill:none;stroke:url(#SVGID_00000075164597012124115230000012034814552011815867_);stroke-width:3;stroke-miterlimit:10;}
	.st11{fill:none;stroke:url(#SVGID_00000039825202396531489490000009909976867226169785_);stroke-width:3;stroke-miterlimit:10;}
	.st12{fill:none;stroke:url(#SVGID_00000174562884877590773420000011432583031898453165_);stroke-width:3;stroke-miterlimit:10;}
	.st13{fill:none;stroke:url(#SVGID_00000048502330399754754050000009735037211015833268_);stroke-width:3;stroke-miterlimit:10;}
	.st14{fill:none;stroke:url(#SVGID_00000059990966454312939690000002874042354428434067_);stroke-width:3;stroke-miterlimit:10;}
	.st15{fill:none;stroke:url(#SVGID_00000033352639466220680470000002834952449481347472_);stroke-width:3;stroke-miterlimit:10;}
</style>
<rect x="-1676.2" y="69.8" class="st0" width="1389.6" height="1558.2"/>
<linearGradient id="SVGID_1_" gradientUnits="userSpaceOnUse" x1="-884.5194" y1="193.7437" x2="-792.1194" y2="193.7437" gradientTransform="matrix(1 0 0 1 0 -77.75)">
	<stop  offset="0" style="stop-color:#EC0AFA"/>
	<stop  offset="0.1686" style="stop-color:#C62DF7"/>
	<stop  offset="0.3886" style="stop-color:#9956F3"/>
	<stop  offset="0.5" style="stop-color:#8866F1"/>
	<stop  offset="0.5695" style="stop-color:#806DF0"/>
	<stop  offset="0.6795" style="stop-color:#6981ED"/>
	<stop  offset="0.8163" style="stop-color:#44A1E7"/>
	<stop  offset="0.9731" style="stop-color:#11CDE0"/>
	<stop  offset="1" style="stop-color:#07D5DF"/>
</linearGradient>
<circle class="st1" cx="-832.2" cy="116" r="46.2"/>
<text transform="matrix(1 0 0 1 98.1567 -162.2243)"><tspan x="0" y="0" class="st3" style="font-family:'Roboto-Bold'; font-size:100px;">Multiverse Revenue</tspan><tspan x="104.1" y="88" class="st2" style="font-family:'Roboto-Regular'; font-size:73.3652px;">Jan 2022 - May 2022</tspan></text>
<text transform="matrix(1 0 0 1 1529.2596 -148.2744)"><tspan x="0" y="0" class="st5" style="font-family:'Roboto-Bold'; font-size:59.8994px;">Multiverse  Studio </tspan><tspan x="135.9" y="71.9" class="st5" style="font-family:'Roboto-Bold'; font-size:59.8994px;">Revenue</tspan></text>
<text transform="matrix(1 0 0 1 1996.9674 246.3923)"><tspan x="0" y="0" class="st5" style="font-family:'Roboto-Regular'; font-size:34px;">In-House</tspan><tspan x="-80.9" y="40.8" class="st5" style="font-family:'Roboto-Regular'; font-size:34px;">Game Development</tspan></text>
<text transform="matrix(1 0 0 1 1871.8783 340.2812)" class="st5" style="font-family:'Roboto-Regular'; font-size:34px;">$MLTI Governance Token</text>
<circle class="st2" cx="-637" cy="-210.9" r="39.8"/>
<circle class="st3" cx="-637" cy="-122.4" r="39.8"/>
<ellipse class="st4" cx="-495.1" cy="-118.5" rx="46.8" ry="46.8"/>
<g>
	<g>
		<path class="st5" d="M124.3,573c-0.8,1.2-2,2.1-3.4,2.6c-1.5,0.6-3.2,0.9-5.1,0.9c-2,0-3.7-0.5-5.2-1.4c-1.5-0.9-2.7-2.2-3.5-3.9
			c-0.8-1.7-1.3-3.7-1.3-5.9v-2.1c0-3.6,0.8-6.5,2.5-8.5c1.7-2,4.1-3,7.2-3c2.5,0,4.6,0.6,6.1,1.9c1.5,1.3,2.5,3.1,2.8,5.5h-3.2
			c-0.6-3.2-2.5-4.8-5.7-4.8c-2.1,0-3.8,0.8-4.9,2.3c-1.1,1.5-1.7,3.7-1.7,6.5v2c0,2.7,0.6,4.9,1.9,6.5s2.9,2.4,5,2.4
			c1.2,0,2.2-0.1,3.1-0.4s1.6-0.7,2.2-1.3v-5.4h-5.6v-2.6h8.8V573z"/>
		<path class="st5" d="M128.4,567c0-1.8,0.3-3.3,1-4.7c0.7-1.4,1.7-2.5,2.9-3.3c1.2-0.8,2.6-1.1,4.2-1.1c2.4,0,4.4,0.8,5.9,2.5
			c1.5,1.7,2.3,3.9,2.3,6.8v0.2c0,1.7-0.3,3.3-1,4.7c-0.7,1.4-1.6,2.5-2.9,3.2c-1.2,0.8-2.7,1.2-4.3,1.2c-2.4,0-4.4-0.8-5.9-2.5
			c-1.5-1.7-2.3-3.9-2.3-6.7V567z M131.5,567.4c0,2,0.5,3.6,1.4,4.8c0.9,1.2,2.2,1.8,3.7,1.8c1.6,0,2.8-0.6,3.7-1.8
			c0.9-1.2,1.4-2.9,1.4-5.1c0-2-0.5-3.6-1.4-4.8c-0.9-1.2-2.2-1.8-3.7-1.8c-1.5,0-2.7,0.6-3.7,1.8
			C131.9,563.4,131.5,565.1,131.5,567.4z"/>
		<path class="st5" d="M147.8,567c0-2.8,0.7-5,2-6.6s3-2.5,5.1-2.5c2.1,0,3.8,0.7,5,2.2v-9.4h3.1v25.5h-2.8l-0.1-1.9
			c-1.2,1.5-2.9,2.3-5.1,2.3c-2.1,0-3.8-0.9-5.1-2.6c-1.3-1.7-2-3.9-2-6.7V567z M150.9,567.4c0,2,0.4,3.6,1.3,4.8
			c0.8,1.2,2,1.7,3.5,1.7c1.9,0,3.4-0.9,4.3-2.6V563c-0.9-1.7-2.3-2.5-4.2-2.5c-1.5,0-2.7,0.6-3.5,1.7S150.9,565.1,150.9,567.4z"/>
		<path class="st5" d="M178.2,571.4c0-0.8-0.3-1.5-0.9-1.9c-0.6-0.5-1.7-0.9-3.3-1.2c-1.6-0.3-2.8-0.7-3.7-1.2c-0.9-0.5-1.6-1-2-1.7
			c-0.4-0.6-0.7-1.4-0.7-2.3c0-1.5,0.6-2.7,1.9-3.7c1.2-1,2.8-1.5,4.8-1.5c2,0,3.7,0.5,5,1.6c1.3,1.1,1.9,2.4,1.9,4H178
			c0-0.8-0.4-1.6-1.1-2.2c-0.7-0.6-1.6-0.9-2.7-0.9c-1.1,0-2,0.2-2.6,0.7c-0.6,0.5-0.9,1.1-0.9,1.9c0,0.7,0.3,1.3,0.9,1.7
			c0.6,0.4,1.6,0.7,3.2,1.1c1.5,0.3,2.8,0.8,3.7,1.2c1,0.5,1.7,1,2.1,1.7c0.5,0.7,0.7,1.5,0.7,2.4c0,1.6-0.6,2.9-1.9,3.9
			c-1.3,1-2.9,1.5-5,1.5c-1.4,0-2.7-0.3-3.8-0.8s-2-1.2-2.6-2.1c-0.6-0.9-0.9-1.9-0.9-3h3.1c0.1,1,0.5,1.8,1.2,2.4
			c0.8,0.6,1.8,0.9,3,0.9c1.2,0,2.1-0.2,2.8-0.7C177.9,572.8,178.2,572.2,178.2,571.4z"/>
		<path class="st5" d="M212.8,564.8c0,2.4-0.4,4.4-1.2,6.2c-0.8,1.8-1.9,3.1-3.4,4s-3.2,1.4-5.1,1.4c-1.9,0-3.6-0.5-5.1-1.4
			c-1.5-0.9-2.6-2.3-3.4-4c-0.8-1.7-1.2-3.7-1.3-6v-1.7c0-2.3,0.4-4.4,1.2-6.2c0.8-1.8,2-3.1,3.4-4.1c1.5-0.9,3.2-1.4,5.1-1.4
			c1.9,0,3.6,0.5,5.1,1.4c1.5,0.9,2.6,2.3,3.4,4.1s1.2,3.8,1.2,6.2V564.8z M209.6,563.3c0-2.9-0.6-5.1-1.7-6.6
			c-1.2-1.5-2.8-2.3-4.8-2.3c-2,0-3.6,0.8-4.8,2.3c-1.2,1.5-1.8,3.7-1.8,6.4v1.8c0,2.8,0.6,5,1.8,6.5c1.2,1.6,2.8,2.4,4.8,2.4
			c2.1,0,3.7-0.7,4.8-2.2c1.1-1.5,1.7-3.6,1.7-6.4V563.3z"/>
		<path class="st5" d="M218.6,576.1v-15.6h-2.8v-2.4h2.8v-1.8c0-1.9,0.5-3.4,1.5-4.5c1-1.1,2.5-1.6,4.4-1.6c0.7,0,1.4,0.1,2.1,0.3
			l-0.2,2.5c-0.5-0.1-1.1-0.1-1.7-0.1c-1,0-1.8,0.3-2.3,0.9s-0.8,1.4-0.8,2.5v1.9h3.8v2.4h-3.8v15.6H218.6z"/>
		<path class="st5" d="M251.1,569.8H241l-2.3,6.3h-3.3l9.2-24.2h2.8l9.2,24.2h-3.3L251.1,569.8z M242,567.2h8.2l-4.1-11.3L242,567.2
			z"/>
		<path class="st5" d="M269.9,571.4c0-0.8-0.3-1.5-0.9-1.9c-0.6-0.5-1.7-0.9-3.3-1.2c-1.6-0.3-2.8-0.7-3.7-1.2c-0.9-0.5-1.6-1-2-1.7
			c-0.4-0.6-0.7-1.4-0.7-2.3c0-1.5,0.6-2.7,1.9-3.7c1.2-1,2.8-1.5,4.8-1.5c2,0,3.7,0.5,5,1.6c1.3,1.1,1.9,2.4,1.9,4h-3.1
			c0-0.8-0.4-1.6-1.1-2.2c-0.7-0.6-1.6-0.9-2.7-0.9c-1.1,0-2,0.2-2.6,0.7c-0.6,0.5-0.9,1.1-0.9,1.9c0,0.7,0.3,1.3,0.9,1.7
			c0.6,0.4,1.6,0.7,3.2,1.1c1.5,0.3,2.8,0.8,3.7,1.2c1,0.5,1.7,1,2.1,1.7c0.5,0.7,0.7,1.5,0.7,2.4c0,1.6-0.6,2.9-1.9,3.9
			c-1.3,1-2.9,1.5-5,1.5c-1.4,0-2.7-0.3-3.8-0.8s-2-1.2-2.6-2.1c-0.6-0.9-0.9-1.9-0.9-3h3.1c0.1,1,0.5,1.8,1.2,2.4
			c0.8,0.6,1.8,0.9,3,0.9c1.2,0,2.1-0.2,2.8-0.7C269.6,572.8,269.9,572.2,269.9,571.4z"/>
		<path class="st5" d="M276.3,567c0-2.8,0.6-5,1.9-6.7c1.3-1.7,3-2.5,5.1-2.5c2.2,0,3.9,0.8,5.1,2.3l0.1-2h2.8v17.5
			c0,2.3-0.7,4.2-2.1,5.5c-1.4,1.3-3.2,2-5.6,2c-1.3,0-2.6-0.3-3.8-0.8c-1.2-0.6-2.2-1.3-2.8-2.3l1.6-1.8c1.3,1.6,2.9,2.4,4.8,2.4
			c1.5,0,2.7-0.4,3.5-1.3c0.8-0.8,1.3-2,1.3-3.6v-1.5c-1.2,1.4-2.9,2.1-5,2.1c-2.1,0-3.8-0.8-5.1-2.5
			C276.9,572.2,276.3,569.9,276.3,567z M279.4,567.4c0,2,0.4,3.6,1.2,4.8c0.8,1.2,2,1.7,3.5,1.7c1.9,0,3.4-0.9,4.3-2.6V563
			c-0.9-1.7-2.4-2.6-4.2-2.6c-1.5,0-2.7,0.6-3.5,1.7S279.4,565.1,279.4,567.4z"/>
		<path class="st5" d="M307.2,576.1c-0.2-0.4-0.3-1-0.4-1.9c-1.4,1.5-3.1,2.2-5.1,2.2c-1.8,0-3.2-0.5-4.4-1.5
			c-1.1-1-1.7-2.3-1.7-3.8c0-1.9,0.7-3.3,2.1-4.4c1.4-1,3.4-1.6,6-1.6h3v-1.4c0-1.1-0.3-1.9-1-2.6c-0.6-0.6-1.6-1-2.8-1
			c-1.1,0-2,0.3-2.8,0.8c-0.7,0.6-1.1,1.2-1.1,2h-3.1c0-0.9,0.3-1.8,1-2.6c0.6-0.8,1.5-1.5,2.6-2c1.1-0.5,2.3-0.7,3.6-0.7
			c2.1,0,3.7,0.5,4.9,1.6c1.2,1,1.8,2.5,1.8,4.3v8.3c0,1.6,0.2,3,0.6,3.9v0.3H307.2z M302.1,573.8c1,0,1.9-0.2,2.7-0.7
			s1.5-1.1,1.9-1.9v-3.7h-2.4c-3.8,0-5.6,1.1-5.6,3.3c0,1,0.3,1.7,1,2.3C300.2,573.5,301.1,573.8,302.1,573.8z"/>
		<path class="st5" d="M323.2,560.9c-0.5-0.1-1-0.1-1.5-0.1c-2,0-3.4,0.9-4.1,2.6v12.8h-3.1v-18h3l0,2.1c1-1.6,2.4-2.4,4.3-2.4
			c0.6,0,1.1,0.1,1.4,0.2V560.9z"/>
		<path class="st5" d="M325,567c0-2.8,0.7-5,2-6.6s3-2.5,5.1-2.5c2.1,0,3.8,0.7,5,2.2v-9.4h3.1v25.5h-2.8l-0.1-1.9
			c-1.2,1.5-2.9,2.3-5.1,2.3c-2.1,0-3.8-0.9-5.1-2.6c-1.3-1.7-2-3.9-2-6.7V567z M328.1,567.4c0,2,0.4,3.6,1.3,4.8
			c0.8,1.2,2,1.7,3.5,1.7c1.9,0,3.4-0.9,4.3-2.6V563c-0.9-1.7-2.3-2.5-4.2-2.5c-1.5,0-2.7,0.6-3.5,1.7S328.1,565.1,328.1,567.4z"/>
		<path class="st5" d="M99.8,609.3c-0.3,2.6-1.2,4.5-2.8,5.9c-1.6,1.4-3.7,2.1-6.3,2.1c-2.9,0-5.1-1-6.9-3.1c-1.7-2-2.6-4.8-2.6-8.2
			v-2.3c0-2.2,0.4-4.2,1.2-5.9c0.8-1.7,1.9-3,3.4-3.9s3.2-1.4,5.1-1.4c2.6,0,4.6,0.7,6.2,2.1c1.5,1.4,2.5,3.4,2.7,6h-3.2
			c-0.3-1.9-0.9-3.3-1.8-4.2c-0.9-0.9-2.2-1.3-3.9-1.3c-2,0-3.6,0.8-4.8,2.3c-1.2,1.5-1.7,3.6-1.7,6.4v2.3c0,2.6,0.5,4.7,1.6,6.3
			s2.6,2.3,4.6,2.3c1.8,0,3.1-0.4,4.1-1.2c0.9-0.8,1.6-2.2,1.9-4.2H99.8z"/>
		<path class="st5" d="M102.9,607.8c0-1.8,0.3-3.3,1-4.7c0.7-1.4,1.7-2.5,2.9-3.3c1.2-0.8,2.6-1.1,4.2-1.1c2.4,0,4.4,0.8,5.9,2.5
			c1.5,1.7,2.3,3.9,2.3,6.8v0.2c0,1.7-0.3,3.3-1,4.7c-0.7,1.4-1.6,2.5-2.9,3.2c-1.2,0.8-2.7,1.2-4.3,1.2c-2.4,0-4.4-0.8-5.9-2.5
			c-1.5-1.7-2.3-3.9-2.3-6.7V607.8z M105.9,608.2c0,2,0.5,3.6,1.4,4.8c0.9,1.2,2.2,1.8,3.7,1.8c1.6,0,2.8-0.6,3.7-1.8
			c0.9-1.2,1.4-2.9,1.4-5.1c0-2-0.5-3.6-1.4-4.8c-0.9-1.2-2.2-1.8-3.7-1.8c-1.5,0-2.7,0.6-3.7,1.8
			C106.4,604.2,105.9,605.9,105.9,608.2z"/>
		<path class="st5" d="M126,599l0.1,2.3c1.4-1.7,3.2-2.6,5.4-2.6c3.8,0,5.7,2.1,5.7,6.4v11.9h-3.1V605c0-1.3-0.3-2.3-0.9-2.9
			c-0.6-0.6-1.5-0.9-2.7-0.9c-1,0-1.9,0.3-2.6,0.8c-0.8,0.5-1.3,1.2-1.8,2.1v12.8h-3.1v-18H126z"/>
		<path class="st5" d="M146,594.6v4.3h3.4v2.4H146v11.2c0,0.7,0.1,1.3,0.4,1.6s0.8,0.5,1.5,0.5c0.4,0,0.8-0.1,1.5-0.2v2.5
			c-0.8,0.2-1.6,0.3-2.4,0.3c-1.4,0-2.4-0.4-3.1-1.2s-1-2-1-3.5v-11.1h-3.3V599h3.3v-4.3H146z"/>
		<path class="st5" d="M161.6,601.7c-0.5-0.1-1-0.1-1.5-0.1c-2,0-3.4,0.9-4.1,2.6v12.8h-3.1v-18h3l0,2.1c1-1.6,2.4-2.4,4.3-2.4
			c0.6,0,1.1,0.1,1.4,0.2V601.7z"/>
		<path class="st5" d="M174.9,616.9c-0.2-0.4-0.3-1-0.4-1.9c-1.4,1.5-3.1,2.2-5.1,2.2c-1.8,0-3.2-0.5-4.4-1.5
			c-1.1-1-1.7-2.3-1.7-3.8c0-1.9,0.7-3.3,2.1-4.4c1.4-1,3.4-1.6,6-1.6h3v-1.4c0-1.1-0.3-1.9-1-2.6c-0.6-0.6-1.6-1-2.8-1
			c-1.1,0-2,0.3-2.8,0.8c-0.7,0.6-1.1,1.2-1.1,2h-3.1c0-0.9,0.3-1.8,1-2.6c0.6-0.8,1.5-1.5,2.6-2c1.1-0.5,2.3-0.7,3.6-0.7
			c2.1,0,3.7,0.5,4.9,1.6c1.2,1,1.8,2.5,1.8,4.3v8.3c0,1.6,0.2,3,0.6,3.9v0.3H174.9z M169.8,614.6c1,0,1.9-0.2,2.7-0.7
			s1.5-1.1,1.9-1.9v-3.7H172c-3.8,0-5.6,1.1-5.6,3.3c0,1,0.3,1.7,1,2.3C167.9,614.3,168.8,614.6,169.8,614.6z"/>
		<path class="st5" d="M189.5,614.8c1.1,0,2.1-0.3,2.9-1s1.3-1.5,1.4-2.5h2.9c-0.1,1-0.4,2-1.1,2.9s-1.5,1.7-2.6,2.2
			c-1.1,0.6-2.2,0.8-3.5,0.8c-2.4,0-4.4-0.8-5.8-2.4c-1.4-1.6-2.2-3.9-2.2-6.7v-0.5c0-1.7,0.3-3.3,1-4.7s1.6-2.4,2.8-3.2
			c1.2-0.8,2.6-1.1,4.3-1.1c2,0,3.7,0.6,5,1.8c1.3,1.2,2,2.8,2.1,4.7h-2.9c-0.1-1.2-0.5-2.1-1.3-2.9c-0.8-0.7-1.8-1.1-2.9-1.1
			c-1.6,0-2.8,0.6-3.6,1.7c-0.9,1.1-1.3,2.7-1.3,4.9v0.6c0,2.1,0.4,3.7,1.3,4.8C186.7,614.2,187.9,614.8,189.5,614.8z"/>
		<path class="st5" d="M204.2,594.6v4.3h3.4v2.4h-3.4v11.2c0,0.7,0.1,1.3,0.4,1.6s0.8,0.5,1.5,0.5c0.4,0,0.8-0.1,1.5-0.2v2.5
			c-0.8,0.2-1.6,0.3-2.4,0.3c-1.4,0-2.4-0.4-3.1-1.2s-1-2-1-3.5v-11.1h-3.3V599h3.3v-4.3H204.2z"/>
		<path class="st5" d="M218.6,617.3c-2.4,0-4.4-0.8-5.9-2.4c-1.5-1.6-2.3-3.7-2.3-6.4v-0.6c0-1.8,0.3-3.4,1-4.8
			c0.7-1.4,1.6-2.5,2.9-3.3c1.2-0.8,2.5-1.2,4-1.2c2.3,0,4.2,0.8,5.4,2.3c1.3,1.5,1.9,3.7,1.9,6.6v1.3h-12.2c0,1.8,0.6,3.2,1.6,4.3
			c1,1.1,2.2,1.6,3.8,1.6c1.1,0,2-0.2,2.8-0.7c0.8-0.4,1.4-1,2-1.8l1.9,1.5C223.9,616.1,221.6,617.3,218.6,617.3z M218.2,601.2
			c-1.2,0-2.3,0.5-3.1,1.4c-0.8,0.9-1.4,2.2-1.6,3.8h9v-0.2c-0.1-1.6-0.5-2.8-1.3-3.6C220.5,601.6,219.5,601.2,218.2,601.2z"/>
		<path class="st5" d="M228.4,607.8c0-2.8,0.7-5,2-6.6s3-2.5,5.1-2.5c2.1,0,3.8,0.7,5,2.2v-9.4h3.1v25.5h-2.8l-0.1-1.9
			c-1.2,1.5-2.9,2.3-5.1,2.3c-2.1,0-3.8-0.9-5.1-2.6c-1.3-1.7-2-3.9-2-6.7V607.8z M231.5,608.2c0,2,0.4,3.6,1.3,4.8
			c0.8,1.2,2,1.7,3.5,1.7c1.9,0,3.4-0.9,4.3-2.6v-8.3c-0.9-1.7-2.3-2.5-4.2-2.5c-1.5,0-2.7,0.6-3.5,1.7S231.5,605.9,231.5,608.2z"/>
		<path class="st5" d="M272,608.2c0,2.7-0.6,5-1.9,6.6c-1.3,1.7-3,2.5-5.1,2.5c-2.3,0-4-0.8-5.3-2.4l-0.1,2.1h-2.8v-25.5h3.1v9.5
			c1.2-1.5,2.9-2.3,5.1-2.3s3.9,0.8,5.1,2.5c1.2,1.6,1.9,3.9,1.9,6.8V608.2z M268.9,607.8c0-2.1-0.4-3.7-1.2-4.8
			c-0.8-1.1-2-1.7-3.5-1.7c-2,0-3.5,0.9-4.4,2.8v7.8c0.9,1.9,2.4,2.8,4.4,2.8c1.5,0,2.6-0.6,3.4-1.7
			C268.5,611.8,268.9,610.1,268.9,607.8z"/>
		<path class="st5" d="M281.5,612.4l4.2-13.5h3.3l-7.2,20.7c-1.1,3-2.9,4.5-5.3,4.5l-0.6,0l-1.1-0.2v-2.5l0.8,0.1
			c1,0,1.9-0.2,2.4-0.6c0.6-0.4,1.1-1.2,1.4-2.3l0.7-1.8l-6.4-17.8h3.4L281.5,612.4z"/>
		<path class="st5" d="M316.7,595.4h-7.8v21.6h-3.2v-21.6H298v-2.6h18.7V595.4z"/>
		<path class="st5" d="M322.9,601.1c1.4-1.7,3.1-2.5,5.3-2.5c3.8,0,5.7,2.1,5.7,6.4v11.9h-3.1V605c0-1.3-0.3-2.3-0.9-2.9
			c-0.6-0.6-1.5-0.9-2.7-0.9c-1,0-1.9,0.3-2.6,0.8s-1.3,1.2-1.8,2.1v12.8h-3.1v-25.5h3.1V601.1z"/>
		<path class="st5" d="M337.7,607.8c0-1.8,0.3-3.3,1-4.7c0.7-1.4,1.7-2.5,2.9-3.3c1.2-0.8,2.6-1.1,4.2-1.1c2.4,0,4.4,0.8,5.9,2.5
			c1.5,1.7,2.3,3.9,2.3,6.8v0.2c0,1.7-0.3,3.3-1,4.7c-0.7,1.4-1.6,2.5-2.9,3.2c-1.2,0.8-2.7,1.2-4.3,1.2c-2.4,0-4.4-0.8-5.9-2.5
			c-1.5-1.7-2.3-3.9-2.3-6.7V607.8z M340.8,608.2c0,2,0.5,3.6,1.4,4.8c0.9,1.2,2.2,1.8,3.7,1.8c1.6,0,2.8-0.6,3.7-1.8
			c0.9-1.2,1.4-2.9,1.4-5.1c0-2-0.5-3.6-1.4-4.8c-0.9-1.2-2.2-1.8-3.7-1.8c-1.5,0-2.7,0.6-3.7,1.8
			C341.3,604.2,340.8,605.9,340.8,608.2z"/>
		<path class="st5" d="M366.6,601.7c-0.5-0.1-1-0.1-1.5-0.1c-2,0-3.4,0.9-4.1,2.6v12.8h-3.1v-18h3l0,2.1c1-1.6,2.4-2.4,4.3-2.4
			c0.6,0,1.1,0.1,1.4,0.2V601.7z"/>
	</g>
	<g>
		<path class="st5" d="M131.7,940.7c0-1-0.4-1.9-1.1-2.6c-0.7-0.7-1.9-1.3-3.6-1.9c-2.4-0.7-4.1-1.7-5.2-2.8
			c-1.1-1.2-1.6-2.6-1.6-4.4c0-1.8,0.5-3.3,1.6-4.5c1.1-1.2,2.5-1.9,4.4-2.1v-3.6h2.5v3.7c1.9,0.3,3.3,1,4.3,2.3
			c1,1.3,1.6,3.1,1.6,5.4h-3.1c0-1.6-0.4-2.8-1.1-3.7c-0.7-0.9-1.7-1.4-3-1.4c-1.3,0-2.3,0.3-3,1s-1,1.6-1,2.9c0,1.1,0.4,2,1.1,2.7
			c0.7,0.7,1.9,1.3,3.6,1.8c1.7,0.5,3,1.2,4,1.8c0.9,0.7,1.6,1.4,2.1,2.3c0.4,0.9,0.7,1.9,0.7,3.1c0,1.9-0.6,3.4-1.7,4.5
			c-1.1,1.1-2.7,1.8-4.7,2v3.2h-2.5v-3.2c-2.1-0.2-3.7-0.9-4.8-2.2c-1.2-1.3-1.8-3-1.8-5.2h3.1c0,1.5,0.4,2.7,1.2,3.6s2,1.2,3.4,1.2
			c1.5,0,2.6-0.3,3.4-1S131.7,941.9,131.7,940.7z"/>
		<path class="st5" d="M154.5,946.9h-15.8v-2.2l8.4-9.3c1.2-1.4,2.1-2.5,2.6-3.4c0.5-0.9,0.7-1.8,0.7-2.7c0-1.3-0.4-2.3-1.1-3.1
			s-1.8-1.2-3.1-1.2c-1.5,0-2.7,0.4-3.6,1.3c-0.8,0.9-1.3,2.1-1.3,3.6h-3.1c0-2.2,0.7-4,2.1-5.4c1.4-1.4,3.4-2.1,5.8-2.1
			c2.2,0,4,0.6,5.3,1.8s2,2.7,2,4.7c0,2.4-1.5,5.2-4.5,8.5l-6.5,7h12.1V946.9z"/>
		<path class="st5" d="M172.9,936.6c0,3.6-0.6,6.3-1.8,8s-3.1,2.6-5.8,2.6c-2.6,0-4.5-0.9-5.7-2.6s-1.9-4.3-1.9-7.7v-4.1
			c0-3.6,0.6-6.2,1.8-7.9s3.2-2.6,5.8-2.6c2.6,0,4.5,0.8,5.7,2.5c1.2,1.7,1.9,4.2,1.9,7.7V936.6z M169.8,932.4
			c0-2.6-0.4-4.5-1.1-5.7c-0.7-1.2-1.9-1.8-3.5-1.8c-1.6,0-2.7,0.6-3.4,1.8s-1.1,3-1.1,5.5v4.9c0,2.6,0.4,4.5,1.1,5.8
			c0.8,1.2,1.9,1.9,3.4,1.9c1.5,0,2.6-0.6,3.4-1.8c0.7-1.2,1.1-3,1.2-5.5V932.4z"/>
		<path class="st5" d="M192,936.6c0,3.6-0.6,6.3-1.8,8s-3.1,2.6-5.8,2.6c-2.6,0-4.5-0.9-5.7-2.6s-1.9-4.3-1.9-7.7v-4.1
			c0-3.6,0.6-6.2,1.8-7.9s3.2-2.6,5.8-2.6c2.6,0,4.5,0.8,5.7,2.5c1.2,1.7,1.9,4.2,1.9,7.7V936.6z M188.9,932.4
			c0-2.6-0.4-4.5-1.1-5.7c-0.7-1.2-1.9-1.8-3.5-1.8c-1.6,0-2.7,0.6-3.4,1.8s-1.1,3-1.1,5.5v4.9c0,2.6,0.4,4.5,1.1,5.8
			c0.8,1.2,1.9,1.9,3.4,1.9c1.5,0,2.6-0.6,3.4-1.8c0.7-1.2,1.1-3,1.2-5.5V932.4z"/>
		<path class="st5" d="M196.1,951.7l-1.7-1.2c1-1.5,1.6-2.9,1.6-4.5v-2.8h3v2.4c0,1.1-0.3,2.2-0.8,3.4
			C197.6,950.2,197,951.1,196.1,951.7z"/>
		<path class="st5" d="M217.7,936.6c0,3.6-0.6,6.3-1.8,8s-3.1,2.6-5.8,2.6c-2.6,0-4.5-0.9-5.7-2.6s-1.9-4.3-1.9-7.7v-4.1
			c0-3.6,0.6-6.2,1.8-7.9s3.2-2.6,5.8-2.6c2.6,0,4.5,0.8,5.7,2.5c1.2,1.7,1.9,4.2,1.9,7.7V936.6z M214.7,932.4
			c0-2.6-0.4-4.5-1.1-5.7c-0.7-1.2-1.9-1.8-3.5-1.8c-1.6,0-2.7,0.6-3.4,1.8s-1.1,3-1.1,5.5v4.9c0,2.6,0.4,4.5,1.1,5.8
			c0.8,1.2,1.9,1.9,3.4,1.9c1.5,0,2.6-0.6,3.4-1.8c0.7-1.2,1.1-3,1.2-5.5V932.4z"/>
		<path class="st5" d="M236.8,936.6c0,3.6-0.6,6.3-1.8,8s-3.1,2.6-5.8,2.6c-2.6,0-4.5-0.9-5.7-2.6s-1.9-4.3-1.9-7.7v-4.1
			c0-3.6,0.6-6.2,1.8-7.9s3.2-2.6,5.8-2.6c2.6,0,4.5,0.8,5.7,2.5c1.2,1.7,1.9,4.2,1.9,7.7V936.6z M233.8,932.4
			c0-2.6-0.4-4.5-1.1-5.7c-0.7-1.2-1.9-1.8-3.5-1.8c-1.6,0-2.7,0.6-3.4,1.8s-1.1,3-1.1,5.5v4.9c0,2.6,0.4,4.5,1.1,5.8
			c0.8,1.2,1.9,1.9,3.4,1.9c1.5,0,2.6-0.6,3.4-1.8c0.7-1.2,1.1-3,1.2-5.5V932.4z"/>
		<path class="st5" d="M255.9,936.6c0,3.6-0.6,6.3-1.8,8s-3.1,2.6-5.8,2.6c-2.6,0-4.5-0.9-5.7-2.6s-1.9-4.3-1.9-7.7v-4.1
			c0-3.6,0.6-6.2,1.8-7.9s3.2-2.6,5.8-2.6c2.6,0,4.5,0.8,5.7,2.5c1.2,1.7,1.9,4.2,1.9,7.7V936.6z M252.8,932.4
			c0-2.6-0.4-4.5-1.1-5.7c-0.7-1.2-1.9-1.8-3.5-1.8c-1.6,0-2.7,0.6-3.4,1.8s-1.1,3-1.1,5.5v4.9c0,2.6,0.4,4.5,1.1,5.8
			c0.8,1.2,1.9,1.9,3.4,1.9c1.5,0,2.6-0.6,3.4-1.8c0.7-1.2,1.1-3,1.2-5.5V932.4z"/>
		<path class="st5" d="M286.1,922.7v16.4c0,2.3-0.7,4.1-2.2,5.6c-1.4,1.5-3.4,2.3-5.8,2.4l-0.8,0c-2.6,0-4.8-0.7-6.3-2.1
			s-2.4-3.4-2.4-5.9v-16.5h3.2v16.4c0,1.7,0.5,3.1,1.4,4.1c1,1,2.3,1.5,4.1,1.5c1.8,0,3.2-0.5,4.1-1.4c1-1,1.4-2.3,1.4-4.1v-16.4
			H286.1z"/>
		<path class="st5" d="M298.2,936.1c-2.7-0.8-4.7-1.8-6-2.9c-1.2-1.1-1.9-2.6-1.9-4.2c0-1.9,0.8-3.5,2.3-4.7
			c1.5-1.2,3.5-1.9,5.9-1.9c1.7,0,3.1,0.3,4.4,1c1.3,0.6,2.3,1.5,3,2.7c0.7,1.1,1.1,2.4,1.1,3.7h-3.2c0-1.5-0.5-2.6-1.4-3.5
			s-2.2-1.3-3.9-1.3c-1.6,0-2.8,0.3-3.7,1c-0.9,0.7-1.3,1.7-1.3,2.9c0,1,0.4,1.8,1.3,2.5c0.8,0.7,2.3,1.3,4.3,1.9
			c2,0.6,3.6,1.2,4.7,1.9c1.1,0.7,2,1.5,2.5,2.4c0.5,0.9,0.8,2,0.8,3.2c0,2-0.8,3.5-2.3,4.7s-3.6,1.8-6.1,1.8c-1.7,0-3.2-0.3-4.6-1
			c-1.4-0.6-2.5-1.5-3.3-2.6c-0.8-1.1-1.2-2.4-1.2-3.8h3.2c0,1.5,0.5,2.6,1.6,3.5c1.1,0.8,2.5,1.3,4.3,1.3c1.7,0,3-0.3,3.9-1
			s1.3-1.6,1.3-2.8s-0.4-2.1-1.2-2.7S300.4,936.8,298.2,936.1z"/>
		<path class="st5" d="M311.3,946.9v-24.2h6.8c2.1,0,4,0.5,5.6,1.4s2.9,2.3,3.7,4c0.9,1.7,1.3,3.7,1.3,5.9v1.5c0,2.3-0.4,4.3-1.3,6
			c-0.9,1.7-2.1,3-3.8,4c-1.6,0.9-3.5,1.4-5.7,1.4H311.3z M314.5,925.4v19h3.4c2.5,0,4.4-0.8,5.7-2.3c1.4-1.5,2.1-3.7,2.1-6.5v-1.4
			c0-2.7-0.6-4.9-1.9-6.4c-1.3-1.5-3.1-2.3-5.5-2.3H314.5z"/>
		<path class="st5" d="M88.6,987.7H72.8v-2.2l8.4-9.3c1.2-1.4,2.1-2.5,2.6-3.4c0.5-0.9,0.7-1.8,0.7-2.7c0-1.3-0.4-2.3-1.1-3.1
			s-1.8-1.2-3.1-1.2c-1.5,0-2.7,0.4-3.6,1.3c-0.8,0.9-1.3,2.1-1.3,3.6h-3.1c0-2.2,0.7-4,2.1-5.4c1.4-1.4,3.4-2.1,5.8-2.1
			c2.2,0,4,0.6,5.3,1.8s2,2.7,2,4.7c0,2.4-1.5,5.2-4.5,8.5l-6.5,7h12.1V987.7z"/>
		<path class="st5" d="M107,977.4c0,3.6-0.6,6.3-1.8,8s-3.1,2.6-5.8,2.6c-2.6,0-4.5-0.9-5.7-2.6s-1.9-4.3-1.9-7.7v-4.1
			c0-3.6,0.6-6.2,1.8-7.9s3.2-2.6,5.8-2.6c2.6,0,4.5,0.8,5.7,2.5c1.2,1.7,1.9,4.2,1.9,7.7V977.4z M104,973.2c0-2.6-0.4-4.5-1.1-5.7
			c-0.7-1.2-1.9-1.8-3.5-1.8c-1.6,0-2.7,0.6-3.4,1.8s-1.1,3-1.1,5.5v4.9c0,2.6,0.4,4.5,1.1,5.8c0.8,1.2,1.9,1.9,3.4,1.9
			c1.5,0,2.6-0.6,3.4-1.8c0.7-1.2,1.1-3,1.2-5.5V973.2z"/>
		<path class="st5" d="M110.7,968.2c0-1.5,0.5-2.6,1.4-3.6c0.9-0.9,2.1-1.4,3.6-1.4c1.5,0,2.7,0.5,3.6,1.4c0.9,0.9,1.4,2.2,1.4,3.7
			v1.2c0,1.5-0.5,2.7-1.4,3.6c-0.9,0.9-2.1,1.4-3.5,1.4c-1.4,0-2.6-0.5-3.6-1.4c-0.9-0.9-1.4-2.2-1.4-3.7V968.2z M113,969.5
			c0,0.9,0.2,1.6,0.7,2.1c0.5,0.6,1.1,0.8,2,0.8c0.8,0,1.4-0.3,1.9-0.8c0.5-0.5,0.7-1.3,0.7-2.2v-1.2c0-0.9-0.2-1.6-0.7-2.1
			s-1.1-0.8-1.9-0.8s-1.5,0.3-1.9,0.8s-0.7,1.3-0.7,2.2V969.5z M116.4,985.9l-1.7-1.1l11.8-18.9l1.7,1.1L116.4,985.9z M122.5,981.8
			c0-1.5,0.5-2.6,1.4-3.6c0.9-0.9,2.1-1.4,3.6-1.4c1.5,0,2.6,0.5,3.6,1.4s1.4,2.2,1.4,3.7v1.2c0,1.5-0.5,2.6-1.4,3.6
			c-0.9,0.9-2.1,1.4-3.5,1.4c-1.4,0-2.6-0.5-3.6-1.4c-0.9-0.9-1.4-2.2-1.4-3.7V981.8z M124.8,983.1c0,0.9,0.2,1.6,0.7,2.2
			c0.5,0.6,1.1,0.8,2,0.8c0.8,0,1.4-0.3,1.9-0.8c0.5-0.5,0.7-1.3,0.7-2.2v-1.2c0-0.9-0.2-1.6-0.7-2.1c-0.5-0.6-1.1-0.8-1.9-0.8
			c-0.8,0-1.4,0.3-1.9,0.8c-0.5,0.5-0.7,1.3-0.7,2.2V983.1z"/>
		<path class="st5" d="M143.8,978.6c0-1.8,0.3-3.3,1-4.7c0.7-1.4,1.7-2.5,2.9-3.3c1.2-0.8,2.6-1.1,4.2-1.1c2.4,0,4.4,0.8,5.9,2.5
			c1.5,1.7,2.3,3.9,2.3,6.8v0.2c0,1.7-0.3,3.3-1,4.7c-0.7,1.4-1.6,2.5-2.9,3.2c-1.2,0.8-2.7,1.2-4.3,1.2c-2.4,0-4.4-0.8-5.9-2.5
			c-1.5-1.7-2.3-3.9-2.3-6.7V978.6z M146.9,978.9c0,2,0.5,3.6,1.4,4.8c0.9,1.2,2.2,1.8,3.7,1.8c1.6,0,2.8-0.6,3.7-1.8
			c0.9-1.2,1.4-2.9,1.4-5.1c0-2-0.5-3.6-1.4-4.8c-0.9-1.2-2.2-1.8-3.7-1.8c-1.5,0-2.7,0.6-3.7,1.8S146.9,976.7,146.9,978.9z"/>
		<path class="st5" d="M165.5,987.7v-15.6h-2.8v-2.4h2.8v-1.8c0-1.9,0.5-3.4,1.5-4.5s2.5-1.6,4.4-1.6c0.7,0,1.4,0.1,2.1,0.3
			l-0.2,2.5c-0.5-0.1-1.1-0.1-1.7-0.1c-1,0-1.8,0.3-2.3,0.9s-0.8,1.4-0.8,2.5v1.9h3.8v2.4h-3.8v15.6H165.5z"/>
		<path class="st5" d="M183.5,978.6c0-2.8,0.7-5,2-6.6s3-2.5,5.1-2.5c2.1,0,3.8,0.7,5,2.2v-9.4h3.1v25.5h-2.8l-0.1-1.9
			c-1.2,1.5-2.9,2.3-5.1,2.3c-2.1,0-3.8-0.9-5.1-2.6c-1.3-1.7-2-3.9-2-6.7V978.6z M186.5,978.9c0,2,0.4,3.6,1.3,4.8s2,1.7,3.5,1.7
			c1.9,0,3.4-0.9,4.3-2.6v-8.3c-0.9-1.7-2.3-2.5-4.2-2.5c-1.5,0-2.7,0.6-3.5,1.7S186.5,976.7,186.5,978.9z"/>
		<path class="st5" d="M210.8,988.1c-2.4,0-4.4-0.8-5.9-2.4c-1.5-1.6-2.3-3.7-2.3-6.4v-0.6c0-1.8,0.3-3.4,1-4.8
			c0.7-1.4,1.6-2.5,2.9-3.3c1.2-0.8,2.5-1.2,4-1.2c2.3,0,4.2,0.8,5.4,2.3s1.9,3.7,1.9,6.6v1.3h-12.2c0,1.8,0.6,3.2,1.6,4.3
			c1,1.1,2.2,1.6,3.8,1.6c1.1,0,2-0.2,2.8-0.7s1.4-1,2-1.8l1.9,1.5C216.1,986.9,213.9,988.1,210.8,988.1z M210.5,971.9
			c-1.2,0-2.3,0.5-3.1,1.4c-0.8,0.9-1.4,2.2-1.6,3.8h9v-0.2c-0.1-1.6-0.5-2.8-1.3-3.6C212.8,972.4,211.7,971.9,210.5,971.9z"/>
		<path class="st5" d="M227.1,983.6l4.4-13.8h3.1l-6.4,18h-2.3l-6.5-18h3.1L227.1,983.6z"/>
		<path class="st5" d="M244.9,988.1c-2.4,0-4.4-0.8-5.9-2.4c-1.5-1.6-2.3-3.7-2.3-6.4v-0.6c0-1.8,0.3-3.4,1-4.8
			c0.7-1.4,1.6-2.5,2.9-3.3c1.2-0.8,2.5-1.2,4-1.2c2.3,0,4.2,0.8,5.4,2.3s1.9,3.7,1.9,6.6v1.3h-12.2c0,1.8,0.6,3.2,1.6,4.3
			c1,1.1,2.2,1.6,3.8,1.6c1.1,0,2-0.2,2.8-0.7s1.4-1,2-1.8l1.9,1.5C250.2,986.9,247.9,988.1,244.9,988.1z M244.5,971.9
			c-1.2,0-2.3,0.5-3.1,1.4c-0.8,0.9-1.4,2.2-1.6,3.8h9v-0.2c-0.1-1.6-0.5-2.8-1.3-3.6C246.8,972.4,245.8,971.9,244.5,971.9z"/>
		<path class="st5" d="M258.8,987.7h-3.1v-25.5h3.1V987.7z"/>
		<path class="st5" d="M262.9,978.6c0-1.8,0.3-3.3,1-4.7c0.7-1.4,1.7-2.5,2.9-3.3c1.2-0.8,2.6-1.1,4.2-1.1c2.4,0,4.4,0.8,5.9,2.5
			c1.5,1.7,2.3,3.9,2.3,6.8v0.2c0,1.7-0.3,3.3-1,4.7c-0.7,1.4-1.6,2.5-2.9,3.2c-1.2,0.8-2.7,1.2-4.3,1.2c-2.4,0-4.4-0.8-5.9-2.5
			c-1.5-1.7-2.3-3.9-2.3-6.7V978.6z M266,978.9c0,2,0.5,3.6,1.4,4.8c0.9,1.2,2.2,1.8,3.7,1.8c1.6,0,2.8-0.6,3.7-1.8
			c0.9-1.2,1.4-2.9,1.4-5.1c0-2-0.5-3.6-1.4-4.8c-0.9-1.2-2.2-1.8-3.7-1.8c-1.5,0-2.7,0.6-3.7,1.8S266,976.7,266,978.9z"/>
		<path class="st5" d="M298.3,978.9c0,2.7-0.6,4.9-1.9,6.6s-2.9,2.5-5.1,2.5c-2.2,0-3.9-0.7-5.1-2.1v8.6h-3.1v-24.9h2.8l0.1,2
			c1.3-1.5,3-2.3,5.2-2.3c2.2,0,3.9,0.8,5.1,2.4c1.3,1.6,1.9,3.9,1.9,6.8V978.9z M295.2,978.6c0-2-0.4-3.6-1.3-4.8s-2-1.8-3.6-1.8
			c-1.9,0-3.3,0.8-4.2,2.5v8.6c0.9,1.6,2.3,2.5,4.2,2.5c1.5,0,2.6-0.6,3.5-1.8C294.8,982.6,295.2,980.9,295.2,978.6z"/>
		<path class="st5" d="M305.1,969.8l0.1,2c1.3-1.5,3.1-2.3,5.3-2.3c2.5,0,4.2,1,5.1,2.9c0.6-0.9,1.4-1.6,2.3-2.1
			c1-0.5,2.1-0.8,3.4-0.8c3.9,0,5.9,2.1,6,6.3v12h-3.1v-11.9c0-1.3-0.3-2.2-0.9-2.9c-0.6-0.6-1.6-1-3-1c-1.1,0-2.1,0.3-2.8,1
			s-1.2,1.6-1.3,2.7v11.9h-3.1V976c0-2.6-1.3-3.9-3.8-3.9c-2,0-3.4,0.9-4.1,2.6v13.1h-3.1v-18H305.1z"/>
		<path class="st5" d="M339.4,988.1c-2.4,0-4.4-0.8-5.9-2.4c-1.5-1.6-2.3-3.7-2.3-6.4v-0.6c0-1.8,0.3-3.4,1-4.8
			c0.7-1.4,1.6-2.5,2.9-3.3c1.2-0.8,2.5-1.2,4-1.2c2.3,0,4.2,0.8,5.4,2.3s1.9,3.7,1.9,6.6v1.3h-12.2c0,1.8,0.6,3.2,1.6,4.3
			c1,1.1,2.2,1.6,3.8,1.6c1.1,0,2-0.2,2.8-0.7s1.4-1,2-1.8l1.9,1.5C344.7,986.9,342.4,988.1,339.4,988.1z M339,971.9
			c-1.2,0-2.3,0.5-3.1,1.4c-0.8,0.9-1.4,2.2-1.6,3.8h9v-0.2c-0.1-1.6-0.5-2.8-1.3-3.6C341.3,972.4,340.3,971.9,339,971.9z"/>
		<path class="st5" d="M352.9,969.8l0.1,2.3c1.4-1.7,3.2-2.6,5.4-2.6c3.8,0,5.7,2.1,5.7,6.4v11.9H361v-11.9c0-1.3-0.3-2.3-0.9-2.9
			c-0.6-0.6-1.5-0.9-2.7-0.9c-1,0-1.9,0.3-2.6,0.8s-1.3,1.2-1.8,2.1v12.8H350v-18H352.9z"/>
		<path class="st5" d="M372.9,965.4v4.3h3.4v2.4h-3.4v11.2c0,0.7,0.1,1.3,0.4,1.6c0.3,0.4,0.8,0.5,1.5,0.5c0.4,0,0.8-0.1,1.5-0.2
			v2.5c-0.8,0.2-1.6,0.3-2.4,0.3c-1.4,0-2.4-0.4-3.1-1.2s-1-2-1-3.5v-11.1h-3.3v-2.4h3.3v-4.3H372.9z"/>
		<path class="st5" d="M200.8,1026.3c1.1,0,2.1-0.3,2.9-1s1.3-1.5,1.4-2.5h2.9c-0.1,1-0.4,2-1.1,2.9s-1.5,1.7-2.6,2.2
			c-1.1,0.6-2.2,0.8-3.5,0.8c-2.4,0-4.4-0.8-5.8-2.4c-1.4-1.6-2.2-3.9-2.2-6.7v-0.5c0-1.7,0.3-3.3,1-4.7s1.6-2.4,2.8-3.2
			c1.2-0.8,2.6-1.1,4.3-1.1c2,0,3.7,0.6,5,1.8c1.3,1.2,2,2.8,2.1,4.7H205c-0.1-1.2-0.5-2.1-1.3-2.9c-0.8-0.7-1.8-1.1-2.9-1.1
			c-1.6,0-2.8,0.6-3.6,1.7c-0.9,1.1-1.3,2.7-1.3,4.9v0.6c0,2.1,0.4,3.7,1.3,4.8S199.2,1026.3,200.8,1026.3z"/>
		<path class="st5" d="M210.5,1019.4c0-1.8,0.3-3.3,1-4.7c0.7-1.4,1.7-2.5,2.9-3.3c1.2-0.8,2.6-1.1,4.2-1.1c2.4,0,4.4,0.8,5.9,2.5
			c1.5,1.7,2.3,3.9,2.3,6.8v0.2c0,1.7-0.3,3.3-1,4.7c-0.7,1.4-1.6,2.5-2.9,3.2c-1.2,0.8-2.7,1.2-4.3,1.2c-2.4,0-4.4-0.8-5.9-2.5
			c-1.5-1.7-2.3-3.9-2.3-6.7V1019.4z M213.6,1019.7c0,2,0.5,3.6,1.4,4.8c0.9,1.2,2.2,1.8,3.7,1.8c1.6,0,2.8-0.6,3.7-1.8
			c0.9-1.2,1.4-2.9,1.4-5.1c0-2-0.5-3.6-1.4-4.8c-0.9-1.2-2.2-1.8-3.7-1.8c-1.5,0-2.7,0.6-3.7,1.8S213.6,1017.5,213.6,1019.7z"/>
		<path class="st5" d="M241.2,1023.8c0-0.8-0.3-1.5-0.9-1.9c-0.6-0.5-1.7-0.9-3.3-1.2c-1.6-0.3-2.8-0.7-3.7-1.2
			c-0.9-0.5-1.6-1-2-1.7c-0.4-0.6-0.7-1.4-0.7-2.3c0-1.5,0.6-2.7,1.9-3.7c1.2-1,2.8-1.5,4.8-1.5c2,0,3.7,0.5,5,1.6
			c1.3,1.1,1.9,2.4,1.9,4H241c0-0.8-0.4-1.6-1.1-2.2c-0.7-0.6-1.6-0.9-2.7-0.9c-1.1,0-2,0.2-2.6,0.7s-0.9,1.1-0.9,1.9
			c0,0.7,0.3,1.3,0.9,1.7s1.6,0.7,3.2,1.1c1.5,0.3,2.8,0.8,3.7,1.2s1.7,1,2.1,1.7c0.5,0.7,0.7,1.5,0.7,2.4c0,1.6-0.6,2.9-1.9,3.9
			c-1.3,1-2.9,1.5-5,1.5c-1.4,0-2.7-0.3-3.8-0.8s-2-1.2-2.6-2.1c-0.6-0.9-0.9-1.9-0.9-3h3.1c0.1,1,0.5,1.8,1.2,2.4
			c0.8,0.6,1.8,0.9,3,0.9c1.2,0,2.1-0.2,2.8-0.7C240.9,1025.2,241.2,1024.5,241.2,1023.8z"/>
		<path class="st5" d="M252.4,1006.2v4.3h3.4v2.4h-3.4v11.2c0,0.7,0.1,1.3,0.4,1.6s0.8,0.5,1.5,0.5c0.4,0,0.8-0.1,1.5-0.2v2.5
			c-0.8,0.2-1.6,0.3-2.4,0.3c-1.4,0-2.4-0.4-3.1-1.2s-1-2-1-3.5v-11.1h-3.3v-2.4h3.3v-4.3H252.4z"/>
	</g>
	<g>
		<path class="st5" d="M694.7,935.5c0-1-0.4-1.9-1.1-2.6c-0.7-0.7-1.9-1.3-3.6-1.9c-2.4-0.7-4.1-1.7-5.2-2.8
			c-1.1-1.2-1.6-2.6-1.6-4.4c0-1.8,0.5-3.3,1.6-4.5c1.1-1.2,2.5-1.9,4.4-2.1v-3.6h2.5v3.7c1.9,0.3,3.3,1,4.3,2.3
			c1,1.3,1.6,3.1,1.6,5.4h-3.1c0-1.6-0.4-2.8-1.1-3.7s-1.7-1.4-3-1.4c-1.3,0-2.3,0.3-3,1s-1,1.6-1,2.9c0,1.1,0.4,2,1.1,2.7
			c0.7,0.7,1.9,1.3,3.6,1.8c1.7,0.5,3,1.2,4,1.8c0.9,0.7,1.6,1.4,2.1,2.3c0.4,0.9,0.7,1.9,0.7,3.1c0,1.9-0.6,3.4-1.7,4.5
			c-1.1,1.1-2.7,1.8-4.7,2v3.2H689V942c-2.1-0.2-3.7-0.9-4.8-2.2c-1.2-1.3-1.8-3-1.8-5.2h3.1c0,1.5,0.4,2.7,1.2,3.6s2,1.2,3.4,1.2
			c1.5,0,2.6-0.3,3.4-1S694.7,936.7,694.7,935.5z"/>
		<path class="st5" d="M711.7,941.7h-3.1v-20.5l-6.2,2.3v-2.8l8.8-3.3h0.5V941.7z"/>
		<path class="st5" d="M720.9,946.6l-1.7-1.2c1-1.5,1.6-2.9,1.6-4.5v-2.8h3v2.4c0,1.1-0.3,2.2-0.8,3.4
			C722.5,945,721.8,945.9,720.9,946.6z"/>
		<path class="st5" d="M743.2,941.7h-15.8v-2.2l8.4-9.3c1.2-1.4,2.1-2.5,2.6-3.4c0.5-0.9,0.7-1.8,0.7-2.7c0-1.3-0.4-2.3-1.1-3.1
			c-0.8-0.8-1.8-1.2-3.1-1.2c-1.5,0-2.7,0.4-3.6,1.3c-0.8,0.9-1.3,2.1-1.3,3.6h-3.1c0-2.2,0.7-4,2.1-5.4c1.4-1.4,3.4-2.1,5.8-2.1
			c2.2,0,4,0.6,5.3,1.8s2,2.7,2,4.7c0,2.4-1.5,5.2-4.5,8.5l-6.5,7h12.1V941.7z"/>
		<path class="st5" d="M762.3,941.7h-15.8v-2.2l8.4-9.3c1.2-1.4,2.1-2.5,2.6-3.4c0.5-0.9,0.7-1.8,0.7-2.7c0-1.3-0.4-2.3-1.1-3.1
			c-0.8-0.8-1.8-1.2-3.1-1.2c-1.5,0-2.7,0.4-3.6,1.3c-0.8,0.9-1.3,2.1-1.3,3.6H746c0-2.2,0.7-4,2.1-5.4c1.4-1.4,3.4-2.1,5.8-2.1
			c2.2,0,4,0.6,5.3,1.8s2,2.7,2,4.7c0,2.4-1.5,5.2-4.5,8.5l-6.5,7h12.1V941.7z"/>
		<path class="st5" d="M780.2,923.9c0,1.2-0.3,2.3-1,3.2c-0.6,0.9-1.5,1.7-2.6,2.2c1.3,0.5,2.3,1.3,3,2.4c0.7,1,1.1,2.2,1.1,3.5
			c0,2.1-0.7,3.8-2.1,5c-1.4,1.2-3.3,1.9-5.6,1.9c-2.3,0-4.2-0.6-5.6-1.9c-1.4-1.2-2.1-2.9-2.1-5c0-1.3,0.4-2.5,1.1-3.5
			c0.7-1.1,1.7-1.8,3-2.4c-1.1-0.5-1.9-1.3-2.5-2.2c-0.6-0.9-0.9-2-0.9-3.2c0-2,0.7-3.7,2-4.8s3-1.8,5.2-1.8c2.1,0,3.8,0.6,5.2,1.8
			C779.6,920.2,780.2,921.9,780.2,923.9z M777.7,935.2c0-1.3-0.4-2.5-1.3-3.3c-0.9-0.9-2-1.3-3.4-1.3s-2.5,0.4-3.3,1.3
			c-0.8,0.8-1.3,1.9-1.3,3.3c0,1.4,0.4,2.5,1.2,3.2c0.8,0.8,1.9,1.2,3.4,1.2c1.4,0,2.6-0.4,3.4-1.2S777.7,936.5,777.7,935.2z
			 M773.1,919.8c-1.2,0-2.2,0.4-2.9,1.1c-0.7,0.7-1.1,1.8-1.1,3c0,1.2,0.4,2.2,1.1,3c0.7,0.8,1.7,1.1,2.9,1.1s2.2-0.4,2.9-1.1
			c0.7-0.8,1.1-1.8,1.1-3s-0.4-2.2-1.1-3C775.3,920.2,774.3,919.8,773.1,919.8z"/>
		<path class="st5" d="M784.9,946.6l-1.7-1.2c1-1.5,1.6-2.9,1.6-4.5v-2.8h3v2.4c0,1.1-0.3,2.2-0.8,3.4
			C786.4,945,785.7,945.9,784.9,946.6z"/>
		<path class="st5" d="M806.5,931.4c0,3.6-0.6,6.3-1.8,8c-1.2,1.7-3.1,2.6-5.8,2.6c-2.6,0-4.5-0.9-5.7-2.6s-1.9-4.3-1.9-7.7v-4.1
			c0-3.6,0.6-6.2,1.8-7.9s3.2-2.6,5.8-2.6c2.6,0,4.5,0.8,5.7,2.5s1.9,4.2,1.9,7.7V931.4z M803.4,927.2c0-2.6-0.4-4.5-1.1-5.7
			s-1.9-1.8-3.5-1.8c-1.6,0-2.7,0.6-3.4,1.8c-0.7,1.2-1.1,3-1.1,5.5v4.9c0,2.6,0.4,4.5,1.1,5.8c0.8,1.2,1.9,1.9,3.4,1.9
			c1.5,0,2.6-0.6,3.4-1.8c0.7-1.2,1.1-3,1.2-5.5V927.2z"/>
		<path class="st5" d="M825.6,931.4c0,3.6-0.6,6.3-1.8,8c-1.2,1.7-3.1,2.6-5.8,2.6c-2.6,0-4.5-0.9-5.7-2.6s-1.9-4.3-1.9-7.7v-4.1
			c0-3.6,0.6-6.2,1.8-7.9s3.2-2.6,5.8-2.6c2.6,0,4.5,0.8,5.7,2.5s1.9,4.2,1.9,7.7V931.4z M822.5,927.2c0-2.6-0.4-4.5-1.1-5.7
			s-1.9-1.8-3.5-1.8c-1.6,0-2.7,0.6-3.4,1.8c-0.7,1.2-1.1,3-1.1,5.5v4.9c0,2.6,0.4,4.5,1.1,5.8c0.8,1.2,1.9,1.9,3.4,1.9
			c1.5,0,2.6-0.6,3.4-1.8c0.7-1.2,1.1-3,1.2-5.5V927.2z"/>
		<path class="st5" d="M855.8,917.6V934c0,2.3-0.7,4.1-2.2,5.6c-1.4,1.5-3.4,2.3-5.8,2.4l-0.8,0c-2.6,0-4.8-0.7-6.3-2.1
			s-2.4-3.4-2.4-5.9v-16.5h3.2v16.4c0,1.7,0.5,3.1,1.4,4.1s2.3,1.5,4.1,1.5c1.8,0,3.2-0.5,4.1-1.4c1-1,1.4-2.3,1.4-4.1v-16.4H855.8z
			"/>
		<path class="st5" d="M867.9,931c-2.7-0.8-4.7-1.8-6-2.9c-1.2-1.1-1.9-2.6-1.9-4.2c0-1.9,0.8-3.5,2.3-4.7c1.5-1.2,3.5-1.9,5.9-1.9
			c1.7,0,3.1,0.3,4.4,1c1.3,0.6,2.3,1.5,3,2.7c0.7,1.1,1.1,2.4,1.1,3.7h-3.2c0-1.5-0.5-2.6-1.4-3.5c-0.9-0.8-2.2-1.3-3.9-1.3
			c-1.6,0-2.8,0.3-3.7,1c-0.9,0.7-1.3,1.7-1.3,2.9c0,1,0.4,1.8,1.3,2.5c0.8,0.7,2.3,1.3,4.3,1.9c2,0.6,3.6,1.2,4.7,1.9
			c1.1,0.7,2,1.5,2.5,2.4c0.5,0.9,0.8,2,0.8,3.2c0,2-0.8,3.5-2.3,4.7s-3.6,1.8-6.1,1.8c-1.7,0-3.2-0.3-4.6-1
			c-1.4-0.6-2.5-1.5-3.3-2.6c-0.8-1.1-1.2-2.4-1.2-3.8h3.2c0,1.5,0.5,2.6,1.6,3.5c1.1,0.8,2.5,1.3,4.3,1.3c1.7,0,3-0.3,3.9-1
			c0.9-0.7,1.3-1.6,1.3-2.8c0-1.2-0.4-2.1-1.2-2.7S870.1,931.6,867.9,931z"/>
		<path class="st5" d="M881,941.7v-24.2h6.8c2.1,0,4,0.5,5.6,1.4s2.9,2.3,3.7,4c0.9,1.7,1.3,3.7,1.3,5.9v1.5c0,2.3-0.4,4.3-1.3,6
			c-0.9,1.7-2.1,3-3.8,4c-1.6,0.9-3.5,1.4-5.7,1.4H881z M884.2,920.2v19h3.4c2.5,0,4.4-0.8,5.7-2.3c1.4-1.5,2.1-3.7,2.1-6.5v-1.4
			c0-2.7-0.6-4.9-1.9-6.4c-1.3-1.5-3.1-2.3-5.5-2.3H884.2z"/>
		<path class="st5" d="M723.5,974.4h3.4v2.5h-3.4v5.6h-3.1v-5.6h-11v-1.8l10.8-16.8h3.3V974.4z M712.9,974.4h7.5v-11.9l-0.4,0.7
			L712.9,974.4z"/>
		<path class="st5" d="M731,970.4l1.2-12.1h12.4v2.8h-9.8l-0.7,6.6c1.2-0.7,2.5-1,4-1c2.2,0,4,0.7,5.2,2.2s1.9,3.4,1.9,5.9
			c0,2.5-0.7,4.5-2,5.9c-1.3,1.4-3.2,2.1-5.6,2.1c-2.1,0-3.9-0.6-5.2-1.8c-1.4-1.2-2.1-2.8-2.3-4.9h2.9c0.2,1.4,0.7,2.4,1.5,3.1
			s1.8,1.1,3.2,1.1c1.4,0,2.5-0.5,3.4-1.5c0.8-1,1.2-2.3,1.2-4c0-1.6-0.4-2.9-1.3-3.9c-0.9-1-2-1.5-3.5-1.5c-1.3,0-2.4,0.3-3.2,0.9
			l-0.8,0.7L731,970.4z"/>
		<path class="st5" d="M748.4,963c0-1.4,0.5-2.6,1.4-3.6c0.9-0.9,2.1-1.4,3.6-1.4c1.5,0,2.7,0.5,3.6,1.4c0.9,0.9,1.4,2.2,1.4,3.7
			v1.2c0,1.5-0.5,2.7-1.4,3.6c-0.9,0.9-2.1,1.4-3.5,1.4c-1.4,0-2.6-0.5-3.6-1.4s-1.4-2.2-1.4-3.7V963z M750.7,964.3
			c0,0.9,0.2,1.6,0.7,2.1s1.1,0.8,2,0.8c0.8,0,1.4-0.3,1.9-0.8c0.5-0.5,0.7-1.3,0.7-2.2V963c0-0.9-0.2-1.6-0.7-2.1
			c-0.5-0.6-1.1-0.8-1.9-0.8s-1.5,0.3-1.9,0.8c-0.5,0.6-0.7,1.3-0.7,2.2V964.3z M754.1,980.7l-1.7-1.1l11.8-18.9l1.7,1.1
			L754.1,980.7z M760.2,976.6c0-1.4,0.5-2.6,1.4-3.6c0.9-0.9,2.1-1.4,3.6-1.4s2.6,0.5,3.6,1.4s1.4,2.2,1.4,3.7v1.2
			c0,1.5-0.5,2.6-1.4,3.6c-0.9,0.9-2.1,1.4-3.5,1.4s-2.6-0.5-3.6-1.4s-1.4-2.2-1.4-3.7V976.6z M762.5,977.9c0,0.9,0.2,1.6,0.7,2.2
			s1.1,0.8,2,0.8c0.8,0,1.4-0.3,1.9-0.8s0.7-1.3,0.7-2.2v-1.2c0-0.9-0.2-1.6-0.7-2.1c-0.5-0.6-1.1-0.8-1.9-0.8
			c-0.8,0-1.4,0.3-1.9,0.8c-0.5,0.5-0.7,1.3-0.7,2.2V977.9z"/>
		<path class="st5" d="M796.5,971.4H786v8.6h12.2v2.6h-15.4v-24.2H798v2.6h-12v7.8h10.5V971.4z"/>
		<path class="st5" d="M800.6,973.4c0-2.8,0.6-5.1,1.9-6.7s3-2.5,5.2-2.5c2.1,0,3.8,0.7,5,2.1l0.1-1.8h2.8v24.9h-3.1v-8.6
			c-1.2,1.3-2.9,2-4.9,2c-2.2,0-3.9-0.8-5.2-2.5c-1.3-1.7-1.9-3.9-1.9-6.7V973.4z M803.6,973.8c0,2.1,0.4,3.7,1.3,4.8
			c0.9,1.2,2,1.8,3.5,1.8c1.8,0,3.2-0.8,4.2-2.4v-8.8c-1-1.6-2.4-2.4-4.2-2.4c-1.5,0-2.7,0.6-3.5,1.8S803.6,971.5,803.6,973.8z"/>
		<path class="st5" d="M831.7,980.8c-1.2,1.4-2.9,2.1-5.3,2.1c-1.9,0-3.4-0.6-4.4-1.7c-1-1.1-1.5-2.8-1.5-4.9v-11.7h3.1v11.6
			c0,2.7,1.1,4.1,3.3,4.1c2.3,0,3.9-0.9,4.7-2.6v-13.1h3.1v18h-2.9L831.7,980.8z"/>
		<path class="st5" d="M839.4,959.8c0-0.5,0.2-0.9,0.5-1.3c0.3-0.3,0.8-0.5,1.4-0.5s1.1,0.2,1.4,0.5c0.3,0.3,0.5,0.8,0.5,1.3
			s-0.2,0.9-0.5,1.2s-0.8,0.5-1.4,0.5s-1-0.2-1.4-0.5C839.6,960.7,839.4,960.3,839.4,959.8z M842.7,982.5h-3.1v-18h3.1V982.5z"/>
		<path class="st5" d="M851.8,960.2v4.3h3.4v2.4h-3.4v11.2c0,0.7,0.1,1.3,0.4,1.6c0.3,0.4,0.8,0.5,1.5,0.5c0.4,0,0.8-0.1,1.5-0.2
			v2.5c-0.8,0.2-1.6,0.3-2.4,0.3c-1.4,0-2.4-0.4-3.1-1.2s-1-2-1-3.5V967h-3.3v-2.4h3.3v-4.3H851.8z"/>
		<path class="st5" d="M864.6,978.1l4.2-13.5h3.3l-7.2,20.7c-1.1,3-2.9,4.5-5.3,4.5l-0.6,0l-1.1-0.2V987l0.8,0.1
			c1,0,1.9-0.2,2.4-0.6c0.6-0.4,1.1-1.2,1.4-2.3l0.7-1.8l-6.4-17.8h3.4L864.6,978.1z"/>
		<path class="st5" d="M661.2,1012c0,2.4-0.4,4.4-1.2,6.2c-0.8,1.8-1.9,3.1-3.4,4s-3.2,1.4-5.1,1.4c-1.9,0-3.6-0.5-5.1-1.4
			c-1.5-0.9-2.6-2.3-3.4-4c-0.8-1.7-1.2-3.7-1.3-6v-1.7c0-2.3,0.4-4.4,1.2-6.2s2-3.1,3.4-4.1c1.5-0.9,3.2-1.4,5.1-1.4
			c1.9,0,3.6,0.5,5.1,1.4c1.5,0.9,2.6,2.3,3.4,4.1c0.8,1.8,1.2,3.8,1.2,6.2V1012z M658,1010.5c0-2.9-0.6-5.1-1.7-6.6
			c-1.2-1.5-2.8-2.3-4.8-2.3c-2,0-3.6,0.8-4.8,2.3c-1.2,1.5-1.8,3.7-1.8,6.4v1.8c0,2.8,0.6,5,1.8,6.5c1.2,1.6,2.8,2.4,4.8,2.4
			c2.1,0,3.7-0.8,4.8-2.2c1.1-1.5,1.7-3.7,1.7-6.5V1010.5z"/>
		<path class="st5" d="M681.4,1019.1l3.5-13.7h3.1l-5.2,18h-2.5l-4.4-13.6l-4.2,13.6h-2.5l-5.2-18h3.1l3.5,13.4l4.2-13.4h2.5
			L681.4,1019.1z"/>
		<path class="st5" d="M693.9,1005.4l0.1,2.3c1.4-1.7,3.2-2.6,5.4-2.6c3.8,0,5.7,2.1,5.7,6.4v11.9h-3.1v-11.9c0-1.3-0.3-2.3-0.9-2.9
			c-0.6-0.6-1.5-0.9-2.7-0.9c-1,0-1.9,0.3-2.6,0.8s-1.3,1.2-1.8,2.1v12.8H691v-18H693.9z"/>
		<path class="st5" d="M717.2,1023.7c-2.4,0-4.4-0.8-5.9-2.4c-1.5-1.6-2.3-3.7-2.3-6.4v-0.6c0-1.8,0.3-3.4,1-4.8
			c0.7-1.4,1.6-2.5,2.9-3.3c1.2-0.8,2.5-1.2,4-1.2c2.3,0,4.2,0.8,5.4,2.3s1.9,3.7,1.9,6.6v1.3h-12.2c0,1.8,0.6,3.2,1.6,4.3
			c1,1.1,2.2,1.6,3.8,1.6c1.1,0,2-0.2,2.8-0.7s1.4-1,2-1.8l1.9,1.5C722.5,1022.5,720.2,1023.7,717.2,1023.7z M716.8,1007.6
			c-1.2,0-2.3,0.5-3.1,1.4c-0.8,0.9-1.4,2.2-1.6,3.8h9v-0.2c-0.1-1.6-0.5-2.8-1.3-3.6C719.1,1008,718.1,1007.6,716.8,1007.6z"/>
		<path class="st5" d="M736.5,1008.1c-0.5-0.1-1-0.1-1.5-0.1c-2,0-3.4,0.9-4.1,2.6v12.8h-3.1v-18h3l0,2.1c1-1.6,2.4-2.4,4.3-2.4
			c0.6,0,1.1,0.1,1.4,0.2V1008.1z"/>
		<path class="st5" d="M749.7,1018.6c0-0.8-0.3-1.5-0.9-1.9c-0.6-0.5-1.7-0.9-3.3-1.2c-1.6-0.3-2.8-0.7-3.7-1.2
			c-0.9-0.5-1.6-1-2-1.7c-0.4-0.6-0.7-1.4-0.7-2.3c0-1.5,0.6-2.7,1.9-3.7c1.2-1,2.8-1.5,4.8-1.5c2,0,3.7,0.5,5,1.6
			c1.3,1.1,1.9,2.4,1.9,4h-3.1c0-0.8-0.4-1.6-1.1-2.2c-0.7-0.6-1.6-0.9-2.7-0.9c-1.1,0-2,0.2-2.6,0.7s-0.9,1.1-0.9,1.9
			c0,0.7,0.3,1.3,0.9,1.7s1.6,0.7,3.2,1.1c1.5,0.3,2.8,0.8,3.7,1.2s1.7,1,2.1,1.7c0.5,0.7,0.7,1.5,0.7,2.4c0,1.6-0.6,2.9-1.9,3.9
			c-1.3,1-2.9,1.5-5,1.5c-1.4,0-2.7-0.3-3.8-0.8s-2-1.2-2.6-2.1c-0.6-0.9-0.9-1.9-0.9-3h3.1c0.1,1,0.5,1.8,1.2,2.4
			c0.8,0.6,1.8,0.9,3,0.9c1.2,0,2.1-0.2,2.8-0.7C749.4,1020,749.7,1019.4,749.7,1018.6z"/>
		<path class="st5" d="M759.9,1007.6c1.4-1.7,3.1-2.5,5.3-2.5c3.8,0,5.7,2.1,5.7,6.4v11.9h-3.1v-11.9c0-1.3-0.3-2.3-0.9-2.9
			c-0.6-0.6-1.5-0.9-2.7-0.9c-1,0-1.9,0.3-2.6,0.8s-1.3,1.2-1.8,2.1v12.8h-3.1v-25.5h3.1V1007.6z"/>
		<path class="st5" d="M775.6,1000.6c0-0.5,0.2-0.9,0.5-1.3c0.3-0.3,0.8-0.5,1.4-0.5s1.1,0.2,1.4,0.5s0.5,0.8,0.5,1.3
			s-0.2,0.9-0.5,1.2s-0.8,0.5-1.4,0.5s-1-0.2-1.4-0.5C775.7,1001.5,775.6,1001.1,775.6,1000.6z M778.9,1023.3h-3.1v-18h3.1V1023.3z"
			/>
		<path class="st5" d="M799,1014.6c0,2.7-0.6,4.9-1.9,6.6s-2.9,2.5-5.1,2.5c-2.2,0-3.9-0.7-5.1-2.1v8.6h-3.1v-24.9h2.8l0.1,2
			c1.3-1.5,3-2.3,5.2-2.3c2.2,0,3.9,0.8,5.1,2.4c1.3,1.6,1.9,3.9,1.9,6.8V1014.6z M795.9,1014.2c0-2-0.4-3.6-1.3-4.8s-2-1.8-3.6-1.8
			c-1.9,0-3.3,0.8-4.2,2.5v8.6c0.9,1.6,2.3,2.5,4.2,2.5c1.5,0,2.6-0.6,3.5-1.8C795.5,1018.3,795.9,1016.5,795.9,1014.2z"/>
		<path class="st5" d="M811.9,1025.4h-2.6l10.1-26.2h2.6L811.9,1025.4z"/>
		<path class="st5" d="M843.1,1013.6h-5.7v9.8h-3.2v-24.2h8c2.7,0,4.8,0.6,6.3,1.9c1.5,1.2,2.2,3,2.2,5.4c0,1.5-0.4,2.8-1.2,3.9
			c-0.8,1.1-1.9,2-3.4,2.5l5.7,10.3v0.2h-3.4L843.1,1013.6z M837.4,1011h4.9c1.6,0,2.8-0.4,3.8-1.2c0.9-0.8,1.4-1.9,1.4-3.3
			c0-1.5-0.4-2.6-1.3-3.4c-0.9-0.8-2.2-1.2-3.9-1.2h-4.9V1011z"/>
		<path class="st5" d="M853.8,1014.2c0-1.8,0.3-3.3,1-4.7c0.7-1.4,1.7-2.5,2.9-3.3c1.2-0.8,2.6-1.1,4.2-1.1c2.4,0,4.4,0.8,5.9,2.5
			c1.5,1.7,2.3,3.9,2.3,6.8v0.2c0,1.7-0.3,3.3-1,4.7c-0.7,1.4-1.6,2.5-2.9,3.2c-1.2,0.8-2.7,1.2-4.3,1.2c-2.4,0-4.4-0.8-5.9-2.5
			c-1.5-1.7-2.3-3.9-2.3-6.7V1014.2z M856.9,1014.6c0,2,0.5,3.6,1.4,4.8c0.9,1.2,2.2,1.8,3.7,1.8c1.6,0,2.8-0.6,3.7-1.8
			c0.9-1.2,1.4-2.9,1.4-5.1c0-2-0.5-3.6-1.4-4.8c-0.9-1.2-2.2-1.8-3.7-1.8c-1.5,0-2.7,0.6-3.7,1.8S856.9,1012.3,856.9,1014.6z"/>
		<path class="st5" d="M879.7,1018.9l4.2-13.5h3.3l-7.2,20.7c-1.1,3-2.9,4.5-5.3,4.5l-0.6,0l-1.1-0.2v-2.5l0.8,0.1
			c1,0,1.9-0.2,2.4-0.6c0.6-0.4,1.1-1.2,1.4-2.3l0.7-1.8l-6.4-17.8h3.4L879.7,1018.9z"/>
		<path class="st5" d="M900.7,1023.3c-0.2-0.4-0.3-1-0.4-1.9c-1.4,1.5-3.1,2.2-5.1,2.2c-1.8,0-3.2-0.5-4.4-1.5
			c-1.1-1-1.7-2.3-1.7-3.8c0-1.9,0.7-3.3,2.1-4.4c1.4-1,3.4-1.6,6-1.6h3v-1.4c0-1.1-0.3-1.9-1-2.6c-0.6-0.6-1.6-1-2.8-1
			c-1.1,0-2,0.3-2.8,0.8s-1.1,1.2-1.1,2h-3.1c0-0.9,0.3-1.8,1-2.6c0.6-0.8,1.5-1.5,2.6-2c1.1-0.5,2.3-0.7,3.6-0.7
			c2.1,0,3.7,0.5,4.9,1.6c1.2,1,1.8,2.5,1.8,4.3v8.3c0,1.6,0.2,3,0.6,3.9v0.3H900.7z M895.6,1021c1,0,1.9-0.2,2.7-0.7
			s1.5-1.1,1.9-1.9v-3.7h-2.4c-3.8,0-5.6,1.1-5.6,3.3c0,1,0.3,1.7,1,2.3S894.6,1021,895.6,1021z"/>
		<path class="st5" d="M911.5,1023.3h-3.1v-25.5h3.1V1023.3z"/>
		<path class="st5" d="M920.5,1001v4.3h3.4v2.4h-3.4v11.2c0,0.7,0.1,1.3,0.4,1.6s0.8,0.5,1.5,0.5c0.4,0,0.8-0.1,1.5-0.2v2.5
			c-0.8,0.2-1.6,0.3-2.4,0.3c-1.4,0-2.4-0.4-3.1-1.2s-1-2-1-3.5v-11.1h-3.3v-2.4h3.3v-4.3H920.5z"/>
		<path class="st5" d="M933.4,1018.9l4.2-13.5h3.3l-7.2,20.7c-1.1,3-2.9,4.5-5.3,4.5l-0.6,0l-1.1-0.2v-2.5l0.8,0.1
			c1,0,1.9-0.2,2.4-0.6c0.6-0.4,1.1-1.2,1.4-2.3l0.7-1.8l-6.4-17.8h3.4L933.4,1018.9z"/>
	</g>
	<g>
		<path class="st5" d="M281,105.4l10.9,30.9l10.9-30.9h11.5V148h-8.8v-11.6l0.9-20.1L294.9,148h-6l-11.5-31.7l0.9,20.1V148h-8.8
			v-42.6H281z"/>
		<path class="st5" d="M340.4,144.7c-2.1,2.5-5,3.8-8.7,3.8c-3.4,0-6-1-7.8-2.9c-1.8-1.9-2.7-4.8-2.7-8.6v-20.7h8.5v20.5
			c0,3.3,1.5,4.9,4.5,4.9c2.9,0,4.8-1,5.9-3v-22.4h8.5V148h-8L340.4,144.7z"/>
		<path class="st5" d="M363.9,148h-8.5V103h8.5V148z"/>
		<path class="st5" d="M380.9,108.5v7.8h5.4v6.2h-5.4v15.8c0,1.2,0.2,2,0.7,2.5c0.4,0.5,1.3,0.8,2.6,0.8c0.9,0,1.8-0.1,2.5-0.2v6.4
			c-1.7,0.5-3.4,0.8-5.1,0.8c-5.9,0-9-3-9.1-9v-17.1h-4.6v-6.2h4.6v-7.8H380.9z"/>
		<path class="st5" d="M391,108.1c0-1.3,0.4-2.3,1.3-3.1c0.8-0.8,2-1.2,3.5-1.2c1.4,0,2.6,0.4,3.5,1.2c0.9,0.8,1.3,1.9,1.3,3.1
			c0,1.3-0.4,2.3-1.3,3.2c-0.9,0.8-2,1.2-3.4,1.2c-1.4,0-2.6-0.4-3.4-1.2S391,109.4,391,108.1z M400,148h-8.5v-31.6h8.5V148z"/>
		<path class="st5" d="M418.8,137.6l5.9-21.3h8.8L422.8,148h-8.1l-10.7-31.6h8.8L418.8,137.6z"/>
		<path class="st5" d="M451.4,148.5c-4.6,0-8.4-1.4-11.3-4.3c-2.9-2.8-4.4-6.6-4.4-11.4v-0.8c0-3.2,0.6-6,1.8-8.5
			c1.2-2.5,3-4.4,5.2-5.8c2.3-1.4,4.8-2,7.7-2c4.3,0,7.7,1.4,10.2,4.1c2.5,2.7,3.7,6.6,3.7,11.6v3.5h-20.2c0.3,2.1,1.1,3.7,2.5,5
			c1.4,1.2,3.1,1.9,5.2,1.9c3.3,0,5.8-1.2,7.6-3.5l4.2,4.7c-1.3,1.8-3,3.2-5.1,4.2S454,148.5,451.4,148.5z M450.4,122.5
			c-1.7,0-3,0.6-4.1,1.7c-1,1.1-1.7,2.8-2,4.9h11.8v-0.7c0-1.9-0.5-3.3-1.5-4.4C453.6,123.1,452.2,122.5,450.4,122.5z"/>
		<path class="st5" d="M487,124.2c-1.2-0.2-2.2-0.2-3-0.2c-3.2,0-5.3,1.1-6.3,3.2V148h-8.5v-31.6h8l0.2,3.8c1.7-2.9,4-4.4,7-4.4
			c0.9,0,1.8,0.1,2.6,0.4L487,124.2z"/>
		<path class="st5" d="M508.2,139.2c0-1-0.5-1.8-1.5-2.4c-1-0.6-2.7-1.1-4.9-1.6c-7.5-1.6-11.3-4.8-11.3-9.6c0-2.8,1.2-5.2,3.5-7
			c2.3-1.9,5.4-2.8,9.1-2.8c4,0,7.2,0.9,9.6,2.8c2.4,1.9,3.6,4.3,3.6,7.4h-8.5c0-1.2-0.4-2.2-1.2-3c-0.8-0.8-2-1.2-3.7-1.2
			c-1.4,0-2.5,0.3-3.3,1c-0.8,0.6-1.2,1.5-1.2,2.5c0,0.9,0.4,1.7,1.3,2.3c0.9,0.6,2.4,1.1,4.5,1.5c2.1,0.4,3.9,0.9,5.3,1.4
			c4.5,1.6,6.7,4.5,6.7,8.5c0,2.9-1.2,5.2-3.7,7s-5.7,2.7-9.6,2.7c-2.7,0-5-0.5-7.1-1.4c-2.1-0.9-3.7-2.2-4.8-3.9
			c-1.2-1.6-1.8-3.4-1.8-5.3h8c0.1,1.5,0.6,2.7,1.7,3.5c1,0.8,2.4,1.2,4.2,1.2c1.6,0,2.8-0.3,3.7-0.9S508.2,140.2,508.2,139.2z"/>
		<path class="st5" d="M536.4,148.5c-4.6,0-8.4-1.4-11.3-4.3c-2.9-2.8-4.4-6.6-4.4-11.4v-0.8c0-3.2,0.6-6,1.8-8.5
			c1.2-2.5,3-4.4,5.2-5.8c2.3-1.4,4.8-2,7.7-2c4.3,0,7.7,1.4,10.2,4.1c2.5,2.7,3.7,6.6,3.7,11.6v3.5h-20.2c0.3,2.1,1.1,3.7,2.5,5
			c1.4,1.2,3.1,1.9,5.2,1.9c3.3,0,5.8-1.2,7.6-3.5l4.2,4.7c-1.3,1.8-3,3.2-5.1,4.2S539.1,148.5,536.4,148.5z M535.5,122.5
			c-1.7,0-3,0.6-4.1,1.7c-1,1.1-1.7,2.8-2,4.9h11.8v-0.7c0-1.9-0.5-3.3-1.5-4.4C538.6,123.1,537.3,122.5,535.5,122.5z"/>
		<path class="st5" d="M606.7,136.8c0-1.7-0.6-2.9-1.8-3.8s-3.3-1.8-6.3-2.8c-3-1-5.5-2-7.2-2.9c-4.8-2.6-7.3-6.1-7.3-10.6
			c0-2.3,0.6-4.4,1.9-6.2s3.2-3.2,5.6-4.2c2.4-1,5.2-1.5,8.2-1.5c3,0,5.8,0.6,8.1,1.7s4.2,2.7,5.5,4.7c1.3,2,2,4.3,2,6.8h-8.8
			c0-1.9-0.6-3.5-1.8-4.5s-3-1.6-5.2-1.6c-2.1,0-3.8,0.5-5,1.4s-1.8,2.1-1.8,3.6c0,1.4,0.7,2.5,2.1,3.5c1.4,0.9,3.4,1.8,6.2,2.6
			c5,1.5,8.6,3.4,10.9,5.6c2.3,2.2,3.4,5,3.4,8.3c0,3.7-1.4,6.6-4.2,8.7c-2.8,2.1-6.5,3.1-11.3,3.1c-3.3,0-6.3-0.6-9-1.8
			c-2.7-1.2-4.7-2.8-6.2-4.9c-1.4-2.1-2.1-4.5-2.1-7.3h8.8c0,4.7,2.8,7,8.4,7c2.1,0,3.7-0.4,4.9-1.3S606.7,138.3,606.7,136.8z"/>
		<path class="st5" d="M631,108.5v7.8h5.4v6.2H631v15.8c0,1.2,0.2,2,0.7,2.5c0.4,0.5,1.3,0.8,2.6,0.8c0.9,0,1.8-0.1,2.5-0.2v6.4
			c-1.7,0.5-3.4,0.8-5.1,0.8c-5.9,0-9-3-9.1-9v-17.1h-4.6v-6.2h4.6v-7.8H631z"/>
		<path class="st5" d="M660.1,144.7c-2.1,2.5-5,3.8-8.7,3.8c-3.4,0-6-1-7.8-2.9c-1.8-1.9-2.7-4.8-2.7-8.6v-20.7h8.5v20.5
			c0,3.3,1.5,4.9,4.5,4.9c2.9,0,4.8-1,5.9-3v-22.4h8.5V148h-8L660.1,144.7z"/>
		<path class="st5" d="M673.3,131.9c0-4.9,1.1-8.9,3.3-11.8s5.2-4.4,9.1-4.4c3.1,0,5.6,1.2,7.6,3.5V103h8.5V148h-7.6l-0.4-3.4
			c-2.1,2.6-4.8,3.9-8.1,3.9c-3.7,0-6.7-1.5-9-4.4C674.5,141.2,673.3,137.1,673.3,131.9z M681.8,132.5c0,3,0.5,5.2,1.5,6.8
			c1,1.6,2.5,2.4,4.5,2.4c2.6,0,4.5-1.1,5.5-3.3v-12.5c-1.1-2.2-2.9-3.3-5.5-3.3C683.8,122.6,681.8,125.9,681.8,132.5z"/>
		<path class="st5" d="M708.3,108.1c0-1.3,0.4-2.3,1.3-3.1c0.8-0.8,2-1.2,3.5-1.2c1.4,0,2.6,0.4,3.5,1.2c0.9,0.8,1.3,1.9,1.3,3.1
			c0,1.3-0.4,2.3-1.3,3.2c-0.9,0.8-2,1.2-3.4,1.2c-1.4,0-2.6-0.4-3.4-1.2S708.3,109.4,708.3,108.1z M717.3,148h-8.5v-31.6h8.5V148z"
			/>
		<path class="st5" d="M723,131.8c0-3.1,0.6-5.9,1.8-8.4c1.2-2.5,2.9-4.4,5.2-5.7c2.3-1.3,4.9-2,7.9-2c4.3,0,7.8,1.3,10.5,3.9
			c2.7,2.6,4.2,6.2,4.5,10.6l0.1,2.2c0,4.9-1.4,8.8-4.1,11.7c-2.7,2.9-6.3,4.4-10.9,4.4s-8.2-1.5-10.9-4.4
			c-2.7-2.9-4.1-6.9-4.1-11.9V131.8z M731.4,132.4c0,3,0.6,5.3,1.7,6.9c1.1,1.6,2.8,2.4,4.9,2.4c2,0,3.6-0.8,4.8-2.4
			c1.2-1.6,1.7-4.1,1.7-7.5c0-2.9-0.6-5.2-1.7-6.9c-1.2-1.6-2.8-2.4-4.9-2.4c-2.1,0-3.7,0.8-4.8,2.4S731.4,129.1,731.4,132.4z"/>
		<path class="st5" d="M421.4,204.3h-7v15.6h-8.8v-42.6h15.8c5,0,8.9,1.1,11.6,3.4s4.1,5.4,4.1,9.5c0,2.9-0.6,5.3-1.9,7.3
			c-1.3,1.9-3.2,3.5-5.7,4.6l9.2,17.4v0.4h-9.4L421.4,204.3z M414.4,197.1h7.1c2.2,0,3.9-0.6,5.1-1.7c1.2-1.1,1.8-2.7,1.8-4.6
			c0-2-0.6-3.6-1.7-4.7c-1.1-1.2-2.9-1.7-5.2-1.7h-7V197.1z"/>
		<path class="st5" d="M457.8,220.4c-4.6,0-8.4-1.4-11.3-4.3c-2.9-2.8-4.4-6.6-4.4-11.4V204c0-3.2,0.6-6,1.8-8.5
			c1.2-2.5,3-4.4,5.2-5.8c2.3-1.4,4.8-2,7.7-2c4.3,0,7.7,1.4,10.2,4.1c2.5,2.7,3.7,6.6,3.7,11.6v3.5h-20.2c0.3,2.1,1.1,3.7,2.5,5
			c1.4,1.2,3.1,1.9,5.2,1.9c3.3,0,5.8-1.2,7.6-3.5l4.2,4.7c-1.3,1.8-3,3.2-5.1,4.2C462.9,219.9,460.5,220.4,457.8,220.4z
			 M456.9,194.4c-1.7,0-3,0.6-4.1,1.7c-1,1.1-1.7,2.8-2,4.9h11.8v-0.7c0-1.9-0.5-3.3-1.5-4.4C460,194.9,458.7,194.4,456.9,194.4z"/>
		<path class="st5" d="M487.1,209.5l5.9-21.3h8.8l-10.7,31.6h-8.1l-10.7-31.6h8.8L487.1,209.5z"/>
		<path class="st5" d="M519.7,220.4c-4.6,0-8.4-1.4-11.3-4.3c-2.9-2.8-4.4-6.6-4.4-11.4V204c0-3.2,0.6-6,1.8-8.5
			c1.2-2.5,3-4.4,5.2-5.8c2.3-1.4,4.8-2,7.7-2c4.3,0,7.7,1.4,10.2,4.1c2.5,2.7,3.7,6.6,3.7,11.6v3.5h-20.2c0.3,2.1,1.1,3.7,2.5,5
			c1.4,1.2,3.1,1.9,5.2,1.9c3.3,0,5.8-1.2,7.6-3.5l4.2,4.7c-1.3,1.8-3,3.2-5.1,4.2C524.8,219.9,522.4,220.4,519.7,220.4z
			 M518.8,194.4c-1.7,0-3,0.6-4.1,1.7c-1,1.1-1.7,2.8-2,4.9h11.8v-0.7c0-1.9-0.5-3.3-1.5-4.4C521.9,194.9,520.6,194.4,518.8,194.4z"
			/>
		<path class="st5" d="M545.3,188.2l0.3,3.7c2.3-2.8,5.3-4.2,9.1-4.2c3.4,0,5.8,1,7.5,3c1.6,2,2.5,4.9,2.5,8.8v20.4h-8.5v-20.2
			c0-1.8-0.4-3.1-1.2-3.9c-0.8-0.8-2.1-1.2-3.9-1.2c-2.4,0-4.2,1-5.4,3v22.3h-8.5v-31.6H545.3z"/>
		<path class="st5" d="M590,216.6c-2.1,2.5-5,3.8-8.7,3.8c-3.4,0-6-1-7.8-2.9c-1.8-1.9-2.7-4.8-2.7-8.6v-20.7h8.5v20.5
			c0,3.3,1.5,4.9,4.5,4.9c2.9,0,4.8-1,5.9-3v-22.4h8.5v31.6h-8L590,216.6z"/>
		<path class="st5" d="M619.2,220.4c-4.6,0-8.4-1.4-11.3-4.3c-2.9-2.8-4.4-6.6-4.4-11.4V204c0-3.2,0.6-6,1.8-8.5
			c1.2-2.5,3-4.4,5.2-5.8c2.3-1.4,4.8-2,7.7-2c4.3,0,7.7,1.4,10.2,4.1c2.5,2.7,3.7,6.6,3.7,11.6v3.5H612c0.3,2.1,1.1,3.7,2.5,5
			c1.4,1.2,3.1,1.9,5.2,1.9c3.3,0,5.8-1.2,7.6-3.5l4.2,4.7c-1.3,1.8-3,3.2-5.1,4.2C624.2,219.9,621.8,220.4,619.2,220.4z
			 M618.2,194.4c-1.7,0-3,0.6-4.1,1.7c-1,1.1-1.7,2.8-2,4.9h11.8v-0.7c0-1.9-0.5-3.3-1.5-4.4C621.4,194.9,620,194.4,618.2,194.4z"/>
	</g>
	<g>
		<path class="st5" d="M730.4,550.6h-3.2v-24.2h3.2V550.6z"/>
		<path class="st5" d="M738.7,532.7l0.1,2.3c1.4-1.7,3.2-2.6,5.4-2.6c3.8,0,5.7,2.1,5.7,6.4v11.9h-3.1v-11.9c0-1.3-0.3-2.3-0.9-2.9
			c-0.6-0.6-1.5-0.9-2.7-0.9c-1,0-1.9,0.3-2.6,0.8s-1.3,1.2-1.8,2.1v12.8h-3.1v-18H738.7z"/>
		<path class="st5" d="M760.9,541.6h-8.1v-2.5h8.1V541.6z"/>
		<path class="st5" d="M783,550.6h-3.2v-11.2h-12.2v11.2h-3.2v-24.2h3.2v10.4h12.2v-10.4h3.2V550.6z"/>
		<path class="st5" d="M787.4,541.5c0-1.8,0.3-3.3,1-4.7c0.7-1.4,1.7-2.5,2.9-3.3c1.2-0.8,2.6-1.1,4.2-1.1c2.4,0,4.4,0.8,5.9,2.5
			c1.5,1.7,2.3,3.9,2.3,6.8v0.2c0,1.7-0.3,3.3-1,4.7c-0.7,1.4-1.6,2.5-2.9,3.2c-1.2,0.8-2.7,1.2-4.3,1.2c-2.4,0-4.4-0.8-5.9-2.5
			c-1.5-1.7-2.3-3.9-2.3-6.7V541.5z M790.4,541.8c0,2,0.5,3.6,1.4,4.8c0.9,1.2,2.2,1.8,3.7,1.8c1.6,0,2.8-0.6,3.7-1.8
			c0.9-1.2,1.4-2.9,1.4-5.1c0-2-0.5-3.6-1.4-4.8c-0.9-1.2-2.2-1.8-3.7-1.8c-1.5,0-2.7,0.6-3.7,1.8
			C790.9,537.9,790.4,539.6,790.4,541.8z"/>
		<path class="st5" d="M818.7,548.9c-1.2,1.4-2.9,2.1-5.3,2.1c-1.9,0-3.4-0.6-4.4-1.7c-1-1.1-1.5-2.8-1.5-4.9v-11.7h3.1v11.6
			c0,2.7,1.1,4.1,3.3,4.1c2.3,0,3.9-0.9,4.7-2.6v-13.1h3.1v18h-2.9L818.7,548.9z"/>
		<path class="st5" d="M836.8,545.9c0-0.8-0.3-1.5-0.9-1.9c-0.6-0.5-1.7-0.9-3.3-1.2c-1.6-0.3-2.8-0.7-3.7-1.2c-0.9-0.5-1.6-1-2-1.7
			c-0.4-0.6-0.7-1.4-0.7-2.3c0-1.5,0.6-2.7,1.9-3.7c1.2-1,2.8-1.5,4.8-1.5c2,0,3.7,0.5,5,1.6c1.3,1.1,1.9,2.4,1.9,4h-3.1
			c0-0.8-0.4-1.6-1.1-2.2c-0.7-0.6-1.6-0.9-2.7-0.9c-1.1,0-2,0.2-2.6,0.7c-0.6,0.5-0.9,1.1-0.9,1.9c0,0.7,0.3,1.3,0.9,1.7
			c0.6,0.4,1.6,0.7,3.2,1.1c1.5,0.3,2.8,0.8,3.7,1.2c1,0.5,1.7,1,2.1,1.7c0.5,0.7,0.7,1.5,0.7,2.4c0,1.6-0.6,2.9-1.9,3.9
			c-1.3,1-2.9,1.5-5,1.5c-1.4,0-2.7-0.3-3.8-0.8s-2-1.2-2.6-2.1c-0.6-0.9-0.9-1.9-0.9-3h3.1c0.1,1,0.5,1.8,1.2,2.4
			c0.8,0.6,1.8,0.9,3,0.9c1.2,0,2.1-0.2,2.8-0.7C836.4,547.3,836.8,546.7,836.8,545.9z"/>
		<path class="st5" d="M851.3,551c-2.4,0-4.4-0.8-5.9-2.4c-1.5-1.6-2.3-3.7-2.3-6.4v-0.6c0-1.8,0.3-3.4,1-4.8
			c0.7-1.4,1.6-2.5,2.9-3.3c1.2-0.8,2.5-1.2,4-1.2c2.3,0,4.2,0.8,5.4,2.3c1.3,1.5,1.9,3.7,1.9,6.6v1.3h-12.2c0,1.8,0.6,3.2,1.6,4.3
			c1,1.1,2.2,1.6,3.8,1.6c1.1,0,2-0.2,2.8-0.7c0.8-0.4,1.4-1,2-1.8l1.9,1.5C856.6,549.8,854.3,551,851.3,551z M850.9,534.9
			c-1.2,0-2.3,0.5-3.1,1.4c-0.8,0.9-1.4,2.2-1.6,3.8h9v-0.2c-0.1-1.6-0.5-2.8-1.3-3.6C853.2,535.3,852.2,534.9,850.9,534.9z"/>
		<path class="st5" d="M664.2,588.3c-0.8,1.2-2,2.1-3.4,2.6c-1.5,0.6-3.2,0.9-5.1,0.9c-2,0-3.7-0.5-5.2-1.4
			c-1.5-0.9-2.7-2.2-3.5-3.9c-0.8-1.7-1.3-3.7-1.3-5.9v-2.1c0-3.6,0.8-6.5,2.5-8.5c1.7-2,4.1-3,7.2-3c2.5,0,4.6,0.6,6.1,1.9
			c1.5,1.3,2.5,3.1,2.8,5.5H661c-0.6-3.2-2.5-4.8-5.7-4.8c-2.1,0-3.8,0.8-4.9,2.3c-1.1,1.5-1.7,3.7-1.7,6.5v2c0,2.7,0.6,4.9,1.9,6.5
			s2.9,2.4,5,2.4c1.2,0,2.2-0.1,3.1-0.4s1.6-0.7,2.2-1.3V582h-5.6v-2.6h8.8V588.3z"/>
		<path class="st5" d="M680.1,591.4c-0.2-0.4-0.3-1-0.4-1.9c-1.4,1.5-3.1,2.2-5.1,2.2c-1.8,0-3.2-0.5-4.4-1.5
			c-1.1-1-1.7-2.3-1.7-3.8c0-1.9,0.7-3.3,2.1-4.4c1.4-1,3.4-1.6,6-1.6h3v-1.4c0-1.1-0.3-1.9-1-2.6c-0.6-0.6-1.6-1-2.8-1
			c-1.1,0-2,0.3-2.8,0.8c-0.7,0.6-1.1,1.2-1.1,2h-3.1c0-0.9,0.3-1.8,1-2.6c0.6-0.8,1.5-1.5,2.6-2c1.1-0.5,2.3-0.7,3.6-0.7
			c2.1,0,3.7,0.5,4.9,1.6c1.2,1,1.8,2.5,1.8,4.3v8.3c0,1.6,0.2,3,0.6,3.9v0.3H680.1z M675,589.1c1,0,1.9-0.2,2.7-0.7
			s1.5-1.1,1.9-1.9v-3.7h-2.4c-3.8,0-5.6,1.1-5.6,3.3c0,1,0.3,1.7,1,2.3C673.2,588.8,674,589.1,675,589.1z"/>
		<path class="st5" d="M690.4,573.5l0.1,2c1.3-1.5,3.1-2.3,5.3-2.3c2.5,0,4.2,1,5.1,2.9c0.6-0.9,1.4-1.6,2.3-2.1
			c1-0.5,2.1-0.8,3.4-0.8c3.9,0,5.9,2.1,6,6.3v12h-3.1v-11.9c0-1.3-0.3-2.2-0.9-2.9c-0.6-0.6-1.6-1-3-1c-1.1,0-2.1,0.3-2.8,1
			s-1.2,1.6-1.3,2.7v11.9h-3.1v-11.8c0-2.6-1.3-3.9-3.8-3.9c-2,0-3.4,0.9-4.1,2.6v13.1h-3.1v-18H690.4z"/>
		<path class="st5" d="M724.8,591.8c-2.4,0-4.4-0.8-5.9-2.4c-1.5-1.6-2.3-3.7-2.3-6.4v-0.6c0-1.8,0.3-3.4,1-4.8
			c0.7-1.4,1.6-2.5,2.9-3.3c1.2-0.8,2.5-1.2,4-1.2c2.3,0,4.2,0.8,5.4,2.3c1.3,1.5,1.9,3.7,1.9,6.6v1.3h-12.2c0,1.8,0.6,3.2,1.6,4.3
			c1,1.1,2.2,1.6,3.8,1.6c1.1,0,2-0.2,2.8-0.7c0.8-0.4,1.4-1,2-1.8l1.9,1.5C730.1,590.6,727.8,591.8,724.8,591.8z M724.4,575.7
			c-1.2,0-2.3,0.5-3.1,1.4c-0.8,0.9-1.4,2.2-1.6,3.8h9v-0.2c-0.1-1.6-0.5-2.8-1.3-3.6C726.7,576.1,725.7,575.7,724.4,575.7z"/>
		<path class="st5" d="M744.2,591.4v-24.2h6.8c2.1,0,4,0.5,5.6,1.4s2.9,2.3,3.7,4c0.9,1.7,1.3,3.7,1.3,5.9v1.5c0,2.3-0.4,4.3-1.3,6
			c-0.9,1.7-2.1,3-3.8,4c-1.6,0.9-3.5,1.4-5.7,1.4H744.2z M747.4,569.9v19h3.4c2.5,0,4.4-0.8,5.7-2.3c1.4-1.5,2.1-3.7,2.1-6.5v-1.4
			c0-2.7-0.6-4.9-1.9-6.4c-1.3-1.5-3.1-2.3-5.5-2.3H747.4z"/>
		<path class="st5" d="M773.5,591.8c-2.4,0-4.4-0.8-5.9-2.4c-1.5-1.6-2.3-3.7-2.3-6.4v-0.6c0-1.8,0.3-3.4,1-4.8
			c0.7-1.4,1.6-2.5,2.9-3.3c1.2-0.8,2.5-1.2,4-1.2c2.3,0,4.2,0.8,5.4,2.3c1.3,1.5,1.9,3.7,1.9,6.6v1.3h-12.2c0,1.8,0.6,3.2,1.6,4.3
			c1,1.1,2.2,1.6,3.8,1.6c1.1,0,2-0.2,2.8-0.7c0.8-0.4,1.4-1,2-1.8l1.9,1.5C778.8,590.6,776.5,591.8,773.5,591.8z M773.1,575.7
			c-1.2,0-2.3,0.5-3.1,1.4c-0.8,0.9-1.4,2.2-1.6,3.8h9v-0.2c-0.1-1.6-0.5-2.8-1.3-3.6C775.4,576.1,774.4,575.7,773.1,575.7z"/>
		<path class="st5" d="M789.8,587.3l4.4-13.8h3.1l-6.4,18h-2.3l-6.5-18h3.1L789.8,587.3z"/>
		<path class="st5" d="M807.6,591.8c-2.4,0-4.4-0.8-5.9-2.4c-1.5-1.6-2.3-3.7-2.3-6.4v-0.6c0-1.8,0.3-3.4,1-4.8
			c0.7-1.4,1.6-2.5,2.9-3.3c1.2-0.8,2.5-1.2,4-1.2c2.3,0,4.2,0.8,5.4,2.3c1.3,1.5,1.9,3.7,1.9,6.6v1.3h-12.2c0,1.8,0.6,3.2,1.6,4.3
			c1,1.1,2.2,1.6,3.8,1.6c1.1,0,2-0.2,2.8-0.7c0.8-0.4,1.4-1,2-1.8l1.9,1.5C812.8,590.6,810.6,591.8,807.6,591.8z M807.2,575.7
			c-1.2,0-2.3,0.5-3.1,1.4c-0.8,0.9-1.4,2.2-1.6,3.8h9v-0.2c-0.1-1.6-0.5-2.8-1.3-3.6C809.5,576.1,808.5,575.7,807.2,575.7z"/>
		<path class="st5" d="M821.5,591.4h-3.1v-25.5h3.1V591.4z"/>
		<path class="st5" d="M825.6,582.3c0-1.8,0.3-3.3,1-4.7c0.7-1.4,1.7-2.5,2.9-3.3c1.2-0.8,2.6-1.1,4.2-1.1c2.4,0,4.4,0.8,5.9,2.5
			c1.5,1.7,2.3,3.9,2.3,6.8v0.2c0,1.7-0.3,3.3-1,4.7c-0.7,1.4-1.6,2.5-2.9,3.2c-1.2,0.8-2.7,1.2-4.3,1.2c-2.4,0-4.4-0.8-5.9-2.5
			c-1.5-1.7-2.3-3.9-2.3-6.7V582.3z M828.6,582.6c0,2,0.5,3.6,1.4,4.8c0.9,1.2,2.2,1.8,3.7,1.8c1.6,0,2.8-0.6,3.7-1.8
			c0.9-1.2,1.4-2.9,1.4-5.1c0-2-0.5-3.6-1.4-4.8c-0.9-1.2-2.2-1.8-3.7-1.8c-1.5,0-2.7,0.6-3.7,1.8
			C829.1,578.7,828.6,580.4,828.6,582.6z"/>
		<path class="st5" d="M860.9,582.6c0,2.7-0.6,4.9-1.9,6.6c-1.3,1.7-2.9,2.5-5.1,2.5c-2.2,0-3.9-0.7-5.1-2.1v8.6h-3.1v-24.9h2.8
			l0.1,2c1.3-1.5,3-2.3,5.2-2.3c2.2,0,3.9,0.8,5.1,2.4c1.3,1.6,1.9,3.9,1.9,6.8V582.6z M857.9,582.3c0-2-0.4-3.6-1.3-4.8
			c-0.9-1.2-2-1.8-3.6-1.8c-1.9,0-3.3,0.8-4.2,2.5v8.6c0.9,1.6,2.3,2.5,4.2,2.5c1.5,0,2.6-0.6,3.5-1.8
			C857.4,586.3,857.9,584.6,857.9,582.3z"/>
		<path class="st5" d="M867.7,573.5l0.1,2c1.3-1.5,3.1-2.3,5.3-2.3c2.5,0,4.2,1,5.1,2.9c0.6-0.9,1.4-1.6,2.3-2.1
			c1-0.5,2.1-0.8,3.4-0.8c3.9,0,5.9,2.1,6,6.3v12h-3.1v-11.9c0-1.3-0.3-2.2-0.9-2.9c-0.6-0.6-1.6-1-3-1c-1.1,0-2.1,0.3-2.8,1
			s-1.2,1.6-1.3,2.7v11.9h-3.1v-11.8c0-2.6-1.3-3.9-3.8-3.9c-2,0-3.4,0.9-4.1,2.6v13.1h-3.1v-18H867.7z"/>
		<path class="st5" d="M902.1,591.8c-2.4,0-4.4-0.8-5.9-2.4c-1.5-1.6-2.3-3.7-2.3-6.4v-0.6c0-1.8,0.3-3.4,1-4.8
			c0.7-1.4,1.6-2.5,2.9-3.3c1.2-0.8,2.5-1.2,4-1.2c2.3,0,4.2,0.8,5.4,2.3c1.3,1.5,1.9,3.7,1.9,6.6v1.3h-12.2c0,1.8,0.6,3.2,1.6,4.3
			c1,1.1,2.2,1.6,3.8,1.6c1.1,0,2-0.2,2.8-0.7c0.8-0.4,1.4-1,2-1.8l1.9,1.5C907.4,590.6,905.1,591.8,902.1,591.8z M901.7,575.7
			c-1.2,0-2.3,0.5-3.1,1.4c-0.8,0.9-1.4,2.2-1.6,3.8h9v-0.2c-0.1-1.6-0.5-2.8-1.3-3.6C904,576.1,903,575.7,901.7,575.7z"/>
		<path class="st5" d="M915.6,573.5l0.1,2.3c1.4-1.7,3.2-2.6,5.4-2.6c3.8,0,5.7,2.1,5.7,6.4v11.9h-3.1v-11.9c0-1.3-0.3-2.3-0.9-2.9
			c-0.6-0.6-1.5-0.9-2.7-0.9c-1,0-1.9,0.3-2.6,0.8s-1.3,1.2-1.8,2.1v12.8h-3.1v-18H915.6z"/>
		<path class="st5" d="M935.6,569.1v4.3h3.4v2.4h-3.4V587c0,0.7,0.1,1.3,0.4,1.6s0.8,0.5,1.5,0.5c0.4,0,0.8-0.1,1.5-0.2v2.5
			c-0.8,0.2-1.6,0.3-2.4,0.3c-1.4,0-2.4-0.4-3.1-1.2s-1-2-1-3.5v-11.1h-3.3v-2.4h3.3v-4.3H935.6z"/>
	</g>
	<g>
		<path class="st5" d="M617.2,638.3c0-1-0.4-1.9-1.1-2.6c-0.7-0.7-1.9-1.3-3.6-1.9c-2.4-0.7-4.1-1.7-5.2-2.8
			c-1.1-1.2-1.6-2.6-1.6-4.4c0-1.8,0.5-3.3,1.6-4.5c1.1-1.2,2.5-1.9,4.4-2.1v-3.6h2.5v3.7c1.9,0.3,3.3,1,4.3,2.3
			c1,1.3,1.6,3.1,1.6,5.4H617c0-1.6-0.4-2.8-1.1-3.7c-0.7-0.9-1.7-1.4-3-1.4c-1.3,0-2.3,0.3-3,1s-1,1.6-1,2.9c0,1.1,0.4,2,1.1,2.7
			c0.7,0.7,1.9,1.3,3.6,1.8c1.7,0.5,3,1.2,4,1.8c0.9,0.7,1.6,1.4,2.1,2.3c0.4,0.9,0.7,1.9,0.7,3.1c0,1.9-0.6,3.4-1.7,4.5
			c-1.1,1.1-2.7,1.8-4.7,2v3.2h-2.5v-3.2c-2.1-0.2-3.7-0.9-4.8-2.2c-1.2-1.3-1.8-3-1.8-5.2h3.1c0,1.5,0.4,2.7,1.2,3.6s2,1.2,3.4,1.2
			c1.5,0,2.6-0.3,3.4-1S617.2,639.5,617.2,638.3z"/>
		<path class="st5" d="M629,620.3l7.9,19.7l7.9-19.7h4.1v24.2h-3.2v-9.4l0.3-10.2l-7.9,19.6h-2.4l-7.9-19.5l0.3,10.1v9.4h-3.2v-24.2
			H629z"/>
		<path class="st5" d="M657.8,641.9h11.5v2.6h-14.7v-24.2h3.2V641.9z"/>
		<path class="st5" d="M685,623h-7.8v21.6H674V623h-7.8v-2.6H685V623z"/>
		<path class="st5" d="M692,644.5h-3.2v-24.2h3.2V644.5z"/>
		<path class="st5" d="M724.1,641.3c-0.8,1.2-2,2.1-3.4,2.6c-1.5,0.6-3.2,0.9-5.1,0.9c-2,0-3.7-0.5-5.2-1.4
			c-1.5-0.9-2.7-2.2-3.5-3.9c-0.8-1.7-1.3-3.7-1.3-5.9v-2.1c0-3.6,0.8-6.5,2.5-8.5c1.7-2,4.1-3,7.2-3c2.5,0,4.6,0.6,6.1,1.9
			c1.5,1.3,2.5,3.1,2.8,5.5h-3.2c-0.6-3.2-2.5-4.8-5.7-4.8c-2.1,0-3.8,0.8-4.9,2.3c-1.1,1.5-1.7,3.7-1.7,6.5v2
			c0,2.7,0.6,4.9,1.9,6.5s2.9,2.4,5,2.4c1.2,0,2.2-0.1,3.1-0.4s1.6-0.7,2.2-1.3v-5.4h-5.6v-2.6h8.8V641.3z"/>
		<path class="st5" d="M728.1,635.4c0-1.8,0.3-3.3,1-4.7c0.7-1.4,1.7-2.5,2.9-3.3c1.2-0.8,2.6-1.1,4.2-1.1c2.4,0,4.4,0.8,5.9,2.5
			c1.5,1.7,2.3,3.9,2.3,6.8v0.2c0,1.7-0.3,3.3-1,4.7c-0.7,1.4-1.6,2.5-2.9,3.2c-1.2,0.8-2.7,1.2-4.3,1.2c-2.4,0-4.4-0.8-5.9-2.5
			c-1.5-1.7-2.3-3.9-2.3-6.7V635.4z M731.2,635.7c0,2,0.5,3.6,1.4,4.8c0.9,1.2,2.2,1.8,3.7,1.8c1.6,0,2.8-0.6,3.7-1.8
			c0.9-1.2,1.4-2.9,1.4-5.1c0-2-0.5-3.6-1.4-4.8c-0.9-1.2-2.2-1.8-3.7-1.8c-1.5,0-2.7,0.6-3.7,1.8
			C731.6,631.8,731.2,633.5,731.2,635.7z"/>
		<path class="st5" d="M754,640.4l4.4-13.8h3.1l-6.4,18h-2.3l-6.5-18h3.1L754,640.4z"/>
		<path class="st5" d="M771.8,644.8c-2.4,0-4.4-0.8-5.9-2.4c-1.5-1.6-2.3-3.7-2.3-6.4v-0.6c0-1.8,0.3-3.4,1-4.8
			c0.7-1.4,1.6-2.5,2.9-3.3c1.2-0.8,2.5-1.2,4-1.2c2.3,0,4.2,0.8,5.4,2.3c1.3,1.5,1.9,3.7,1.9,6.6v1.3h-12.2c0,1.8,0.6,3.2,1.6,4.3
			c1,1.1,2.2,1.6,3.8,1.6c1.1,0,2-0.2,2.8-0.7c0.8-0.4,1.4-1,2-1.8l1.9,1.5C777,643.7,774.8,644.8,771.8,644.8z M771.4,628.7
			c-1.2,0-2.3,0.5-3.1,1.4c-0.8,0.9-1.4,2.2-1.6,3.8h9v-0.2c-0.1-1.6-0.5-2.8-1.3-3.6C773.7,629.2,772.7,628.7,771.4,628.7z"/>
		<path class="st5" d="M791,629.3c-0.5-0.1-1-0.1-1.5-0.1c-2,0-3.4,0.9-4.1,2.6v12.8h-3.1v-18h3l0,2.1c1-1.6,2.4-2.4,4.3-2.4
			c0.6,0,1.1,0.1,1.4,0.2V629.3z"/>
		<path class="st5" d="M796.7,626.6l0.1,2.3c1.4-1.7,3.2-2.6,5.4-2.6c3.8,0,5.7,2.1,5.7,6.4v11.9h-3.1v-11.9c0-1.3-0.3-2.3-0.9-2.9
			c-0.6-0.6-1.5-0.9-2.7-0.9c-1,0-1.9,0.3-2.6,0.8s-1.3,1.2-1.8,2.1v12.8h-3.1v-18H796.7z"/>
		<path class="st5" d="M823.7,644.5c-0.2-0.4-0.3-1-0.4-1.9c-1.4,1.5-3.1,2.2-5.1,2.2c-1.8,0-3.2-0.5-4.4-1.5
			c-1.1-1-1.7-2.3-1.7-3.8c0-1.9,0.7-3.3,2.1-4.4c1.4-1,3.4-1.6,6-1.6h3v-1.4c0-1.1-0.3-1.9-1-2.6c-0.6-0.6-1.6-1-2.8-1
			c-1.1,0-2,0.3-2.8,0.8c-0.7,0.6-1.1,1.2-1.1,2h-3.1c0-0.9,0.3-1.8,1-2.6c0.6-0.8,1.5-1.5,2.6-2c1.1-0.5,2.3-0.7,3.6-0.7
			c2.1,0,3.7,0.5,4.9,1.6c1.2,1,1.8,2.5,1.8,4.3v8.3c0,1.6,0.2,3,0.6,3.9v0.3H823.7z M818.6,642.2c1,0,1.9-0.2,2.7-0.7
			s1.5-1.1,1.9-1.9v-3.7h-2.4c-3.8,0-5.6,1.1-5.6,3.3c0,1,0.3,1.7,1,2.3C816.7,641.9,817.6,642.2,818.6,642.2z"/>
		<path class="st5" d="M834,626.6l0.1,2.3c1.4-1.7,3.2-2.6,5.4-2.6c3.8,0,5.7,2.1,5.7,6.4v11.9h-3.1v-11.9c0-1.3-0.3-2.3-0.9-2.9
			c-0.6-0.6-1.5-0.9-2.7-0.9c-1,0-1.9,0.3-2.6,0.8s-1.3,1.2-1.8,2.1v12.8h-3.1v-18H834z"/>
		<path class="st5" d="M857,642.3c1.1,0,2.1-0.3,2.9-1s1.3-1.5,1.4-2.5h2.9c-0.1,1-0.4,2-1.1,2.9s-1.5,1.7-2.6,2.2
			c-1.1,0.6-2.2,0.8-3.5,0.8c-2.4,0-4.4-0.8-5.8-2.4c-1.4-1.6-2.2-3.9-2.2-6.7v-0.5c0-1.7,0.3-3.3,1-4.7s1.6-2.4,2.8-3.2
			c1.2-0.8,2.6-1.1,4.3-1.1c2,0,3.7,0.6,5,1.8c1.3,1.2,2,2.8,2.1,4.7h-2.9c-0.1-1.2-0.5-2.1-1.3-2.9c-0.8-0.7-1.8-1.1-2.9-1.1
			c-1.6,0-2.8,0.6-3.6,1.7c-0.9,1.1-1.3,2.7-1.3,4.9v0.6c0,2.1,0.4,3.7,1.3,4.8C854.2,641.8,855.5,642.3,857,642.3z"/>
		<path class="st5" d="M875.1,644.8c-2.4,0-4.4-0.8-5.9-2.4c-1.5-1.6-2.3-3.7-2.3-6.4v-0.6c0-1.8,0.3-3.4,1-4.8
			c0.7-1.4,1.6-2.5,2.9-3.3c1.2-0.8,2.5-1.2,4-1.2c2.3,0,4.2,0.8,5.4,2.3c1.3,1.5,1.9,3.7,1.9,6.6v1.3h-12.2c0,1.8,0.6,3.2,1.6,4.3
			c1,1.1,2.2,1.6,3.8,1.6c1.1,0,2-0.2,2.8-0.7c0.8-0.4,1.4-1,2-1.8l1.9,1.5C880.4,643.7,878.1,644.8,875.1,644.8z M874.7,628.7
			c-1.2,0-2.3,0.5-3.1,1.4c-0.8,0.9-1.4,2.2-1.6,3.8h9v-0.2c-0.1-1.6-0.5-2.8-1.3-3.6C877,629.2,876,628.7,874.7,628.7z"/>
		<path class="st5" d="M910.6,623h-7.8v21.6h-3.2V623h-7.8v-2.6h18.7V623z"/>
		<path class="st5" d="M911.2,635.4c0-1.8,0.3-3.3,1-4.7c0.7-1.4,1.7-2.5,2.9-3.3c1.2-0.8,2.6-1.1,4.2-1.1c2.4,0,4.4,0.8,5.9,2.5
			c1.5,1.7,2.3,3.9,2.3,6.8v0.2c0,1.7-0.3,3.3-1,4.7c-0.7,1.4-1.6,2.5-2.9,3.2c-1.2,0.8-2.7,1.2-4.3,1.2c-2.4,0-4.4-0.8-5.9-2.5
			c-1.5-1.7-2.3-3.9-2.3-6.7V635.4z M914.3,635.7c0,2,0.5,3.6,1.4,4.8c0.9,1.2,2.2,1.8,3.7,1.8c1.6,0,2.8-0.6,3.7-1.8
			c0.9-1.2,1.4-2.9,1.4-5.1c0-2-0.5-3.6-1.4-4.8c-0.9-1.2-2.2-1.8-3.7-1.8c-1.5,0-2.7,0.6-3.7,1.8
			C914.8,631.8,914.3,633.5,914.3,635.7z"/>
		<path class="st5" d="M936.4,636.2l-1.9,2v6.3h-3.1V619h3.1v15.4l1.6-2l5.6-5.9h3.7l-7,7.5l7.8,10.5h-3.6L936.4,636.2z"/>
		<path class="st5" d="M955.8,644.8c-2.4,0-4.4-0.8-5.9-2.4c-1.5-1.6-2.3-3.7-2.3-6.4v-0.6c0-1.8,0.3-3.4,1-4.8
			c0.7-1.4,1.6-2.5,2.9-3.3c1.2-0.8,2.5-1.2,4-1.2c2.3,0,4.2,0.8,5.4,2.3c1.3,1.5,1.9,3.7,1.9,6.6v1.3h-12.2c0,1.8,0.6,3.2,1.6,4.3
			c1,1.1,2.2,1.6,3.8,1.6c1.1,0,2-0.2,2.8-0.7c0.8-0.4,1.4-1,2-1.8l1.9,1.5C961.1,643.7,958.8,644.8,955.8,644.8z M955.4,628.7
			c-1.2,0-2.3,0.5-3.1,1.4c-0.8,0.9-1.4,2.2-1.6,3.8h9v-0.2c-0.1-1.6-0.5-2.8-1.3-3.6C957.7,629.2,956.7,628.7,955.4,628.7z"/>
		<path class="st5" d="M969.2,626.6l0.1,2.3c1.4-1.7,3.2-2.6,5.4-2.6c3.8,0,5.7,2.1,5.7,6.4v11.9h-3.1v-11.9c0-1.3-0.3-2.3-0.9-2.9
			c-0.6-0.6-1.5-0.9-2.7-0.9c-1,0-1.9,0.3-2.6,0.8s-1.3,1.2-1.8,2.1v12.8h-3.1v-18H969.2z"/>
	</g>
	
		<linearGradient id="SVGID_00000089562038363955516270000004717246765460762295_" gradientUnits="userSpaceOnUse" x1="222.9291" y1="393.1033" x2="510.262" y2="393.1033">
		<stop  offset="0" style="stop-color:#EC0AFA"/>
		<stop  offset="0.1686" style="stop-color:#C62DF7"/>
		<stop  offset="0.3886" style="stop-color:#9956F3"/>
		<stop  offset="0.5" style="stop-color:#8866F1"/>
		<stop  offset="0.5695" style="stop-color:#806DF0"/>
		<stop  offset="0.6795" style="stop-color:#6981ED"/>
		<stop  offset="0.8163" style="stop-color:#44A1E7"/>
		<stop  offset="0.9731" style="stop-color:#11CDE0"/>
		<stop  offset="1" style="stop-color:#07D5DF"/>
	</linearGradient>
	
		<polyline style="fill:none;stroke:url(#SVGID_00000089562038363955516270000004717246765460762295_);stroke-width:3;stroke-miterlimit:10;" points="
		508.8,300 508.8,379.5 224.4,379.5 224.4,486.2 	"/>
	
		<linearGradient id="SVGID_00000006709511532505459640000015569595146757207229_" gradientUnits="userSpaceOnUse" x1="508.762" y1="432.12" x2="796.4846" y2="432.12">
		<stop  offset="0" style="stop-color:#07D5DF"/>
		<stop  offset="2.690003e-02" style="stop-color:#11CDE0"/>
		<stop  offset="0.1837" style="stop-color:#44A1E7"/>
		<stop  offset="0.3205" style="stop-color:#6981ED"/>
		<stop  offset="0.4305" style="stop-color:#806DF0"/>
		<stop  offset="0.5" style="stop-color:#8866F1"/>
		<stop  offset="0.6114" style="stop-color:#9956F3"/>
		<stop  offset="0.8314" style="stop-color:#C62DF7"/>
		<stop  offset="1" style="stop-color:#EC0AFA"/>
	</linearGradient>
	
		<polyline style="fill:none;stroke:url(#SVGID_00000006709511532505459640000015569595146757207229_);stroke-width:3;stroke-miterlimit:10;" points="
		508.8,379.5 795,379.5 795,486.2 	"/>
	
		<linearGradient id="SVGID_00000074415184666772283240000017968411775273533118_" gradientUnits="userSpaceOnUse" x1="223.6513" y1="818.3199" x2="513.4842" y2="818.3199">
		<stop  offset="0" style="stop-color:#EC0AFA"/>
		<stop  offset="0.1686" style="stop-color:#C62DF7"/>
		<stop  offset="0.3886" style="stop-color:#9956F3"/>
		<stop  offset="0.5" style="stop-color:#8866F1"/>
		<stop  offset="0.5695" style="stop-color:#806DF0"/>
		<stop  offset="0.6795" style="stop-color:#6981ED"/>
		<stop  offset="0.8163" style="stop-color:#44A1E7"/>
		<stop  offset="0.9731" style="stop-color:#11CDE0"/>
		<stop  offset="1" style="stop-color:#07D5DF"/>
	</linearGradient>
	
		<polyline style="fill:none;stroke:url(#SVGID_00000074415184666772283240000017968411775273533118_);stroke-width:3;stroke-miterlimit:10;" points="
		513.5,765.7 225.2,765.7 225.2,872.4 	"/>
	
		<linearGradient id="SVGID_00000021814958501268236280000009423201520754140350_" gradientUnits="userSpaceOnUse" x1="504.4842" y1="818.3199" x2="794.2068" y2="818.3199">
		<stop  offset="0" style="stop-color:#07D5DF"/>
		<stop  offset="2.690003e-02" style="stop-color:#11CDE0"/>
		<stop  offset="0.1837" style="stop-color:#44A1E7"/>
		<stop  offset="0.3205" style="stop-color:#6981ED"/>
		<stop  offset="0.4305" style="stop-color:#806DF0"/>
		<stop  offset="0.5" style="stop-color:#8866F1"/>
		<stop  offset="0.6114" style="stop-color:#9956F3"/>
		<stop  offset="0.8314" style="stop-color:#C62DF7"/>
		<stop  offset="1" style="stop-color:#EC0AFA"/>
	</linearGradient>
	
		<polyline style="fill:none;stroke:url(#SVGID_00000021814958501268236280000009423201520754140350_);stroke-width:3;stroke-miterlimit:10;" points="
		504.5,765.7 792.7,765.7 792.7,872.4 	"/>
	
		<linearGradient id="SVGID_00000118375861378988619140000018390256380454379162_" gradientUnits="userSpaceOnUse" x1="225.1513" y1="765.7366" x2="225.1513" y2="686.2033">
		<stop  offset="0" style="stop-color:#EC0AFA"/>
		<stop  offset="0.1686" style="stop-color:#C62DF7"/>
		<stop  offset="0.3886" style="stop-color:#9956F3"/>
		<stop  offset="0.5" style="stop-color:#8866F1"/>
		<stop  offset="0.5695" style="stop-color:#806DF0"/>
		<stop  offset="0.6795" style="stop-color:#6981ED"/>
		<stop  offset="0.8163" style="stop-color:#44A1E7"/>
		<stop  offset="0.9731" style="stop-color:#11CDE0"/>
		<stop  offset="1" style="stop-color:#07D5DF"/>
	</linearGradient>
	
		<line style="fill:none;stroke:url(#SVGID_00000118375861378988619140000018390256380454379162_);stroke-width:3;stroke-miterlimit:10;" x1="225.2" y1="686.2" x2="225.2" y2="765.7"/>
	
		<linearGradient id="SVGID_00000002358733601704386130000016885939542454849182_" gradientUnits="userSpaceOnUse" x1="16.033" y1="586.2033" x2="431.9362" y2="586.2033">
		<stop  offset="0" style="stop-color:#EC0AFA"/>
		<stop  offset="0.1686" style="stop-color:#C62DF7"/>
		<stop  offset="0.3886" style="stop-color:#9956F3"/>
		<stop  offset="0.5" style="stop-color:#8866F1"/>
		<stop  offset="0.5695" style="stop-color:#806DF0"/>
		<stop  offset="0.6795" style="stop-color:#6981ED"/>
		<stop  offset="0.8163" style="stop-color:#44A1E7"/>
		<stop  offset="0.9731" style="stop-color:#11CDE0"/>
		<stop  offset="1" style="stop-color:#07D5DF"/>
	</linearGradient>
	
		<path style="fill:none;stroke:url(#SVGID_00000002358733601704386130000016885939542454849182_);stroke-width:3;stroke-miterlimit:10;" d="
		M400.4,686.2H47.5c-16.6,0-30-13.4-30-30v-140c0-16.6,13.4-30,30-30h352.9c16.6,0,30,13.4,30,30v140
		C430.4,672.8,417,686.2,400.4,686.2z"/>
	
		<linearGradient id="SVGID_00000024686459856534794010000009506650511434576794_" gradientUnits="userSpaceOnUse" x1="585.2552" y1="586.2033" x2="1001.1584" y2="586.2033">
		<stop  offset="0" style="stop-color:#07D5DF"/>
		<stop  offset="2.690003e-02" style="stop-color:#11CDE0"/>
		<stop  offset="0.1837" style="stop-color:#44A1E7"/>
		<stop  offset="0.3205" style="stop-color:#6981ED"/>
		<stop  offset="0.4305" style="stop-color:#806DF0"/>
		<stop  offset="0.5" style="stop-color:#8866F1"/>
		<stop  offset="0.6114" style="stop-color:#9956F3"/>
		<stop  offset="0.8314" style="stop-color:#C62DF7"/>
		<stop  offset="1" style="stop-color:#EC0AFA"/>
	</linearGradient>
	
		<path style="fill:none;stroke:url(#SVGID_00000024686459856534794010000009506650511434576794_);stroke-width:3;stroke-miterlimit:10;" d="
		M969.7,686.2H616.8c-16.6,0-30-13.4-30-30v-140c0-16.6,13.4-30,30-30h352.9c16.6,0,30,13.4,30,30v140
		C999.7,672.8,986.2,686.2,969.7,686.2z"/>
	
		<linearGradient id="SVGID_00000029750522984340745310000012781466617266501258_" gradientUnits="userSpaceOnUse" x1="583.7552" y1="972.4033" x2="999.6584" y2="972.4033">
		<stop  offset="0" style="stop-color:#07D5DF"/>
		<stop  offset="2.690003e-02" style="stop-color:#11CDE0"/>
		<stop  offset="0.1837" style="stop-color:#44A1E7"/>
		<stop  offset="0.3205" style="stop-color:#6981ED"/>
		<stop  offset="0.4305" style="stop-color:#806DF0"/>
		<stop  offset="0.5" style="stop-color:#8866F1"/>
		<stop  offset="0.6114" style="stop-color:#9956F3"/>
		<stop  offset="0.8314" style="stop-color:#C62DF7"/>
		<stop  offset="1" style="stop-color:#EC0AFA"/>
	</linearGradient>
	
		<path style="fill:none;stroke:url(#SVGID_00000029750522984340745310000012781466617266501258_);stroke-width:3;stroke-miterlimit:10;" d="
		M968.2,1072.4H615.3c-16.6,0-30-13.4-30-30v-140c0-16.6,13.4-30,30-30h352.9c16.6,0,30,13.4,30,30v140
		C998.2,1059,984.7,1072.4,968.2,1072.4z"/>
	
		<linearGradient id="SVGID_00000121967349886265821980000011056291255461740212_" gradientUnits="userSpaceOnUse" x1="16.1997" y1="972.4033" x2="432.1029" y2="972.4033">
		<stop  offset="0" style="stop-color:#EC0AFA"/>
		<stop  offset="0.1686" style="stop-color:#C62DF7"/>
		<stop  offset="0.3886" style="stop-color:#9956F3"/>
		<stop  offset="0.5" style="stop-color:#8866F1"/>
		<stop  offset="0.5695" style="stop-color:#806DF0"/>
		<stop  offset="0.6795" style="stop-color:#6981ED"/>
		<stop  offset="0.8163" style="stop-color:#44A1E7"/>
		<stop  offset="0.9731" style="stop-color:#11CDE0"/>
		<stop  offset="1" style="stop-color:#07D5DF"/>
	</linearGradient>
	
		<path style="fill:none;stroke:url(#SVGID_00000121967349886265821980000011056291255461740212_);stroke-width:3;stroke-miterlimit:10;" d="
		M400.6,1072.4H47.7c-16.6,0-30-13.4-30-30v-140c0-16.6,13.4-30,30-30h352.9c16.6,0,30,13.4,30,30v140
		C430.6,1059,417.2,1072.4,400.6,1072.4z"/>
	
		<linearGradient id="SVGID_00000121256849500495950530000008765868848486062980_" gradientUnits="userSpaceOnUse" x1="222.818" y1="162.2255" x2="794.7068" y2="162.2255">
		<stop  offset="0" style="stop-color:#EC0AFA"/>
		<stop  offset="0.1686" style="stop-color:#C62DF7"/>
		<stop  offset="0.3886" style="stop-color:#9956F3"/>
		<stop  offset="0.5" style="stop-color:#8866F1"/>
		<stop  offset="0.5695" style="stop-color:#806DF0"/>
		<stop  offset="0.6795" style="stop-color:#6981ED"/>
		<stop  offset="0.8163" style="stop-color:#44A1E7"/>
		<stop  offset="0.9731" style="stop-color:#11CDE0"/>
		<stop  offset="1" style="stop-color:#07D5DF"/>
	</linearGradient>
	
		<path style="fill:none;stroke:url(#SVGID_00000121256849500495950530000008765868848486062980_);stroke-width:3;stroke-miterlimit:10;" d="
		M763.2,300H254.3c-16.6,0-30-13.4-30-30V54.4c0-16.6,13.4-30,30-30h508.9c16.6,0,30,13.4,30,30V270
		C793.2,286.6,779.8,300,763.2,300z"/>
</g>
</svg>
